<?xml version="1.0" encoding="UTF-8" standalone="no"?>
<!-- Created with Inkscape (http://www.inkscape.org/) -->

<svg
   width="210mm"
   height="297mm"
   viewBox="0 0 210 297"
   version="1.1"
   id="svg1"
   xml:space="preserve"
   inkscape:version="1.3.2 (091e20e, 2023-11-25, custom)"
   sodipodi:docname="logo.svg"
   xmlns:inkscape="http://www.inkscape.org/namespaces/inkscape"
   xmlns:sodipodi="http://sodipodi.sourceforge.net/DTD/sodipodi-0.dtd"
   xmlns="http://www.w3.org/2000/svg"
   xmlns:svg="http://www.w3.org/2000/svg"><sodipodi:namedview
     id="namedview1"
     pagecolor="#ffffff"
     bordercolor="#000000"
     borderopacity="0.25"
     inkscape:showpageshadow="2"
     inkscape:pageopacity="0.0"
     inkscape:pagecheckerboard="0"
     inkscape:deskcolor="#d1d1d1"
     inkscape:document-units="mm"
     inkscape:zoom="16.388211"
     inkscape:cx="25.933275"
     inkscape:cy="20.838149"
     inkscape:window-width="1920"
     inkscape:window-height="1009"
     inkscape:window-x="-8"
     inkscape:window-y="361"
     inkscape:window-maximized="1"
     inkscape:current-layer="layer1" /><defs
     id="defs1" /><g
     inkscape:label="Vrstva 1"
     inkscape:groupmode="layer"
     id="layer1"><path
       style="fill:#000000"
       d="M 3.6123213,7.9903053 C 3.0875147,7.9459437 2.5526645,7.7881556 2.0964711,7.543109 2.0235604,7.5039447 1.9352046,7.4570604 1.9001247,7.4389217 L 1.8363431,7.4059423 1.7570318,7.435968 C 1.5538021,7.5129069 1.3542505,7.4693918 1.1959752,7.3136216 0.94970225,7.0712466 1.0110192,6.6438746 1.3172748,6.468178 1.3961818,6.42291 1.5091774,6.407159 1.6532428,6.421346 c 0.1633829,0.01609 0.3009459,0.1159169 0.3858046,0.2799715 0.044844,0.086695 0.049638,0.1044863 0.05746,0.2132264 0.00469,0.065251 0.012486,0.1250704 0.017316,0.1329309 0.013283,0.021616 0.4550248,0.2355242 0.5993631,0.2902339 C 3.1175355,7.4909723 3.503291,7.5611464 3.9466159,7.5620858 4.5283006,7.5633186 4.9801256,7.456807 5.5143385,7.1925165 5.9048093,6.9993393 6.105986,6.853584 6.4258473,6.5321154 c 0.242607,-0.2438262 0.329074,-0.3471291 0.471243,-0.5629999 0.190626,-0.2894489 0.300942,-0.5201204 0.421406,-0.8811594 0.126505,-0.3791486 0.183363,-0.79269 0.168176,-1.2231884 -0.0081,-0.2308765 -0.04384,-0.5221652 -0.06682,-0.5452805 -0.0024,-0.00239 -0.170127,0.039284 -0.372781,0.092607 -0.8943923,0.2353362 -1.260934,0.3334508 -1.3277919,0.3554186 -0.074193,0.024378 -0.1251716,0.069082 -0.135064,0.1184385 -0.016291,0.081283 -0.017279,0.2779943 -0.0059,1.1753021 0.012944,1.0207733 0.00928,1.1804692 -0.028756,1.2544567 C 5.443307,6.5223599 5.1845925,6.551315 5.0129826,6.3757627 4.9469161,6.3081784 4.9557342,6.3236074 4.5718417,5.6038981 4.4834056,5.438101 4.3810254,5.2476662 4.34433,5.1807097 4.2849604,5.0723804 4.0592414,4.6525989 3.5837491,3.7662169 3.4999398,3.6099851 3.3624058,3.3543329 3.278118,3.198101 3.1938301,3.0418691 3.067936,2.8070865 2.9983533,2.6763619 2.9287705,2.5456372 2.8555946,2.4110598 2.8357402,2.3773009 c -0.019855,-0.033759 -0.036099,-0.066367 -0.036099,-0.072464 0,-0.0061 -0.00519,-0.011084 -0.011527,-0.011084 -0.00759,0 -0.011527,0.3144483 -0.011527,0.9201566 0,0.5632799 -0.00447,0.9443783 -0.011513,0.9826087 -0.027437,0.1488205 -0.1326269,0.2979479 -0.266981,0.3784974 -0.1154275,0.069202 -0.09481,0.063381 -1.98630485,0.5608388 -0.2351278,0.061838 -0.3221702,0.037873 -0.385058,-0.1060138 C 0.09742695,4.9627946 0.02704195,4.5995884 0.00963665,4.4256047 9.3465e-4,4.3386197 -0.00200435,4.1535156 0.00135285,3.9038655 0.00727955,3.4631296 0.01578195,3.395121 0.11350445,3.0067967 0.22825605,2.5508032 0.39284875,2.1775899 0.65453345,1.780016 1.1782187,0.98438837 1.9549084,0.41013554 2.857278,0.15139616 3.2363703,0.0426978 3.4572794,0.00995144 3.8688959,0.00143946 c 0.5341354,-0.0110456 0.8764568,0.0399875 1.3740049,0.20483603 0.2524351,0.0836373 0.4634698,0.18006883 0.7271913,0.33228769 l 0.086877,0.0501453 0.074506,-0.0308931 c 0.066597,-0.0276136 0.08919,-0.0308816 0.2128342,-0.0307845 0.156089,1.2256e-4 0.194656,0.0123376 0.306985,0.0972292 0.319165,0.24120585 0.272088,0.73144252 -0.08678,0.90370842 C 6.3851833,1.6140502 6.2209059,1.6041776 6.0524746,1.4971967 5.8872976,1.3922828 5.8082867,1.2406109 5.8082867,1.0284458 c 0,-0.0618727 -0.00279,-0.0689542 -0.037464,-0.095187 C 5.7243309,0.8980881 5.5229261,0.79667069 5.3471916,0.71993926 5.2041141,0.65746696 4.868775,0.5430286 4.8287898,0.5430286 c -0.013491,0 -0.038873,-0.00746 -0.056403,-0.0165777 C 4.7548567,0.51733311 4.6500711,0.49589022 4.53953,0.47879999 4.2749651,0.43789692 3.8407078,0.42686846 3.5815974,0.45447219 3.1656021,0.4987893 2.8031263,0.60476062 2.4250014,0.7926079 1.4208569,1.2914531 0.74994135,2.151017 0.50475625,3.2527887 c -0.063664,0.2860802 -0.072408,0.3745877 -0.073064,0.7395152 -6.038e-4,0.3358873 0.00541,0.4123943 0.047274,0.6012864 l 0.017629,0.079547 0.047776,-0.00754 C 0.62632545,4.6526733 2.1760903,4.2412387 2.2269429,4.2189089 2.2870223,4.1925275 2.3241258,4.1575746 2.3355246,4.1166207 2.3471773,4.0747547 2.346663,3.3721336 2.3343812,2.5546227 2.3219028,1.7240217 2.326751,1.6812908 2.4442434,1.586324 2.6167497,1.4468905 2.8344501,1.4943885 2.9656388,1.7000825 c 0.027266,0.042751 0.22604,0.4064243 0.4417202,0.8081634 0.2156803,0.4017392 0.5825911,1.0852174 0.8153574,1.5188406 0.2327664,0.4336232 0.4714259,0.8771015 0.5303547,0.9855073 0.058929,0.1084058 0.1473121,0.2727536 0.1964076,0.3652173 0.1137553,0.2142407 0.1757308,0.321428 0.191526,0.3312466 0.00892,0.00555 0.010237,-0.089431 0.00461,-0.3327572 C 5.1412847,5.1890154 5.1368847,4.7696952 5.1358347,4.4444778 5.1337547,3.7968642 5.1346847,3.7860707 5.2044067,3.6476805 5.2591927,3.5389397 5.4078524,3.4144129 5.551137,3.3572383 5.590611,3.3414873 6.5113053,3.0962827 7.3760103,2.871228 c 0.210132,-0.054691 0.273229,-0.055616 0.339238,-0.00498 0.02265,0.017379 0.04894,0.046674 0.05841,0.0651 0.02276,0.044276 0.06642,0.2212736 0.105823,0.4290683 0.03161,0.1667121 0.03188,0.1721339 0.03196,0.6492754 8.9e-5,0.5325424 2.07e-4,0.5314019 -0.09856,0.9505087 -0.11712,0.4970271 -0.35001,0.9959396 -0.665785,1.4263064 -0.172259,0.234771 -0.452683,0.5313164 -0.670222,0.7087545 C 5.864902,7.5944234 5.143497,7.8997053 4.3846555,7.9806403 4.2391021,7.9961644 3.7535222,8.002241 3.6123213,7.9903053 Z M 1.6681611,7.0862807 c 0.014862,-0.00972 0.040059,-0.046323 0.055993,-0.08133 0.028413,-0.062423 0.028599,-0.064632 0.00961,-0.1146301 -0.057928,-0.152561 -0.2635835,-0.1632776 -0.3218654,-0.016772 -0.022888,0.057535 -0.023545,0.095899 -0.00234,0.1367226 0.017795,0.034261 0.07167,0.088173 0.099012,0.099082 0.02766,0.011036 0.1300911,-0.00377 0.1595862,-0.023072 z M 6.4280293,1.1961051 c 0.07531,-0.056556 0.09781,-0.1516677 0.05538,-0.23418669 -0.04157,-0.0808542 -0.160344,-0.1091812 -0.2371985,-0.056571 -0.086643,0.0593104 -0.107537,0.13450709 -0.062019,0.22319959 0.03562,0.069405 0.089365,0.1018351 0.1580951,0.095395 0.03059,-0.00287 0.06917,-0.015393 0.08574,-0.027837 z"
       id="path1" /></g></svg>
