%TF.GenerationSoftware,KiCad,Pcbnew,8.0.5*%
%TF.CreationDate,2024-10-21T23:21:47+02:00*%
%TF.ProjectId,kyb_sat,6b79625f-7361-4742-9e6b-696361645f70,rev?*%
%TF.SameCoordinates,Original*%
%TF.FileFunction,Copper,L1,Top*%
%TF.FilePolarity,Positive*%
%FSLAX46Y46*%
G04 Gerber Fmt 4.6, Leading zero omitted, Abs format (unit mm)*
G04 Created by KiCad (PCBNEW 8.0.5) date 2024-10-21 23:21:47*
%MOMM*%
%LPD*%
G01*
G04 APERTURE LIST*
G04 Aperture macros list*
%AMRoundRect*
0 Rectangle with rounded corners*
0 $1 Rounding radius*
0 $2 $3 $4 $5 $6 $7 $8 $9 X,Y pos of 4 corners*
0 Add a 4 corners polygon primitive as box body*
4,1,4,$2,$3,$4,$5,$6,$7,$8,$9,$2,$3,0*
0 Add four circle primitives for the rounded corners*
1,1,$1+$1,$2,$3*
1,1,$1+$1,$4,$5*
1,1,$1+$1,$6,$7*
1,1,$1+$1,$8,$9*
0 Add four rect primitives between the rounded corners*
20,1,$1+$1,$2,$3,$4,$5,0*
20,1,$1+$1,$4,$5,$6,$7,0*
20,1,$1+$1,$6,$7,$8,$9,0*
20,1,$1+$1,$8,$9,$2,$3,0*%
%AMFreePoly0*
4,1,19,0.550000,-0.750000,0.000000,-0.750000,0.000000,-0.744911,-0.071157,-0.744911,-0.207708,-0.704816,-0.327430,-0.627875,-0.420627,-0.520320,-0.479746,-0.390866,-0.500000,-0.250000,-0.500000,0.250000,-0.479746,0.390866,-0.420627,0.520320,-0.327430,0.627875,-0.207708,0.704816,-0.071157,0.744911,0.000000,0.744911,0.000000,0.750000,0.550000,0.750000,0.550000,-0.750000,0.550000,-0.750000,
$1*%
%AMFreePoly1*
4,1,19,0.000000,0.744911,0.071157,0.744911,0.207708,0.704816,0.327430,0.627875,0.420627,0.520320,0.479746,0.390866,0.500000,0.250000,0.500000,-0.250000,0.479746,-0.390866,0.420627,-0.520320,0.327430,-0.627875,0.207708,-0.704816,0.071157,-0.744911,0.000000,-0.744911,0.000000,-0.750000,-0.550000,-0.750000,-0.550000,0.750000,0.000000,0.750000,0.000000,0.744911,0.000000,0.744911,
$1*%
G04 Aperture macros list end*
%TA.AperFunction,EtchedComponent*%
%ADD10C,0.000000*%
%TD*%
%TA.AperFunction,ComponentPad*%
%ADD11R,1.700000X1.700000*%
%TD*%
%TA.AperFunction,ComponentPad*%
%ADD12O,1.700000X1.700000*%
%TD*%
%TA.AperFunction,ComponentPad*%
%ADD13R,1.800000X1.800000*%
%TD*%
%TA.AperFunction,ComponentPad*%
%ADD14O,1.800000X1.800000*%
%TD*%
%TA.AperFunction,ComponentPad*%
%ADD15C,1.700000*%
%TD*%
%TA.AperFunction,ComponentPad*%
%ADD16R,2.800000X2.800000*%
%TD*%
%TA.AperFunction,ComponentPad*%
%ADD17C,0.700000*%
%TD*%
%TA.AperFunction,ComponentPad*%
%ADD18C,4.400000*%
%TD*%
%TA.AperFunction,SMDPad,CuDef*%
%ADD19FreePoly0,90.000000*%
%TD*%
%TA.AperFunction,SMDPad,CuDef*%
%ADD20R,1.500000X1.000000*%
%TD*%
%TA.AperFunction,SMDPad,CuDef*%
%ADD21FreePoly1,90.000000*%
%TD*%
%TA.AperFunction,SMDPad,CuDef*%
%ADD22RoundRect,0.237500X-0.250000X-0.237500X0.250000X-0.237500X0.250000X0.237500X-0.250000X0.237500X0*%
%TD*%
%TA.AperFunction,SMDPad,CuDef*%
%ADD23FreePoly0,270.000000*%
%TD*%
%TA.AperFunction,SMDPad,CuDef*%
%ADD24FreePoly1,270.000000*%
%TD*%
%TA.AperFunction,ComponentPad*%
%ADD25O,1.700000X1.500000*%
%TD*%
%TA.AperFunction,ComponentPad*%
%ADD26RoundRect,0.250001X-0.799999X-0.799999X0.799999X-0.799999X0.799999X0.799999X-0.799999X0.799999X0*%
%TD*%
%TA.AperFunction,ComponentPad*%
%ADD27C,2.100000*%
%TD*%
%TA.AperFunction,ViaPad*%
%ADD28C,0.500000*%
%TD*%
%TA.AperFunction,ViaPad*%
%ADD29C,1.000000*%
%TD*%
%TA.AperFunction,Conductor*%
%ADD30C,0.800000*%
%TD*%
%TA.AperFunction,Conductor*%
%ADD31C,0.400000*%
%TD*%
%TA.AperFunction,Conductor*%
%ADD32C,1.000000*%
%TD*%
%TA.AperFunction,Conductor*%
%ADD33C,0.600000*%
%TD*%
G04 APERTURE END LIST*
D10*
%TA.AperFunction,EtchedComponent*%
%TO.C,JP1*%
G36*
X91740000Y-121550000D02*
G01*
X91140000Y-121550000D01*
X91140000Y-121050000D01*
X91740000Y-121050000D01*
X91740000Y-121550000D01*
G37*
%TD.AperFunction*%
%TA.AperFunction,EtchedComponent*%
%TO.C,JP3*%
G36*
X162860000Y-121550000D02*
G01*
X162260000Y-121550000D01*
X162260000Y-121050000D01*
X162860000Y-121050000D01*
X162860000Y-121550000D01*
G37*
%TD.AperFunction*%
%TA.AperFunction,EtchedComponent*%
%TO.C,JP2*%
G36*
X91740000Y-132950000D02*
G01*
X91140000Y-132950000D01*
X91140000Y-132450000D01*
X91740000Y-132450000D01*
X91740000Y-132950000D01*
G37*
%TD.AperFunction*%
%TA.AperFunction,EtchedComponent*%
%TO.C,JP4*%
G36*
X162860000Y-132950000D02*
G01*
X162260000Y-132950000D01*
X162260000Y-132450000D01*
X162860000Y-132450000D01*
X162860000Y-132950000D01*
G37*
%TD.AperFunction*%
%TD*%
D11*
%TO.P,SW1,1,A*%
%TO.N,unconnected-(SW1-A-Pad1)*%
X139700000Y-95250000D03*
D12*
%TO.P,SW1,2,B*%
%TO.N,/3V3_EN*%
X139700000Y-92710000D03*
%TO.P,SW1,3,C*%
%TO.N,GND*%
X139700000Y-90170000D03*
%TD*%
D13*
%TO.P,D1,1,K*%
%TO.N,VSYS*%
X132080000Y-140970000D03*
D14*
%TO.P,D1,2,A*%
%TO.N,Net-(D1-A)*%
X121920000Y-140970000D03*
%TD*%
D11*
%TO.P,J1,1,Pin_1*%
%TO.N,/PA7*%
X118110000Y-88900000D03*
D12*
%TO.P,J1,2,Pin_2*%
%TO.N,unconnected-(J1-Pin_2-Pad2)*%
X118110000Y-91440000D03*
%TO.P,J1,3,Pin_3*%
%TO.N,GND*%
X118110000Y-93980000D03*
%TO.P,J1,4,Pin_4*%
%TO.N,unconnected-(J1-Pin_4-Pad4)*%
X118110000Y-96520000D03*
%TO.P,J1,5,Pin_5*%
%TO.N,unconnected-(J1-Pin_5-Pad5)*%
X118110000Y-99060000D03*
%TO.P,J1,6,Pin_6*%
%TO.N,unconnected-(J1-Pin_6-Pad6)*%
X118110000Y-101600000D03*
%TO.P,J1,7,Pin_7*%
%TO.N,unconnected-(J1-Pin_7-Pad7)*%
X118110000Y-104140000D03*
%TO.P,J1,8,Pin_8*%
%TO.N,GND*%
X118110000Y-106680000D03*
%TO.P,J1,9,Pin_9*%
%TO.N,/PA5*%
X118110000Y-109220000D03*
%TO.P,J1,10,Pin_10*%
%TO.N,/PA6*%
X118110000Y-111760000D03*
%TO.P,J1,11,Pin_11*%
%TO.N,/PA0*%
X118110000Y-114300000D03*
%TO.P,J1,12,Pin_12*%
%TO.N,/PA1*%
X118110000Y-116840000D03*
%TO.P,J1,13,Pin_13*%
%TO.N,GND*%
X118110000Y-119380000D03*
%TO.P,J1,14,Pin_14*%
%TO.N,/PB5*%
X118110000Y-121920000D03*
%TO.P,J1,15,Pin_15*%
%TO.N,/PB6*%
X118110000Y-124460000D03*
%TO.P,J1,16,Pin_16*%
%TO.N,/PB7*%
X118110000Y-127000000D03*
%TO.P,J1,17,Pin_17*%
%TO.N,unconnected-(J1-Pin_17-Pad17)*%
X118110000Y-129540000D03*
%TO.P,J1,18,Pin_18*%
%TO.N,GND*%
X118110000Y-132080000D03*
%TO.P,J1,19,Pin_19*%
%TO.N,/PA2*%
X118110000Y-134620000D03*
%TO.P,J1,20,Pin_20*%
%TO.N,/PA3*%
X118110000Y-137160000D03*
%TD*%
D15*
%TO.P,J6,1,Pin_1*%
%TO.N,/PB0*%
X172720000Y-111760000D03*
D12*
%TO.P,J6,2,Pin_2*%
%TO.N,/PB1*%
X172720000Y-114300000D03*
%TO.P,J6,3,Pin_3*%
%TO.N,/PB2*%
X172720000Y-116840000D03*
%TO.P,J6,4,Pin_4*%
%TO.N,/PB3*%
X172720000Y-119380000D03*
%TD*%
D15*
%TO.P,J5,1,Pin_1*%
%TO.N,/PA4*%
X81280000Y-134620000D03*
D12*
%TO.P,J5,2,Pin_2*%
%TO.N,/PA5*%
X81280000Y-137160000D03*
%TO.P,J5,3,Pin_3*%
%TO.N,/PA6*%
X81280000Y-139700000D03*
%TO.P,J5,4,Pin_4*%
%TO.N,/PA7*%
X81280000Y-142240000D03*
%TD*%
D16*
%TO.P,U1,1,VIN*%
%TO.N,VBUS*%
X139412500Y-159512500D03*
%TO.P,U1,2,GND*%
%TO.N,GND*%
X139412500Y-145312500D03*
%TO.P,U1,3,GND*%
X116512500Y-145012500D03*
%TO.P,U1,4,B-*%
%TO.N,Net-(BT1--)*%
X116512500Y-148412500D03*
%TO.P,U1,5,B+*%
%TO.N,Net-(BT1-+)*%
X116512500Y-156012500D03*
%TO.P,U1,6,VOUT*%
%TO.N,Net-(D1-A)*%
X116512500Y-159512500D03*
%TD*%
D17*
%TO.P,H2,1,1*%
%TO.N,GND*%
X150750000Y-127000000D03*
X151233274Y-125833274D03*
X151233274Y-128166726D03*
X152400000Y-125350000D03*
D18*
X152400000Y-127000000D03*
D17*
X152400000Y-128650000D03*
X153566726Y-125833274D03*
X153566726Y-128166726D03*
X154050000Y-127000000D03*
%TD*%
D11*
%TO.P,J4,1,Pin_1*%
%TO.N,/PWRA0*%
X81280000Y-123190000D03*
D12*
%TO.P,J4,2,Pin_2*%
%TO.N,GND*%
X81280000Y-125730000D03*
%TO.P,J4,3,Pin_3*%
X81280000Y-128270000D03*
D11*
%TO.P,J4,4,Pin_4*%
%TO.N,/PWRA1*%
X81280000Y-130810000D03*
%TD*%
D19*
%TO.P,JP1,1,A*%
%TO.N,+3V3*%
X91440000Y-121950000D03*
D20*
%TO.P,JP1,2,C*%
%TO.N,/PWRA0*%
X91440000Y-120650000D03*
D21*
%TO.P,JP1,3,B*%
%TO.N,VSYS*%
X91440000Y-119350000D03*
%TD*%
D19*
%TO.P,JP3,1,A*%
%TO.N,+3V3*%
X162560000Y-121950000D03*
D20*
%TO.P,JP3,2,C*%
%TO.N,/PWRB0*%
X162560000Y-120650000D03*
D21*
%TO.P,JP3,3,B*%
%TO.N,VSYS*%
X162560000Y-119350000D03*
%TD*%
D11*
%TO.P,J7,1,Pin_1*%
%TO.N,/PWRB0*%
X172720000Y-123190000D03*
D12*
%TO.P,J7,2,Pin_2*%
%TO.N,GND*%
X172720000Y-125730000D03*
%TO.P,J7,3,Pin_3*%
X172720000Y-128270000D03*
D11*
%TO.P,J7,4,Pin_4*%
%TO.N,/PWRB1*%
X172720000Y-130810000D03*
%TD*%
%TO.P,SC2,1,+*%
%TO.N,Net-(SC1-+)*%
X162560000Y-128275000D03*
D12*
%TO.P,SC2,2,-*%
%TO.N,GND*%
X162560000Y-125735000D03*
%TD*%
D22*
%TO.P,R2,1*%
%TO.N,Net-(D1-A)*%
X134977500Y-142240000D03*
%TO.P,R2,2*%
%TO.N,VBAT*%
X136802500Y-142240000D03*
%TD*%
D15*
%TO.P,U2,1,IN*%
%TO.N,Net-(SC1-+)*%
X124460000Y-137160000D03*
%TO.P,U2,2,GND*%
%TO.N,GND*%
X127000000Y-137160000D03*
%TO.P,U2,3,OUT*%
%TO.N,VBUS*%
X129540000Y-137160000D03*
%TD*%
D22*
%TO.P,R1,1*%
%TO.N,VBAT*%
X138787500Y-142240000D03*
%TO.P,R1,2*%
%TO.N,GND*%
X140612500Y-142240000D03*
%TD*%
D23*
%TO.P,JP2,1,A*%
%TO.N,+3V3*%
X91440000Y-132050000D03*
D20*
%TO.P,JP2,2,C*%
%TO.N,/PWRA1*%
X91440000Y-133350000D03*
D24*
%TO.P,JP2,3,B*%
%TO.N,VSYS*%
X91440000Y-134650000D03*
%TD*%
D15*
%TO.P,J3,1,Pin_1*%
%TO.N,/PA0*%
X81280000Y-111760000D03*
D12*
%TO.P,J3,2,Pin_2*%
%TO.N,/PA1*%
X81280000Y-114300000D03*
%TO.P,J3,3,Pin_3*%
%TO.N,/PA2*%
X81280000Y-116840000D03*
%TO.P,J3,4,Pin_4*%
%TO.N,/PA3*%
X81280000Y-119380000D03*
%TD*%
D11*
%TO.P,J2,1,Pin_1*%
%TO.N,VBUS*%
X135890000Y-88900000D03*
D12*
%TO.P,J2,2,Pin_2*%
%TO.N,VSYS*%
X135890000Y-91440000D03*
%TO.P,J2,3,Pin_3*%
%TO.N,GND*%
X135890000Y-93980000D03*
%TO.P,J2,4,Pin_4*%
%TO.N,/3V3_EN*%
X135890000Y-96520000D03*
%TO.P,J2,5,Pin_5*%
%TO.N,+3V3*%
X135890000Y-99060000D03*
%TO.P,J2,6,Pin_6*%
%TO.N,unconnected-(J2-Pin_6-Pad6)*%
X135890000Y-101600000D03*
%TO.P,J2,7,Pin_7*%
%TO.N,VBAT*%
X135890000Y-104140000D03*
%TO.P,J2,8,Pin_8*%
%TO.N,GND*%
X135890000Y-106680000D03*
%TO.P,J2,9,Pin_9*%
%TO.N,/PB4*%
X135890000Y-109220000D03*
%TO.P,J2,10,Pin_10*%
%TO.N,/PA4*%
X135890000Y-111760000D03*
%TO.P,J2,11,Pin_11*%
%TO.N,unconnected-(J2-Pin_11-Pad11)*%
X135890000Y-114300000D03*
%TO.P,J2,12,Pin_12*%
%TO.N,unconnected-(J2-Pin_12-Pad12)*%
X135890000Y-116840000D03*
%TO.P,J2,13,Pin_13*%
%TO.N,GND*%
X135890000Y-119380000D03*
D25*
%TO.P,J2,14,Pin_14*%
%TO.N,unconnected-(J2-Pin_14-Pad14)*%
X135890000Y-121920000D03*
%TO.P,J2,15,Pin_15*%
%TO.N,unconnected-(J2-Pin_15-Pad15)*%
X135890000Y-124460000D03*
D12*
%TO.P,J2,16,Pin_16*%
%TO.N,/PB3*%
X135890000Y-127000000D03*
%TO.P,J2,17,Pin_17*%
%TO.N,/PB2*%
X135890000Y-129540000D03*
%TO.P,J2,18,Pin_18*%
%TO.N,GND*%
X135890000Y-132080000D03*
%TO.P,J2,19,Pin_19*%
%TO.N,/PB1*%
X135890000Y-134620000D03*
%TO.P,J2,20,Pin_20*%
%TO.N,/PB0*%
X135890000Y-137160000D03*
%TD*%
D11*
%TO.P,SC1,1,+*%
%TO.N,Net-(SC1-+)*%
X91440000Y-128270000D03*
D12*
%TO.P,SC1,2,-*%
%TO.N,GND*%
X91440000Y-125730000D03*
%TD*%
D15*
%TO.P,J8,1,Pin_1*%
%TO.N,/PB4*%
X172720000Y-134620000D03*
D12*
%TO.P,J8,2,Pin_2*%
%TO.N,/PB5*%
X172720000Y-137160000D03*
%TO.P,J8,3,Pin_3*%
%TO.N,/PB6*%
X172720000Y-139700000D03*
%TO.P,J8,4,Pin_4*%
%TO.N,/PB7*%
X172720000Y-142240000D03*
%TD*%
D17*
%TO.P,H1,1,1*%
%TO.N,GND*%
X99950000Y-127000000D03*
X100433274Y-125833274D03*
X100433274Y-128166726D03*
X101600000Y-125350000D03*
D18*
X101600000Y-127000000D03*
D17*
X101600000Y-128650000D03*
X102766726Y-125833274D03*
X102766726Y-128166726D03*
X103250000Y-127000000D03*
%TD*%
D23*
%TO.P,JP4,1,A*%
%TO.N,+3V3*%
X162560000Y-132050000D03*
D20*
%TO.P,JP4,2,C*%
%TO.N,/PWRB1*%
X162560000Y-133350000D03*
D24*
%TO.P,JP4,3,B*%
%TO.N,VSYS*%
X162560000Y-134650000D03*
%TD*%
D26*
%TO.P,BT1,1,+*%
%TO.N,Net-(BT1-+)*%
X124700000Y-125095000D03*
D27*
%TO.P,BT1,2,-*%
%TO.N,Net-(BT1--)*%
X129300000Y-125095000D03*
%TD*%
D28*
%TO.N,VBAT*%
X134620000Y-135890000D03*
X137795000Y-142240000D03*
%TO.N,Net-(D1-A)*%
X121920000Y-144145000D03*
X131445000Y-144145000D03*
D29*
%TO.N,+3V3*%
X133350000Y-136525000D03*
X139065000Y-120015000D03*
%TO.N,VSYS*%
X152400000Y-120650000D03*
X158115000Y-120650000D03*
%TO.N,+3V3*%
X116840000Y-141605000D03*
X114300000Y-139065000D03*
D28*
%TO.N,VSYS*%
X91440000Y-134650000D03*
%TO.N,+3V3*%
X91440000Y-132050000D03*
%TO.N,GND*%
X96520000Y-120650000D03*
X127000000Y-145415000D03*
X87630000Y-142240000D03*
X91440000Y-111760000D03*
X86360000Y-120650000D03*
X86360000Y-133985000D03*
D29*
%TO.N,Net-(SC1-+)*%
X131445000Y-138430000D03*
X148907500Y-124142500D03*
D28*
%TO.N,GND*%
X126365000Y-129540000D03*
%TO.N,+3V3*%
X162560000Y-121950000D03*
%TO.N,GND*%
X127000000Y-127000000D03*
X129540000Y-132080000D03*
%TO.N,/PB3*%
X147955000Y-119380000D03*
%TO.N,/PB0*%
X151765000Y-117430000D03*
%TO.N,/PB1*%
X150495000Y-118080000D03*
%TO.N,/PB2*%
X149225000Y-118730000D03*
%TO.N,/PA1*%
X110490000Y-123840000D03*
%TO.N,/PA0*%
X109220000Y-123205000D03*
D29*
%TO.N,GND*%
X135890000Y-83820000D03*
X118110000Y-83820000D03*
D28*
%TO.N,/PA3*%
X104140000Y-123205000D03*
%TO.N,/PA2*%
X106680000Y-123205000D03*
%TO.N,/PA7*%
X83820000Y-136510000D03*
D29*
%TO.N,Net-(BT1--)*%
X124460000Y-148590000D03*
%TD*%
D30*
%TO.N,Net-(SC1-+)*%
X147955000Y-125095000D02*
X148907500Y-124142500D01*
X144145000Y-125095000D02*
X147955000Y-125095000D01*
X140335000Y-128905000D02*
X144145000Y-125095000D01*
X132080000Y-139065000D02*
X136525000Y-139065000D01*
X131445000Y-138430000D02*
X132080000Y-139065000D01*
X140335000Y-135255000D02*
X140335000Y-128905000D01*
X136525000Y-139065000D02*
X140335000Y-135255000D01*
D31*
%TO.N,/3V3_EN*%
X139700000Y-92710000D02*
X135890000Y-96520000D01*
%TO.N,VBAT*%
X140335000Y-122555000D02*
X140335000Y-108585000D01*
X134050000Y-126935000D02*
X135255000Y-125730000D01*
X137160000Y-125730000D02*
X140335000Y-122555000D01*
X140335000Y-108585000D02*
X135890000Y-104140000D01*
X134050000Y-135320000D02*
X134050000Y-126935000D01*
X134620000Y-135890000D02*
X134050000Y-135320000D01*
X135255000Y-125730000D02*
X137160000Y-125730000D01*
%TO.N,/PB3*%
X145415000Y-121920000D02*
X147955000Y-119380000D01*
X142240000Y-121920000D02*
X145415000Y-121920000D01*
X137160000Y-127000000D02*
X142240000Y-121920000D01*
X135890000Y-127000000D02*
X137160000Y-127000000D01*
%TO.N,/PB2*%
X149225000Y-119380000D02*
X149225000Y-118730000D01*
X146050000Y-122555000D02*
X149225000Y-119380000D01*
X142875000Y-122555000D02*
X146050000Y-122555000D01*
X135890000Y-129540000D02*
X142875000Y-122555000D01*
%TO.N,/PB1*%
X143510000Y-123190000D02*
X146685000Y-123190000D01*
X138430000Y-128270000D02*
X143510000Y-123190000D01*
X138430000Y-132080000D02*
X138430000Y-128270000D01*
%TO.N,/PB0*%
X139065000Y-128905000D02*
X144145000Y-123825000D01*
X144145000Y-123825000D02*
X147320000Y-123825000D01*
X139065000Y-133985000D02*
X139065000Y-128905000D01*
D30*
%TO.N,VSYS*%
X144780000Y-126365000D02*
X148240635Y-126365000D01*
X148240635Y-126365000D02*
X152400000Y-122205635D01*
X152400000Y-122205635D02*
X152400000Y-120650000D01*
X141605000Y-129540000D02*
X144780000Y-126365000D01*
X141605000Y-135890000D02*
X141605000Y-129540000D01*
X132080000Y-140970000D02*
X136525000Y-140970000D01*
X136525000Y-140970000D02*
X141605000Y-135890000D01*
D31*
%TO.N,/PB1*%
X146685000Y-123190000D02*
X150495000Y-119380000D01*
X150495000Y-119380000D02*
X150495000Y-118080000D01*
X135890000Y-134620000D02*
X138430000Y-132080000D01*
%TO.N,/PB0*%
X147320000Y-123825000D02*
X151765000Y-119380000D01*
X151765000Y-119380000D02*
X151765000Y-117430000D01*
X135890000Y-137160000D02*
X139065000Y-133985000D01*
%TO.N,VBAT*%
X136802500Y-142240000D02*
X138787500Y-142240000D01*
D32*
%TO.N,Net-(D1-A)*%
X121920000Y-144145000D02*
X121920000Y-140970000D01*
X121920000Y-156845000D02*
X121920000Y-144145000D01*
D31*
X134977500Y-142240000D02*
X133350000Y-142240000D01*
X133350000Y-142240000D02*
X131445000Y-144145000D01*
D33*
%TO.N,+3V3*%
X139065000Y-121285000D02*
X139065000Y-120015000D01*
X137160000Y-123190000D02*
X139065000Y-121285000D01*
X133350000Y-125095000D02*
X135255000Y-123190000D01*
X133350000Y-136525000D02*
X133350000Y-125095000D01*
X135255000Y-123190000D02*
X137160000Y-123190000D01*
D32*
%TO.N,VBUS*%
X133350000Y-91440000D02*
X133350000Y-123190000D01*
X133350000Y-123190000D02*
X132080000Y-124460000D01*
X132080000Y-124460000D02*
X132080000Y-133985000D01*
X135890000Y-88900000D02*
X133350000Y-91440000D01*
X132080000Y-133985000D02*
X129540000Y-136525000D01*
D33*
%TO.N,VSYS*%
X158115000Y-120650000D02*
X160655000Y-120650000D01*
X160655000Y-120650000D02*
X160655000Y-122555000D01*
X160655000Y-120015000D02*
X160655000Y-120650000D01*
%TO.N,+3V3*%
X114300000Y-139065000D02*
X116840000Y-141605000D01*
%TO.N,VSYS*%
X160655000Y-131445000D02*
X160655000Y-133985000D01*
X161290000Y-130810000D02*
X160655000Y-131445000D01*
X160655000Y-133985000D02*
X161320000Y-134650000D01*
X163830000Y-130810000D02*
X161290000Y-130810000D01*
X164465000Y-123825000D02*
X164465000Y-130175000D01*
X163830000Y-123190000D02*
X164465000Y-123825000D01*
X164465000Y-130175000D02*
X163830000Y-130810000D01*
X161290000Y-123190000D02*
X163830000Y-123190000D01*
X161320000Y-134650000D02*
X162560000Y-134650000D01*
X160655000Y-122555000D02*
X161290000Y-123190000D01*
X161320000Y-119350000D02*
X160655000Y-120015000D01*
X162560000Y-119350000D02*
X161320000Y-119350000D01*
%TO.N,+3V3*%
X164495000Y-132050000D02*
X162560000Y-132050000D01*
X165735000Y-130810000D02*
X164495000Y-132050000D01*
X165735000Y-123190000D02*
X165735000Y-130810000D01*
X162560000Y-121950000D02*
X164495000Y-121950000D01*
X164495000Y-121950000D02*
X165735000Y-123190000D01*
%TO.N,/PWRB1*%
X165100000Y-133350000D02*
X162560000Y-133350000D01*
X172720000Y-130810000D02*
X167640000Y-130810000D01*
X167640000Y-130810000D02*
X165100000Y-133350000D01*
%TO.N,/PWRB0*%
X167640000Y-123190000D02*
X165100000Y-120650000D01*
X172720000Y-123190000D02*
X167640000Y-123190000D01*
X165100000Y-120650000D02*
X162560000Y-120650000D01*
D31*
%TO.N,/PA0*%
X114935000Y-122555000D02*
X114935000Y-117475000D01*
X109235000Y-123190000D02*
X114300000Y-123190000D01*
X114935000Y-117475000D02*
X118110000Y-114300000D01*
X109220000Y-123205000D02*
X109235000Y-123190000D01*
X114300000Y-123190000D02*
X114935000Y-122555000D01*
%TO.N,/PA1*%
X115570000Y-119380000D02*
X118110000Y-116840000D01*
X115570000Y-122555000D02*
X115570000Y-122768528D01*
X114935000Y-123825000D02*
X115570000Y-123190000D01*
X115570000Y-122768528D02*
X115570000Y-119380000D01*
X110490000Y-123840000D02*
X110505000Y-123825000D01*
X110505000Y-123825000D02*
X114935000Y-123825000D01*
X115570000Y-123190000D02*
X115570000Y-122555000D01*
%TO.N,/PA6*%
X100330000Y-122555000D02*
X97790000Y-125095000D01*
X113665000Y-122555000D02*
X100330000Y-122555000D01*
X114300000Y-121920000D02*
X113665000Y-122555000D01*
X97790000Y-134620000D02*
X92710000Y-139700000D01*
X92710000Y-139700000D02*
X81280000Y-139700000D01*
X114300000Y-115570000D02*
X114300000Y-121920000D01*
X97790000Y-125095000D02*
X97790000Y-134620000D01*
X118110000Y-111760000D02*
X114300000Y-115570000D01*
%TO.N,/PA5*%
X93980000Y-137160000D02*
X81280000Y-137160000D01*
X99695000Y-121920000D02*
X97155000Y-124460000D01*
X113030000Y-121920000D02*
X99695000Y-121920000D01*
X113665000Y-113665000D02*
X113665000Y-121285000D01*
X113665000Y-121285000D02*
X113030000Y-121920000D01*
X97155000Y-133985000D02*
X93980000Y-137160000D01*
X118110000Y-109220000D02*
X113665000Y-113665000D01*
X97155000Y-124460000D02*
X97155000Y-133985000D01*
%TO.N,/PA7*%
X83835000Y-136525000D02*
X83820000Y-136510000D01*
X96520000Y-133350000D02*
X93345000Y-136525000D01*
X93345000Y-136525000D02*
X83835000Y-136525000D01*
X96520000Y-123825000D02*
X96520000Y-133350000D01*
X99060000Y-121285000D02*
X96520000Y-123825000D01*
X112395000Y-121285000D02*
X99060000Y-121285000D01*
X113030000Y-120650000D02*
X112395000Y-121285000D01*
X118110000Y-88900000D02*
X113030000Y-93980000D01*
X113030000Y-93980000D02*
X113030000Y-120650000D01*
D32*
%TO.N,Net-(BT1-+)*%
X120650000Y-85580786D02*
X122410786Y-83820000D01*
X120650000Y-96520000D02*
X120650000Y-85580786D01*
X120650000Y-114935000D02*
X120650000Y-96520000D01*
X120650000Y-123190000D02*
X120650000Y-114935000D01*
X122555000Y-125095000D02*
X120650000Y-123190000D01*
X122410786Y-83820000D02*
X125095000Y-83820000D01*
X124700000Y-125095000D02*
X122555000Y-125095000D01*
D31*
%TO.N,/PA3*%
X104155000Y-123205000D02*
X104140000Y-123205000D01*
X105410000Y-124460000D02*
X104155000Y-123205000D01*
%TO.N,/PA2*%
X106680000Y-123190000D02*
X106680000Y-123205000D01*
X118110000Y-134620000D02*
X106680000Y-123190000D01*
%TO.N,/PA3*%
X118110000Y-137160000D02*
X105410000Y-124460000D01*
D32*
%TO.N,Net-(D1-A)*%
X119252500Y-159512500D02*
X121920000Y-156845000D01*
X116512500Y-159512500D02*
X119252500Y-159512500D01*
D33*
%TO.N,VSYS*%
X91440000Y-119350000D02*
X92680000Y-119350000D01*
X93345000Y-133985000D02*
X92680000Y-134650000D01*
X92680000Y-119350000D02*
X93345000Y-120015000D01*
X93345000Y-120015000D02*
X93345000Y-122555000D01*
X93345000Y-131445000D02*
X93345000Y-133985000D01*
X89535000Y-130175000D02*
X90170000Y-130810000D01*
X90170000Y-130810000D02*
X92710000Y-130810000D01*
X92710000Y-130810000D02*
X93345000Y-131445000D01*
X92710000Y-123190000D02*
X90170000Y-123190000D01*
X90170000Y-123190000D02*
X89535000Y-123825000D01*
X93345000Y-122555000D02*
X92710000Y-123190000D01*
X89535000Y-123825000D02*
X89535000Y-130175000D01*
X92680000Y-134650000D02*
X91440000Y-134650000D01*
%TO.N,+3V3*%
X88265000Y-123190000D02*
X88265000Y-130810000D01*
X89505000Y-132050000D02*
X91440000Y-132050000D01*
X91440000Y-121950000D02*
X89505000Y-121950000D01*
X88265000Y-130810000D02*
X89505000Y-132050000D01*
X89505000Y-121950000D02*
X88265000Y-123190000D01*
D32*
%TO.N,VBUS*%
X139412500Y-159512500D02*
X132207500Y-159512500D01*
X129540000Y-156845000D02*
X129540000Y-136525000D01*
X132207500Y-159512500D02*
X129540000Y-156845000D01*
%TO.N,Net-(BT1-+)*%
X120320000Y-135585000D02*
X120320000Y-154000000D01*
X124700000Y-131205000D02*
X120320000Y-135585000D01*
X118307500Y-156012500D02*
X116512500Y-156012500D01*
X124700000Y-125095000D02*
X124700000Y-131205000D01*
X120320000Y-154000000D02*
X118307500Y-156012500D01*
%TO.N,Net-(BT1--)*%
X129300000Y-129145000D02*
X121920000Y-136525000D01*
X121920000Y-136525000D02*
X121920000Y-138430000D01*
X124460000Y-140970000D02*
X124460000Y-148590000D01*
X129300000Y-125095000D02*
X129300000Y-129145000D01*
X121920000Y-138430000D02*
X124460000Y-140970000D01*
D33*
%TO.N,/PWRA1*%
X86360000Y-130810000D02*
X88900000Y-133350000D01*
X88900000Y-133350000D02*
X91440000Y-133350000D01*
X81280000Y-130810000D02*
X86360000Y-130810000D01*
%TO.N,/PWRA0*%
X88900000Y-120650000D02*
X91440000Y-120650000D01*
X86360000Y-123190000D02*
X88900000Y-120650000D01*
X81280000Y-123190000D02*
X86360000Y-123190000D01*
%TD*%
%TA.AperFunction,Conductor*%
%TO.N,GND*%
G36*
X166740703Y-123423227D02*
G01*
X166747181Y-123429259D01*
X167018211Y-123700289D01*
X167100091Y-123782169D01*
X167129712Y-123811790D01*
X167260814Y-123899390D01*
X167260827Y-123899397D01*
X167362022Y-123941313D01*
X167362023Y-123941313D01*
X167406502Y-123959737D01*
X167538982Y-123986089D01*
X167561152Y-123990499D01*
X167561155Y-123990500D01*
X167561157Y-123990500D01*
X167561158Y-123990500D01*
X171247649Y-123990500D01*
X171314688Y-124010185D01*
X171360443Y-124062989D01*
X171370939Y-124101248D01*
X171375908Y-124147483D01*
X171426202Y-124282328D01*
X171426206Y-124282335D01*
X171512452Y-124397544D01*
X171512455Y-124397547D01*
X171627664Y-124483793D01*
X171627671Y-124483797D01*
X171689902Y-124507007D01*
X171759598Y-124533002D01*
X171815531Y-124574873D01*
X171839949Y-124640337D01*
X171825098Y-124708610D01*
X171803947Y-124736865D01*
X171681886Y-124858926D01*
X171546400Y-125052420D01*
X171546399Y-125052422D01*
X171446570Y-125266507D01*
X171446567Y-125266513D01*
X171389364Y-125479999D01*
X171389364Y-125480000D01*
X172286988Y-125480000D01*
X172254075Y-125537007D01*
X172220000Y-125664174D01*
X172220000Y-125795826D01*
X172254075Y-125922993D01*
X172286988Y-125980000D01*
X171389364Y-125980000D01*
X171446567Y-126193486D01*
X171446570Y-126193492D01*
X171546399Y-126407578D01*
X171681894Y-126601082D01*
X171848917Y-126768105D01*
X172035031Y-126898425D01*
X172078656Y-126953003D01*
X172085848Y-127022501D01*
X172054326Y-127084856D01*
X172035031Y-127101575D01*
X171848922Y-127231890D01*
X171848920Y-127231891D01*
X171681891Y-127398920D01*
X171681886Y-127398926D01*
X171546400Y-127592420D01*
X171546399Y-127592422D01*
X171446570Y-127806507D01*
X171446567Y-127806513D01*
X171389364Y-128019999D01*
X171389364Y-128020000D01*
X172286988Y-128020000D01*
X172254075Y-128077007D01*
X172220000Y-128204174D01*
X172220000Y-128335826D01*
X172254075Y-128462993D01*
X172286988Y-128520000D01*
X171389364Y-128520000D01*
X171446567Y-128733486D01*
X171446570Y-128733492D01*
X171546399Y-128947578D01*
X171681894Y-129141082D01*
X171803946Y-129263134D01*
X171837431Y-129324457D01*
X171832447Y-129394149D01*
X171790575Y-129450082D01*
X171759598Y-129466997D01*
X171627671Y-129516202D01*
X171627664Y-129516206D01*
X171512455Y-129602452D01*
X171512452Y-129602455D01*
X171426206Y-129717664D01*
X171426202Y-129717671D01*
X171379301Y-129843422D01*
X171375909Y-129852517D01*
X171370937Y-129898757D01*
X171344201Y-129963306D01*
X171286809Y-130003154D01*
X171247649Y-130009500D01*
X167561154Y-130009500D01*
X167406509Y-130040261D01*
X167406497Y-130040264D01*
X167363832Y-130057936D01*
X167363833Y-130057937D01*
X167260823Y-130100604D01*
X167260814Y-130100609D01*
X167129712Y-130188209D01*
X167129710Y-130188212D01*
X166747181Y-130570741D01*
X166685858Y-130604226D01*
X166616166Y-130599242D01*
X166560233Y-130557370D01*
X166535816Y-130491906D01*
X166535500Y-130483060D01*
X166535500Y-123516940D01*
X166555185Y-123449901D01*
X166607989Y-123404146D01*
X166677147Y-123394202D01*
X166740703Y-123423227D01*
G37*
%TD.AperFunction*%
%TA.AperFunction,Conductor*%
G36*
X172970000Y-127836988D02*
G01*
X172912993Y-127804075D01*
X172785826Y-127770000D01*
X172654174Y-127770000D01*
X172527007Y-127804075D01*
X172470000Y-127836988D01*
X172470000Y-126163012D01*
X172527007Y-126195925D01*
X172654174Y-126230000D01*
X172785826Y-126230000D01*
X172912993Y-126195925D01*
X172970000Y-126163012D01*
X172970000Y-127836988D01*
G37*
%TD.AperFunction*%
%TA.AperFunction,Conductor*%
G36*
X123619570Y-81800185D02*
G01*
X123665325Y-81852989D01*
X123675269Y-81922147D01*
X123648385Y-81983164D01*
X123610522Y-82029299D01*
X123610499Y-82029329D01*
X123580981Y-82069129D01*
X123567463Y-82089359D01*
X123557596Y-82105822D01*
X123541963Y-82131905D01*
X123461079Y-82283229D01*
X123461058Y-82283269D01*
X123439863Y-82328079D01*
X123439853Y-82328103D01*
X123430573Y-82350504D01*
X123430558Y-82350541D01*
X123413842Y-82397259D01*
X123405194Y-82425770D01*
X123364023Y-82561496D01*
X123351971Y-82609611D01*
X123351970Y-82609613D01*
X123347228Y-82633447D01*
X123339954Y-82682490D01*
X123339950Y-82682527D01*
X123337475Y-82707656D01*
X123311313Y-82772442D01*
X123254278Y-82812801D01*
X123214072Y-82819500D01*
X122312242Y-82819500D01*
X122118957Y-82857947D01*
X122118949Y-82857949D01*
X122055725Y-82884138D01*
X122055724Y-82884138D01*
X121936873Y-82933366D01*
X121927251Y-82939796D01*
X121773004Y-83042860D01*
X121773000Y-83042863D01*
X120444342Y-84371523D01*
X120012220Y-84803645D01*
X120012218Y-84803647D01*
X119975680Y-84840185D01*
X119872859Y-84943005D01*
X119763371Y-85106865D01*
X119763364Y-85106878D01*
X119687950Y-85288946D01*
X119687947Y-85288956D01*
X119649500Y-85482242D01*
X119649500Y-87779140D01*
X119629815Y-87846179D01*
X119577011Y-87891934D01*
X119507853Y-87901878D01*
X119444297Y-87872853D01*
X119409318Y-87822473D01*
X119403797Y-87807671D01*
X119403793Y-87807664D01*
X119317547Y-87692455D01*
X119317544Y-87692452D01*
X119202335Y-87606206D01*
X119202328Y-87606202D01*
X119067482Y-87555908D01*
X119067483Y-87555908D01*
X119007883Y-87549501D01*
X119007881Y-87549500D01*
X119007873Y-87549500D01*
X119007864Y-87549500D01*
X117212129Y-87549500D01*
X117212123Y-87549501D01*
X117152516Y-87555908D01*
X117017671Y-87606202D01*
X117017664Y-87606206D01*
X116902455Y-87692452D01*
X116902452Y-87692455D01*
X116816206Y-87807664D01*
X116816202Y-87807671D01*
X116765908Y-87942517D01*
X116759501Y-88002116D01*
X116759501Y-88002123D01*
X116759500Y-88002135D01*
X116759500Y-89208480D01*
X116739815Y-89275519D01*
X116723181Y-89296161D01*
X112485888Y-93533453D01*
X112485884Y-93533458D01*
X112463061Y-93567617D01*
X112453851Y-93581401D01*
X112431461Y-93614909D01*
X112409223Y-93648191D01*
X112356421Y-93775667D01*
X112356418Y-93775677D01*
X112329500Y-93911004D01*
X112329500Y-120308481D01*
X112309815Y-120375520D01*
X112293181Y-120396162D01*
X112141162Y-120548181D01*
X112079839Y-120581666D01*
X112053481Y-120584500D01*
X98991003Y-120584500D01*
X98882590Y-120606065D01*
X98882589Y-120606065D01*
X98866379Y-120609289D01*
X98855669Y-120611420D01*
X98823499Y-120624746D01*
X98728191Y-120664223D01*
X98613712Y-120740717D01*
X98613608Y-120740786D01*
X98613459Y-120740885D01*
X98613451Y-120740891D01*
X95975888Y-123378453D01*
X95975887Y-123378454D01*
X95899223Y-123493192D01*
X95846421Y-123620668D01*
X95846418Y-123620680D01*
X95840279Y-123651543D01*
X95840279Y-123651544D01*
X95819500Y-123756004D01*
X95819500Y-133008481D01*
X95799815Y-133075520D01*
X95783181Y-133096162D01*
X93091162Y-135788181D01*
X93029839Y-135821666D01*
X93003481Y-135824500D01*
X92108694Y-135824500D01*
X92041655Y-135804815D01*
X91995900Y-135752011D01*
X91985956Y-135682853D01*
X92014981Y-135619297D01*
X92057182Y-135587706D01*
X92173081Y-135534776D01*
X92173081Y-135534775D01*
X92173094Y-135534770D01*
X92273594Y-135470183D01*
X92340631Y-135450500D01*
X92758844Y-135450500D01*
X92758845Y-135450499D01*
X92913497Y-135419737D01*
X93050843Y-135362847D01*
X93059172Y-135359397D01*
X93059172Y-135359396D01*
X93059179Y-135359394D01*
X93190289Y-135271789D01*
X93966789Y-134495289D01*
X94054394Y-134364179D01*
X94065555Y-134337235D01*
X94089534Y-134279342D01*
X94114737Y-134218497D01*
X94145500Y-134063842D01*
X94145500Y-133906158D01*
X94145500Y-131366158D01*
X94114738Y-131211503D01*
X94054394Y-131065821D01*
X94054392Y-131065818D01*
X94054390Y-131065814D01*
X93966789Y-130934711D01*
X93966786Y-130934707D01*
X93220291Y-130188212D01*
X93220288Y-130188210D01*
X93089185Y-130100609D01*
X93089172Y-130100602D01*
X92943501Y-130040264D01*
X92943489Y-130040261D01*
X92788845Y-130009500D01*
X92788842Y-130009500D01*
X90552940Y-130009500D01*
X90485901Y-129989815D01*
X90465259Y-129973181D01*
X90371819Y-129879741D01*
X90338334Y-129818418D01*
X90335500Y-129792060D01*
X90335500Y-129736066D01*
X90355185Y-129669027D01*
X90407989Y-129623272D01*
X90474760Y-129613671D01*
X90474804Y-129613262D01*
X90476407Y-129613434D01*
X90477147Y-129613328D01*
X90479405Y-129613756D01*
X90482515Y-129614090D01*
X90482517Y-129614091D01*
X90542127Y-129620500D01*
X92337872Y-129620499D01*
X92397483Y-129614091D01*
X92532331Y-129563796D01*
X92647546Y-129477546D01*
X92733796Y-129362331D01*
X92784091Y-129227483D01*
X92790500Y-129167873D01*
X92790499Y-127372128D01*
X92785299Y-127323757D01*
X92784091Y-127312516D01*
X92733797Y-127177671D01*
X92733793Y-127177664D01*
X92647547Y-127062455D01*
X92647544Y-127062452D01*
X92532335Y-126976206D01*
X92532328Y-126976202D01*
X92400401Y-126926997D01*
X92344467Y-126885126D01*
X92320050Y-126819662D01*
X92334902Y-126751389D01*
X92356053Y-126723133D01*
X92478108Y-126601078D01*
X92613600Y-126407578D01*
X92713429Y-126193492D01*
X92713432Y-126193486D01*
X92770636Y-125980000D01*
X91873012Y-125980000D01*
X91905925Y-125922993D01*
X91940000Y-125795826D01*
X91940000Y-125664174D01*
X91905925Y-125537007D01*
X91873012Y-125480000D01*
X92770636Y-125480000D01*
X92770635Y-125479999D01*
X92713432Y-125266513D01*
X92713429Y-125266507D01*
X92613600Y-125052422D01*
X92613599Y-125052420D01*
X92478113Y-124858926D01*
X92478108Y-124858920D01*
X92311082Y-124691894D01*
X92117578Y-124556399D01*
X91903492Y-124456570D01*
X91903486Y-124456567D01*
X91690000Y-124399364D01*
X91690000Y-125296988D01*
X91632993Y-125264075D01*
X91505826Y-125230000D01*
X91374174Y-125230000D01*
X91247007Y-125264075D01*
X91190000Y-125296988D01*
X91190000Y-124399364D01*
X91189999Y-124399364D01*
X90976513Y-124456567D01*
X90976507Y-124456570D01*
X90762422Y-124556399D01*
X90762420Y-124556400D01*
X90568926Y-124691886D01*
X90568920Y-124691891D01*
X90547181Y-124713631D01*
X90485858Y-124747116D01*
X90416166Y-124742132D01*
X90360233Y-124700260D01*
X90335816Y-124634796D01*
X90335500Y-124625950D01*
X90335500Y-124207940D01*
X90355185Y-124140901D01*
X90371819Y-124120259D01*
X90465259Y-124026819D01*
X90526582Y-123993334D01*
X90552940Y-123990500D01*
X92788844Y-123990500D01*
X92788845Y-123990499D01*
X92943497Y-123959737D01*
X93089179Y-123899394D01*
X93220289Y-123811789D01*
X93966789Y-123065289D01*
X94054394Y-122934179D01*
X94114738Y-122788497D01*
X94145500Y-122633842D01*
X94145500Y-122476157D01*
X94145500Y-119936158D01*
X94145500Y-119936155D01*
X94145499Y-119936153D01*
X94135035Y-119883548D01*
X94114737Y-119781503D01*
X94114322Y-119780500D01*
X94054397Y-119635827D01*
X94054390Y-119635814D01*
X93966790Y-119504712D01*
X93911071Y-119448993D01*
X93855289Y-119393211D01*
X93523408Y-119061330D01*
X93190292Y-118728213D01*
X93190288Y-118728210D01*
X93059185Y-118640609D01*
X93059172Y-118640602D01*
X92913501Y-118580264D01*
X92913489Y-118580261D01*
X92758845Y-118549500D01*
X92758842Y-118549500D01*
X92340631Y-118549500D01*
X92273594Y-118529816D01*
X92173094Y-118465230D01*
X92173081Y-118465223D01*
X92048356Y-118408263D01*
X92044057Y-118406014D01*
X91904261Y-118364966D01*
X91904251Y-118364963D01*
X91776300Y-118346567D01*
X91761941Y-118344503D01*
X91761940Y-118344503D01*
X91705601Y-118344503D01*
X91705591Y-118344500D01*
X91654236Y-118344500D01*
X91225764Y-118344500D01*
X91174427Y-118344500D01*
X91174399Y-118344503D01*
X91118059Y-118344503D01*
X90984521Y-118363703D01*
X90984519Y-118363703D01*
X90975744Y-118364964D01*
X90837686Y-118405503D01*
X90706918Y-118465223D01*
X90706908Y-118465228D01*
X90706906Y-118465230D01*
X90673253Y-118486857D01*
X90585867Y-118543015D01*
X90585863Y-118543018D01*
X90477226Y-118637152D01*
X90477207Y-118637169D01*
X90477205Y-118637172D01*
X90474227Y-118640609D01*
X90382985Y-118745909D01*
X90382983Y-118745911D01*
X90382983Y-118745912D01*
X90382981Y-118745915D01*
X90305255Y-118866857D01*
X90305252Y-118866863D01*
X90245483Y-118997741D01*
X90204977Y-119135691D01*
X90204974Y-119135703D01*
X90184500Y-119278110D01*
X90184500Y-119725500D01*
X90164815Y-119792539D01*
X90112011Y-119838294D01*
X90060500Y-119849500D01*
X88821154Y-119849500D01*
X88666509Y-119880261D01*
X88666497Y-119880264D01*
X88623832Y-119897936D01*
X88623833Y-119897937D01*
X88520823Y-119940604D01*
X88520814Y-119940609D01*
X88389712Y-120028209D01*
X88389710Y-120028212D01*
X86064741Y-122353181D01*
X86003418Y-122386666D01*
X85977060Y-122389500D01*
X82752351Y-122389500D01*
X82685312Y-122369815D01*
X82639557Y-122317011D01*
X82629061Y-122278752D01*
X82624091Y-122232516D01*
X82573797Y-122097671D01*
X82573793Y-122097664D01*
X82487547Y-121982455D01*
X82487544Y-121982452D01*
X82372335Y-121896206D01*
X82372328Y-121896202D01*
X82237482Y-121845908D01*
X82237483Y-121845908D01*
X82177883Y-121839501D01*
X82177881Y-121839500D01*
X82177873Y-121839500D01*
X82177864Y-121839500D01*
X80382129Y-121839500D01*
X80382123Y-121839501D01*
X80322516Y-121845908D01*
X80187671Y-121896202D01*
X80187664Y-121896206D01*
X80072455Y-121982452D01*
X80072452Y-121982455D01*
X79986206Y-122097664D01*
X79986202Y-122097671D01*
X79935908Y-122232517D01*
X79930748Y-122280519D01*
X79929501Y-122292123D01*
X79929500Y-122292135D01*
X79929500Y-124087870D01*
X79929501Y-124087876D01*
X79935908Y-124147483D01*
X79986202Y-124282328D01*
X79986206Y-124282335D01*
X80072452Y-124397544D01*
X80072455Y-124397547D01*
X80187664Y-124483793D01*
X80187671Y-124483797D01*
X80249902Y-124507007D01*
X80319598Y-124533002D01*
X80375531Y-124574873D01*
X80399949Y-124640337D01*
X80385098Y-124708610D01*
X80363947Y-124736865D01*
X80241886Y-124858926D01*
X80106400Y-125052420D01*
X80106399Y-125052422D01*
X80006570Y-125266507D01*
X80006567Y-125266513D01*
X79949364Y-125479999D01*
X79949364Y-125480000D01*
X80846988Y-125480000D01*
X80814075Y-125537007D01*
X80780000Y-125664174D01*
X80780000Y-125795826D01*
X80814075Y-125922993D01*
X80846988Y-125980000D01*
X79949364Y-125980000D01*
X80006567Y-126193486D01*
X80006570Y-126193492D01*
X80106399Y-126407578D01*
X80241894Y-126601082D01*
X80408917Y-126768105D01*
X80595031Y-126898425D01*
X80638656Y-126953003D01*
X80645848Y-127022501D01*
X80614326Y-127084856D01*
X80595031Y-127101575D01*
X80408922Y-127231890D01*
X80408920Y-127231891D01*
X80241891Y-127398920D01*
X80241886Y-127398926D01*
X80106400Y-127592420D01*
X80106399Y-127592422D01*
X80006570Y-127806507D01*
X80006567Y-127806513D01*
X79949364Y-128019999D01*
X79949364Y-128020000D01*
X80846988Y-128020000D01*
X80814075Y-128077007D01*
X80780000Y-128204174D01*
X80780000Y-128335826D01*
X80814075Y-128462993D01*
X80846988Y-128520000D01*
X79949364Y-128520000D01*
X80006567Y-128733486D01*
X80006570Y-128733492D01*
X80106399Y-128947578D01*
X80241894Y-129141082D01*
X80363946Y-129263134D01*
X80397431Y-129324457D01*
X80392447Y-129394149D01*
X80350575Y-129450082D01*
X80319598Y-129466997D01*
X80187671Y-129516202D01*
X80187664Y-129516206D01*
X80072455Y-129602452D01*
X80072452Y-129602455D01*
X79986206Y-129717664D01*
X79986202Y-129717671D01*
X79935908Y-129852517D01*
X79929501Y-129912116D01*
X79929501Y-129912123D01*
X79929500Y-129912135D01*
X79929500Y-131707870D01*
X79929501Y-131707876D01*
X79935908Y-131767483D01*
X79986202Y-131902328D01*
X79986206Y-131902335D01*
X80072452Y-132017544D01*
X80072455Y-132017547D01*
X80187664Y-132103793D01*
X80187671Y-132103797D01*
X80322517Y-132154091D01*
X80322516Y-132154091D01*
X80329444Y-132154835D01*
X80382127Y-132160500D01*
X82177872Y-132160499D01*
X82237483Y-132154091D01*
X82372331Y-132103796D01*
X82487546Y-132017546D01*
X82573796Y-131902331D01*
X82624091Y-131767483D01*
X82629062Y-131721242D01*
X82655799Y-131656694D01*
X82713191Y-131616846D01*
X82752351Y-131610500D01*
X85977060Y-131610500D01*
X86044099Y-131630185D01*
X86064741Y-131646819D01*
X88278211Y-133860289D01*
X88360091Y-133942169D01*
X88389712Y-133971790D01*
X88520816Y-134059391D01*
X88520817Y-134059391D01*
X88520821Y-134059394D01*
X88594692Y-134089992D01*
X88666502Y-134119737D01*
X88816989Y-134149671D01*
X88821152Y-134150499D01*
X88821155Y-134150500D01*
X88821157Y-134150500D01*
X88821158Y-134150500D01*
X90060500Y-134150500D01*
X90127539Y-134170185D01*
X90173294Y-134222989D01*
X90184500Y-134274500D01*
X90184500Y-134721889D01*
X90204974Y-134864296D01*
X90204977Y-134864308D01*
X90245483Y-135002258D01*
X90305252Y-135133136D01*
X90305253Y-135133138D01*
X90379376Y-135248476D01*
X90380196Y-135249917D01*
X90382988Y-135254098D01*
X90477207Y-135362830D01*
X90477210Y-135362833D01*
X90585864Y-135456981D01*
X90585867Y-135456984D01*
X90585869Y-135456985D01*
X90585870Y-135456986D01*
X90706906Y-135534770D01*
X90706920Y-135534776D01*
X90706923Y-135534778D01*
X90822818Y-135587706D01*
X90875622Y-135633460D01*
X90895307Y-135700500D01*
X90875623Y-135767539D01*
X90822819Y-135813294D01*
X90771307Y-135824500D01*
X84154344Y-135824500D01*
X84113389Y-135817541D01*
X83988060Y-135773686D01*
X83820003Y-135754751D01*
X83819997Y-135754751D01*
X83651943Y-135773685D01*
X83492305Y-135829545D01*
X83492302Y-135829547D01*
X83349115Y-135919518D01*
X83349109Y-135919523D01*
X83229523Y-136039109D01*
X83229518Y-136039115D01*
X83139547Y-136182302D01*
X83139545Y-136182305D01*
X83083687Y-136341940D01*
X83082849Y-136349381D01*
X83055783Y-136413795D01*
X82998189Y-136453352D01*
X82959628Y-136459500D01*
X82502711Y-136459500D01*
X82435672Y-136439815D01*
X82401136Y-136406623D01*
X82395536Y-136398626D01*
X82361055Y-136349381D01*
X82318494Y-136288597D01*
X82151402Y-136121506D01*
X82151396Y-136121501D01*
X81965842Y-135991575D01*
X81922217Y-135936998D01*
X81915023Y-135867500D01*
X81946546Y-135805145D01*
X81965842Y-135788425D01*
X82023776Y-135747859D01*
X82151401Y-135658495D01*
X82318495Y-135491401D01*
X82454035Y-135297830D01*
X82553903Y-135083663D01*
X82615063Y-134855408D01*
X82635659Y-134620000D01*
X82615063Y-134384592D01*
X82560435Y-134180714D01*
X82553905Y-134156344D01*
X82553904Y-134156343D01*
X82553903Y-134156337D01*
X82454035Y-133942171D01*
X82318495Y-133748599D01*
X82318494Y-133748597D01*
X82151402Y-133581506D01*
X82151395Y-133581501D01*
X81957834Y-133445967D01*
X81957830Y-133445965D01*
X81916456Y-133426672D01*
X81743663Y-133346097D01*
X81743659Y-133346096D01*
X81743655Y-133346094D01*
X81515413Y-133284938D01*
X81515403Y-133284936D01*
X81280001Y-133264341D01*
X81279999Y-133264341D01*
X81044596Y-133284936D01*
X81044586Y-133284938D01*
X80816344Y-133346094D01*
X80816335Y-133346098D01*
X80602171Y-133445964D01*
X80602169Y-133445965D01*
X80408597Y-133581505D01*
X80241505Y-133748597D01*
X80105965Y-133942169D01*
X80105964Y-133942171D01*
X80021089Y-134124187D01*
X80007371Y-134153606D01*
X80006098Y-134156335D01*
X80006094Y-134156344D01*
X79944938Y-134384586D01*
X79944936Y-134384596D01*
X79924341Y-134619999D01*
X79924341Y-134620000D01*
X79944936Y-134855403D01*
X79944938Y-134855413D01*
X80006094Y-135083655D01*
X80006096Y-135083659D01*
X80006097Y-135083663D01*
X80093822Y-135271789D01*
X80105965Y-135297830D01*
X80105967Y-135297834D01*
X80241501Y-135491395D01*
X80241506Y-135491402D01*
X80408597Y-135658493D01*
X80408603Y-135658498D01*
X80594158Y-135788425D01*
X80637783Y-135843002D01*
X80644977Y-135912500D01*
X80613454Y-135974855D01*
X80594158Y-135991575D01*
X80408597Y-136121505D01*
X80241505Y-136288597D01*
X80105965Y-136482169D01*
X80105964Y-136482171D01*
X80006098Y-136696335D01*
X80006094Y-136696344D01*
X79944938Y-136924586D01*
X79944936Y-136924596D01*
X79924341Y-137159999D01*
X79924341Y-137160000D01*
X79944936Y-137395403D01*
X79944938Y-137395413D01*
X80006094Y-137623655D01*
X80006096Y-137623659D01*
X80006097Y-137623663D01*
X80028740Y-137672220D01*
X80105965Y-137837830D01*
X80105967Y-137837834D01*
X80212918Y-137990575D01*
X80241504Y-138031400D01*
X80241506Y-138031402D01*
X80408597Y-138198493D01*
X80408603Y-138198498D01*
X80594158Y-138328425D01*
X80637783Y-138383002D01*
X80644977Y-138452500D01*
X80613454Y-138514855D01*
X80594158Y-138531575D01*
X80408597Y-138661505D01*
X80241505Y-138828597D01*
X80105965Y-139022169D01*
X80105964Y-139022171D01*
X80006098Y-139236335D01*
X80006094Y-139236344D01*
X79944938Y-139464586D01*
X79944936Y-139464596D01*
X79924341Y-139699999D01*
X79924341Y-139700000D01*
X79944936Y-139935403D01*
X79944938Y-139935413D01*
X80006094Y-140163655D01*
X80006096Y-140163659D01*
X80006097Y-140163663D01*
X80019713Y-140192862D01*
X80105965Y-140377830D01*
X80105967Y-140377834D01*
X80241501Y-140571395D01*
X80241506Y-140571402D01*
X80408597Y-140738493D01*
X80408603Y-140738498D01*
X80594158Y-140868425D01*
X80637783Y-140923002D01*
X80644977Y-140992500D01*
X80613454Y-141054855D01*
X80594158Y-141071575D01*
X80408597Y-141201505D01*
X80241505Y-141368597D01*
X80105965Y-141562169D01*
X80105964Y-141562171D01*
X80006098Y-141776335D01*
X80006094Y-141776344D01*
X79944938Y-142004586D01*
X79944936Y-142004596D01*
X79924341Y-142239999D01*
X79924341Y-142240000D01*
X79944936Y-142475403D01*
X79944938Y-142475413D01*
X80006094Y-142703655D01*
X80006096Y-142703659D01*
X80006097Y-142703663D01*
X80103660Y-142912886D01*
X80105965Y-142917830D01*
X80105967Y-142917834D01*
X80205474Y-143059944D01*
X80241505Y-143111401D01*
X80408599Y-143278495D01*
X80491319Y-143336416D01*
X80602165Y-143414032D01*
X80602167Y-143414033D01*
X80602170Y-143414035D01*
X80816337Y-143513903D01*
X81044592Y-143575063D01*
X81232918Y-143591539D01*
X81279999Y-143595659D01*
X81280000Y-143595659D01*
X81280001Y-143595659D01*
X81319234Y-143592226D01*
X81515408Y-143575063D01*
X81743663Y-143513903D01*
X81957830Y-143414035D01*
X82151401Y-143278495D01*
X82318495Y-143111401D01*
X82454035Y-142917830D01*
X82553903Y-142703663D01*
X82615063Y-142475408D01*
X82635659Y-142240000D01*
X82634569Y-142227547D01*
X82624489Y-142112331D01*
X82615063Y-142004592D01*
X82553903Y-141776337D01*
X82454035Y-141562171D01*
X82439667Y-141541650D01*
X82318494Y-141368597D01*
X82151402Y-141201506D01*
X82151396Y-141201501D01*
X81965842Y-141071575D01*
X81922217Y-141016998D01*
X81915023Y-140947500D01*
X81946546Y-140885145D01*
X81965842Y-140868425D01*
X81988026Y-140852891D01*
X82151401Y-140738495D01*
X82318495Y-140571401D01*
X82401136Y-140453376D01*
X82455713Y-140409752D01*
X82502711Y-140400500D01*
X92778996Y-140400500D01*
X92892962Y-140377830D01*
X92914328Y-140373580D01*
X93014183Y-140332219D01*
X93041807Y-140320777D01*
X93041808Y-140320776D01*
X93041811Y-140320775D01*
X93156543Y-140244114D01*
X98334114Y-135066543D01*
X98410775Y-134951811D01*
X98412678Y-134947218D01*
X98463578Y-134824332D01*
X98463580Y-134824328D01*
X98483957Y-134721889D01*
X98490500Y-134688996D01*
X98490500Y-127000000D01*
X98895065Y-127000000D01*
X98914786Y-127326038D01*
X98973667Y-127647341D01*
X99070835Y-127959164D01*
X99070839Y-127959175D01*
X99204897Y-128257041D01*
X99204898Y-128257043D01*
X99373881Y-128536576D01*
X99521476Y-128724968D01*
X100663708Y-127582736D01*
X100760967Y-127716602D01*
X100883398Y-127839033D01*
X101017262Y-127936290D01*
X99875030Y-129078522D01*
X99875030Y-129078523D01*
X100063423Y-129226118D01*
X100342956Y-129395101D01*
X100342958Y-129395102D01*
X100640824Y-129529160D01*
X100640835Y-129529164D01*
X100952658Y-129626332D01*
X101273961Y-129685213D01*
X101600000Y-129704934D01*
X101926038Y-129685213D01*
X102247341Y-129626332D01*
X102559164Y-129529164D01*
X102559175Y-129529160D01*
X102857041Y-129395102D01*
X102857043Y-129395101D01*
X103136586Y-129226112D01*
X103324968Y-129078523D01*
X103324968Y-129078522D01*
X102182737Y-127936290D01*
X102316602Y-127839033D01*
X102439033Y-127716602D01*
X102536290Y-127582737D01*
X103678522Y-128724968D01*
X103678523Y-128724968D01*
X103826112Y-128536586D01*
X103995101Y-128257043D01*
X103995102Y-128257041D01*
X104129160Y-127959175D01*
X104129164Y-127959164D01*
X104226332Y-127647341D01*
X104285213Y-127326038D01*
X104304934Y-127000000D01*
X104285213Y-126673961D01*
X104226332Y-126352658D01*
X104129164Y-126040835D01*
X104129160Y-126040824D01*
X103995102Y-125742958D01*
X103995101Y-125742956D01*
X103826118Y-125463423D01*
X103678522Y-125275030D01*
X102536290Y-126417262D01*
X102439033Y-126283398D01*
X102316602Y-126160967D01*
X102182736Y-126063709D01*
X103324968Y-124921476D01*
X103136576Y-124773881D01*
X102857043Y-124604898D01*
X102857041Y-124604897D01*
X102559175Y-124470839D01*
X102559164Y-124470835D01*
X102247341Y-124373667D01*
X101926038Y-124314786D01*
X101600000Y-124295065D01*
X101273961Y-124314786D01*
X100952658Y-124373667D01*
X100640835Y-124470835D01*
X100640824Y-124470839D01*
X100342958Y-124604897D01*
X100342956Y-124604898D01*
X100063422Y-124773881D01*
X100063416Y-124773886D01*
X99875030Y-124921474D01*
X99875029Y-124921476D01*
X101017262Y-126063709D01*
X100883398Y-126160967D01*
X100760967Y-126283398D01*
X100663709Y-126417262D01*
X99521476Y-125275029D01*
X99521474Y-125275030D01*
X99373886Y-125463416D01*
X99373881Y-125463422D01*
X99204898Y-125742956D01*
X99204897Y-125742958D01*
X99070839Y-126040824D01*
X99070835Y-126040835D01*
X98973667Y-126352658D01*
X98914786Y-126673961D01*
X98895065Y-127000000D01*
X98490500Y-127000000D01*
X98490500Y-125436518D01*
X98510185Y-125369479D01*
X98526819Y-125348837D01*
X100583837Y-123291819D01*
X100645160Y-123258334D01*
X100671518Y-123255500D01*
X103279628Y-123255500D01*
X103346667Y-123275185D01*
X103392422Y-123327989D01*
X103402849Y-123365619D01*
X103403687Y-123373059D01*
X103459545Y-123532694D01*
X103459547Y-123532697D01*
X103549518Y-123675884D01*
X103549523Y-123675890D01*
X103669109Y-123795476D01*
X103669115Y-123795481D01*
X103812302Y-123885452D01*
X103812312Y-123885457D01*
X103835570Y-123893595D01*
X103882299Y-123922956D01*
X116747348Y-136788005D01*
X116780833Y-136849328D01*
X116779442Y-136907778D01*
X116774939Y-136924584D01*
X116774936Y-136924597D01*
X116754341Y-137159999D01*
X116754341Y-137160000D01*
X116774936Y-137395403D01*
X116774938Y-137395413D01*
X116836094Y-137623655D01*
X116836096Y-137623659D01*
X116836097Y-137623663D01*
X116858740Y-137672220D01*
X116935965Y-137837830D01*
X116935967Y-137837834D01*
X117042918Y-137990575D01*
X117071505Y-138031401D01*
X117238599Y-138198495D01*
X117335384Y-138266265D01*
X117432165Y-138334032D01*
X117432167Y-138334033D01*
X117432170Y-138334035D01*
X117646337Y-138433903D01*
X117874592Y-138495063D01*
X118062918Y-138511539D01*
X118109999Y-138515659D01*
X118110000Y-138515659D01*
X118110001Y-138515659D01*
X118149234Y-138512226D01*
X118345408Y-138495063D01*
X118573663Y-138433903D01*
X118787830Y-138334035D01*
X118981401Y-138198495D01*
X119107819Y-138072077D01*
X119169142Y-138038592D01*
X119238834Y-138043576D01*
X119294767Y-138085448D01*
X119319184Y-138150912D01*
X119319500Y-138159758D01*
X119319500Y-153534217D01*
X119299815Y-153601256D01*
X119283181Y-153621898D01*
X118533952Y-154371126D01*
X118472629Y-154404611D01*
X118402937Y-154399627D01*
X118347005Y-154357757D01*
X118304242Y-154300635D01*
X118270046Y-154254954D01*
X118270044Y-154254953D01*
X118270044Y-154254952D01*
X118154835Y-154168706D01*
X118154828Y-154168702D01*
X118019982Y-154118408D01*
X118019983Y-154118408D01*
X117960383Y-154112001D01*
X117960381Y-154112000D01*
X117960373Y-154112000D01*
X117960364Y-154112000D01*
X115064629Y-154112000D01*
X115064623Y-154112001D01*
X115005016Y-154118408D01*
X114870171Y-154168702D01*
X114870164Y-154168706D01*
X114754955Y-154254952D01*
X114754952Y-154254955D01*
X114668706Y-154370164D01*
X114668702Y-154370171D01*
X114618408Y-154505017D01*
X114612001Y-154564616D01*
X114612000Y-154564635D01*
X114612000Y-157460370D01*
X114612001Y-157460376D01*
X114618408Y-157519983D01*
X114668702Y-157654828D01*
X114668703Y-157654830D01*
X114693676Y-157688190D01*
X114718092Y-157753655D01*
X114703240Y-157821928D01*
X114693676Y-157836810D01*
X114668703Y-157870169D01*
X114668702Y-157870171D01*
X114618408Y-158005017D01*
X114612001Y-158064616D01*
X114612001Y-158064623D01*
X114612000Y-158064635D01*
X114612000Y-160960370D01*
X114612001Y-160960376D01*
X114618408Y-161019983D01*
X114668702Y-161154828D01*
X114668706Y-161154835D01*
X114754952Y-161270044D01*
X114754955Y-161270047D01*
X114870164Y-161356293D01*
X114870171Y-161356297D01*
X115005017Y-161406591D01*
X115005016Y-161406591D01*
X115011944Y-161407335D01*
X115064627Y-161413000D01*
X117960372Y-161412999D01*
X118019983Y-161406591D01*
X118154831Y-161356296D01*
X118270046Y-161270046D01*
X118356296Y-161154831D01*
X118406591Y-161019983D01*
X118413000Y-160960373D01*
X118413000Y-160637000D01*
X118432685Y-160569961D01*
X118485489Y-160524206D01*
X118537000Y-160513000D01*
X119351042Y-160513000D01*
X119383114Y-160506620D01*
X119447688Y-160493775D01*
X119544336Y-160474551D01*
X119597665Y-160452461D01*
X119726414Y-160399132D01*
X119890282Y-160289639D01*
X120029639Y-160150282D01*
X120029639Y-160150280D01*
X120039847Y-160140073D01*
X120039848Y-160140070D01*
X122697140Y-157482781D01*
X122806632Y-157318914D01*
X122882052Y-157136835D01*
X122920500Y-156943540D01*
X122920500Y-156746459D01*
X122920500Y-144046459D01*
X122920500Y-141999377D01*
X122940185Y-141932338D01*
X122953264Y-141915401D01*
X123028979Y-141833153D01*
X123155924Y-141638849D01*
X123221944Y-141488338D01*
X123266900Y-141434853D01*
X123333636Y-141414163D01*
X123400964Y-141432838D01*
X123447507Y-141484948D01*
X123459500Y-141538149D01*
X123459500Y-148534754D01*
X123458903Y-148546907D01*
X123454659Y-148589999D01*
X123458903Y-148633090D01*
X123459500Y-148645244D01*
X123459500Y-148688544D01*
X123467945Y-148731006D01*
X123469730Y-148743035D01*
X123473975Y-148786130D01*
X123473976Y-148786134D01*
X123486547Y-148827575D01*
X123489503Y-148839378D01*
X123497946Y-148881827D01*
X123497948Y-148881834D01*
X123514517Y-148921834D01*
X123518612Y-148933277D01*
X123531186Y-148974726D01*
X123531187Y-148974729D01*
X123551597Y-149012913D01*
X123556800Y-149023915D01*
X123573368Y-149063914D01*
X123573370Y-149063918D01*
X123597425Y-149099918D01*
X123603678Y-149110350D01*
X123614948Y-149131436D01*
X123624088Y-149148535D01*
X123624094Y-149148543D01*
X123651552Y-149182002D01*
X123658799Y-149191772D01*
X123682860Y-149227781D01*
X123682862Y-149227783D01*
X123682865Y-149227787D01*
X123713479Y-149258401D01*
X123721651Y-149267416D01*
X123749117Y-149300883D01*
X123782579Y-149328345D01*
X123782581Y-149328346D01*
X123791599Y-149336520D01*
X123822214Y-149367136D01*
X123822217Y-149367138D01*
X123822218Y-149367139D01*
X123858217Y-149391193D01*
X123858219Y-149391194D01*
X123867988Y-149398438D01*
X123901462Y-149425910D01*
X123939640Y-149446316D01*
X123950078Y-149452572D01*
X123957899Y-149457797D01*
X123986086Y-149476632D01*
X124026095Y-149493203D01*
X124037091Y-149498404D01*
X124075273Y-149518814D01*
X124116710Y-149531383D01*
X124128160Y-149535480D01*
X124168165Y-149552051D01*
X124210640Y-149560499D01*
X124222414Y-149563448D01*
X124263868Y-149576024D01*
X124306964Y-149580268D01*
X124318990Y-149582052D01*
X124349480Y-149588117D01*
X124361458Y-149590500D01*
X124361459Y-149590500D01*
X124404756Y-149590500D01*
X124416909Y-149591096D01*
X124460000Y-149595341D01*
X124503090Y-149591096D01*
X124515244Y-149590500D01*
X124558542Y-149590500D01*
X124574454Y-149587334D01*
X124601005Y-149582053D01*
X124613037Y-149580268D01*
X124656132Y-149576024D01*
X124697580Y-149563450D01*
X124709353Y-149560500D01*
X124751835Y-149552051D01*
X124791847Y-149535476D01*
X124803280Y-149531386D01*
X124844727Y-149518814D01*
X124882918Y-149498399D01*
X124893910Y-149493201D01*
X124933914Y-149476632D01*
X124969938Y-149452560D01*
X124980351Y-149446320D01*
X125006591Y-149432295D01*
X125018535Y-149425912D01*
X125018539Y-149425909D01*
X125052005Y-149398444D01*
X125061782Y-149391193D01*
X125097781Y-149367140D01*
X125097783Y-149367138D01*
X125097785Y-149367136D01*
X125128408Y-149336512D01*
X125137402Y-149328359D01*
X125170883Y-149300883D01*
X125198359Y-149267402D01*
X125206512Y-149258408D01*
X125237139Y-149227782D01*
X125261200Y-149191772D01*
X125268444Y-149182005D01*
X125295909Y-149148539D01*
X125295912Y-149148535D01*
X125302295Y-149136591D01*
X125316320Y-149110351D01*
X125322560Y-149099938D01*
X125346632Y-149063914D01*
X125363202Y-149023906D01*
X125368402Y-149012913D01*
X125388814Y-148974727D01*
X125401386Y-148933280D01*
X125405476Y-148921847D01*
X125422051Y-148881835D01*
X125430500Y-148839353D01*
X125433450Y-148827580D01*
X125446024Y-148786132D01*
X125450268Y-148743037D01*
X125452054Y-148730999D01*
X125460500Y-148688541D01*
X125460500Y-148645244D01*
X125461097Y-148633090D01*
X125465341Y-148590000D01*
X125461097Y-148546907D01*
X125460500Y-148534754D01*
X125460500Y-140871456D01*
X125422051Y-140678164D01*
X125421230Y-140676183D01*
X125421225Y-140676172D01*
X125386232Y-140591691D01*
X125366252Y-140543453D01*
X125346632Y-140496086D01*
X125346630Y-140496083D01*
X125346628Y-140496079D01*
X125237140Y-140332219D01*
X125225696Y-140320775D01*
X125097782Y-140192861D01*
X125097781Y-140192860D01*
X122956819Y-138051898D01*
X122923334Y-137990575D01*
X122920500Y-137964217D01*
X122920500Y-137574314D01*
X122940185Y-137507275D01*
X122992989Y-137461520D01*
X123062147Y-137451576D01*
X123125703Y-137480601D01*
X123163477Y-137539379D01*
X123164275Y-137542221D01*
X123186094Y-137623655D01*
X123186096Y-137623659D01*
X123186097Y-137623663D01*
X123208740Y-137672220D01*
X123285965Y-137837830D01*
X123285967Y-137837834D01*
X123392918Y-137990575D01*
X123421505Y-138031401D01*
X123588599Y-138198495D01*
X123685384Y-138266265D01*
X123782165Y-138334032D01*
X123782167Y-138334033D01*
X123782170Y-138334035D01*
X123996337Y-138433903D01*
X124224592Y-138495063D01*
X124412918Y-138511539D01*
X124459999Y-138515659D01*
X124460000Y-138515659D01*
X124460001Y-138515659D01*
X124499234Y-138512226D01*
X124695408Y-138495063D01*
X124923663Y-138433903D01*
X125137830Y-138334035D01*
X125331401Y-138198495D01*
X125498495Y-138031401D01*
X125628732Y-137845403D01*
X125683307Y-137801780D01*
X125752805Y-137794586D01*
X125815160Y-137826109D01*
X125831880Y-137845405D01*
X125885073Y-137921373D01*
X126600000Y-137206446D01*
X126600000Y-137212661D01*
X126627259Y-137314394D01*
X126679920Y-137405606D01*
X126754394Y-137480080D01*
X126845606Y-137532741D01*
X126947339Y-137560000D01*
X126953553Y-137560000D01*
X126238625Y-138274925D01*
X126322421Y-138333599D01*
X126536507Y-138433429D01*
X126536516Y-138433433D01*
X126764673Y-138494567D01*
X126764684Y-138494569D01*
X126999998Y-138515157D01*
X127000002Y-138515157D01*
X127235315Y-138494569D01*
X127235326Y-138494567D01*
X127463483Y-138433433D01*
X127463492Y-138433429D01*
X127677578Y-138333600D01*
X127677582Y-138333598D01*
X127761373Y-138274926D01*
X127761373Y-138274925D01*
X127046447Y-137560000D01*
X127052661Y-137560000D01*
X127154394Y-137532741D01*
X127245606Y-137480080D01*
X127320080Y-137405606D01*
X127372741Y-137314394D01*
X127400000Y-137212661D01*
X127400000Y-137206448D01*
X128114925Y-137921373D01*
X128168119Y-137845405D01*
X128222696Y-137801781D01*
X128292195Y-137794588D01*
X128354549Y-137826110D01*
X128371269Y-137845405D01*
X128501505Y-138031401D01*
X128501506Y-138031402D01*
X128503181Y-138033077D01*
X128503682Y-138033995D01*
X128504982Y-138035544D01*
X128504670Y-138035805D01*
X128536666Y-138094400D01*
X128539500Y-138120758D01*
X128539500Y-156943541D01*
X128577947Y-157136829D01*
X128577950Y-157136839D01*
X128653364Y-157318907D01*
X128653371Y-157318920D01*
X128762859Y-157482780D01*
X128762860Y-157482781D01*
X128762861Y-157482782D01*
X128902218Y-157622139D01*
X128902219Y-157622139D01*
X128909286Y-157629206D01*
X128909285Y-157629206D01*
X128909289Y-157629209D01*
X131569715Y-160289637D01*
X131569719Y-160289640D01*
X131733579Y-160399128D01*
X131733585Y-160399131D01*
X131733586Y-160399132D01*
X131915665Y-160474552D01*
X132076889Y-160506621D01*
X132108957Y-160512999D01*
X132108958Y-160513000D01*
X132108959Y-160513000D01*
X132108960Y-160513000D01*
X132306041Y-160513000D01*
X137388001Y-160513000D01*
X137455040Y-160532685D01*
X137500795Y-160585489D01*
X137512001Y-160637000D01*
X137512001Y-160960376D01*
X137518408Y-161019983D01*
X137568702Y-161154828D01*
X137568706Y-161154835D01*
X137654952Y-161270044D01*
X137654955Y-161270047D01*
X137770164Y-161356293D01*
X137770171Y-161356297D01*
X137905017Y-161406591D01*
X137905016Y-161406591D01*
X137911944Y-161407335D01*
X137964627Y-161413000D01*
X140860372Y-161412999D01*
X140919983Y-161406591D01*
X141054831Y-161356296D01*
X141170046Y-161270046D01*
X141256296Y-161154831D01*
X141306591Y-161019983D01*
X141313000Y-160960373D01*
X141312999Y-158064628D01*
X141306591Y-158005017D01*
X141256296Y-157870169D01*
X141256295Y-157870168D01*
X141256293Y-157870164D01*
X141170047Y-157754955D01*
X141170044Y-157754952D01*
X141054835Y-157668706D01*
X141054828Y-157668702D01*
X140919982Y-157618408D01*
X140919983Y-157618408D01*
X140860383Y-157612001D01*
X140860381Y-157612000D01*
X140860373Y-157612000D01*
X140860364Y-157612000D01*
X137964629Y-157612000D01*
X137964623Y-157612001D01*
X137905016Y-157618408D01*
X137770171Y-157668702D01*
X137770164Y-157668706D01*
X137654955Y-157754952D01*
X137654952Y-157754955D01*
X137568706Y-157870164D01*
X137568702Y-157870171D01*
X137518408Y-158005017D01*
X137512001Y-158064616D01*
X137512001Y-158064623D01*
X137512000Y-158064635D01*
X137512000Y-158388000D01*
X137492315Y-158455039D01*
X137439511Y-158500794D01*
X137388000Y-158512000D01*
X132673283Y-158512000D01*
X132606244Y-158492315D01*
X132585602Y-158475681D01*
X130576819Y-156466898D01*
X130543334Y-156405575D01*
X130540500Y-156379217D01*
X130540500Y-144546540D01*
X130560185Y-144479501D01*
X130612989Y-144433746D01*
X130682147Y-144423802D01*
X130745703Y-144452827D01*
X130769494Y-144480568D01*
X130854523Y-144615890D01*
X130974109Y-144735476D01*
X130974115Y-144735481D01*
X131117302Y-144825452D01*
X131117305Y-144825454D01*
X131117309Y-144825455D01*
X131117310Y-144825456D01*
X131175713Y-144845892D01*
X131276943Y-144881314D01*
X131444997Y-144900249D01*
X131445000Y-144900249D01*
X131445003Y-144900249D01*
X131613056Y-144881314D01*
X131613059Y-144881313D01*
X131772690Y-144825456D01*
X131772692Y-144825454D01*
X131772694Y-144825454D01*
X131772697Y-144825452D01*
X131915884Y-144735481D01*
X131915885Y-144735480D01*
X131915890Y-144735477D01*
X132035477Y-144615890D01*
X132125456Y-144472690D01*
X132125520Y-144472505D01*
X132125622Y-144472343D01*
X132128475Y-144466419D01*
X132129142Y-144466740D01*
X132154880Y-144425775D01*
X133603838Y-142976819D01*
X133665161Y-142943334D01*
X133691519Y-142940500D01*
X134095448Y-142940500D01*
X134162487Y-142960185D01*
X134183129Y-142976819D01*
X134266650Y-143060340D01*
X134413484Y-143150908D01*
X134577247Y-143205174D01*
X134678323Y-143215500D01*
X135276676Y-143215499D01*
X135276684Y-143215498D01*
X135276687Y-143215498D01*
X135368707Y-143206098D01*
X135377753Y-143205174D01*
X135541516Y-143150908D01*
X135688350Y-143060340D01*
X135802319Y-142946371D01*
X135863642Y-142912886D01*
X135933334Y-142917870D01*
X135977681Y-142946371D01*
X136091650Y-143060340D01*
X136238484Y-143150908D01*
X136402247Y-143205174D01*
X136503323Y-143215500D01*
X137101676Y-143215499D01*
X137101684Y-143215498D01*
X137101687Y-143215498D01*
X137193707Y-143206098D01*
X137202753Y-143205174D01*
X137366516Y-143150908D01*
X137513350Y-143060340D01*
X137558144Y-143015545D01*
X137619465Y-142982059D01*
X137659708Y-142980005D01*
X137729165Y-142987831D01*
X137794998Y-142995249D01*
X137795000Y-142995249D01*
X137795002Y-142995249D01*
X137847951Y-142989282D01*
X137930290Y-142980005D01*
X137999111Y-142992059D01*
X138031854Y-143015544D01*
X138076650Y-143060340D01*
X138223484Y-143150908D01*
X138283498Y-143170794D01*
X138340942Y-143210567D01*
X138367765Y-143275083D01*
X138355450Y-143343858D01*
X138307907Y-143395058D01*
X138244493Y-143412500D01*
X137964655Y-143412500D01*
X137905127Y-143418901D01*
X137905120Y-143418903D01*
X137770413Y-143469145D01*
X137770406Y-143469149D01*
X137655312Y-143555309D01*
X137655309Y-143555312D01*
X137569149Y-143670406D01*
X137569145Y-143670413D01*
X137518903Y-143805120D01*
X137518901Y-143805127D01*
X137512500Y-143864655D01*
X137512500Y-145062500D01*
X138682611Y-145062500D01*
X138672090Y-145087899D01*
X138642500Y-145236662D01*
X138642500Y-145388338D01*
X138672090Y-145537101D01*
X138682611Y-145562500D01*
X137512500Y-145562500D01*
X137512500Y-146760344D01*
X137518901Y-146819872D01*
X137518903Y-146819879D01*
X137569145Y-146954586D01*
X137569149Y-146954593D01*
X137655309Y-147069687D01*
X137655312Y-147069690D01*
X137770406Y-147155850D01*
X137770413Y-147155854D01*
X137905120Y-147206096D01*
X137905127Y-147206098D01*
X137964655Y-147212499D01*
X137964672Y-147212500D01*
X139162500Y-147212500D01*
X139162500Y-146042389D01*
X139187899Y-146052910D01*
X139336662Y-146082500D01*
X139488338Y-146082500D01*
X139637101Y-146052910D01*
X139662500Y-146042389D01*
X139662500Y-147212500D01*
X140860328Y-147212500D01*
X140860344Y-147212499D01*
X140919872Y-147206098D01*
X140919879Y-147206096D01*
X141054586Y-147155854D01*
X141054593Y-147155850D01*
X141169687Y-147069690D01*
X141169690Y-147069687D01*
X141255850Y-146954593D01*
X141255854Y-146954586D01*
X141306096Y-146819879D01*
X141306098Y-146819872D01*
X141312499Y-146760344D01*
X141312500Y-146760327D01*
X141312500Y-145562500D01*
X140142389Y-145562500D01*
X140152910Y-145537101D01*
X140182500Y-145388338D01*
X140182500Y-145236662D01*
X140152910Y-145087899D01*
X140142389Y-145062500D01*
X141312500Y-145062500D01*
X141312500Y-143864672D01*
X141312499Y-143864655D01*
X141306098Y-143805127D01*
X141306096Y-143805120D01*
X141255854Y-143670413D01*
X141255850Y-143670406D01*
X141169690Y-143555312D01*
X141169687Y-143555309D01*
X141054593Y-143469149D01*
X141054588Y-143469146D01*
X140986503Y-143443752D01*
X140930570Y-143401880D01*
X140906153Y-143336416D01*
X140921005Y-143268143D01*
X140970410Y-143218738D01*
X141006354Y-143207594D01*
X141006034Y-143206098D01*
X141012648Y-143204682D01*
X141176300Y-143150453D01*
X141176311Y-143150448D01*
X141323034Y-143059947D01*
X141323038Y-143059944D01*
X141444944Y-142938038D01*
X141444947Y-142938034D01*
X141535448Y-142791311D01*
X141535453Y-142791300D01*
X141589680Y-142627652D01*
X141599999Y-142526654D01*
X141600000Y-142526641D01*
X141600000Y-142490000D01*
X140486500Y-142490000D01*
X140419461Y-142470315D01*
X140373706Y-142417511D01*
X140362500Y-142366000D01*
X140362500Y-141990000D01*
X140862500Y-141990000D01*
X141599999Y-141990000D01*
X141599999Y-141953360D01*
X141599998Y-141953345D01*
X141589680Y-141852347D01*
X141535453Y-141688699D01*
X141535448Y-141688688D01*
X141444947Y-141541965D01*
X141444944Y-141541961D01*
X141323038Y-141420055D01*
X141323034Y-141420052D01*
X141176311Y-141329551D01*
X141176300Y-141329546D01*
X141012652Y-141275319D01*
X140911654Y-141265000D01*
X140862500Y-141265000D01*
X140862500Y-141990000D01*
X140362500Y-141990000D01*
X140362500Y-141265000D01*
X140362499Y-141264999D01*
X140313361Y-141265000D01*
X140313343Y-141265001D01*
X140212347Y-141275319D01*
X140048699Y-141329546D01*
X140048688Y-141329551D01*
X139901965Y-141420052D01*
X139788034Y-141533983D01*
X139726711Y-141567467D01*
X139657019Y-141562483D01*
X139612672Y-141533982D01*
X139498351Y-141419661D01*
X139498350Y-141419660D01*
X139396600Y-141356900D01*
X139351518Y-141329093D01*
X139351513Y-141329091D01*
X139350069Y-141328612D01*
X139187753Y-141274826D01*
X139187751Y-141274825D01*
X139086678Y-141264500D01*
X138488330Y-141264500D01*
X138488312Y-141264501D01*
X138387247Y-141274825D01*
X138223484Y-141329092D01*
X138223481Y-141329093D01*
X138076648Y-141419661D01*
X138031851Y-141464457D01*
X137970528Y-141497941D01*
X137930288Y-141499994D01*
X137795003Y-141484751D01*
X137794996Y-141484751D01*
X137659709Y-141499994D01*
X137590888Y-141487939D01*
X137558145Y-141464455D01*
X137518775Y-141425085D01*
X137485290Y-141363762D01*
X137490274Y-141294070D01*
X137518773Y-141249725D01*
X142304464Y-136464036D01*
X142403013Y-136316547D01*
X142470895Y-136152666D01*
X142505500Y-135978692D01*
X142505500Y-135801308D01*
X142505500Y-129964362D01*
X142525185Y-129897323D01*
X142541819Y-129876681D01*
X145116681Y-127301819D01*
X145178004Y-127268334D01*
X145204362Y-127265500D01*
X148329328Y-127265500D01*
X148329329Y-127265499D01*
X148503301Y-127230895D01*
X148585241Y-127196953D01*
X148667182Y-127163013D01*
X148763671Y-127098541D01*
X148814671Y-127064464D01*
X149547755Y-126331379D01*
X149609074Y-126297897D01*
X149678765Y-126302881D01*
X149734699Y-126344752D01*
X149759116Y-126410217D01*
X149757401Y-126441414D01*
X149714786Y-126673960D01*
X149695065Y-127000000D01*
X149714786Y-127326038D01*
X149773667Y-127647341D01*
X149870835Y-127959164D01*
X149870839Y-127959175D01*
X150004897Y-128257041D01*
X150004898Y-128257043D01*
X150173881Y-128536576D01*
X150321476Y-128724968D01*
X151463708Y-127582736D01*
X151560967Y-127716602D01*
X151683398Y-127839033D01*
X151817262Y-127936290D01*
X150675030Y-129078522D01*
X150675030Y-129078523D01*
X150863423Y-129226118D01*
X151142956Y-129395101D01*
X151142958Y-129395102D01*
X151440824Y-129529160D01*
X151440835Y-129529164D01*
X151752658Y-129626332D01*
X152073961Y-129685213D01*
X152400000Y-129704934D01*
X152726038Y-129685213D01*
X153047341Y-129626332D01*
X153359164Y-129529164D01*
X153359175Y-129529160D01*
X153657041Y-129395102D01*
X153657043Y-129395101D01*
X153936586Y-129226112D01*
X154124968Y-129078523D01*
X154124968Y-129078522D01*
X152982737Y-127936290D01*
X153116602Y-127839033D01*
X153239033Y-127716602D01*
X153336290Y-127582736D01*
X154478522Y-128724968D01*
X154478523Y-128724968D01*
X154626112Y-128536586D01*
X154795101Y-128257043D01*
X154795102Y-128257041D01*
X154929160Y-127959175D01*
X154929164Y-127959164D01*
X155026332Y-127647341D01*
X155085213Y-127326038D01*
X155104934Y-127000000D01*
X155085213Y-126673961D01*
X155026332Y-126352658D01*
X154929164Y-126040835D01*
X154929160Y-126040824D01*
X154795102Y-125742958D01*
X154795101Y-125742956D01*
X154626118Y-125463423D01*
X154478522Y-125275030D01*
X153336290Y-126417261D01*
X153239033Y-126283398D01*
X153116602Y-126160967D01*
X152982736Y-126063709D01*
X154124968Y-124921476D01*
X153936576Y-124773881D01*
X153657043Y-124604898D01*
X153657041Y-124604897D01*
X153359175Y-124470839D01*
X153359164Y-124470835D01*
X153047341Y-124373667D01*
X152726038Y-124314786D01*
X152400000Y-124295065D01*
X152073960Y-124314786D01*
X151841412Y-124357402D01*
X151771923Y-124350124D01*
X151717399Y-124306432D01*
X151695153Y-124240199D01*
X151712246Y-124172452D01*
X151731372Y-124147762D01*
X153099463Y-122779671D01*
X153099464Y-122779670D01*
X153198013Y-122632182D01*
X153265894Y-122468301D01*
X153281569Y-122389500D01*
X153298700Y-122303375D01*
X153298701Y-122303369D01*
X153300500Y-122294327D01*
X153300500Y-121118759D01*
X153315142Y-121060305D01*
X153321400Y-121048597D01*
X153328814Y-121034727D01*
X153386024Y-120846132D01*
X153405341Y-120650000D01*
X157109659Y-120650000D01*
X157128975Y-120846129D01*
X157128976Y-120846132D01*
X157186185Y-121034725D01*
X157186188Y-121034733D01*
X157279086Y-121208532D01*
X157279090Y-121208539D01*
X157404116Y-121360883D01*
X157556460Y-121485909D01*
X157556467Y-121485913D01*
X157730266Y-121578811D01*
X157730269Y-121578811D01*
X157730273Y-121578814D01*
X157918868Y-121636024D01*
X158115000Y-121655341D01*
X158311132Y-121636024D01*
X158499727Y-121578814D01*
X158673538Y-121485910D01*
X158682387Y-121478647D01*
X158746696Y-121451334D01*
X158761053Y-121450500D01*
X159730500Y-121450500D01*
X159797539Y-121470185D01*
X159843294Y-121522989D01*
X159854500Y-121574500D01*
X159854500Y-122633846D01*
X159885261Y-122788489D01*
X159885264Y-122788501D01*
X159945602Y-122934172D01*
X159945609Y-122934185D01*
X160033210Y-123065288D01*
X160033213Y-123065292D01*
X160779707Y-123811786D01*
X160779711Y-123811789D01*
X160910814Y-123899390D01*
X160910818Y-123899392D01*
X160910821Y-123899394D01*
X161056503Y-123959738D01*
X161188937Y-123986080D01*
X161211153Y-123990499D01*
X161211157Y-123990500D01*
X161211158Y-123990500D01*
X161368843Y-123990500D01*
X163447060Y-123990500D01*
X163514099Y-124010185D01*
X163534741Y-124026819D01*
X163628181Y-124120259D01*
X163661666Y-124181582D01*
X163664500Y-124207940D01*
X163664500Y-124630950D01*
X163644815Y-124697989D01*
X163592011Y-124743744D01*
X163522853Y-124753688D01*
X163459297Y-124724663D01*
X163452819Y-124718631D01*
X163431082Y-124696894D01*
X163237578Y-124561399D01*
X163023492Y-124461570D01*
X163023486Y-124461567D01*
X162810000Y-124404364D01*
X162810000Y-125301988D01*
X162752993Y-125269075D01*
X162625826Y-125235000D01*
X162494174Y-125235000D01*
X162367007Y-125269075D01*
X162310000Y-125301988D01*
X162310000Y-124404364D01*
X162309999Y-124404364D01*
X162096513Y-124461567D01*
X162096507Y-124461570D01*
X161882422Y-124561399D01*
X161882420Y-124561400D01*
X161688926Y-124696886D01*
X161688920Y-124696891D01*
X161521891Y-124863920D01*
X161521886Y-124863926D01*
X161386400Y-125057420D01*
X161386399Y-125057422D01*
X161286570Y-125271507D01*
X161286567Y-125271513D01*
X161229364Y-125484999D01*
X161229364Y-125485000D01*
X162126988Y-125485000D01*
X162094075Y-125542007D01*
X162060000Y-125669174D01*
X162060000Y-125800826D01*
X162094075Y-125927993D01*
X162126988Y-125985000D01*
X161229364Y-125985000D01*
X161286567Y-126198486D01*
X161286570Y-126198492D01*
X161386399Y-126412578D01*
X161521894Y-126606082D01*
X161643946Y-126728134D01*
X161677431Y-126789457D01*
X161672447Y-126859149D01*
X161630575Y-126915082D01*
X161599598Y-126931997D01*
X161467671Y-126981202D01*
X161467664Y-126981206D01*
X161352455Y-127067452D01*
X161352452Y-127067455D01*
X161266206Y-127182664D01*
X161266202Y-127182671D01*
X161215908Y-127317517D01*
X161209501Y-127377116D01*
X161209500Y-127377135D01*
X161209500Y-129172870D01*
X161209501Y-129172876D01*
X161215908Y-129232483D01*
X161266202Y-129367328D01*
X161266206Y-129367335D01*
X161352452Y-129482544D01*
X161352455Y-129482547D01*
X161467664Y-129568793D01*
X161467671Y-129568797D01*
X161602517Y-129619091D01*
X161602516Y-129619091D01*
X161609444Y-129619835D01*
X161662127Y-129625500D01*
X163457872Y-129625499D01*
X163517483Y-129619091D01*
X163517482Y-129619091D01*
X163525196Y-129618262D01*
X163525503Y-129621118D01*
X163581735Y-129624124D01*
X163638413Y-129664981D01*
X163664005Y-129729996D01*
X163664500Y-129741067D01*
X163664500Y-129792060D01*
X163644815Y-129859099D01*
X163628181Y-129879741D01*
X163534741Y-129973181D01*
X163473418Y-130006666D01*
X163447060Y-130009500D01*
X161211153Y-130009500D01*
X161056510Y-130040260D01*
X161056502Y-130040262D01*
X160910824Y-130100604D01*
X160910814Y-130100609D01*
X160779711Y-130188210D01*
X160779709Y-130188212D01*
X160451877Y-130516045D01*
X160144711Y-130823211D01*
X160110620Y-130857302D01*
X160033209Y-130934712D01*
X159945609Y-131065814D01*
X159945602Y-131065827D01*
X159885264Y-131211498D01*
X159885261Y-131211510D01*
X159854500Y-131366153D01*
X159854500Y-134063846D01*
X159885261Y-134218489D01*
X159885264Y-134218501D01*
X159945602Y-134364172D01*
X159945609Y-134364185D01*
X160033210Y-134495288D01*
X160033213Y-134495292D01*
X160698211Y-135160289D01*
X160758857Y-135220935D01*
X160809712Y-135271790D01*
X160940814Y-135359390D01*
X160940827Y-135359397D01*
X161086498Y-135419735D01*
X161086503Y-135419737D01*
X161241153Y-135450499D01*
X161241156Y-135450500D01*
X161241158Y-135450500D01*
X161659369Y-135450500D01*
X161726405Y-135470183D01*
X161826906Y-135534770D01*
X161826910Y-135534772D01*
X161826923Y-135534779D01*
X161951642Y-135591736D01*
X161955941Y-135593985D01*
X162008489Y-135609414D01*
X162095744Y-135635035D01*
X162095745Y-135635035D01*
X162095748Y-135635036D01*
X162138183Y-135641136D01*
X162238059Y-135655497D01*
X162294399Y-135655497D01*
X162294409Y-135655500D01*
X162345764Y-135655500D01*
X162825573Y-135655500D01*
X162825601Y-135655497D01*
X162881940Y-135655497D01*
X162881941Y-135655497D01*
X163015479Y-135636297D01*
X163015481Y-135636297D01*
X163021612Y-135635415D01*
X163024256Y-135635035D01*
X163024257Y-135635035D01*
X163162309Y-135594498D01*
X163293074Y-135534779D01*
X163293081Y-135534776D01*
X163293081Y-135534775D01*
X163293094Y-135534770D01*
X163414130Y-135456986D01*
X163421616Y-135450500D01*
X163457118Y-135419737D01*
X163522791Y-135362832D01*
X163522794Y-135362829D01*
X163617015Y-135254091D01*
X163694747Y-135133137D01*
X163754517Y-135002259D01*
X163795024Y-134864304D01*
X163815500Y-134721889D01*
X163815500Y-134619999D01*
X171364341Y-134619999D01*
X171364341Y-134620000D01*
X171384936Y-134855403D01*
X171384938Y-134855413D01*
X171446094Y-135083655D01*
X171446096Y-135083659D01*
X171446097Y-135083663D01*
X171533822Y-135271789D01*
X171545965Y-135297830D01*
X171545967Y-135297834D01*
X171681501Y-135491395D01*
X171681506Y-135491402D01*
X171848597Y-135658493D01*
X171848603Y-135658498D01*
X172034158Y-135788425D01*
X172077783Y-135843002D01*
X172084977Y-135912500D01*
X172053454Y-135974855D01*
X172034158Y-135991575D01*
X171848597Y-136121505D01*
X171681505Y-136288597D01*
X171545965Y-136482169D01*
X171545964Y-136482171D01*
X171446098Y-136696335D01*
X171446094Y-136696344D01*
X171384938Y-136924586D01*
X171384936Y-136924596D01*
X171364341Y-137159999D01*
X171364341Y-137160000D01*
X171384936Y-137395403D01*
X171384938Y-137395413D01*
X171446094Y-137623655D01*
X171446096Y-137623659D01*
X171446097Y-137623663D01*
X171468740Y-137672220D01*
X171545965Y-137837830D01*
X171545967Y-137837834D01*
X171652918Y-137990575D01*
X171681504Y-138031400D01*
X171681506Y-138031402D01*
X171848597Y-138198493D01*
X171848603Y-138198498D01*
X172034158Y-138328425D01*
X172077783Y-138383002D01*
X172084977Y-138452500D01*
X172053454Y-138514855D01*
X172034158Y-138531575D01*
X171848597Y-138661505D01*
X171681505Y-138828597D01*
X171545965Y-139022169D01*
X171545964Y-139022171D01*
X171446098Y-139236335D01*
X171446094Y-139236344D01*
X171384938Y-139464586D01*
X171384936Y-139464596D01*
X171364341Y-139699999D01*
X171364341Y-139700000D01*
X171384936Y-139935403D01*
X171384938Y-139935413D01*
X171446094Y-140163655D01*
X171446096Y-140163659D01*
X171446097Y-140163663D01*
X171459713Y-140192862D01*
X171545965Y-140377830D01*
X171545967Y-140377834D01*
X171681501Y-140571395D01*
X171681506Y-140571402D01*
X171848597Y-140738493D01*
X171848603Y-140738498D01*
X172034158Y-140868425D01*
X172077783Y-140923002D01*
X172084977Y-140992500D01*
X172053454Y-141054855D01*
X172034158Y-141071575D01*
X171848597Y-141201505D01*
X171681505Y-141368597D01*
X171545965Y-141562169D01*
X171545964Y-141562171D01*
X171446098Y-141776335D01*
X171446094Y-141776344D01*
X171384938Y-142004586D01*
X171384936Y-142004596D01*
X171364341Y-142239999D01*
X171364341Y-142240000D01*
X171384936Y-142475403D01*
X171384938Y-142475413D01*
X171446094Y-142703655D01*
X171446096Y-142703659D01*
X171446097Y-142703663D01*
X171543660Y-142912886D01*
X171545965Y-142917830D01*
X171545967Y-142917834D01*
X171645474Y-143059944D01*
X171681505Y-143111401D01*
X171848599Y-143278495D01*
X171931319Y-143336416D01*
X172042165Y-143414032D01*
X172042167Y-143414033D01*
X172042170Y-143414035D01*
X172256337Y-143513903D01*
X172484592Y-143575063D01*
X172672918Y-143591539D01*
X172719999Y-143595659D01*
X172720000Y-143595659D01*
X172720001Y-143595659D01*
X172759234Y-143592226D01*
X172955408Y-143575063D01*
X173183663Y-143513903D01*
X173397830Y-143414035D01*
X173591401Y-143278495D01*
X173758495Y-143111401D01*
X173894035Y-142917830D01*
X173993903Y-142703663D01*
X174055063Y-142475408D01*
X174075659Y-142240000D01*
X174074569Y-142227547D01*
X174064489Y-142112331D01*
X174055063Y-142004592D01*
X173993903Y-141776337D01*
X173894035Y-141562171D01*
X173879667Y-141541650D01*
X173758494Y-141368597D01*
X173591402Y-141201506D01*
X173591396Y-141201501D01*
X173405842Y-141071575D01*
X173362217Y-141016998D01*
X173355023Y-140947500D01*
X173386546Y-140885145D01*
X173405842Y-140868425D01*
X173428026Y-140852891D01*
X173591401Y-140738495D01*
X173758495Y-140571401D01*
X173894035Y-140377830D01*
X173993903Y-140163663D01*
X174055063Y-139935408D01*
X174075659Y-139700000D01*
X174055063Y-139464592D01*
X173993903Y-139236337D01*
X173894035Y-139022171D01*
X173876177Y-138996666D01*
X173758494Y-138828597D01*
X173591402Y-138661506D01*
X173591396Y-138661501D01*
X173405842Y-138531575D01*
X173362217Y-138476998D01*
X173355023Y-138407500D01*
X173386546Y-138345145D01*
X173405842Y-138328425D01*
X173482248Y-138274925D01*
X173591401Y-138198495D01*
X173758495Y-138031401D01*
X173894035Y-137837830D01*
X173993903Y-137623663D01*
X174055063Y-137395408D01*
X174075659Y-137160000D01*
X174055063Y-136924592D01*
X173993903Y-136696337D01*
X173894035Y-136482171D01*
X173888731Y-136474595D01*
X173758494Y-136288597D01*
X173591402Y-136121506D01*
X173591396Y-136121501D01*
X173405842Y-135991575D01*
X173362217Y-135936998D01*
X173355023Y-135867500D01*
X173386546Y-135805145D01*
X173405842Y-135788425D01*
X173463776Y-135747859D01*
X173591401Y-135658495D01*
X173758495Y-135491401D01*
X173894035Y-135297830D01*
X173993903Y-135083663D01*
X174055063Y-134855408D01*
X174075659Y-134620000D01*
X174055063Y-134384592D01*
X174000435Y-134180714D01*
X173993905Y-134156344D01*
X173993904Y-134156343D01*
X173993903Y-134156337D01*
X173894035Y-133942171D01*
X173758495Y-133748599D01*
X173758494Y-133748597D01*
X173591402Y-133581506D01*
X173591395Y-133581501D01*
X173397834Y-133445967D01*
X173397830Y-133445965D01*
X173356456Y-133426672D01*
X173183663Y-133346097D01*
X173183659Y-133346096D01*
X173183655Y-133346094D01*
X172955413Y-133284938D01*
X172955403Y-133284936D01*
X172720001Y-133264341D01*
X172719999Y-133264341D01*
X172484596Y-133284936D01*
X172484586Y-133284938D01*
X172256344Y-133346094D01*
X172256335Y-133346098D01*
X172042171Y-133445964D01*
X172042169Y-133445965D01*
X171848597Y-133581505D01*
X171681505Y-133748597D01*
X171545965Y-133942169D01*
X171545964Y-133942171D01*
X171461089Y-134124187D01*
X171447371Y-134153606D01*
X171446098Y-134156335D01*
X171446094Y-134156344D01*
X171384938Y-134384586D01*
X171384936Y-134384596D01*
X171364341Y-134619999D01*
X163815500Y-134619999D01*
X163815500Y-134274500D01*
X163835185Y-134207461D01*
X163887989Y-134161706D01*
X163939500Y-134150500D01*
X165178844Y-134150500D01*
X165178845Y-134150499D01*
X165333497Y-134119737D01*
X165468436Y-134063844D01*
X165479172Y-134059397D01*
X165479172Y-134059396D01*
X165479179Y-134059394D01*
X165610289Y-133971789D01*
X167935259Y-131646819D01*
X167996582Y-131613334D01*
X168022940Y-131610500D01*
X171247649Y-131610500D01*
X171314688Y-131630185D01*
X171360443Y-131682989D01*
X171370939Y-131721248D01*
X171375908Y-131767483D01*
X171426202Y-131902328D01*
X171426206Y-131902335D01*
X171512452Y-132017544D01*
X171512455Y-132017547D01*
X171627664Y-132103793D01*
X171627671Y-132103797D01*
X171762517Y-132154091D01*
X171762516Y-132154091D01*
X171769444Y-132154835D01*
X171822127Y-132160500D01*
X173617872Y-132160499D01*
X173677483Y-132154091D01*
X173812331Y-132103796D01*
X173927546Y-132017546D01*
X174013796Y-131902331D01*
X174064091Y-131767483D01*
X174070500Y-131707873D01*
X174070499Y-129912128D01*
X174064091Y-129852517D01*
X174035331Y-129775408D01*
X174013797Y-129717671D01*
X174013793Y-129717664D01*
X173927547Y-129602455D01*
X173927544Y-129602452D01*
X173812335Y-129516206D01*
X173812328Y-129516202D01*
X173680401Y-129466997D01*
X173624467Y-129425126D01*
X173600050Y-129359662D01*
X173614902Y-129291389D01*
X173636053Y-129263133D01*
X173758108Y-129141078D01*
X173893600Y-128947578D01*
X173993429Y-128733492D01*
X173993432Y-128733486D01*
X174050636Y-128520000D01*
X173153012Y-128520000D01*
X173185925Y-128462993D01*
X173220000Y-128335826D01*
X173220000Y-128204174D01*
X173185925Y-128077007D01*
X173153012Y-128020000D01*
X174050636Y-128020000D01*
X174050635Y-128019999D01*
X173993432Y-127806513D01*
X173993429Y-127806507D01*
X173893600Y-127592422D01*
X173893599Y-127592420D01*
X173758113Y-127398926D01*
X173758108Y-127398920D01*
X173591082Y-127231894D01*
X173404968Y-127101575D01*
X173361344Y-127046998D01*
X173354151Y-126977499D01*
X173385673Y-126915145D01*
X173404968Y-126898425D01*
X173591082Y-126768105D01*
X173758105Y-126601082D01*
X173893600Y-126407578D01*
X173993429Y-126193492D01*
X173993432Y-126193486D01*
X174050636Y-125980000D01*
X173153012Y-125980000D01*
X173185925Y-125922993D01*
X173220000Y-125795826D01*
X173220000Y-125664174D01*
X173185925Y-125537007D01*
X173153012Y-125480000D01*
X174050636Y-125480000D01*
X174050635Y-125479999D01*
X173993432Y-125266513D01*
X173993429Y-125266507D01*
X173893600Y-125052422D01*
X173893599Y-125052420D01*
X173758113Y-124858926D01*
X173758108Y-124858920D01*
X173636053Y-124736865D01*
X173602568Y-124675542D01*
X173607552Y-124605850D01*
X173649424Y-124549917D01*
X173680400Y-124533002D01*
X173812331Y-124483796D01*
X173927546Y-124397546D01*
X174013796Y-124282331D01*
X174064091Y-124147483D01*
X174070500Y-124087873D01*
X174070499Y-122292128D01*
X174064091Y-122232517D01*
X174061500Y-122225571D01*
X174013797Y-122097671D01*
X174013793Y-122097664D01*
X173927547Y-121982455D01*
X173927544Y-121982452D01*
X173812335Y-121896206D01*
X173812328Y-121896202D01*
X173677482Y-121845908D01*
X173677483Y-121845908D01*
X173617883Y-121839501D01*
X173617881Y-121839500D01*
X173617873Y-121839500D01*
X173617864Y-121839500D01*
X171822129Y-121839500D01*
X171822123Y-121839501D01*
X171762516Y-121845908D01*
X171627671Y-121896202D01*
X171627664Y-121896206D01*
X171512455Y-121982452D01*
X171512452Y-121982455D01*
X171426206Y-122097664D01*
X171426202Y-122097671D01*
X171375910Y-122232513D01*
X171375909Y-122232517D01*
X171370937Y-122278757D01*
X171344201Y-122343306D01*
X171286809Y-122383154D01*
X171247649Y-122389500D01*
X168022940Y-122389500D01*
X167955901Y-122369815D01*
X167935259Y-122353181D01*
X165610291Y-120028212D01*
X165610288Y-120028210D01*
X165479185Y-119940609D01*
X165479172Y-119940602D01*
X165333501Y-119880264D01*
X165333489Y-119880261D01*
X165178845Y-119849500D01*
X165178842Y-119849500D01*
X163939500Y-119849500D01*
X163872461Y-119829815D01*
X163826706Y-119777011D01*
X163815500Y-119725500D01*
X163815500Y-119278114D01*
X163815500Y-119278111D01*
X163795024Y-119135696D01*
X163754517Y-118997741D01*
X163694747Y-118866863D01*
X163620623Y-118751523D01*
X163619802Y-118750081D01*
X163617011Y-118745901D01*
X163522792Y-118637169D01*
X163522789Y-118637166D01*
X163414135Y-118543018D01*
X163414132Y-118543015D01*
X163360575Y-118508597D01*
X163293094Y-118465230D01*
X163293087Y-118465227D01*
X163293081Y-118465223D01*
X163168356Y-118408263D01*
X163164057Y-118406014D01*
X163024261Y-118364966D01*
X163024251Y-118364963D01*
X162896300Y-118346567D01*
X162881941Y-118344503D01*
X162881940Y-118344503D01*
X162825601Y-118344503D01*
X162825591Y-118344500D01*
X162774236Y-118344500D01*
X162345764Y-118344500D01*
X162294427Y-118344500D01*
X162294399Y-118344503D01*
X162238059Y-118344503D01*
X162104521Y-118363703D01*
X162104519Y-118363703D01*
X162095744Y-118364964D01*
X161957686Y-118405503D01*
X161826918Y-118465223D01*
X161826905Y-118465230D01*
X161781575Y-118494362D01*
X161726405Y-118529816D01*
X161659369Y-118549500D01*
X161241155Y-118549500D01*
X161086510Y-118580261D01*
X161086498Y-118580264D01*
X160940827Y-118640602D01*
X160940814Y-118640609D01*
X160809711Y-118728210D01*
X160809707Y-118728213D01*
X160283922Y-119254000D01*
X160144711Y-119393211D01*
X160107237Y-119430685D01*
X160033209Y-119504712D01*
X159945609Y-119635814D01*
X159945602Y-119635827D01*
X159895227Y-119757447D01*
X159890133Y-119769747D01*
X159888805Y-119772952D01*
X159844965Y-119827356D01*
X159778671Y-119849421D01*
X159774244Y-119849500D01*
X158761053Y-119849500D01*
X158694014Y-119829815D01*
X158682392Y-119821356D01*
X158673538Y-119814090D01*
X158673537Y-119814089D01*
X158673534Y-119814087D01*
X158673532Y-119814086D01*
X158499733Y-119721188D01*
X158499727Y-119721186D01*
X158311132Y-119663976D01*
X158311129Y-119663975D01*
X158115000Y-119644659D01*
X157918870Y-119663975D01*
X157730266Y-119721188D01*
X157556467Y-119814086D01*
X157556460Y-119814090D01*
X157404116Y-119939116D01*
X157279090Y-120091460D01*
X157279086Y-120091467D01*
X157186188Y-120265266D01*
X157128975Y-120453870D01*
X157109659Y-120650000D01*
X153405341Y-120650000D01*
X153386024Y-120453868D01*
X153328814Y-120265273D01*
X153328811Y-120265269D01*
X153328811Y-120265266D01*
X153235913Y-120091467D01*
X153235909Y-120091460D01*
X153110883Y-119939116D01*
X152958539Y-119814090D01*
X152958532Y-119814086D01*
X152784733Y-119721188D01*
X152784727Y-119721186D01*
X152596132Y-119663976D01*
X152596129Y-119663975D01*
X152562222Y-119660636D01*
X152497435Y-119634475D01*
X152457077Y-119577440D01*
X152452760Y-119513041D01*
X152465500Y-119448995D01*
X152465500Y-117721476D01*
X152472459Y-117680521D01*
X152501313Y-117598061D01*
X152501313Y-117598059D01*
X152520249Y-117430002D01*
X152520249Y-117429997D01*
X152501314Y-117261943D01*
X152455856Y-117132031D01*
X152445456Y-117102310D01*
X152445455Y-117102309D01*
X152445454Y-117102305D01*
X152445452Y-117102302D01*
X152355481Y-116959115D01*
X152355476Y-116959109D01*
X152235890Y-116839523D01*
X152235884Y-116839518D01*
X152092697Y-116749547D01*
X152092694Y-116749545D01*
X151933056Y-116693685D01*
X151765003Y-116674751D01*
X151764997Y-116674751D01*
X151596943Y-116693685D01*
X151437305Y-116749545D01*
X151437302Y-116749547D01*
X151294115Y-116839518D01*
X151294109Y-116839523D01*
X151174523Y-116959109D01*
X151174518Y-116959115D01*
X151084547Y-117102302D01*
X151084545Y-117102305D01*
X151028685Y-117261944D01*
X151022683Y-117315220D01*
X150995616Y-117379634D01*
X150938021Y-117419189D01*
X150868184Y-117421326D01*
X150833493Y-117406331D01*
X150822693Y-117399545D01*
X150822694Y-117399545D01*
X150663056Y-117343685D01*
X150495003Y-117324751D01*
X150494997Y-117324751D01*
X150326943Y-117343685D01*
X150167305Y-117399545D01*
X150167302Y-117399547D01*
X150024115Y-117489518D01*
X150024109Y-117489523D01*
X149904523Y-117609109D01*
X149904518Y-117609115D01*
X149814547Y-117752302D01*
X149814545Y-117752305D01*
X149758685Y-117911944D01*
X149752683Y-117965220D01*
X149725616Y-118029634D01*
X149668021Y-118069189D01*
X149598184Y-118071326D01*
X149563493Y-118056331D01*
X149552693Y-118049545D01*
X149552694Y-118049545D01*
X149393056Y-117993685D01*
X149225003Y-117974751D01*
X149224997Y-117974751D01*
X149056943Y-117993685D01*
X148897305Y-118049545D01*
X148897302Y-118049547D01*
X148754115Y-118139518D01*
X148754109Y-118139523D01*
X148634523Y-118259109D01*
X148634518Y-118259115D01*
X148544547Y-118402302D01*
X148544545Y-118402305D01*
X148488685Y-118561944D01*
X148482683Y-118615220D01*
X148455616Y-118679634D01*
X148398021Y-118719189D01*
X148328184Y-118721326D01*
X148293493Y-118706331D01*
X148282693Y-118699545D01*
X148282694Y-118699545D01*
X148123056Y-118643685D01*
X147955003Y-118624751D01*
X147954997Y-118624751D01*
X147786943Y-118643685D01*
X147627305Y-118699545D01*
X147627302Y-118699547D01*
X147484115Y-118789518D01*
X147484109Y-118789523D01*
X147364523Y-118909109D01*
X147274545Y-119052307D01*
X147274539Y-119052320D01*
X147274471Y-119052516D01*
X147274361Y-119052690D01*
X147271524Y-119058582D01*
X147270859Y-119058262D01*
X147245117Y-119099224D01*
X145161162Y-121183181D01*
X145099839Y-121216666D01*
X145073481Y-121219500D01*
X142171004Y-121219500D01*
X142035677Y-121246418D01*
X142035667Y-121246421D01*
X141908192Y-121299222D01*
X141793454Y-121375887D01*
X141793453Y-121375888D01*
X141247181Y-121922161D01*
X141185858Y-121955646D01*
X141116166Y-121950662D01*
X141060233Y-121908790D01*
X141035816Y-121843326D01*
X141035500Y-121834480D01*
X141035500Y-108516004D01*
X141008581Y-108380677D01*
X141008580Y-108380676D01*
X141008580Y-108380672D01*
X140995294Y-108348597D01*
X140955778Y-108253195D01*
X140955774Y-108253188D01*
X140907877Y-108181505D01*
X140879114Y-108138457D01*
X137252651Y-104511994D01*
X137219166Y-104450671D01*
X137220558Y-104392217D01*
X137225063Y-104375408D01*
X137245659Y-104140000D01*
X137225063Y-103904592D01*
X137163903Y-103676337D01*
X137064035Y-103462171D01*
X136928495Y-103268599D01*
X136928494Y-103268597D01*
X136761402Y-103101506D01*
X136761396Y-103101501D01*
X136575842Y-102971575D01*
X136532217Y-102916998D01*
X136525023Y-102847500D01*
X136556546Y-102785145D01*
X136575842Y-102768425D01*
X136598026Y-102752891D01*
X136761401Y-102638495D01*
X136928495Y-102471401D01*
X137064035Y-102277830D01*
X137163903Y-102063663D01*
X137225063Y-101835408D01*
X137245659Y-101600000D01*
X137225063Y-101364592D01*
X137163903Y-101136337D01*
X137064035Y-100922171D01*
X136928495Y-100728599D01*
X136928494Y-100728597D01*
X136761402Y-100561506D01*
X136761396Y-100561501D01*
X136575842Y-100431575D01*
X136532217Y-100376998D01*
X136525023Y-100307500D01*
X136556546Y-100245145D01*
X136575842Y-100228425D01*
X136598026Y-100212891D01*
X136761401Y-100098495D01*
X136928495Y-99931401D01*
X137064035Y-99737830D01*
X137163903Y-99523663D01*
X137225063Y-99295408D01*
X137245659Y-99060000D01*
X137225063Y-98824592D01*
X137163903Y-98596337D01*
X137064035Y-98382171D01*
X136928495Y-98188599D01*
X136928494Y-98188597D01*
X136761402Y-98021506D01*
X136761396Y-98021501D01*
X136575842Y-97891575D01*
X136532217Y-97836998D01*
X136525023Y-97767500D01*
X136556546Y-97705145D01*
X136575842Y-97688425D01*
X136598026Y-97672891D01*
X136761401Y-97558495D01*
X136928495Y-97391401D01*
X137064035Y-97197830D01*
X137163903Y-96983663D01*
X137225063Y-96755408D01*
X137245659Y-96520000D01*
X137225063Y-96284592D01*
X137220558Y-96267779D01*
X137222219Y-96197932D01*
X137252649Y-96148006D01*
X138137821Y-95262834D01*
X138199142Y-95229351D01*
X138268834Y-95234335D01*
X138324767Y-95276207D01*
X138349184Y-95341671D01*
X138349500Y-95350517D01*
X138349500Y-96147870D01*
X138349501Y-96147876D01*
X138355908Y-96207483D01*
X138406202Y-96342328D01*
X138406206Y-96342335D01*
X138492452Y-96457544D01*
X138492455Y-96457547D01*
X138607664Y-96543793D01*
X138607671Y-96543797D01*
X138742517Y-96594091D01*
X138742516Y-96594091D01*
X138749444Y-96594835D01*
X138802127Y-96600500D01*
X140597872Y-96600499D01*
X140657483Y-96594091D01*
X140792331Y-96543796D01*
X140907546Y-96457546D01*
X140993796Y-96342331D01*
X141044091Y-96207483D01*
X141050500Y-96147873D01*
X141050499Y-94352128D01*
X141044091Y-94292517D01*
X141038823Y-94278394D01*
X140993797Y-94157671D01*
X140993793Y-94157664D01*
X140907547Y-94042455D01*
X140907544Y-94042452D01*
X140792335Y-93956206D01*
X140792328Y-93956202D01*
X140660917Y-93907189D01*
X140604983Y-93865318D01*
X140580566Y-93799853D01*
X140595418Y-93731580D01*
X140616563Y-93703332D01*
X140738495Y-93581401D01*
X140874035Y-93387830D01*
X140973903Y-93173663D01*
X141035063Y-92945408D01*
X141055659Y-92710000D01*
X141035063Y-92474592D01*
X140973903Y-92246337D01*
X140874035Y-92032171D01*
X140785537Y-91905781D01*
X140738494Y-91838597D01*
X140571402Y-91671506D01*
X140571401Y-91671505D01*
X140385405Y-91541269D01*
X140341781Y-91486692D01*
X140334588Y-91417193D01*
X140366110Y-91354839D01*
X140385405Y-91338119D01*
X140571082Y-91208105D01*
X140738105Y-91041082D01*
X140873600Y-90847578D01*
X140973429Y-90633492D01*
X140973432Y-90633486D01*
X141030636Y-90420000D01*
X140133012Y-90420000D01*
X140165925Y-90362993D01*
X140200000Y-90235826D01*
X140200000Y-90104174D01*
X140165925Y-89977007D01*
X140133012Y-89920000D01*
X141030636Y-89920000D01*
X141030635Y-89919999D01*
X140973432Y-89706513D01*
X140973429Y-89706507D01*
X140873600Y-89492422D01*
X140873599Y-89492420D01*
X140738113Y-89298926D01*
X140738108Y-89298920D01*
X140571082Y-89131894D01*
X140377578Y-88996399D01*
X140163492Y-88896570D01*
X140163486Y-88896567D01*
X139950000Y-88839364D01*
X139950000Y-89736988D01*
X139892993Y-89704075D01*
X139765826Y-89670000D01*
X139634174Y-89670000D01*
X139507007Y-89704075D01*
X139450000Y-89736988D01*
X139450000Y-88839364D01*
X139449999Y-88839364D01*
X139236513Y-88896567D01*
X139236507Y-88896570D01*
X139022422Y-88996399D01*
X139022420Y-88996400D01*
X138828926Y-89131886D01*
X138828920Y-89131891D01*
X138661891Y-89298920D01*
X138661886Y-89298926D01*
X138526400Y-89492420D01*
X138526399Y-89492422D01*
X138426570Y-89706507D01*
X138426567Y-89706513D01*
X138369364Y-89919999D01*
X138369364Y-89920000D01*
X139266988Y-89920000D01*
X139234075Y-89977007D01*
X139200000Y-90104174D01*
X139200000Y-90235826D01*
X139234075Y-90362993D01*
X139266988Y-90420000D01*
X138369364Y-90420000D01*
X138426567Y-90633486D01*
X138426570Y-90633492D01*
X138526399Y-90847578D01*
X138661894Y-91041082D01*
X138828917Y-91208105D01*
X139014595Y-91338119D01*
X139058219Y-91392696D01*
X139065412Y-91462195D01*
X139033890Y-91524549D01*
X139014595Y-91541269D01*
X138828594Y-91671508D01*
X138661505Y-91838597D01*
X138525965Y-92032169D01*
X138525964Y-92032171D01*
X138426098Y-92246335D01*
X138426094Y-92246344D01*
X138364938Y-92474586D01*
X138364936Y-92474596D01*
X138344341Y-92709999D01*
X138344341Y-92710000D01*
X138364937Y-92945409D01*
X138364937Y-92945410D01*
X138369442Y-92962225D01*
X138367776Y-93032075D01*
X138337347Y-93081994D01*
X137225661Y-94193681D01*
X137164338Y-94227166D01*
X137137980Y-94230000D01*
X136323012Y-94230000D01*
X136355925Y-94172993D01*
X136390000Y-94045826D01*
X136390000Y-93914174D01*
X136355925Y-93787007D01*
X136323012Y-93730000D01*
X137220636Y-93730000D01*
X137220635Y-93729999D01*
X137163432Y-93516513D01*
X137163429Y-93516507D01*
X137063600Y-93302422D01*
X137063599Y-93302420D01*
X136928113Y-93108926D01*
X136928108Y-93108920D01*
X136761078Y-92941890D01*
X136575405Y-92811879D01*
X136531780Y-92757302D01*
X136524588Y-92687804D01*
X136556110Y-92625449D01*
X136575406Y-92608730D01*
X136761401Y-92478495D01*
X136928495Y-92311401D01*
X137064035Y-92117830D01*
X137163903Y-91903663D01*
X137225063Y-91675408D01*
X137245659Y-91440000D01*
X137225063Y-91204592D01*
X137163903Y-90976337D01*
X137064035Y-90762171D01*
X136999496Y-90670000D01*
X136928496Y-90568600D01*
X136928495Y-90568599D01*
X136806567Y-90446671D01*
X136773084Y-90385351D01*
X136778068Y-90315659D01*
X136819939Y-90259725D01*
X136850915Y-90242810D01*
X136982331Y-90193796D01*
X137097546Y-90107546D01*
X137183796Y-89992331D01*
X137234091Y-89857483D01*
X137240500Y-89797873D01*
X137240499Y-88002128D01*
X137234091Y-87942517D01*
X137214947Y-87891190D01*
X137183797Y-87807671D01*
X137183793Y-87807664D01*
X137097547Y-87692455D01*
X137097544Y-87692452D01*
X136982335Y-87606206D01*
X136982328Y-87606202D01*
X136847482Y-87555908D01*
X136847483Y-87555908D01*
X136787883Y-87549501D01*
X136787881Y-87549500D01*
X136787873Y-87549500D01*
X136787864Y-87549500D01*
X134992129Y-87549500D01*
X134992123Y-87549501D01*
X134932516Y-87555908D01*
X134797671Y-87606202D01*
X134797664Y-87606206D01*
X134682455Y-87692452D01*
X134682452Y-87692455D01*
X134596206Y-87807664D01*
X134596202Y-87807671D01*
X134545908Y-87942517D01*
X134539501Y-88002116D01*
X134539501Y-88002123D01*
X134539500Y-88002135D01*
X134539500Y-88784216D01*
X134519815Y-88851255D01*
X134503181Y-88871897D01*
X132792181Y-90582897D01*
X132730858Y-90616382D01*
X132661166Y-90611398D01*
X132605233Y-90569526D01*
X132580816Y-90504062D01*
X132580500Y-90495216D01*
X132580500Y-85659110D01*
X132580500Y-85659108D01*
X132546392Y-85531814D01*
X132480500Y-85417686D01*
X132387314Y-85324500D01*
X132325750Y-85288956D01*
X132273187Y-85258608D01*
X132209539Y-85241554D01*
X132145892Y-85224500D01*
X132145891Y-85224500D01*
X130447467Y-85224500D01*
X130380428Y-85204815D01*
X130334673Y-85152011D01*
X130324729Y-85082853D01*
X130351613Y-85021836D01*
X130359013Y-85012819D01*
X130389479Y-84975696D01*
X130419032Y-84935847D01*
X130432537Y-84915635D01*
X130458038Y-84873089D01*
X130538932Y-84721747D01*
X130560138Y-84676913D01*
X130569441Y-84654455D01*
X130586158Y-84607736D01*
X130635974Y-84443513D01*
X130648028Y-84395388D01*
X130652770Y-84371547D01*
X130660048Y-84322483D01*
X130677469Y-84145610D01*
X130679294Y-84120861D01*
X130679891Y-84108707D01*
X130680500Y-84083907D01*
X130680500Y-82921092D01*
X130679891Y-82896292D01*
X130679294Y-82884138D01*
X130677469Y-82859389D01*
X130660048Y-82682516D01*
X130652770Y-82633452D01*
X130648028Y-82609611D01*
X130635974Y-82561486D01*
X130586158Y-82397263D01*
X130569441Y-82350544D01*
X130560138Y-82328086D01*
X130538932Y-82283252D01*
X130538920Y-82283229D01*
X130458041Y-82131915D01*
X130458036Y-82131907D01*
X130458026Y-82131891D01*
X130432537Y-82089364D01*
X130419032Y-82069152D01*
X130389479Y-82029303D01*
X130351614Y-81983164D01*
X130324302Y-81918854D01*
X130336093Y-81849987D01*
X130383246Y-81798427D01*
X130447468Y-81780500D01*
X135824108Y-81780500D01*
X135887786Y-81780500D01*
X135892211Y-81780578D01*
X136393484Y-81798482D01*
X136402277Y-81799110D01*
X136898832Y-81852495D01*
X136907548Y-81853748D01*
X137399028Y-81942421D01*
X137407636Y-81944294D01*
X137891513Y-82067797D01*
X137899993Y-82070287D01*
X138373801Y-82227985D01*
X138382093Y-82231077D01*
X138843464Y-82422183D01*
X138851503Y-82425855D01*
X139298055Y-82649383D01*
X139305803Y-82653612D01*
X139735296Y-82908442D01*
X139742730Y-82913221D01*
X140152914Y-83198018D01*
X140160000Y-83203322D01*
X140360799Y-83365135D01*
X140548840Y-83516668D01*
X140555516Y-83522453D01*
X140738264Y-83692597D01*
X140921005Y-83862735D01*
X140927264Y-83868994D01*
X141184792Y-84145599D01*
X141267540Y-84234476D01*
X141273337Y-84241166D01*
X141586677Y-84629999D01*
X141591981Y-84637085D01*
X141876778Y-85047269D01*
X141881561Y-85054710D01*
X142135229Y-85482245D01*
X142136377Y-85484179D01*
X142140619Y-85491949D01*
X142364141Y-85938490D01*
X142367818Y-85946541D01*
X142558921Y-86407904D01*
X142562014Y-86416198D01*
X142719710Y-86890000D01*
X142722204Y-86898493D01*
X142845700Y-87382343D01*
X142847582Y-87390992D01*
X142936247Y-87882428D01*
X142937507Y-87891190D01*
X142990887Y-88387704D01*
X142991518Y-88396533D01*
X143009421Y-88897788D01*
X143009500Y-88902214D01*
X143009500Y-119361274D01*
X143009277Y-119368703D01*
X143006450Y-119415787D01*
X143006981Y-119418377D01*
X143009500Y-119443242D01*
X143009500Y-119445895D01*
X143021706Y-119491448D01*
X143023413Y-119498680D01*
X143032870Y-119544893D01*
X143032871Y-119544896D01*
X143034057Y-119547268D01*
X143042918Y-119570615D01*
X143043605Y-119573180D01*
X143043607Y-119573185D01*
X143067196Y-119614041D01*
X143070718Y-119620588D01*
X143077343Y-119633837D01*
X143077662Y-119634475D01*
X143078335Y-119635821D01*
X143082754Y-119644659D01*
X143083397Y-119645945D01*
X143091807Y-119662766D01*
X143093556Y-119664738D01*
X143093565Y-119664748D01*
X143108171Y-119685013D01*
X143109498Y-119687311D01*
X143109500Y-119687314D01*
X143109503Y-119687317D01*
X143142849Y-119720663D01*
X143147930Y-119726057D01*
X143179242Y-119761368D01*
X143179244Y-119761369D01*
X143181456Y-119762830D01*
X143200814Y-119778628D01*
X143202686Y-119780500D01*
X143243536Y-119804084D01*
X143249845Y-119807984D01*
X143272293Y-119822805D01*
X143289217Y-119833979D01*
X143291726Y-119834815D01*
X143314520Y-119845068D01*
X143316814Y-119846392D01*
X143362401Y-119858606D01*
X143369469Y-119860729D01*
X143414239Y-119875653D01*
X143416888Y-119875811D01*
X143441543Y-119879812D01*
X143444108Y-119880500D01*
X143491275Y-119880500D01*
X143498705Y-119880723D01*
X143545786Y-119883549D01*
X143548386Y-119883017D01*
X143573244Y-119880500D01*
X143575889Y-119880500D01*
X143575892Y-119880500D01*
X143621476Y-119868285D01*
X143628657Y-119866590D01*
X143674895Y-119857129D01*
X143677254Y-119855948D01*
X143700629Y-119847076D01*
X143703186Y-119846392D01*
X143744052Y-119822797D01*
X143750545Y-119819303D01*
X159869154Y-111759999D01*
X171364341Y-111759999D01*
X171364341Y-111760000D01*
X171384936Y-111995403D01*
X171384938Y-111995413D01*
X171446094Y-112223655D01*
X171446096Y-112223659D01*
X171446097Y-112223663D01*
X171520766Y-112383790D01*
X171545965Y-112437830D01*
X171545967Y-112437834D01*
X171681501Y-112631395D01*
X171681506Y-112631402D01*
X171848597Y-112798493D01*
X171848603Y-112798498D01*
X172034158Y-112928425D01*
X172077783Y-112983002D01*
X172084977Y-113052500D01*
X172053454Y-113114855D01*
X172034158Y-113131575D01*
X171848597Y-113261505D01*
X171681505Y-113428597D01*
X171545965Y-113622169D01*
X171545964Y-113622171D01*
X171446098Y-113836335D01*
X171446094Y-113836344D01*
X171384938Y-114064586D01*
X171384936Y-114064596D01*
X171364341Y-114299999D01*
X171364341Y-114300000D01*
X171384936Y-114535403D01*
X171384938Y-114535413D01*
X171446094Y-114763655D01*
X171446096Y-114763659D01*
X171446097Y-114763663D01*
X171545965Y-114977830D01*
X171545967Y-114977834D01*
X171681501Y-115171395D01*
X171681506Y-115171402D01*
X171848597Y-115338493D01*
X171848603Y-115338498D01*
X172034158Y-115468425D01*
X172077783Y-115523002D01*
X172084977Y-115592500D01*
X172053454Y-115654855D01*
X172034158Y-115671575D01*
X171848597Y-115801505D01*
X171681505Y-115968597D01*
X171545965Y-116162169D01*
X171545964Y-116162171D01*
X171446098Y-116376335D01*
X171446094Y-116376344D01*
X171384938Y-116604586D01*
X171384936Y-116604596D01*
X171364341Y-116839999D01*
X171364341Y-116840000D01*
X171384936Y-117075403D01*
X171384938Y-117075413D01*
X171446094Y-117303655D01*
X171446096Y-117303659D01*
X171446097Y-117303663D01*
X171505008Y-117429997D01*
X171545965Y-117517830D01*
X171545967Y-117517834D01*
X171681501Y-117711395D01*
X171681506Y-117711402D01*
X171848597Y-117878493D01*
X171848603Y-117878498D01*
X172034158Y-118008425D01*
X172077783Y-118063002D01*
X172084977Y-118132500D01*
X172053454Y-118194855D01*
X172034158Y-118211575D01*
X171848597Y-118341505D01*
X171681505Y-118508597D01*
X171545965Y-118702169D01*
X171545964Y-118702171D01*
X171469170Y-118866857D01*
X171449468Y-118909109D01*
X171446098Y-118916335D01*
X171446094Y-118916344D01*
X171384938Y-119144586D01*
X171384936Y-119144596D01*
X171364341Y-119379999D01*
X171364341Y-119380000D01*
X171384936Y-119615403D01*
X171384938Y-119615413D01*
X171446094Y-119843655D01*
X171446096Y-119843659D01*
X171446097Y-119843663D01*
X171532153Y-120028210D01*
X171545965Y-120057830D01*
X171545967Y-120057834D01*
X171653306Y-120211129D01*
X171681505Y-120251401D01*
X171848599Y-120418495D01*
X171899117Y-120453868D01*
X172042165Y-120554032D01*
X172042167Y-120554033D01*
X172042170Y-120554035D01*
X172256337Y-120653903D01*
X172484592Y-120715063D01*
X172672918Y-120731539D01*
X172719999Y-120735659D01*
X172720000Y-120735659D01*
X172720001Y-120735659D01*
X172759234Y-120732226D01*
X172955408Y-120715063D01*
X173183663Y-120653903D01*
X173397830Y-120554035D01*
X173591401Y-120418495D01*
X173758495Y-120251401D01*
X173894035Y-120057830D01*
X173993903Y-119843663D01*
X174055063Y-119615408D01*
X174075659Y-119380000D01*
X174055063Y-119144592D01*
X173993903Y-118916337D01*
X173894035Y-118702171D01*
X173892197Y-118699545D01*
X173758494Y-118508597D01*
X173591402Y-118341506D01*
X173591396Y-118341501D01*
X173405842Y-118211575D01*
X173362217Y-118156998D01*
X173355023Y-118087500D01*
X173386546Y-118025145D01*
X173405842Y-118008425D01*
X173467545Y-117965220D01*
X173591401Y-117878495D01*
X173758495Y-117711401D01*
X173894035Y-117517830D01*
X173993903Y-117303663D01*
X174055063Y-117075408D01*
X174075659Y-116840000D01*
X174055063Y-116604592D01*
X173993903Y-116376337D01*
X173894035Y-116162171D01*
X173758495Y-115968599D01*
X173758494Y-115968597D01*
X173591402Y-115801506D01*
X173591396Y-115801501D01*
X173405842Y-115671575D01*
X173362217Y-115616998D01*
X173355023Y-115547500D01*
X173386546Y-115485145D01*
X173405842Y-115468425D01*
X173428026Y-115452891D01*
X173591401Y-115338495D01*
X173758495Y-115171401D01*
X173894035Y-114977830D01*
X173993903Y-114763663D01*
X174055063Y-114535408D01*
X174075659Y-114300000D01*
X174055063Y-114064592D01*
X173993903Y-113836337D01*
X173894035Y-113622171D01*
X173758495Y-113428599D01*
X173758494Y-113428597D01*
X173591402Y-113261506D01*
X173591396Y-113261501D01*
X173405842Y-113131575D01*
X173362217Y-113076998D01*
X173355023Y-113007500D01*
X173386546Y-112945145D01*
X173405842Y-112928425D01*
X173428026Y-112912891D01*
X173591401Y-112798495D01*
X173758495Y-112631401D01*
X173894035Y-112437830D01*
X173993903Y-112223663D01*
X174055063Y-111995408D01*
X174075659Y-111760000D01*
X174055063Y-111524592D01*
X173993903Y-111296337D01*
X173894035Y-111082171D01*
X173758495Y-110888599D01*
X173758494Y-110888597D01*
X173591402Y-110721506D01*
X173591395Y-110721501D01*
X173397834Y-110585967D01*
X173397830Y-110585965D01*
X173397828Y-110585964D01*
X173183663Y-110486097D01*
X173183659Y-110486096D01*
X173183655Y-110486094D01*
X172955413Y-110424938D01*
X172955403Y-110424936D01*
X172720001Y-110404341D01*
X172719999Y-110404341D01*
X172484596Y-110424936D01*
X172484586Y-110424938D01*
X172256344Y-110486094D01*
X172256335Y-110486098D01*
X172042171Y-110585964D01*
X172042169Y-110585965D01*
X171848597Y-110721505D01*
X171681505Y-110888597D01*
X171545965Y-111082169D01*
X171545964Y-111082171D01*
X171446098Y-111296335D01*
X171446094Y-111296344D01*
X171384938Y-111524586D01*
X171384936Y-111524596D01*
X171364341Y-111759999D01*
X159869154Y-111759999D01*
X163921970Y-109733591D01*
X163977424Y-109720500D01*
X174635500Y-109720500D01*
X174702539Y-109740185D01*
X174748294Y-109792989D01*
X174759500Y-109844500D01*
X174759500Y-144155500D01*
X174739815Y-144222539D01*
X174687011Y-144268294D01*
X174635500Y-144279500D01*
X163977424Y-144279500D01*
X163921970Y-144266409D01*
X143750581Y-134180713D01*
X143744037Y-134177192D01*
X143703190Y-134153610D01*
X143703186Y-134153608D01*
X143703179Y-134153606D01*
X143700618Y-134152919D01*
X143677265Y-134144056D01*
X143674893Y-134142870D01*
X143628680Y-134133413D01*
X143621452Y-134131707D01*
X143614696Y-134129896D01*
X143575895Y-134119500D01*
X143575892Y-134119500D01*
X143573244Y-134119500D01*
X143548386Y-134116983D01*
X143545785Y-134116450D01*
X143498705Y-134119277D01*
X143491275Y-134119500D01*
X143444107Y-134119500D01*
X143441534Y-134120189D01*
X143416896Y-134124187D01*
X143414238Y-134124346D01*
X143414236Y-134124347D01*
X143369501Y-134139258D01*
X143362389Y-134141395D01*
X143328413Y-134150500D01*
X143316814Y-134153608D01*
X143316813Y-134153608D01*
X143316811Y-134153609D01*
X143316804Y-134153612D01*
X143314506Y-134154939D01*
X143291738Y-134165180D01*
X143289220Y-134166019D01*
X143289218Y-134166020D01*
X143249848Y-134192013D01*
X143243532Y-134195916D01*
X143202684Y-134219501D01*
X143200802Y-134221383D01*
X143181471Y-134237159D01*
X143179244Y-134238629D01*
X143147946Y-134273924D01*
X143142852Y-134279332D01*
X143109500Y-134312684D01*
X143109497Y-134312688D01*
X143108166Y-134314994D01*
X143093573Y-134335240D01*
X143091811Y-134337226D01*
X143091807Y-134337234D01*
X143078332Y-134364185D01*
X143070718Y-134379412D01*
X143067196Y-134385957D01*
X143043609Y-134426810D01*
X143043606Y-134426817D01*
X143042918Y-134429386D01*
X143034064Y-134452716D01*
X143032873Y-134455097D01*
X143032869Y-134455108D01*
X143023414Y-134501312D01*
X143021708Y-134508539D01*
X143009500Y-134554103D01*
X143009500Y-134556755D01*
X143006983Y-134581611D01*
X143006451Y-134584210D01*
X143006450Y-134584213D01*
X143009277Y-134631294D01*
X143009500Y-134638724D01*
X143009500Y-165097785D01*
X143009421Y-165102211D01*
X142991518Y-165603466D01*
X142990887Y-165612295D01*
X142937507Y-166108809D01*
X142936247Y-166117571D01*
X142847582Y-166609007D01*
X142845700Y-166617656D01*
X142722204Y-167101506D01*
X142719710Y-167109999D01*
X142562014Y-167583801D01*
X142558921Y-167592095D01*
X142367818Y-168053458D01*
X142364141Y-168061509D01*
X142140619Y-168508050D01*
X142136377Y-168515820D01*
X141881564Y-168945284D01*
X141876778Y-168952730D01*
X141591981Y-169362914D01*
X141586677Y-169370000D01*
X141273337Y-169758833D01*
X141267540Y-169765523D01*
X140927264Y-170131005D01*
X140921005Y-170137264D01*
X140555523Y-170477540D01*
X140548833Y-170483337D01*
X140160000Y-170796677D01*
X140152914Y-170801981D01*
X139742730Y-171086778D01*
X139735284Y-171091564D01*
X139305820Y-171346377D01*
X139298050Y-171350619D01*
X138851509Y-171574141D01*
X138843458Y-171577818D01*
X138382095Y-171768921D01*
X138373801Y-171772014D01*
X137899999Y-171929710D01*
X137891506Y-171932204D01*
X137407656Y-172055700D01*
X137399007Y-172057582D01*
X136907571Y-172146247D01*
X136898809Y-172147507D01*
X136402295Y-172200887D01*
X136393466Y-172201518D01*
X135892212Y-172219421D01*
X135887786Y-172219500D01*
X118112214Y-172219500D01*
X118107788Y-172219421D01*
X117606533Y-172201518D01*
X117597704Y-172200887D01*
X117101190Y-172147507D01*
X117092428Y-172146247D01*
X116600992Y-172057582D01*
X116592343Y-172055700D01*
X116108493Y-171932204D01*
X116100000Y-171929710D01*
X115626198Y-171772014D01*
X115617904Y-171768921D01*
X115156541Y-171577818D01*
X115148490Y-171574141D01*
X114701949Y-171350619D01*
X114694187Y-171346381D01*
X114264710Y-171091561D01*
X114257269Y-171086778D01*
X113847085Y-170801981D01*
X113839999Y-170796677D01*
X113451166Y-170483337D01*
X113444476Y-170477540D01*
X113404086Y-170439936D01*
X113292964Y-170336477D01*
X113078994Y-170137264D01*
X113072735Y-170131005D01*
X112732459Y-169765523D01*
X112726662Y-169758833D01*
X112413322Y-169370000D01*
X112408018Y-169362914D01*
X112123221Y-168952730D01*
X112118442Y-168945296D01*
X111863612Y-168515803D01*
X111859380Y-168508050D01*
X111635858Y-168061509D01*
X111632181Y-168053458D01*
X111441078Y-167592095D01*
X111437985Y-167583801D01*
X111280289Y-167109999D01*
X111277795Y-167101506D01*
X111154294Y-166617636D01*
X111152421Y-166609028D01*
X111063748Y-166117548D01*
X111062495Y-166108832D01*
X111009110Y-165612277D01*
X111008482Y-165603484D01*
X110990581Y-165102267D01*
X110990502Y-165097841D01*
X110990502Y-165026521D01*
X110990500Y-165026487D01*
X110990500Y-146964635D01*
X114612000Y-146964635D01*
X114612000Y-149860370D01*
X114612001Y-149860376D01*
X114618408Y-149919983D01*
X114668702Y-150054828D01*
X114668706Y-150054835D01*
X114754952Y-150170044D01*
X114754955Y-150170047D01*
X114870164Y-150256293D01*
X114870171Y-150256297D01*
X115005017Y-150306591D01*
X115005016Y-150306591D01*
X115011944Y-150307335D01*
X115064627Y-150313000D01*
X117960372Y-150312999D01*
X118019983Y-150306591D01*
X118154831Y-150256296D01*
X118270046Y-150170046D01*
X118356296Y-150054831D01*
X118406591Y-149919983D01*
X118413000Y-149860373D01*
X118412999Y-146964628D01*
X118406591Y-146905017D01*
X118356296Y-146770169D01*
X118353197Y-146761859D01*
X118354766Y-146761273D01*
X118342116Y-146703130D01*
X118353814Y-146663293D01*
X118352753Y-146662898D01*
X118406097Y-146519876D01*
X118406098Y-146519872D01*
X118412499Y-146460344D01*
X118412500Y-146460327D01*
X118412500Y-145262500D01*
X117242389Y-145262500D01*
X117252910Y-145237101D01*
X117282500Y-145088338D01*
X117282500Y-144936662D01*
X117252910Y-144787899D01*
X117242389Y-144762500D01*
X118412500Y-144762500D01*
X118412500Y-143564672D01*
X118412499Y-143564655D01*
X118406098Y-143505127D01*
X118406096Y-143505120D01*
X118355854Y-143370413D01*
X118355850Y-143370406D01*
X118269690Y-143255312D01*
X118269687Y-143255309D01*
X118154593Y-143169149D01*
X118154586Y-143169145D01*
X118019879Y-143118903D01*
X118019872Y-143118901D01*
X117960344Y-143112500D01*
X116762500Y-143112500D01*
X116762500Y-144282610D01*
X116737101Y-144272090D01*
X116588338Y-144242500D01*
X116436662Y-144242500D01*
X116287899Y-144272090D01*
X116262500Y-144282610D01*
X116262500Y-143112500D01*
X115064655Y-143112500D01*
X115005127Y-143118901D01*
X115005120Y-143118903D01*
X114870413Y-143169145D01*
X114870406Y-143169149D01*
X114755312Y-143255309D01*
X114755309Y-143255312D01*
X114669149Y-143370406D01*
X114669145Y-143370413D01*
X114618903Y-143505120D01*
X114618901Y-143505127D01*
X114612500Y-143564655D01*
X114612500Y-144762500D01*
X115782611Y-144762500D01*
X115772090Y-144787899D01*
X115742500Y-144936662D01*
X115742500Y-145088338D01*
X115772090Y-145237101D01*
X115782611Y-145262500D01*
X114612500Y-145262500D01*
X114612500Y-146460344D01*
X114618901Y-146519872D01*
X114618903Y-146519879D01*
X114672246Y-146662899D01*
X114670430Y-146663576D01*
X114682883Y-146720816D01*
X114670928Y-146761533D01*
X114671803Y-146761859D01*
X114618408Y-146905017D01*
X114612001Y-146964616D01*
X114612001Y-146964623D01*
X114612000Y-146964635D01*
X110990500Y-146964635D01*
X110990500Y-139065000D01*
X113294659Y-139065000D01*
X113313975Y-139261129D01*
X113371188Y-139449733D01*
X113464086Y-139623532D01*
X113464090Y-139623539D01*
X113589116Y-139775883D01*
X113741460Y-139900909D01*
X113741467Y-139900913D01*
X113915266Y-139993811D01*
X113915269Y-139993811D01*
X113915273Y-139993814D01*
X114103868Y-140051024D01*
X114115261Y-140052146D01*
X114180048Y-140078305D01*
X114190790Y-140087868D01*
X115817131Y-141714209D01*
X115850616Y-141775532D01*
X115852853Y-141789733D01*
X115853975Y-141801129D01*
X115911188Y-141989733D01*
X116004086Y-142163532D01*
X116004090Y-142163539D01*
X116129116Y-142315883D01*
X116281460Y-142440909D01*
X116281467Y-142440913D01*
X116455266Y-142533811D01*
X116455269Y-142533811D01*
X116455273Y-142533814D01*
X116643868Y-142591024D01*
X116840000Y-142610341D01*
X117036132Y-142591024D01*
X117224727Y-142533814D01*
X117238080Y-142526677D01*
X117398532Y-142440913D01*
X117398538Y-142440910D01*
X117550883Y-142315883D01*
X117675910Y-142163538D01*
X117722362Y-142076632D01*
X117768811Y-141989733D01*
X117768811Y-141989732D01*
X117768814Y-141989727D01*
X117826024Y-141801132D01*
X117845341Y-141605000D01*
X117826024Y-141408868D01*
X117768814Y-141220273D01*
X117768811Y-141220269D01*
X117768811Y-141220266D01*
X117675913Y-141046467D01*
X117675909Y-141046460D01*
X117550883Y-140894116D01*
X117398539Y-140769090D01*
X117398532Y-140769086D01*
X117224733Y-140676188D01*
X117224727Y-140676186D01*
X117036132Y-140618976D01*
X117036129Y-140618975D01*
X117036130Y-140618975D01*
X117024733Y-140617853D01*
X116959947Y-140591691D01*
X116949209Y-140582131D01*
X115322868Y-138955790D01*
X115289383Y-138894467D01*
X115287146Y-138880261D01*
X115286024Y-138868871D01*
X115286024Y-138868870D01*
X115286024Y-138868868D01*
X115228814Y-138680273D01*
X115228811Y-138680269D01*
X115228811Y-138680266D01*
X115135913Y-138506467D01*
X115135909Y-138506460D01*
X115010883Y-138354116D01*
X114858539Y-138229090D01*
X114858532Y-138229086D01*
X114684733Y-138136188D01*
X114684727Y-138136186D01*
X114496132Y-138078976D01*
X114496129Y-138078975D01*
X114300000Y-138059659D01*
X114103870Y-138078975D01*
X113915266Y-138136188D01*
X113741467Y-138229086D01*
X113741460Y-138229090D01*
X113589116Y-138354116D01*
X113464090Y-138506460D01*
X113464086Y-138506467D01*
X113371188Y-138680266D01*
X113313975Y-138868870D01*
X113294659Y-139065000D01*
X110990500Y-139065000D01*
X110990500Y-134638724D01*
X110990723Y-134631294D01*
X110993549Y-134584213D01*
X110993548Y-134584210D01*
X110993017Y-134581611D01*
X110990500Y-134556755D01*
X110990500Y-134554110D01*
X110990500Y-134554108D01*
X110978288Y-134508531D01*
X110976590Y-134501339D01*
X110967129Y-134455105D01*
X110967128Y-134455103D01*
X110967128Y-134455102D01*
X110965947Y-134452741D01*
X110957077Y-134429370D01*
X110956392Y-134426814D01*
X110932801Y-134385956D01*
X110929287Y-134379423D01*
X110908193Y-134337234D01*
X110906433Y-134335249D01*
X110891825Y-134314980D01*
X110890502Y-134312689D01*
X110890499Y-134312685D01*
X110857156Y-134279342D01*
X110852058Y-134273929D01*
X110820760Y-134238632D01*
X110820759Y-134238631D01*
X110818541Y-134237167D01*
X110799183Y-134221369D01*
X110797316Y-134219502D01*
X110797314Y-134219500D01*
X110795563Y-134218489D01*
X110756469Y-134195917D01*
X110750150Y-134192012D01*
X110710786Y-134166023D01*
X110710783Y-134166021D01*
X110710778Y-134166019D01*
X110710771Y-134166016D01*
X110708257Y-134165178D01*
X110685489Y-134154937D01*
X110683193Y-134153611D01*
X110683187Y-134153608D01*
X110683186Y-134153608D01*
X110683183Y-134153607D01*
X110683180Y-134153606D01*
X110637618Y-134141397D01*
X110630504Y-134139261D01*
X110628926Y-134138735D01*
X110585761Y-134124347D01*
X110585758Y-134124346D01*
X110585757Y-134124346D01*
X110583104Y-134124187D01*
X110558459Y-134120187D01*
X110555894Y-134119500D01*
X110555892Y-134119500D01*
X110508725Y-134119500D01*
X110501295Y-134119277D01*
X110454213Y-134116450D01*
X110451614Y-134116983D01*
X110426756Y-134119500D01*
X110424104Y-134119500D01*
X110378548Y-134131707D01*
X110371317Y-134133414D01*
X110325104Y-134142871D01*
X110322722Y-134144062D01*
X110299389Y-134152917D01*
X110296816Y-134153606D01*
X110296813Y-134153607D01*
X110255961Y-134177193D01*
X110249417Y-134180714D01*
X90078030Y-144266409D01*
X90022576Y-144279500D01*
X79364500Y-144279500D01*
X79297461Y-144259815D01*
X79251706Y-144207011D01*
X79240500Y-144155500D01*
X79240500Y-111759999D01*
X79924341Y-111759999D01*
X79924341Y-111760000D01*
X79944936Y-111995403D01*
X79944938Y-111995413D01*
X80006094Y-112223655D01*
X80006096Y-112223659D01*
X80006097Y-112223663D01*
X80080766Y-112383790D01*
X80105965Y-112437830D01*
X80105967Y-112437834D01*
X80241501Y-112631395D01*
X80241506Y-112631402D01*
X80408597Y-112798493D01*
X80408603Y-112798498D01*
X80594158Y-112928425D01*
X80637783Y-112983002D01*
X80644977Y-113052500D01*
X80613454Y-113114855D01*
X80594158Y-113131575D01*
X80408597Y-113261505D01*
X80241505Y-113428597D01*
X80105965Y-113622169D01*
X80105964Y-113622171D01*
X80006098Y-113836335D01*
X80006094Y-113836344D01*
X79944938Y-114064586D01*
X79944936Y-114064596D01*
X79924341Y-114299999D01*
X79924341Y-114300000D01*
X79944936Y-114535403D01*
X79944938Y-114535413D01*
X80006094Y-114763655D01*
X80006096Y-114763659D01*
X80006097Y-114763663D01*
X80105965Y-114977830D01*
X80105967Y-114977834D01*
X80241501Y-115171395D01*
X80241506Y-115171402D01*
X80408597Y-115338493D01*
X80408603Y-115338498D01*
X80594158Y-115468425D01*
X80637783Y-115523002D01*
X80644977Y-115592500D01*
X80613454Y-115654855D01*
X80594158Y-115671575D01*
X80408597Y-115801505D01*
X80241505Y-115968597D01*
X80105965Y-116162169D01*
X80105964Y-116162171D01*
X80006098Y-116376335D01*
X80006094Y-116376344D01*
X79944938Y-116604586D01*
X79944936Y-116604596D01*
X79924341Y-116839999D01*
X79924341Y-116840000D01*
X79944936Y-117075403D01*
X79944938Y-117075413D01*
X80006094Y-117303655D01*
X80006096Y-117303659D01*
X80006097Y-117303663D01*
X80065008Y-117429997D01*
X80105965Y-117517830D01*
X80105967Y-117517834D01*
X80241501Y-117711395D01*
X80241506Y-117711402D01*
X80408597Y-117878493D01*
X80408603Y-117878498D01*
X80594158Y-118008425D01*
X80637783Y-118063002D01*
X80644977Y-118132500D01*
X80613454Y-118194855D01*
X80594158Y-118211575D01*
X80408597Y-118341505D01*
X80241505Y-118508597D01*
X80105965Y-118702169D01*
X80105964Y-118702171D01*
X80029170Y-118866857D01*
X80009468Y-118909109D01*
X80006098Y-118916335D01*
X80006094Y-118916344D01*
X79944938Y-119144586D01*
X79944936Y-119144596D01*
X79924341Y-119379999D01*
X79924341Y-119380000D01*
X79944936Y-119615403D01*
X79944938Y-119615413D01*
X80006094Y-119843655D01*
X80006096Y-119843659D01*
X80006097Y-119843663D01*
X80092153Y-120028210D01*
X80105965Y-120057830D01*
X80105967Y-120057834D01*
X80213306Y-120211129D01*
X80241505Y-120251401D01*
X80408599Y-120418495D01*
X80459117Y-120453868D01*
X80602165Y-120554032D01*
X80602167Y-120554033D01*
X80602170Y-120554035D01*
X80816337Y-120653903D01*
X81044592Y-120715063D01*
X81232918Y-120731539D01*
X81279999Y-120735659D01*
X81280000Y-120735659D01*
X81280001Y-120735659D01*
X81319234Y-120732226D01*
X81515408Y-120715063D01*
X81743663Y-120653903D01*
X81957830Y-120554035D01*
X82151401Y-120418495D01*
X82318495Y-120251401D01*
X82454035Y-120057830D01*
X82553903Y-119843663D01*
X82615063Y-119615408D01*
X82635659Y-119380000D01*
X82615063Y-119144592D01*
X82553903Y-118916337D01*
X82454035Y-118702171D01*
X82452197Y-118699545D01*
X82318494Y-118508597D01*
X82151402Y-118341506D01*
X82151396Y-118341501D01*
X81965842Y-118211575D01*
X81922217Y-118156998D01*
X81915023Y-118087500D01*
X81946546Y-118025145D01*
X81965842Y-118008425D01*
X82027545Y-117965220D01*
X82151401Y-117878495D01*
X82318495Y-117711401D01*
X82454035Y-117517830D01*
X82553903Y-117303663D01*
X82615063Y-117075408D01*
X82635659Y-116840000D01*
X82615063Y-116604592D01*
X82553903Y-116376337D01*
X82454035Y-116162171D01*
X82318495Y-115968599D01*
X82318494Y-115968597D01*
X82151402Y-115801506D01*
X82151396Y-115801501D01*
X81965842Y-115671575D01*
X81922217Y-115616998D01*
X81915023Y-115547500D01*
X81946546Y-115485145D01*
X81965842Y-115468425D01*
X81988026Y-115452891D01*
X82151401Y-115338495D01*
X82318495Y-115171401D01*
X82454035Y-114977830D01*
X82553903Y-114763663D01*
X82615063Y-114535408D01*
X82635659Y-114300000D01*
X82615063Y-114064592D01*
X82553903Y-113836337D01*
X82454035Y-113622171D01*
X82318495Y-113428599D01*
X82318494Y-113428597D01*
X82151402Y-113261506D01*
X82151396Y-113261501D01*
X81965842Y-113131575D01*
X81922217Y-113076998D01*
X81915023Y-113007500D01*
X81946546Y-112945145D01*
X81965842Y-112928425D01*
X81988026Y-112912891D01*
X82151401Y-112798495D01*
X82318495Y-112631401D01*
X82454035Y-112437830D01*
X82553903Y-112223663D01*
X82615063Y-111995408D01*
X82635659Y-111760000D01*
X82615063Y-111524592D01*
X82553903Y-111296337D01*
X82454035Y-111082171D01*
X82318495Y-110888599D01*
X82318494Y-110888597D01*
X82151402Y-110721506D01*
X82151395Y-110721501D01*
X81957834Y-110585967D01*
X81957830Y-110585965D01*
X81957828Y-110585964D01*
X81743663Y-110486097D01*
X81743659Y-110486096D01*
X81743655Y-110486094D01*
X81515413Y-110424938D01*
X81515403Y-110424936D01*
X81280001Y-110404341D01*
X81279999Y-110404341D01*
X81044596Y-110424936D01*
X81044586Y-110424938D01*
X80816344Y-110486094D01*
X80816335Y-110486098D01*
X80602171Y-110585964D01*
X80602169Y-110585965D01*
X80408597Y-110721505D01*
X80241505Y-110888597D01*
X80105965Y-111082169D01*
X80105964Y-111082171D01*
X80006098Y-111296335D01*
X80006094Y-111296344D01*
X79944938Y-111524586D01*
X79944936Y-111524596D01*
X79924341Y-111759999D01*
X79240500Y-111759999D01*
X79240500Y-109844500D01*
X79260185Y-109777461D01*
X79312989Y-109731706D01*
X79364500Y-109720500D01*
X90022576Y-109720500D01*
X90078030Y-109733591D01*
X110249426Y-119819289D01*
X110255934Y-119822790D01*
X110296814Y-119846392D01*
X110299371Y-119847077D01*
X110322735Y-119855944D01*
X110325102Y-119857127D01*
X110325106Y-119857129D01*
X110371334Y-119866588D01*
X110378549Y-119868292D01*
X110424108Y-119880500D01*
X110426756Y-119880500D01*
X110451614Y-119883017D01*
X110454214Y-119883549D01*
X110501295Y-119880723D01*
X110508725Y-119880500D01*
X110555891Y-119880500D01*
X110555892Y-119880500D01*
X110558446Y-119879815D01*
X110583110Y-119875812D01*
X110585761Y-119875653D01*
X110630532Y-119860728D01*
X110637581Y-119858610D01*
X110683186Y-119846392D01*
X110685476Y-119845069D01*
X110708280Y-119834813D01*
X110710783Y-119833979D01*
X110720814Y-119827356D01*
X110750151Y-119807986D01*
X110756473Y-119804078D01*
X110776733Y-119792382D01*
X110797308Y-119780504D01*
X110797309Y-119780502D01*
X110797314Y-119780500D01*
X110799181Y-119778631D01*
X110818548Y-119762827D01*
X110820759Y-119761368D01*
X110852076Y-119726048D01*
X110857125Y-119720687D01*
X110890500Y-119687314D01*
X110891822Y-119685023D01*
X110906444Y-119664738D01*
X110908190Y-119662769D01*
X110908189Y-119662769D01*
X110908193Y-119662766D01*
X110929293Y-119620563D01*
X110932803Y-119614041D01*
X110956392Y-119573186D01*
X110957074Y-119570639D01*
X110965950Y-119547252D01*
X110967128Y-119544896D01*
X110967129Y-119544895D01*
X110976590Y-119498657D01*
X110978285Y-119491476D01*
X110990500Y-119445892D01*
X110990500Y-119443242D01*
X110993019Y-119418377D01*
X110993549Y-119415787D01*
X110990723Y-119368703D01*
X110990500Y-119361274D01*
X110990500Y-88902214D01*
X110990579Y-88897788D01*
X110994635Y-88784216D01*
X111008482Y-88396513D01*
X111009110Y-88387724D01*
X111062495Y-87891163D01*
X111063748Y-87882455D01*
X111152422Y-87390965D01*
X111154293Y-87382369D01*
X111277799Y-86898478D01*
X111280284Y-86890014D01*
X111437989Y-86416186D01*
X111441078Y-86407904D01*
X111632188Y-85946524D01*
X111635850Y-85938506D01*
X111859389Y-85491932D01*
X111863605Y-85484208D01*
X112118450Y-85054690D01*
X112123213Y-85047280D01*
X112408022Y-84637079D01*
X112413322Y-84629999D01*
X112431263Y-84607736D01*
X112726679Y-84241145D01*
X112732441Y-84234496D01*
X113072742Y-83868986D01*
X113078986Y-83862742D01*
X113444496Y-83522441D01*
X113451145Y-83516679D01*
X113840005Y-83203317D01*
X113847085Y-83198018D01*
X114070553Y-83042861D01*
X114257280Y-82913213D01*
X114264690Y-82908450D01*
X114694208Y-82653605D01*
X114701932Y-82649389D01*
X115148506Y-82425850D01*
X115156524Y-82422188D01*
X115617915Y-82231073D01*
X115626186Y-82227989D01*
X116100014Y-82070284D01*
X116108478Y-82067799D01*
X116592369Y-81944293D01*
X116600965Y-81942422D01*
X117092455Y-81853748D01*
X117101163Y-81852495D01*
X117597724Y-81799110D01*
X117606513Y-81798482D01*
X118107788Y-81780578D01*
X118112214Y-81780500D01*
X118175892Y-81780500D01*
X123552531Y-81780500D01*
X123619570Y-81800185D01*
G37*
%TD.AperFunction*%
%TA.AperFunction,Conductor*%
G36*
X139743686Y-142917516D02*
G01*
X139788034Y-142946017D01*
X139901961Y-143059944D01*
X139901965Y-143059947D01*
X140048688Y-143150448D01*
X140048699Y-143150453D01*
X140110084Y-143170794D01*
X140167529Y-143210566D01*
X140194352Y-143275082D01*
X140182037Y-143343858D01*
X140134494Y-143395058D01*
X140071080Y-143412500D01*
X139662500Y-143412500D01*
X139662500Y-144582610D01*
X139637101Y-144572090D01*
X139488338Y-144542500D01*
X139336662Y-144542500D01*
X139187899Y-144572090D01*
X139162500Y-144582610D01*
X139162500Y-143412500D01*
X139155213Y-143405213D01*
X139121728Y-143343890D01*
X139126712Y-143274198D01*
X139168584Y-143218265D01*
X139203886Y-143199827D01*
X139351516Y-143150908D01*
X139498350Y-143060340D01*
X139612675Y-142946014D01*
X139673994Y-142912532D01*
X139743686Y-142917516D01*
G37*
%TD.AperFunction*%
%TA.AperFunction,Conductor*%
G36*
X131001313Y-125257102D02*
G01*
X131056336Y-125300162D01*
X131079345Y-125366135D01*
X131079500Y-125372329D01*
X131079500Y-133519217D01*
X131059815Y-133586256D01*
X131043181Y-133606898D01*
X128902220Y-135747859D01*
X128902218Y-135747861D01*
X128861898Y-135788181D01*
X128762859Y-135887219D01*
X128653371Y-136051080D01*
X128653366Y-136051090D01*
X128624453Y-136120893D01*
X128624452Y-136120896D01*
X128602241Y-136174514D01*
X128575363Y-136214738D01*
X128501506Y-136288596D01*
X128371269Y-136474595D01*
X128316692Y-136518220D01*
X128247194Y-136525414D01*
X128184839Y-136493891D01*
X128168119Y-136474595D01*
X128114925Y-136398626D01*
X128114925Y-136398625D01*
X127400000Y-137113551D01*
X127400000Y-137107339D01*
X127372741Y-137005606D01*
X127320080Y-136914394D01*
X127245606Y-136839920D01*
X127154394Y-136787259D01*
X127052661Y-136760000D01*
X127046448Y-136760000D01*
X127761373Y-136045073D01*
X127761373Y-136045072D01*
X127677583Y-135986402D01*
X127677579Y-135986400D01*
X127463492Y-135886570D01*
X127463483Y-135886566D01*
X127235326Y-135825432D01*
X127235315Y-135825430D01*
X127000002Y-135804843D01*
X126999998Y-135804843D01*
X126764684Y-135825430D01*
X126764673Y-135825432D01*
X126536516Y-135886566D01*
X126536507Y-135886570D01*
X126322419Y-135986401D01*
X126238625Y-136045072D01*
X126953553Y-136760000D01*
X126947339Y-136760000D01*
X126845606Y-136787259D01*
X126754394Y-136839920D01*
X126679920Y-136914394D01*
X126627259Y-137005606D01*
X126600000Y-137107339D01*
X126600000Y-137113553D01*
X125885073Y-136398626D01*
X125831881Y-136474594D01*
X125777304Y-136518219D01*
X125707806Y-136525413D01*
X125645451Y-136493891D01*
X125628730Y-136474594D01*
X125498494Y-136288597D01*
X125331402Y-136121506D01*
X125331395Y-136121501D01*
X125137834Y-135985967D01*
X125137830Y-135985965D01*
X125122233Y-135978692D01*
X124923663Y-135886097D01*
X124923659Y-135886096D01*
X124923655Y-135886094D01*
X124695413Y-135824938D01*
X124695403Y-135824936D01*
X124460001Y-135804341D01*
X124459998Y-135804341D01*
X124356192Y-135813423D01*
X124287692Y-135799656D01*
X124237509Y-135751041D01*
X124221576Y-135683013D01*
X124244951Y-135617169D01*
X124257698Y-135602220D01*
X129937778Y-129922141D01*
X129937782Y-129922139D01*
X130077139Y-129782782D01*
X130186632Y-129618914D01*
X130188769Y-129613756D01*
X130229175Y-129516206D01*
X130262051Y-129436835D01*
X130288357Y-129304586D01*
X130300500Y-129243543D01*
X130300500Y-126336698D01*
X130320185Y-126269659D01*
X130343965Y-126242411D01*
X130399759Y-126194759D01*
X130558259Y-126009179D01*
X130685777Y-125801089D01*
X130779172Y-125575612D01*
X130834927Y-125343379D01*
X130869717Y-125282790D01*
X130931744Y-125250626D01*
X131001313Y-125257102D01*
G37*
%TD.AperFunction*%
%TA.AperFunction,Conductor*%
G36*
X119574312Y-122220325D02*
G01*
X119628190Y-122264810D01*
X119649465Y-122331362D01*
X119649500Y-122334314D01*
X119649500Y-123288541D01*
X119653089Y-123306586D01*
X119653090Y-123306588D01*
X119653090Y-123306590D01*
X119687947Y-123481829D01*
X119687950Y-123481839D01*
X119709014Y-123532691D01*
X119763364Y-123663906D01*
X119763371Y-123663919D01*
X119872860Y-123827782D01*
X120016537Y-123971459D01*
X120016559Y-123971479D01*
X121774735Y-125729655D01*
X121774764Y-125729686D01*
X121917214Y-125872136D01*
X121917218Y-125872139D01*
X122081079Y-125981628D01*
X122081092Y-125981635D01*
X122209833Y-126034961D01*
X122240818Y-126047795D01*
X122263164Y-126057051D01*
X122359812Y-126076275D01*
X122408135Y-126085887D01*
X122456458Y-126095500D01*
X122456459Y-126095500D01*
X122456460Y-126095500D01*
X122653540Y-126095500D01*
X123086267Y-126095500D01*
X123153306Y-126115185D01*
X123199061Y-126167989D01*
X123203971Y-126180491D01*
X123210743Y-126200925D01*
X123215187Y-126214337D01*
X123307286Y-126363651D01*
X123307289Y-126363655D01*
X123431344Y-126487710D01*
X123431348Y-126487713D01*
X123580657Y-126579809D01*
X123580660Y-126579810D01*
X123580666Y-126579814D01*
X123614503Y-126591026D01*
X123671948Y-126630798D01*
X123698772Y-126695313D01*
X123699500Y-126708732D01*
X123699500Y-130739217D01*
X123679815Y-130806256D01*
X123663181Y-130826898D01*
X119682215Y-134807864D01*
X119667783Y-134822295D01*
X119606459Y-134855778D01*
X119536767Y-134850791D01*
X119480835Y-134808918D01*
X119456421Y-134743453D01*
X119456577Y-134723803D01*
X119456745Y-134721889D01*
X119465659Y-134620000D01*
X119445063Y-134384592D01*
X119390435Y-134180714D01*
X119383905Y-134156344D01*
X119383904Y-134156343D01*
X119383903Y-134156337D01*
X119284035Y-133942171D01*
X119148495Y-133748599D01*
X119148494Y-133748597D01*
X118981402Y-133581506D01*
X118981401Y-133581505D01*
X118795405Y-133451269D01*
X118751781Y-133396692D01*
X118744588Y-133327193D01*
X118776110Y-133264839D01*
X118795405Y-133248119D01*
X118981082Y-133118105D01*
X119148105Y-132951082D01*
X119283600Y-132757578D01*
X119383429Y-132543492D01*
X119383432Y-132543486D01*
X119440636Y-132330000D01*
X118543012Y-132330000D01*
X118575925Y-132272993D01*
X118610000Y-132145826D01*
X118610000Y-132014174D01*
X118575925Y-131887007D01*
X118543012Y-131830000D01*
X119440636Y-131830000D01*
X119440635Y-131829999D01*
X119383432Y-131616513D01*
X119383429Y-131616507D01*
X119283600Y-131402422D01*
X119283599Y-131402420D01*
X119148113Y-131208926D01*
X119148108Y-131208920D01*
X118981078Y-131041890D01*
X118795405Y-130911879D01*
X118751780Y-130857302D01*
X118744588Y-130787804D01*
X118776110Y-130725449D01*
X118795406Y-130708730D01*
X118981401Y-130578495D01*
X119148495Y-130411401D01*
X119284035Y-130217830D01*
X119383903Y-130003663D01*
X119445063Y-129775408D01*
X119465659Y-129540000D01*
X119445063Y-129304592D01*
X119384489Y-129078523D01*
X119383905Y-129076344D01*
X119383904Y-129076343D01*
X119383903Y-129076337D01*
X119284035Y-128862171D01*
X119219497Y-128770000D01*
X119148494Y-128668597D01*
X118981402Y-128501506D01*
X118981396Y-128501501D01*
X118795842Y-128371575D01*
X118752217Y-128316998D01*
X118745023Y-128247500D01*
X118776546Y-128185145D01*
X118795842Y-128168425D01*
X118926400Y-128077007D01*
X118981401Y-128038495D01*
X119148495Y-127871401D01*
X119284035Y-127677830D01*
X119383903Y-127463663D01*
X119445063Y-127235408D01*
X119465659Y-127000000D01*
X119464811Y-126990313D01*
X119459177Y-126925909D01*
X119445063Y-126764592D01*
X119395553Y-126579815D01*
X119383905Y-126536344D01*
X119383904Y-126536343D01*
X119383903Y-126536337D01*
X119284035Y-126322171D01*
X119267039Y-126297897D01*
X119148494Y-126128597D01*
X118981402Y-125961506D01*
X118981396Y-125961501D01*
X118795842Y-125831575D01*
X118752217Y-125776998D01*
X118745023Y-125707500D01*
X118776546Y-125645145D01*
X118795842Y-125628425D01*
X118818026Y-125612891D01*
X118981401Y-125498495D01*
X119148495Y-125331401D01*
X119284035Y-125137830D01*
X119383903Y-124923663D01*
X119445063Y-124695408D01*
X119465659Y-124460000D01*
X119464414Y-124445775D01*
X119457048Y-124361579D01*
X119445063Y-124224592D01*
X119398626Y-124051285D01*
X119383905Y-123996344D01*
X119383904Y-123996343D01*
X119383903Y-123996337D01*
X119284035Y-123782171D01*
X119232957Y-123709223D01*
X119148494Y-123588597D01*
X118981402Y-123421506D01*
X118981396Y-123421501D01*
X118795842Y-123291575D01*
X118752217Y-123236998D01*
X118745023Y-123167500D01*
X118776546Y-123105145D01*
X118795842Y-123088425D01*
X118828879Y-123065292D01*
X118981401Y-122958495D01*
X119148495Y-122791401D01*
X119284035Y-122597830D01*
X119383903Y-122383663D01*
X119405725Y-122302220D01*
X119442089Y-122242561D01*
X119504936Y-122212031D01*
X119574312Y-122220325D01*
G37*
%TD.AperFunction*%
%TA.AperFunction,Conductor*%
G36*
X117644075Y-119187007D02*
G01*
X117610000Y-119314174D01*
X117610000Y-119445826D01*
X117644075Y-119572993D01*
X117676988Y-119630000D01*
X116779364Y-119630000D01*
X116836567Y-119843486D01*
X116836570Y-119843492D01*
X116936399Y-120057578D01*
X117071894Y-120251082D01*
X117238917Y-120418105D01*
X117424595Y-120548119D01*
X117468219Y-120602696D01*
X117475412Y-120672195D01*
X117443890Y-120734549D01*
X117424595Y-120751269D01*
X117238594Y-120881508D01*
X117071505Y-121048597D01*
X116935965Y-121242169D01*
X116935964Y-121242171D01*
X116836098Y-121456335D01*
X116836094Y-121456344D01*
X116774938Y-121684586D01*
X116774936Y-121684596D01*
X116754341Y-121919999D01*
X116754341Y-121920000D01*
X116774936Y-122155403D01*
X116774938Y-122155413D01*
X116836094Y-122383655D01*
X116836096Y-122383659D01*
X116836097Y-122383663D01*
X116883821Y-122486007D01*
X116935965Y-122597830D01*
X116935967Y-122597834D01*
X117033672Y-122737370D01*
X117069474Y-122788501D01*
X117071501Y-122791395D01*
X117071506Y-122791402D01*
X117238597Y-122958493D01*
X117238603Y-122958498D01*
X117424158Y-123088425D01*
X117467783Y-123143002D01*
X117474977Y-123212500D01*
X117443454Y-123274855D01*
X117424158Y-123291575D01*
X117238597Y-123421505D01*
X117071505Y-123588597D01*
X116935965Y-123782169D01*
X116935964Y-123782171D01*
X116836098Y-123996335D01*
X116836094Y-123996344D01*
X116774938Y-124224586D01*
X116774936Y-124224596D01*
X116754341Y-124459999D01*
X116754341Y-124460000D01*
X116774936Y-124695403D01*
X116774938Y-124695413D01*
X116836094Y-124923655D01*
X116836096Y-124923659D01*
X116836097Y-124923663D01*
X116925508Y-125115405D01*
X116935965Y-125137830D01*
X116935967Y-125137834D01*
X117071501Y-125331395D01*
X117071506Y-125331402D01*
X117238597Y-125498493D01*
X117238603Y-125498498D01*
X117424158Y-125628425D01*
X117467783Y-125683002D01*
X117474977Y-125752500D01*
X117443454Y-125814855D01*
X117424158Y-125831575D01*
X117238597Y-125961505D01*
X117071505Y-126128597D01*
X116935965Y-126322169D01*
X116935964Y-126322171D01*
X116836098Y-126536335D01*
X116836094Y-126536344D01*
X116774938Y-126764586D01*
X116774936Y-126764596D01*
X116754341Y-126999999D01*
X116754341Y-127000000D01*
X116774936Y-127235403D01*
X116774938Y-127235413D01*
X116836094Y-127463655D01*
X116836096Y-127463659D01*
X116836097Y-127463663D01*
X116921748Y-127647341D01*
X116935965Y-127677830D01*
X116935967Y-127677834D01*
X117071501Y-127871395D01*
X117071506Y-127871402D01*
X117238597Y-128038493D01*
X117238603Y-128038498D01*
X117424158Y-128168425D01*
X117467783Y-128223002D01*
X117474977Y-128292500D01*
X117443454Y-128354855D01*
X117424158Y-128371575D01*
X117238597Y-128501505D01*
X117071505Y-128668597D01*
X116935965Y-128862169D01*
X116935964Y-128862171D01*
X116836098Y-129076335D01*
X116836094Y-129076344D01*
X116774938Y-129304586D01*
X116774936Y-129304596D01*
X116754341Y-129539999D01*
X116754341Y-129540000D01*
X116774936Y-129775403D01*
X116774938Y-129775413D01*
X116836094Y-130003655D01*
X116836096Y-130003659D01*
X116836097Y-130003663D01*
X116922153Y-130188210D01*
X116935965Y-130217830D01*
X116935967Y-130217834D01*
X117071501Y-130411395D01*
X117071506Y-130411402D01*
X117238597Y-130578493D01*
X117238603Y-130578498D01*
X117424594Y-130708730D01*
X117468219Y-130763307D01*
X117475413Y-130832805D01*
X117443890Y-130895160D01*
X117424595Y-130911880D01*
X117238922Y-131041890D01*
X117238920Y-131041891D01*
X117071891Y-131208920D01*
X117071886Y-131208926D01*
X116936400Y-131402420D01*
X116936399Y-131402422D01*
X116836570Y-131616507D01*
X116836567Y-131616513D01*
X116779364Y-131829999D01*
X116779364Y-131830000D01*
X117676988Y-131830000D01*
X117644075Y-131887007D01*
X117610000Y-132014174D01*
X117610000Y-132145826D01*
X117644075Y-132272993D01*
X117676988Y-132330000D01*
X116862019Y-132330000D01*
X116794980Y-132310315D01*
X116774338Y-132293681D01*
X107947838Y-123467181D01*
X107914353Y-123405858D01*
X107919337Y-123336166D01*
X107961209Y-123280233D01*
X108026673Y-123255816D01*
X108035519Y-123255500D01*
X108359628Y-123255500D01*
X108426667Y-123275185D01*
X108472422Y-123327989D01*
X108482849Y-123365619D01*
X108483687Y-123373059D01*
X108539545Y-123532694D01*
X108539547Y-123532697D01*
X108629518Y-123675884D01*
X108629523Y-123675890D01*
X108749109Y-123795476D01*
X108749115Y-123795481D01*
X108892302Y-123885452D01*
X108892305Y-123885454D01*
X108892309Y-123885455D01*
X108892310Y-123885456D01*
X108942285Y-123902943D01*
X109051943Y-123941314D01*
X109219997Y-123960249D01*
X109220000Y-123960249D01*
X109220003Y-123960249D01*
X109388059Y-123941313D01*
X109388061Y-123941313D01*
X109513389Y-123897459D01*
X109554344Y-123890500D01*
X109629628Y-123890500D01*
X109696667Y-123910185D01*
X109742422Y-123962989D01*
X109752849Y-124000619D01*
X109753687Y-124008059D01*
X109809545Y-124167694D01*
X109809547Y-124167697D01*
X109899518Y-124310884D01*
X109899523Y-124310890D01*
X110019109Y-124430476D01*
X110019115Y-124430481D01*
X110162302Y-124520452D01*
X110162305Y-124520454D01*
X110162309Y-124520455D01*
X110162310Y-124520456D01*
X110196613Y-124532459D01*
X110321943Y-124576314D01*
X110489997Y-124595249D01*
X110490000Y-124595249D01*
X110490003Y-124595249D01*
X110658059Y-124576313D01*
X110658061Y-124576313D01*
X110783389Y-124532459D01*
X110824344Y-124525500D01*
X115003996Y-124525500D01*
X115095040Y-124507389D01*
X115139328Y-124498580D01*
X115206311Y-124470835D01*
X115266807Y-124445777D01*
X115266808Y-124445776D01*
X115266811Y-124445775D01*
X115381543Y-124369114D01*
X116114114Y-123636543D01*
X116190775Y-123521811D01*
X116202630Y-123493192D01*
X116229111Y-123429259D01*
X116243580Y-123394328D01*
X116256776Y-123327989D01*
X116270500Y-123258996D01*
X116270500Y-119721518D01*
X116290185Y-119654479D01*
X116306819Y-119633837D01*
X116774337Y-119166319D01*
X116835660Y-119132834D01*
X116862018Y-119130000D01*
X117676988Y-119130000D01*
X117644075Y-119187007D01*
G37*
%TD.AperFunction*%
%TA.AperFunction,Conductor*%
G36*
X137648834Y-128874336D02*
G01*
X137704767Y-128916208D01*
X137729184Y-128981672D01*
X137729500Y-128990518D01*
X137729500Y-131738481D01*
X137709815Y-131805520D01*
X137693181Y-131826162D01*
X137225662Y-132293681D01*
X137164339Y-132327166D01*
X137137981Y-132330000D01*
X136323012Y-132330000D01*
X136355925Y-132272993D01*
X136390000Y-132145826D01*
X136390000Y-132014174D01*
X136355925Y-131887007D01*
X136323012Y-131830000D01*
X137220636Y-131830000D01*
X137220635Y-131829999D01*
X137163432Y-131616513D01*
X137163429Y-131616507D01*
X137063600Y-131402422D01*
X137063599Y-131402420D01*
X136928113Y-131208926D01*
X136928108Y-131208920D01*
X136761078Y-131041890D01*
X136575405Y-130911879D01*
X136531780Y-130857302D01*
X136524588Y-130787804D01*
X136556110Y-130725449D01*
X136575406Y-130708730D01*
X136761401Y-130578495D01*
X136928495Y-130411401D01*
X137064035Y-130217830D01*
X137163903Y-130003663D01*
X137225063Y-129775408D01*
X137245659Y-129540000D01*
X137225063Y-129304592D01*
X137220558Y-129287779D01*
X137222219Y-129217932D01*
X137252649Y-129168006D01*
X137517820Y-128902836D01*
X137579142Y-128869352D01*
X137648834Y-128874336D01*
G37*
%TD.AperFunction*%
%TA.AperFunction,Conductor*%
G36*
X131837257Y-123075185D02*
G01*
X131883012Y-123127989D01*
X131892956Y-123197147D01*
X131863931Y-123260703D01*
X131857903Y-123267176D01*
X131442221Y-123682858D01*
X131442218Y-123682861D01*
X131372538Y-123752540D01*
X131302859Y-123822219D01*
X131193371Y-123986080D01*
X131193366Y-123986089D01*
X131155863Y-124076632D01*
X131117949Y-124168163D01*
X131117947Y-124168171D01*
X131110785Y-124204178D01*
X131110785Y-124204179D01*
X131079500Y-124361456D01*
X131079500Y-124817670D01*
X131059815Y-124884709D01*
X131007011Y-124930464D01*
X130937853Y-124940408D01*
X130874297Y-124911383D01*
X130836523Y-124852605D01*
X130834926Y-124846618D01*
X130827976Y-124817670D01*
X130779172Y-124614388D01*
X130779169Y-124614380D01*
X130685777Y-124388910D01*
X130558262Y-124180826D01*
X130558261Y-124180823D01*
X130490297Y-124101248D01*
X130399759Y-123995241D01*
X130271212Y-123885452D01*
X130214176Y-123836738D01*
X130214173Y-123836737D01*
X130006089Y-123709222D01*
X129780618Y-123615830D01*
X129780621Y-123615830D01*
X129667197Y-123588599D01*
X129543302Y-123558854D01*
X129543300Y-123558853D01*
X129543297Y-123558853D01*
X129300000Y-123539706D01*
X129056702Y-123558853D01*
X129056698Y-123558854D01*
X128842889Y-123610186D01*
X128819380Y-123615830D01*
X128593910Y-123709222D01*
X128385826Y-123836737D01*
X128385823Y-123836738D01*
X128200241Y-123995241D01*
X128041738Y-124180823D01*
X128041737Y-124180826D01*
X127914222Y-124388910D01*
X127820830Y-124614380D01*
X127820828Y-124614387D01*
X127820828Y-124614388D01*
X127782845Y-124772594D01*
X127763853Y-124851702D01*
X127744706Y-125095000D01*
X127763853Y-125338297D01*
X127763853Y-125338300D01*
X127763854Y-125338302D01*
X127802314Y-125498498D01*
X127820830Y-125575619D01*
X127914222Y-125801089D01*
X128041737Y-126009173D01*
X128041738Y-126009176D01*
X128171380Y-126160967D01*
X128200241Y-126194759D01*
X128256032Y-126242409D01*
X128294224Y-126300914D01*
X128299500Y-126336698D01*
X128299500Y-128679217D01*
X128279815Y-128746256D01*
X128263181Y-128766898D01*
X125912181Y-131117898D01*
X125850858Y-131151383D01*
X125781166Y-131146399D01*
X125725233Y-131104527D01*
X125700816Y-131039063D01*
X125700500Y-131030217D01*
X125700500Y-126708732D01*
X125720185Y-126641693D01*
X125772989Y-126595938D01*
X125785492Y-126591027D01*
X125819334Y-126579814D01*
X125968655Y-126487711D01*
X126092711Y-126363655D01*
X126184814Y-126214334D01*
X126239999Y-126047797D01*
X126250500Y-125945008D01*
X126250500Y-124244992D01*
X126239999Y-124142203D01*
X126184814Y-123975666D01*
X126182231Y-123971479D01*
X126092713Y-123826348D01*
X126092710Y-123826344D01*
X125968655Y-123702289D01*
X125968651Y-123702286D01*
X125819337Y-123610187D01*
X125819335Y-123610186D01*
X125736065Y-123582593D01*
X125652797Y-123555001D01*
X125652795Y-123555000D01*
X125550015Y-123544500D01*
X125550008Y-123544500D01*
X123849992Y-123544500D01*
X123849984Y-123544500D01*
X123747204Y-123555000D01*
X123747203Y-123555001D01*
X123580664Y-123610186D01*
X123580662Y-123610187D01*
X123431348Y-123702286D01*
X123431344Y-123702289D01*
X123307289Y-123826344D01*
X123307286Y-123826348D01*
X123215187Y-123975662D01*
X123203973Y-124009505D01*
X123164200Y-124066949D01*
X123099684Y-124093772D01*
X123086267Y-124094500D01*
X123020782Y-124094500D01*
X122953743Y-124074815D01*
X122933101Y-124058181D01*
X122142101Y-123267181D01*
X122108616Y-123205858D01*
X122113600Y-123136166D01*
X122155472Y-123080233D01*
X122220936Y-123055816D01*
X122229782Y-123055500D01*
X131770218Y-123055500D01*
X131837257Y-123075185D01*
G37*
%TD.AperFunction*%
%TA.AperFunction,Conductor*%
G36*
X87383833Y-123400758D02*
G01*
X87439767Y-123442629D01*
X87464184Y-123508094D01*
X87464500Y-123516940D01*
X87464500Y-130483059D01*
X87444815Y-130550098D01*
X87392011Y-130595853D01*
X87322853Y-130605797D01*
X87259297Y-130576772D01*
X87252819Y-130570740D01*
X86870291Y-130188212D01*
X86870288Y-130188210D01*
X86739185Y-130100609D01*
X86739172Y-130100602D01*
X86593501Y-130040264D01*
X86593489Y-130040261D01*
X86438845Y-130009500D01*
X86438842Y-130009500D01*
X82752351Y-130009500D01*
X82685312Y-129989815D01*
X82639557Y-129937011D01*
X82629061Y-129898752D01*
X82628907Y-129897323D01*
X82624091Y-129852517D01*
X82595331Y-129775408D01*
X82573797Y-129717671D01*
X82573793Y-129717664D01*
X82487547Y-129602455D01*
X82487544Y-129602452D01*
X82372335Y-129516206D01*
X82372328Y-129516202D01*
X82240401Y-129466997D01*
X82184467Y-129425126D01*
X82160050Y-129359662D01*
X82174902Y-129291389D01*
X82196053Y-129263133D01*
X82318108Y-129141078D01*
X82453600Y-128947578D01*
X82553429Y-128733492D01*
X82553432Y-128733486D01*
X82610636Y-128520000D01*
X81713012Y-128520000D01*
X81745925Y-128462993D01*
X81780000Y-128335826D01*
X81780000Y-128204174D01*
X81745925Y-128077007D01*
X81713012Y-128020000D01*
X82610636Y-128020000D01*
X82610635Y-128019999D01*
X82553432Y-127806513D01*
X82553429Y-127806507D01*
X82453600Y-127592422D01*
X82453599Y-127592420D01*
X82318113Y-127398926D01*
X82318108Y-127398920D01*
X82151082Y-127231894D01*
X81964968Y-127101575D01*
X81921344Y-127046998D01*
X81914151Y-126977499D01*
X81945673Y-126915145D01*
X81964968Y-126898425D01*
X82151082Y-126768105D01*
X82318105Y-126601082D01*
X82453600Y-126407578D01*
X82553429Y-126193492D01*
X82553432Y-126193486D01*
X82610636Y-125980000D01*
X81713012Y-125980000D01*
X81745925Y-125922993D01*
X81780000Y-125795826D01*
X81780000Y-125664174D01*
X81745925Y-125537007D01*
X81713012Y-125480000D01*
X82610636Y-125480000D01*
X82610635Y-125479999D01*
X82553432Y-125266513D01*
X82553429Y-125266507D01*
X82453600Y-125052422D01*
X82453599Y-125052420D01*
X82318113Y-124858926D01*
X82318108Y-124858920D01*
X82196053Y-124736865D01*
X82162568Y-124675542D01*
X82167552Y-124605850D01*
X82209424Y-124549917D01*
X82240400Y-124533002D01*
X82372331Y-124483796D01*
X82487546Y-124397546D01*
X82573796Y-124282331D01*
X82624091Y-124147483D01*
X82629062Y-124101242D01*
X82655799Y-124036694D01*
X82713191Y-123996846D01*
X82752351Y-123990500D01*
X86438844Y-123990500D01*
X86438845Y-123990499D01*
X86593497Y-123959737D01*
X86739179Y-123899394D01*
X86870289Y-123811789D01*
X87252819Y-123429259D01*
X87314142Y-123395774D01*
X87383833Y-123400758D01*
G37*
%TD.AperFunction*%
%TA.AperFunction,Conductor*%
G36*
X81530000Y-127836988D02*
G01*
X81472993Y-127804075D01*
X81345826Y-127770000D01*
X81214174Y-127770000D01*
X81087007Y-127804075D01*
X81030000Y-127836988D01*
X81030000Y-126163012D01*
X81087007Y-126195925D01*
X81214174Y-126230000D01*
X81345826Y-126230000D01*
X81472993Y-126195925D01*
X81530000Y-126163012D01*
X81530000Y-127836988D01*
G37*
%TD.AperFunction*%
%TA.AperFunction,Conductor*%
G36*
X137205020Y-106449685D02*
G01*
X137225662Y-106466319D01*
X139598181Y-108838838D01*
X139631666Y-108900161D01*
X139634500Y-108926519D01*
X139634500Y-118978067D01*
X139614815Y-119045106D01*
X139562011Y-119090861D01*
X139492853Y-119100805D01*
X139455361Y-119088512D01*
X139455359Y-119088518D01*
X139455292Y-119088490D01*
X139452052Y-119087428D01*
X139449732Y-119086188D01*
X139449729Y-119086187D01*
X139449727Y-119086186D01*
X139261132Y-119028976D01*
X139261129Y-119028975D01*
X139065000Y-119009659D01*
X138868870Y-119028975D01*
X138680266Y-119086188D01*
X138506467Y-119179086D01*
X138506460Y-119179090D01*
X138354116Y-119304116D01*
X138229090Y-119456460D01*
X138229086Y-119456467D01*
X138136188Y-119630266D01*
X138078975Y-119818870D01*
X138059659Y-120015000D01*
X138078975Y-120211129D01*
X138136187Y-120399730D01*
X138146219Y-120418498D01*
X138229090Y-120573538D01*
X138236350Y-120582385D01*
X138263666Y-120646691D01*
X138264500Y-120661052D01*
X138264500Y-120902060D01*
X138244815Y-120969099D01*
X138228181Y-120989741D01*
X137433891Y-121784030D01*
X137372568Y-121817515D01*
X137302876Y-121812531D01*
X137246943Y-121770659D01*
X137223738Y-121715750D01*
X137209709Y-121627174D01*
X137148884Y-121439975D01*
X137148882Y-121439972D01*
X137148882Y-121439970D01*
X137101743Y-121347455D01*
X137059524Y-121264595D01*
X136943828Y-121105354D01*
X136804646Y-120966172D01*
X136645405Y-120850476D01*
X136636879Y-120846132D01*
X136530514Y-120791936D01*
X136479718Y-120743961D01*
X136462923Y-120676140D01*
X136485460Y-120610005D01*
X136534405Y-120569068D01*
X136567580Y-120553598D01*
X136761082Y-120418105D01*
X136928105Y-120251082D01*
X137063600Y-120057578D01*
X137163429Y-119843492D01*
X137163432Y-119843486D01*
X137220636Y-119630000D01*
X136323012Y-119630000D01*
X136355925Y-119572993D01*
X136390000Y-119445826D01*
X136390000Y-119314174D01*
X136355925Y-119187007D01*
X136323012Y-119130000D01*
X137220636Y-119130000D01*
X137220635Y-119129999D01*
X137163432Y-118916513D01*
X137163429Y-118916507D01*
X137063600Y-118702422D01*
X137063599Y-118702420D01*
X136928113Y-118508926D01*
X136928108Y-118508920D01*
X136761078Y-118341890D01*
X136575405Y-118211879D01*
X136531780Y-118157302D01*
X136524588Y-118087804D01*
X136556110Y-118025449D01*
X136575406Y-118008730D01*
X136596890Y-117993687D01*
X136761401Y-117878495D01*
X136928495Y-117711401D01*
X137064035Y-117517830D01*
X137163903Y-117303663D01*
X137225063Y-117075408D01*
X137245659Y-116840000D01*
X137225063Y-116604592D01*
X137163903Y-116376337D01*
X137064035Y-116162171D01*
X136928495Y-115968599D01*
X136928494Y-115968597D01*
X136761402Y-115801506D01*
X136761396Y-115801501D01*
X136575842Y-115671575D01*
X136532217Y-115616998D01*
X136525023Y-115547500D01*
X136556546Y-115485145D01*
X136575842Y-115468425D01*
X136598026Y-115452891D01*
X136761401Y-115338495D01*
X136928495Y-115171401D01*
X137064035Y-114977830D01*
X137163903Y-114763663D01*
X137225063Y-114535408D01*
X137245659Y-114300000D01*
X137225063Y-114064592D01*
X137163903Y-113836337D01*
X137064035Y-113622171D01*
X136928495Y-113428599D01*
X136928494Y-113428597D01*
X136761402Y-113261506D01*
X136761396Y-113261501D01*
X136575842Y-113131575D01*
X136532217Y-113076998D01*
X136525023Y-113007500D01*
X136556546Y-112945145D01*
X136575842Y-112928425D01*
X136598026Y-112912891D01*
X136761401Y-112798495D01*
X136928495Y-112631401D01*
X137064035Y-112437830D01*
X137163903Y-112223663D01*
X137225063Y-111995408D01*
X137245659Y-111760000D01*
X137225063Y-111524592D01*
X137163903Y-111296337D01*
X137064035Y-111082171D01*
X136928495Y-110888599D01*
X136928494Y-110888597D01*
X136761402Y-110721506D01*
X136761396Y-110721501D01*
X136575842Y-110591575D01*
X136532217Y-110536998D01*
X136525023Y-110467500D01*
X136556546Y-110405145D01*
X136575842Y-110388425D01*
X136598026Y-110372891D01*
X136761401Y-110258495D01*
X136928495Y-110091401D01*
X137064035Y-109897830D01*
X137163903Y-109683663D01*
X137225063Y-109455408D01*
X137245659Y-109220000D01*
X137225063Y-108984592D01*
X137163903Y-108756337D01*
X137064035Y-108542171D01*
X136950957Y-108380677D01*
X136928494Y-108348597D01*
X136761402Y-108181506D01*
X136761398Y-108181503D01*
X136575405Y-108051269D01*
X136531781Y-107996692D01*
X136524588Y-107927193D01*
X136556110Y-107864839D01*
X136575405Y-107848119D01*
X136761082Y-107718105D01*
X136928105Y-107551082D01*
X137063600Y-107357578D01*
X137163429Y-107143492D01*
X137163432Y-107143486D01*
X137220636Y-106930000D01*
X136323012Y-106930000D01*
X136355925Y-106872993D01*
X136390000Y-106745826D01*
X136390000Y-106614174D01*
X136355925Y-106487007D01*
X136323012Y-106430000D01*
X137137981Y-106430000D01*
X137205020Y-106449685D01*
G37*
%TD.AperFunction*%
%TA.AperFunction,Conductor*%
G36*
X116681741Y-91421428D02*
G01*
X116737674Y-91463300D01*
X116761935Y-91526802D01*
X116774936Y-91675403D01*
X116774938Y-91675413D01*
X116836094Y-91903655D01*
X116836096Y-91903659D01*
X116836097Y-91903663D01*
X116935965Y-92117830D01*
X116935967Y-92117834D01*
X117071501Y-92311395D01*
X117071506Y-92311402D01*
X117238597Y-92478493D01*
X117238603Y-92478498D01*
X117424594Y-92608730D01*
X117468219Y-92663307D01*
X117475413Y-92732805D01*
X117443890Y-92795160D01*
X117424595Y-92811880D01*
X117238922Y-92941890D01*
X117238920Y-92941891D01*
X117071891Y-93108920D01*
X117071886Y-93108926D01*
X116936400Y-93302420D01*
X116936399Y-93302422D01*
X116836570Y-93516507D01*
X116836567Y-93516513D01*
X116779364Y-93729999D01*
X116779364Y-93730000D01*
X117676988Y-93730000D01*
X117644075Y-93787007D01*
X117610000Y-93914174D01*
X117610000Y-94045826D01*
X117644075Y-94172993D01*
X117676988Y-94230000D01*
X116779364Y-94230000D01*
X116836567Y-94443486D01*
X116836570Y-94443492D01*
X116936399Y-94657578D01*
X117071894Y-94851082D01*
X117238917Y-95018105D01*
X117424595Y-95148119D01*
X117468219Y-95202696D01*
X117475412Y-95272195D01*
X117443890Y-95334549D01*
X117424595Y-95351269D01*
X117238594Y-95481508D01*
X117071505Y-95648597D01*
X116935965Y-95842169D01*
X116935964Y-95842171D01*
X116836098Y-96056335D01*
X116836094Y-96056344D01*
X116774938Y-96284586D01*
X116774936Y-96284596D01*
X116754341Y-96519999D01*
X116754341Y-96520000D01*
X116774936Y-96755403D01*
X116774938Y-96755413D01*
X116836094Y-96983655D01*
X116836096Y-96983659D01*
X116836097Y-96983663D01*
X116935965Y-97197830D01*
X116935967Y-97197834D01*
X117071501Y-97391395D01*
X117071506Y-97391402D01*
X117238597Y-97558493D01*
X117238603Y-97558498D01*
X117424158Y-97688425D01*
X117467783Y-97743002D01*
X117474977Y-97812500D01*
X117443454Y-97874855D01*
X117424158Y-97891575D01*
X117238597Y-98021505D01*
X117071505Y-98188597D01*
X116935965Y-98382169D01*
X116935964Y-98382171D01*
X116836098Y-98596335D01*
X116836094Y-98596344D01*
X116774938Y-98824586D01*
X116774936Y-98824596D01*
X116754341Y-99059999D01*
X116754341Y-99060000D01*
X116774936Y-99295403D01*
X116774938Y-99295413D01*
X116836094Y-99523655D01*
X116836096Y-99523659D01*
X116836097Y-99523663D01*
X116935965Y-99737830D01*
X116935967Y-99737834D01*
X117071501Y-99931395D01*
X117071506Y-99931402D01*
X117238597Y-100098493D01*
X117238603Y-100098498D01*
X117424158Y-100228425D01*
X117467783Y-100283002D01*
X117474977Y-100352500D01*
X117443454Y-100414855D01*
X117424158Y-100431575D01*
X117238597Y-100561505D01*
X117071505Y-100728597D01*
X116935965Y-100922169D01*
X116935964Y-100922171D01*
X116836098Y-101136335D01*
X116836094Y-101136344D01*
X116774938Y-101364586D01*
X116774936Y-101364596D01*
X116754341Y-101599999D01*
X116754341Y-101600000D01*
X116774936Y-101835403D01*
X116774938Y-101835413D01*
X116836094Y-102063655D01*
X116836096Y-102063659D01*
X116836097Y-102063663D01*
X116935965Y-102277830D01*
X116935967Y-102277834D01*
X117071501Y-102471395D01*
X117071506Y-102471402D01*
X117238597Y-102638493D01*
X117238603Y-102638498D01*
X117424158Y-102768425D01*
X117467783Y-102823002D01*
X117474977Y-102892500D01*
X117443454Y-102954855D01*
X117424158Y-102971575D01*
X117238597Y-103101505D01*
X117071505Y-103268597D01*
X116935965Y-103462169D01*
X116935964Y-103462171D01*
X116836098Y-103676335D01*
X116836094Y-103676344D01*
X116774938Y-103904586D01*
X116774936Y-103904596D01*
X116754341Y-104139999D01*
X116754341Y-104140000D01*
X116774936Y-104375403D01*
X116774938Y-104375413D01*
X116836094Y-104603655D01*
X116836096Y-104603659D01*
X116836097Y-104603663D01*
X116935965Y-104817830D01*
X116935967Y-104817834D01*
X117071501Y-105011395D01*
X117071506Y-105011402D01*
X117238597Y-105178493D01*
X117238603Y-105178498D01*
X117424594Y-105308730D01*
X117468219Y-105363307D01*
X117475413Y-105432805D01*
X117443890Y-105495160D01*
X117424595Y-105511880D01*
X117238922Y-105641890D01*
X117238920Y-105641891D01*
X117071891Y-105808920D01*
X117071886Y-105808926D01*
X116936400Y-106002420D01*
X116936399Y-106002422D01*
X116836570Y-106216507D01*
X116836567Y-106216513D01*
X116779364Y-106429999D01*
X116779364Y-106430000D01*
X117676988Y-106430000D01*
X117644075Y-106487007D01*
X117610000Y-106614174D01*
X117610000Y-106745826D01*
X117644075Y-106872993D01*
X117676988Y-106930000D01*
X116779364Y-106930000D01*
X116836567Y-107143486D01*
X116836570Y-107143492D01*
X116936399Y-107357578D01*
X117071894Y-107551082D01*
X117238917Y-107718105D01*
X117424595Y-107848119D01*
X117468219Y-107902696D01*
X117475412Y-107972195D01*
X117443890Y-108034549D01*
X117424595Y-108051269D01*
X117238594Y-108181508D01*
X117071505Y-108348597D01*
X116935965Y-108542169D01*
X116935964Y-108542171D01*
X116836098Y-108756335D01*
X116836094Y-108756344D01*
X116774938Y-108984586D01*
X116774936Y-108984596D01*
X116754341Y-109219999D01*
X116754341Y-109220000D01*
X116774937Y-109455409D01*
X116774937Y-109455410D01*
X116779442Y-109472225D01*
X116777776Y-109542075D01*
X116747347Y-109591994D01*
X113942181Y-112397161D01*
X113880858Y-112430646D01*
X113811166Y-112425662D01*
X113755233Y-112383790D01*
X113730816Y-112318326D01*
X113730500Y-112309480D01*
X113730500Y-94321518D01*
X113750185Y-94254479D01*
X113766814Y-94233842D01*
X116550728Y-91449927D01*
X116612049Y-91416444D01*
X116681741Y-91421428D01*
G37*
%TD.AperFunction*%
%TD*%
%TA.AperFunction,Conductor*%
%TO.N,Net-(BT1-+)*%
G36*
X129181061Y-81915597D02*
G01*
X129357941Y-81933018D01*
X129381769Y-81937757D01*
X129546001Y-81987576D01*
X129568453Y-81996877D01*
X129719798Y-82077772D01*
X129740010Y-82091277D01*
X129872666Y-82200145D01*
X129889854Y-82217333D01*
X129998722Y-82349989D01*
X130012227Y-82370201D01*
X130093121Y-82521543D01*
X130102424Y-82544001D01*
X130152240Y-82708224D01*
X130156982Y-82732065D01*
X130174403Y-82908938D01*
X130175000Y-82921092D01*
X130175000Y-84083907D01*
X130174403Y-84096061D01*
X130156982Y-84272934D01*
X130152240Y-84296775D01*
X130102424Y-84460998D01*
X130093121Y-84483456D01*
X130012227Y-84634798D01*
X129998722Y-84655010D01*
X129889854Y-84787666D01*
X129872666Y-84804854D01*
X129740010Y-84913722D01*
X129719798Y-84927227D01*
X129568456Y-85008121D01*
X129545998Y-85017424D01*
X129381775Y-85067240D01*
X129357934Y-85071982D01*
X129181061Y-85089403D01*
X129168907Y-85090000D01*
X124831093Y-85090000D01*
X124818939Y-85089403D01*
X124642065Y-85071982D01*
X124618224Y-85067240D01*
X124454001Y-85017424D01*
X124431543Y-85008121D01*
X124280201Y-84927227D01*
X124259989Y-84913722D01*
X124127333Y-84804854D01*
X124110145Y-84787666D01*
X124001277Y-84655010D01*
X123987772Y-84634798D01*
X123906878Y-84483456D01*
X123897575Y-84460998D01*
X123847757Y-84296769D01*
X123843018Y-84272941D01*
X123825597Y-84096061D01*
X123825000Y-84083907D01*
X123825000Y-82921092D01*
X123825597Y-82908938D01*
X123843018Y-82732056D01*
X123847757Y-82708232D01*
X123897577Y-82543994D01*
X123906875Y-82521549D01*
X123987775Y-82370195D01*
X124001272Y-82349995D01*
X124110149Y-82217328D01*
X124127328Y-82200149D01*
X124259995Y-82091272D01*
X124280195Y-82077775D01*
X124431549Y-81996875D01*
X124453994Y-81987577D01*
X124618232Y-81937757D01*
X124642056Y-81933018D01*
X124818939Y-81915597D01*
X124831093Y-81915000D01*
X129168907Y-81915000D01*
X129181061Y-81915597D01*
G37*
%TD.AperFunction*%
%TD*%
M02*
