M48
; DRILL file {KiCad 8.0.5} date 2024-10-21T23:21:42+0200
; FORMAT={-:-/ absolute / inch / decimal}
; #@! TF.CreationDate,2024-10-21T23:21:42+02:00
; #@! TF.GenerationSoftware,Kicad,Pcbnew,8.0.5
; #@! TF.FileFunction,MixedPlating,1,2
FMAT,2
INCH
; #@! TA.AperFunction,Plated,PTH,ViaDrill
T1C0.0138
; #@! TA.AperFunction,Plated,PTH,ComponentDrill
T2C0.0157
; #@! TA.AperFunction,Plated,PTH,ViaDrill
T3C0.0236
; #@! TA.AperFunction,Plated,PTH,ComponentDrill
T4C0.0315
; #@! TA.AperFunction,Plated,PTH,ComponentDrill
T5C0.0354
; #@! TA.AperFunction,Plated,PTH,ComponentDrill
T6C0.0394
; #@! TA.AperFunction,Plated,PTH,ComponentDrill
T7C0.0433
; #@! TA.AperFunction,Plated,PTH,ComponentDrill
T8C0.0606
; #@! TA.AperFunction,Plated,PTH,ComponentDrill
T9C0.0866
%
G90
G05
T1
X3.3Y-5.3744
X3.4Y-4.75
X3.4Y-5.275
X3.45Y-5.6
X3.6Y-4.4
X3.6Y-5.1988
X3.6Y-5.3012
X3.8Y-4.75
X4.1Y-4.8506
X4.2Y-4.8506
X4.3Y-4.8506
X4.35Y-4.8756
X4.8Y-5.675
X4.975Y-5.1
X5.0Y-5.0
X5.0Y-5.725
X5.1Y-5.2
X5.175Y-5.675
X5.3Y-5.35
X5.425Y-5.6
X5.825Y-4.7
X5.875Y-4.6744
X5.925Y-4.6488
X5.975Y-4.6232
X6.4Y-4.8012
T2
X3.935Y-5.0
X3.9541Y-4.9541
X3.9541Y-5.0459
X4.0Y-4.935
X4.0Y-5.065
X4.0459Y-4.9541
X4.0459Y-5.0459
X4.065Y-5.0
X5.935Y-5.0
X5.9541Y-4.9541
X5.9541Y-5.0459
X6.0Y-4.935
X6.0Y-5.065
X6.0459Y-4.9541
X6.0459Y-5.0459
X6.065Y-5.0
T3
X4.5Y-5.475
X4.6Y-5.575
X4.65Y-3.3
X4.9Y-5.85
X5.175Y-5.45
X5.25Y-5.375
X5.35Y-3.3
X5.475Y-4.725
X5.8625Y-4.8875
X6.0Y-4.75
X6.225Y-4.75
T4
X4.9Y-5.4
X5.0Y-5.4
X5.1Y-5.4
T5
X4.8Y-5.55
X5.2Y-5.55
T6
X3.2Y-4.4
X3.2Y-4.5
X3.2Y-4.6
X3.2Y-4.7
X3.2Y-4.85
X3.2Y-4.95
X3.2Y-5.05
X3.2Y-5.15
X3.2Y-5.3
X3.2Y-5.4
X3.2Y-5.5
X3.2Y-5.6
X3.6Y-4.95
X3.6Y-5.05
X4.65Y-3.5
X4.65Y-3.6
X4.65Y-3.7
X4.65Y-3.8
X4.65Y-3.9
X4.65Y-4.0
X4.65Y-4.1
X4.65Y-4.2
X4.65Y-4.3
X4.65Y-4.4
X4.65Y-4.5
X4.65Y-4.6
X4.65Y-4.7
X4.65Y-4.8
X4.65Y-4.9
X4.65Y-5.0
X4.65Y-5.1
X4.65Y-5.2
X4.65Y-5.3
X4.65Y-5.4
X5.35Y-3.5
X5.35Y-3.6
X5.35Y-3.7
X5.35Y-3.8
X5.35Y-3.9
X5.35Y-4.0
X5.35Y-4.1
X5.35Y-4.2
X5.35Y-4.3
X5.35Y-4.4
X5.35Y-4.5
X5.35Y-4.6
X5.35Y-4.7
X5.35Y-4.8
X5.35Y-4.9
X5.35Y-5.0
X5.35Y-5.1
X5.35Y-5.2
X5.35Y-5.3
X5.35Y-5.4
X5.5Y-3.55
X5.5Y-3.65
X5.5Y-3.75
X6.4Y-4.9502
X6.4Y-5.0502
X6.8Y-4.4
X6.8Y-4.5
X6.8Y-4.6
X6.8Y-4.7
X6.8Y-4.85
X6.8Y-4.95
X6.8Y-5.05
X6.8Y-5.15
X6.8Y-5.3
X6.8Y-5.4
X6.8Y-5.5
X6.8Y-5.6
T7
X4.9094Y-4.925
X5.0906Y-4.925
T8
X4.5871Y-5.7092
X4.5871Y-5.843
X4.5871Y-6.1422
X4.5871Y-6.28
X5.4887Y-5.721
X5.4887Y-6.28
T9
X4.0Y-5.0
X6.0Y-5.0
M30
