%TF.GenerationSoftware,KiCad,Pcbnew,8.0.5*%
%TF.CreationDate,2024-10-21T23:21:48+02:00*%
%TF.ProjectId,kyb_sat,6b79625f-7361-4742-9e6b-696361645f70,rev?*%
%TF.SameCoordinates,Original*%
%TF.FileFunction,Soldermask,Bot*%
%TF.FilePolarity,Negative*%
%FSLAX46Y46*%
G04 Gerber Fmt 4.6, Leading zero omitted, Abs format (unit mm)*
G04 Created by KiCad (PCBNEW 8.0.5) date 2024-10-21 23:21:48*
%MOMM*%
%LPD*%
G01*
G04 APERTURE LIST*
G04 Aperture macros list*
%AMRoundRect*
0 Rectangle with rounded corners*
0 $1 Rounding radius*
0 $2 $3 $4 $5 $6 $7 $8 $9 X,Y pos of 4 corners*
0 Add a 4 corners polygon primitive as box body*
4,1,4,$2,$3,$4,$5,$6,$7,$8,$9,$2,$3,0*
0 Add four circle primitives for the rounded corners*
1,1,$1+$1,$2,$3*
1,1,$1+$1,$4,$5*
1,1,$1+$1,$6,$7*
1,1,$1+$1,$8,$9*
0 Add four rect primitives between the rounded corners*
20,1,$1+$1,$2,$3,$4,$5,0*
20,1,$1+$1,$4,$5,$6,$7,0*
20,1,$1+$1,$6,$7,$8,$9,0*
20,1,$1+$1,$8,$9,$2,$3,0*%
G04 Aperture macros list end*
%ADD10R,1.700000X1.700000*%
%ADD11O,1.700000X1.700000*%
%ADD12R,1.800000X1.800000*%
%ADD13O,1.800000X1.800000*%
%ADD14C,1.700000*%
%ADD15R,2.800000X2.800000*%
%ADD16C,0.700000*%
%ADD17C,4.400000*%
%ADD18O,1.700000X1.500000*%
%ADD19RoundRect,0.250001X-0.799999X-0.799999X0.799999X-0.799999X0.799999X0.799999X-0.799999X0.799999X0*%
%ADD20C,2.100000*%
G04 APERTURE END LIST*
D10*
%TO.C,SW1*%
X139700000Y-95250000D03*
D11*
X139700000Y-92710000D03*
X139700000Y-90170000D03*
%TD*%
D12*
%TO.C,D1*%
X132080000Y-140970000D03*
D13*
X121920000Y-140970000D03*
%TD*%
D10*
%TO.C,J1*%
X118110000Y-88900000D03*
D11*
X118110000Y-91440000D03*
X118110000Y-93980000D03*
X118110000Y-96520000D03*
X118110000Y-99060000D03*
X118110000Y-101600000D03*
X118110000Y-104140000D03*
X118110000Y-106680000D03*
X118110000Y-109220000D03*
X118110000Y-111760000D03*
X118110000Y-114300000D03*
X118110000Y-116840000D03*
X118110000Y-119380000D03*
X118110000Y-121920000D03*
X118110000Y-124460000D03*
X118110000Y-127000000D03*
X118110000Y-129540000D03*
X118110000Y-132080000D03*
X118110000Y-134620000D03*
X118110000Y-137160000D03*
%TD*%
D14*
%TO.C,J6*%
X172720000Y-111760000D03*
D11*
X172720000Y-114300000D03*
X172720000Y-116840000D03*
X172720000Y-119380000D03*
%TD*%
D14*
%TO.C,J5*%
X81280000Y-134620000D03*
D11*
X81280000Y-137160000D03*
X81280000Y-139700000D03*
X81280000Y-142240000D03*
%TD*%
D15*
%TO.C,U1*%
X139412500Y-159512500D03*
X139412500Y-145312500D03*
X116512500Y-145012500D03*
X116512500Y-148412500D03*
X116512500Y-156012500D03*
X116512500Y-159512500D03*
%TD*%
D16*
%TO.C,H2*%
X150750000Y-127000000D03*
X151233274Y-125833274D03*
X151233274Y-128166726D03*
X152400000Y-125350000D03*
D17*
X152400000Y-127000000D03*
D16*
X152400000Y-128650000D03*
X153566726Y-125833274D03*
X153566726Y-128166726D03*
X154050000Y-127000000D03*
%TD*%
D10*
%TO.C,J4*%
X81280000Y-123190000D03*
D11*
X81280000Y-125730000D03*
X81280000Y-128270000D03*
D10*
X81280000Y-130810000D03*
%TD*%
%TO.C,J7*%
X172720000Y-123190000D03*
D11*
X172720000Y-125730000D03*
X172720000Y-128270000D03*
D10*
X172720000Y-130810000D03*
%TD*%
%TO.C,SC2*%
X162560000Y-128275000D03*
D11*
X162560000Y-125735000D03*
%TD*%
D14*
%TO.C,U2*%
X124460000Y-137160000D03*
X127000000Y-137160000D03*
X129540000Y-137160000D03*
%TD*%
%TO.C,J3*%
X81280000Y-111760000D03*
D11*
X81280000Y-114300000D03*
X81280000Y-116840000D03*
X81280000Y-119380000D03*
%TD*%
D10*
%TO.C,J2*%
X135890000Y-88900000D03*
D11*
X135890000Y-91440000D03*
X135890000Y-93980000D03*
X135890000Y-96520000D03*
X135890000Y-99060000D03*
X135890000Y-101600000D03*
X135890000Y-104140000D03*
X135890000Y-106680000D03*
X135890000Y-109220000D03*
X135890000Y-111760000D03*
X135890000Y-114300000D03*
X135890000Y-116840000D03*
X135890000Y-119380000D03*
D18*
X135890000Y-121920000D03*
X135890000Y-124460000D03*
D11*
X135890000Y-127000000D03*
X135890000Y-129540000D03*
X135890000Y-132080000D03*
X135890000Y-134620000D03*
X135890000Y-137160000D03*
%TD*%
D10*
%TO.C,SC1*%
X91440000Y-128270000D03*
D11*
X91440000Y-125730000D03*
%TD*%
D14*
%TO.C,J8*%
X172720000Y-134620000D03*
D11*
X172720000Y-137160000D03*
X172720000Y-139700000D03*
X172720000Y-142240000D03*
%TD*%
D16*
%TO.C,H1*%
X99950000Y-127000000D03*
X100433274Y-125833274D03*
X100433274Y-128166726D03*
X101600000Y-125350000D03*
D17*
X101600000Y-127000000D03*
D16*
X101600000Y-128650000D03*
X102766726Y-125833274D03*
X102766726Y-128166726D03*
X103250000Y-127000000D03*
%TD*%
D19*
%TO.C,BT1*%
X124700000Y-125095000D03*
D20*
X129300000Y-125095000D03*
%TD*%
M02*
