%TF.GenerationSoftware,KiCad,Pcbnew,8.0.5*%
%TF.CreationDate,2024-10-21T23:21:47+02:00*%
%TF.ProjectId,kyb_sat,6b79625f-7361-4742-9e6b-696361645f70,rev?*%
%TF.SameCoordinates,Original*%
%TF.FileFunction,Copper,L2,Bot*%
%TF.FilePolarity,Positive*%
%FSLAX46Y46*%
G04 Gerber Fmt 4.6, Leading zero omitted, Abs format (unit mm)*
G04 Created by KiCad (PCBNEW 8.0.5) date 2024-10-21 23:21:47*
%MOMM*%
%LPD*%
G01*
G04 APERTURE LIST*
G04 Aperture macros list*
%AMRoundRect*
0 Rectangle with rounded corners*
0 $1 Rounding radius*
0 $2 $3 $4 $5 $6 $7 $8 $9 X,Y pos of 4 corners*
0 Add a 4 corners polygon primitive as box body*
4,1,4,$2,$3,$4,$5,$6,$7,$8,$9,$2,$3,0*
0 Add four circle primitives for the rounded corners*
1,1,$1+$1,$2,$3*
1,1,$1+$1,$4,$5*
1,1,$1+$1,$6,$7*
1,1,$1+$1,$8,$9*
0 Add four rect primitives between the rounded corners*
20,1,$1+$1,$2,$3,$4,$5,0*
20,1,$1+$1,$4,$5,$6,$7,0*
20,1,$1+$1,$6,$7,$8,$9,0*
20,1,$1+$1,$8,$9,$2,$3,0*%
G04 Aperture macros list end*
%TA.AperFunction,ComponentPad*%
%ADD10R,1.700000X1.700000*%
%TD*%
%TA.AperFunction,ComponentPad*%
%ADD11O,1.700000X1.700000*%
%TD*%
%TA.AperFunction,ComponentPad*%
%ADD12R,1.800000X1.800000*%
%TD*%
%TA.AperFunction,ComponentPad*%
%ADD13O,1.800000X1.800000*%
%TD*%
%TA.AperFunction,ComponentPad*%
%ADD14C,1.700000*%
%TD*%
%TA.AperFunction,ComponentPad*%
%ADD15R,2.800000X2.800000*%
%TD*%
%TA.AperFunction,ComponentPad*%
%ADD16C,0.700000*%
%TD*%
%TA.AperFunction,ComponentPad*%
%ADD17C,4.400000*%
%TD*%
%TA.AperFunction,ComponentPad*%
%ADD18O,1.700000X1.500000*%
%TD*%
%TA.AperFunction,ComponentPad*%
%ADD19RoundRect,0.250001X-0.799999X-0.799999X0.799999X-0.799999X0.799999X0.799999X-0.799999X0.799999X0*%
%TD*%
%TA.AperFunction,ComponentPad*%
%ADD20C,2.100000*%
%TD*%
%TA.AperFunction,ViaPad*%
%ADD21C,0.500000*%
%TD*%
%TA.AperFunction,ViaPad*%
%ADD22C,1.000000*%
%TD*%
%TA.AperFunction,Conductor*%
%ADD23C,0.800000*%
%TD*%
%TA.AperFunction,Conductor*%
%ADD24C,0.600000*%
%TD*%
%TA.AperFunction,Conductor*%
%ADD25C,1.000000*%
%TD*%
%TA.AperFunction,Conductor*%
%ADD26C,0.400000*%
%TD*%
G04 APERTURE END LIST*
D10*
%TO.P,SW1,1,A*%
%TO.N,unconnected-(SW1-A-Pad1)*%
X139700000Y-95250000D03*
D11*
%TO.P,SW1,2,B*%
%TO.N,/3V3_EN*%
X139700000Y-92710000D03*
%TO.P,SW1,3,C*%
%TO.N,GND*%
X139700000Y-90170000D03*
%TD*%
D12*
%TO.P,D1,1,K*%
%TO.N,VSYS*%
X132080000Y-140970000D03*
D13*
%TO.P,D1,2,A*%
%TO.N,Net-(D1-A)*%
X121920000Y-140970000D03*
%TD*%
D10*
%TO.P,J1,1,Pin_1*%
%TO.N,/PA7*%
X118110000Y-88900000D03*
D11*
%TO.P,J1,2,Pin_2*%
%TO.N,unconnected-(J1-Pin_2-Pad2)*%
X118110000Y-91440000D03*
%TO.P,J1,3,Pin_3*%
%TO.N,GND*%
X118110000Y-93980000D03*
%TO.P,J1,4,Pin_4*%
%TO.N,unconnected-(J1-Pin_4-Pad4)*%
X118110000Y-96520000D03*
%TO.P,J1,5,Pin_5*%
%TO.N,unconnected-(J1-Pin_5-Pad5)*%
X118110000Y-99060000D03*
%TO.P,J1,6,Pin_6*%
%TO.N,unconnected-(J1-Pin_6-Pad6)*%
X118110000Y-101600000D03*
%TO.P,J1,7,Pin_7*%
%TO.N,unconnected-(J1-Pin_7-Pad7)*%
X118110000Y-104140000D03*
%TO.P,J1,8,Pin_8*%
%TO.N,GND*%
X118110000Y-106680000D03*
%TO.P,J1,9,Pin_9*%
%TO.N,/PA5*%
X118110000Y-109220000D03*
%TO.P,J1,10,Pin_10*%
%TO.N,/PA6*%
X118110000Y-111760000D03*
%TO.P,J1,11,Pin_11*%
%TO.N,/PA0*%
X118110000Y-114300000D03*
%TO.P,J1,12,Pin_12*%
%TO.N,/PA1*%
X118110000Y-116840000D03*
%TO.P,J1,13,Pin_13*%
%TO.N,GND*%
X118110000Y-119380000D03*
%TO.P,J1,14,Pin_14*%
%TO.N,/PB5*%
X118110000Y-121920000D03*
%TO.P,J1,15,Pin_15*%
%TO.N,/PB6*%
X118110000Y-124460000D03*
%TO.P,J1,16,Pin_16*%
%TO.N,/PB7*%
X118110000Y-127000000D03*
%TO.P,J1,17,Pin_17*%
%TO.N,unconnected-(J1-Pin_17-Pad17)*%
X118110000Y-129540000D03*
%TO.P,J1,18,Pin_18*%
%TO.N,GND*%
X118110000Y-132080000D03*
%TO.P,J1,19,Pin_19*%
%TO.N,/PA2*%
X118110000Y-134620000D03*
%TO.P,J1,20,Pin_20*%
%TO.N,/PA3*%
X118110000Y-137160000D03*
%TD*%
D14*
%TO.P,J6,1,Pin_1*%
%TO.N,/PB0*%
X172720000Y-111760000D03*
D11*
%TO.P,J6,2,Pin_2*%
%TO.N,/PB1*%
X172720000Y-114300000D03*
%TO.P,J6,3,Pin_3*%
%TO.N,/PB2*%
X172720000Y-116840000D03*
%TO.P,J6,4,Pin_4*%
%TO.N,/PB3*%
X172720000Y-119380000D03*
%TD*%
D14*
%TO.P,J5,1,Pin_1*%
%TO.N,/PA4*%
X81280000Y-134620000D03*
D11*
%TO.P,J5,2,Pin_2*%
%TO.N,/PA5*%
X81280000Y-137160000D03*
%TO.P,J5,3,Pin_3*%
%TO.N,/PA6*%
X81280000Y-139700000D03*
%TO.P,J5,4,Pin_4*%
%TO.N,/PA7*%
X81280000Y-142240000D03*
%TD*%
D15*
%TO.P,U1,1,VIN*%
%TO.N,VBUS*%
X139412500Y-159512500D03*
%TO.P,U1,2,GND*%
%TO.N,GND*%
X139412500Y-145312500D03*
%TO.P,U1,3,GND*%
X116512500Y-145012500D03*
%TO.P,U1,4,B-*%
%TO.N,Net-(BT1--)*%
X116512500Y-148412500D03*
%TO.P,U1,5,B+*%
%TO.N,Net-(BT1-+)*%
X116512500Y-156012500D03*
%TO.P,U1,6,VOUT*%
%TO.N,Net-(D1-A)*%
X116512500Y-159512500D03*
%TD*%
D16*
%TO.P,H2,1,1*%
%TO.N,GND*%
X150750000Y-127000000D03*
X151233274Y-125833274D03*
X151233274Y-128166726D03*
X152400000Y-125350000D03*
D17*
X152400000Y-127000000D03*
D16*
X152400000Y-128650000D03*
X153566726Y-125833274D03*
X153566726Y-128166726D03*
X154050000Y-127000000D03*
%TD*%
D10*
%TO.P,J4,1,Pin_1*%
%TO.N,/PWRA0*%
X81280000Y-123190000D03*
D11*
%TO.P,J4,2,Pin_2*%
%TO.N,GND*%
X81280000Y-125730000D03*
%TO.P,J4,3,Pin_3*%
X81280000Y-128270000D03*
D10*
%TO.P,J4,4,Pin_4*%
%TO.N,/PWRA1*%
X81280000Y-130810000D03*
%TD*%
%TO.P,J7,1,Pin_1*%
%TO.N,/PWRB0*%
X172720000Y-123190000D03*
D11*
%TO.P,J7,2,Pin_2*%
%TO.N,GND*%
X172720000Y-125730000D03*
%TO.P,J7,3,Pin_3*%
X172720000Y-128270000D03*
D10*
%TO.P,J7,4,Pin_4*%
%TO.N,/PWRB1*%
X172720000Y-130810000D03*
%TD*%
%TO.P,SC2,1,+*%
%TO.N,Net-(SC1-+)*%
X162560000Y-128275000D03*
D11*
%TO.P,SC2,2,-*%
%TO.N,GND*%
X162560000Y-125735000D03*
%TD*%
D14*
%TO.P,U2,1,IN*%
%TO.N,Net-(SC1-+)*%
X124460000Y-137160000D03*
%TO.P,U2,2,GND*%
%TO.N,GND*%
X127000000Y-137160000D03*
%TO.P,U2,3,OUT*%
%TO.N,VBUS*%
X129540000Y-137160000D03*
%TD*%
%TO.P,J3,1,Pin_1*%
%TO.N,/PA0*%
X81280000Y-111760000D03*
D11*
%TO.P,J3,2,Pin_2*%
%TO.N,/PA1*%
X81280000Y-114300000D03*
%TO.P,J3,3,Pin_3*%
%TO.N,/PA2*%
X81280000Y-116840000D03*
%TO.P,J3,4,Pin_4*%
%TO.N,/PA3*%
X81280000Y-119380000D03*
%TD*%
D10*
%TO.P,J2,1,Pin_1*%
%TO.N,VBUS*%
X135890000Y-88900000D03*
D11*
%TO.P,J2,2,Pin_2*%
%TO.N,VSYS*%
X135890000Y-91440000D03*
%TO.P,J2,3,Pin_3*%
%TO.N,GND*%
X135890000Y-93980000D03*
%TO.P,J2,4,Pin_4*%
%TO.N,/3V3_EN*%
X135890000Y-96520000D03*
%TO.P,J2,5,Pin_5*%
%TO.N,+3V3*%
X135890000Y-99060000D03*
%TO.P,J2,6,Pin_6*%
%TO.N,unconnected-(J2-Pin_6-Pad6)*%
X135890000Y-101600000D03*
%TO.P,J2,7,Pin_7*%
%TO.N,VBAT*%
X135890000Y-104140000D03*
%TO.P,J2,8,Pin_8*%
%TO.N,GND*%
X135890000Y-106680000D03*
%TO.P,J2,9,Pin_9*%
%TO.N,/PB4*%
X135890000Y-109220000D03*
%TO.P,J2,10,Pin_10*%
%TO.N,/PA4*%
X135890000Y-111760000D03*
%TO.P,J2,11,Pin_11*%
%TO.N,unconnected-(J2-Pin_11-Pad11)*%
X135890000Y-114300000D03*
%TO.P,J2,12,Pin_12*%
%TO.N,unconnected-(J2-Pin_12-Pad12)*%
X135890000Y-116840000D03*
%TO.P,J2,13,Pin_13*%
%TO.N,GND*%
X135890000Y-119380000D03*
D18*
%TO.P,J2,14,Pin_14*%
%TO.N,unconnected-(J2-Pin_14-Pad14)*%
X135890000Y-121920000D03*
%TO.P,J2,15,Pin_15*%
%TO.N,unconnected-(J2-Pin_15-Pad15)*%
X135890000Y-124460000D03*
D11*
%TO.P,J2,16,Pin_16*%
%TO.N,/PB3*%
X135890000Y-127000000D03*
%TO.P,J2,17,Pin_17*%
%TO.N,/PB2*%
X135890000Y-129540000D03*
%TO.P,J2,18,Pin_18*%
%TO.N,GND*%
X135890000Y-132080000D03*
%TO.P,J2,19,Pin_19*%
%TO.N,/PB1*%
X135890000Y-134620000D03*
%TO.P,J2,20,Pin_20*%
%TO.N,/PB0*%
X135890000Y-137160000D03*
%TD*%
D10*
%TO.P,SC1,1,+*%
%TO.N,Net-(SC1-+)*%
X91440000Y-128270000D03*
D11*
%TO.P,SC1,2,-*%
%TO.N,GND*%
X91440000Y-125730000D03*
%TD*%
D14*
%TO.P,J8,1,Pin_1*%
%TO.N,/PB4*%
X172720000Y-134620000D03*
D11*
%TO.P,J8,2,Pin_2*%
%TO.N,/PB5*%
X172720000Y-137160000D03*
%TO.P,J8,3,Pin_3*%
%TO.N,/PB6*%
X172720000Y-139700000D03*
%TO.P,J8,4,Pin_4*%
%TO.N,/PB7*%
X172720000Y-142240000D03*
%TD*%
D16*
%TO.P,H1,1,1*%
%TO.N,GND*%
X99950000Y-127000000D03*
X100433274Y-125833274D03*
X100433274Y-128166726D03*
X101600000Y-125350000D03*
D17*
X101600000Y-127000000D03*
D16*
X101600000Y-128650000D03*
X102766726Y-125833274D03*
X102766726Y-128166726D03*
X103250000Y-127000000D03*
%TD*%
D19*
%TO.P,BT1,1,+*%
%TO.N,Net-(BT1-+)*%
X124700000Y-125095000D03*
D20*
%TO.P,BT1,2,-*%
%TO.N,Net-(BT1--)*%
X129300000Y-125095000D03*
%TD*%
D21*
%TO.N,VBAT*%
X134620000Y-135890000D03*
X137795000Y-142240000D03*
%TO.N,Net-(D1-A)*%
X121920000Y-144145000D03*
X131445000Y-144145000D03*
D22*
%TO.N,+3V3*%
X133350000Y-136525000D03*
X139065000Y-120015000D03*
%TO.N,VSYS*%
X152400000Y-120650000D03*
X158115000Y-120650000D03*
%TO.N,+3V3*%
X116840000Y-141605000D03*
X114300000Y-139065000D03*
D21*
%TO.N,VSYS*%
X91440000Y-134650000D03*
%TO.N,+3V3*%
X91440000Y-132050000D03*
%TO.N,GND*%
X96520000Y-120650000D03*
X127000000Y-145415000D03*
X87630000Y-142240000D03*
X91440000Y-111760000D03*
X86360000Y-120650000D03*
X86360000Y-133985000D03*
D22*
%TO.N,Net-(SC1-+)*%
X131445000Y-138430000D03*
X148907500Y-124142500D03*
D21*
%TO.N,GND*%
X126365000Y-129540000D03*
%TO.N,+3V3*%
X162560000Y-121950000D03*
%TO.N,GND*%
X127000000Y-127000000D03*
X129540000Y-132080000D03*
%TO.N,/PB3*%
X147955000Y-119380000D03*
%TO.N,/PB0*%
X151765000Y-117430000D03*
%TO.N,/PB1*%
X150495000Y-118080000D03*
%TO.N,/PB2*%
X149225000Y-118730000D03*
%TO.N,/PA1*%
X110490000Y-123840000D03*
%TO.N,/PA0*%
X109220000Y-123205000D03*
D22*
%TO.N,GND*%
X135890000Y-83820000D03*
X118110000Y-83820000D03*
D21*
%TO.N,/PA3*%
X104140000Y-123205000D03*
%TO.N,/PA2*%
X106680000Y-123205000D03*
%TO.N,/PA7*%
X83820000Y-136510000D03*
D22*
%TO.N,Net-(BT1--)*%
X124460000Y-148590000D03*
%TD*%
D23*
%TO.N,Net-(SC1-+)*%
X93980000Y-130810000D02*
X91440000Y-128270000D01*
X115570000Y-137795000D02*
X115570000Y-132715000D01*
X115570000Y-132715000D02*
X113665000Y-130810000D01*
X113665000Y-130810000D02*
X93980000Y-130810000D01*
X116840000Y-139065000D02*
X115570000Y-137795000D01*
X118745000Y-139065000D02*
X116840000Y-139065000D01*
X120650000Y-137160000D02*
X118745000Y-139065000D01*
X124460000Y-137160000D02*
X120650000Y-137160000D01*
D24*
%TO.N,VSYS*%
X92815000Y-134650000D02*
X91440000Y-134650000D01*
X111760000Y-133350000D02*
X94115000Y-133350000D01*
X119380000Y-140335000D02*
X113665000Y-140335000D01*
X94115000Y-133350000D02*
X92815000Y-134650000D01*
X113030000Y-134620000D02*
X111760000Y-133350000D01*
X120650000Y-139065000D02*
X119380000Y-140335000D01*
X113030000Y-139700000D02*
X113030000Y-134620000D01*
X113665000Y-140335000D02*
X113030000Y-139700000D01*
X123190000Y-139065000D02*
X120650000Y-139065000D01*
X125095000Y-140970000D02*
X123190000Y-139065000D01*
X132080000Y-140970000D02*
X125095000Y-140970000D01*
D23*
%TO.N,Net-(SC1-+)*%
X124462792Y-137160000D02*
X124460000Y-137160000D01*
X126367792Y-139065000D02*
X124462792Y-137160000D01*
X131445000Y-138430000D02*
X130810000Y-139065000D01*
X130810000Y-139065000D02*
X126367792Y-139065000D01*
D25*
%TO.N,VSYS*%
X140970000Y-100965000D02*
X140970000Y-119380000D01*
X137795000Y-97790000D02*
X140970000Y-100965000D01*
X140970000Y-119380000D02*
X142240000Y-120650000D01*
X135890000Y-91440000D02*
X137795000Y-93345000D01*
X137795000Y-93345000D02*
X137795000Y-97790000D01*
X142240000Y-120650000D02*
X152400000Y-120650000D01*
D26*
%TO.N,VBAT*%
X134620000Y-139065000D02*
X134620000Y-135890000D01*
X137795000Y-142240000D02*
X134620000Y-139065000D01*
D24*
%TO.N,+3V3*%
X118110000Y-142875000D02*
X116840000Y-141605000D01*
X133667500Y-136842500D02*
X133667500Y-141922500D01*
X132715000Y-142875000D02*
X118110000Y-142875000D01*
X133350000Y-136525000D02*
X133667500Y-136842500D01*
X133667500Y-141922500D02*
X132715000Y-142875000D01*
D26*
%TO.N,Net-(D1-A)*%
X131445000Y-144145000D02*
X121920000Y-144145000D01*
%TO.N,/PA4*%
X133350000Y-114300000D02*
X135890000Y-111760000D01*
X132369949Y-123255000D02*
X133350000Y-122274949D01*
X121350000Y-123255000D02*
X132369949Y-123255000D01*
X114935000Y-120650000D02*
X118745000Y-120650000D01*
X102870000Y-123825000D02*
X103535000Y-124490000D01*
X85090000Y-123825000D02*
X102870000Y-123825000D01*
X83820000Y-125095000D02*
X85090000Y-123825000D01*
X103535000Y-124490000D02*
X111095000Y-124490000D01*
X133350000Y-122274949D02*
X133350000Y-114300000D01*
X83820000Y-132080000D02*
X83820000Y-125095000D01*
X111095000Y-124490000D02*
X114935000Y-120650000D01*
X81280000Y-134620000D02*
X83820000Y-132080000D01*
X118745000Y-120650000D02*
X121350000Y-123255000D01*
%TO.N,/PB4*%
X140335000Y-123190000D02*
X137795000Y-120650000D01*
X137795000Y-111125000D02*
X135890000Y-109220000D01*
X163195000Y-123190000D02*
X140335000Y-123190000D01*
X137795000Y-120650000D02*
X137795000Y-111125000D01*
X164465000Y-126365000D02*
X164465000Y-124460000D01*
X164465000Y-124460000D02*
X163195000Y-123190000D01*
X172720000Y-134620000D02*
X164465000Y-126365000D01*
D23*
%TO.N,Net-(SC1-+)*%
X158432500Y-124142500D02*
X162560000Y-128270000D01*
X162560000Y-128270000D02*
X162560000Y-128275000D01*
X148907500Y-124142500D02*
X158432500Y-124142500D01*
D25*
%TO.N,VSYS*%
X152400000Y-120650000D02*
X158115000Y-120650000D01*
D24*
%TO.N,+3V3*%
X114300000Y-133350000D02*
X114300000Y-138430000D01*
X113000000Y-132050000D02*
X114300000Y-133350000D01*
X91440000Y-132050000D02*
X113000000Y-132050000D01*
D26*
%TO.N,/PB5*%
X166370000Y-130810000D02*
X172720000Y-137160000D01*
X136525000Y-128285000D02*
X136540000Y-128285000D01*
X136540000Y-128285000D02*
X139065000Y-130810000D01*
X124475000Y-128285000D02*
X136525000Y-128285000D01*
X139065000Y-130810000D02*
X166370000Y-130810000D01*
%TO.N,/PB6*%
X124460000Y-130810000D02*
X118110000Y-124460000D01*
X165100000Y-132080000D02*
X137795000Y-132080000D01*
X136525000Y-130810000D02*
X124460000Y-130810000D01*
X172720000Y-139700000D02*
X165100000Y-132080000D01*
X137795000Y-132080000D02*
X136525000Y-130810000D01*
%TO.N,/PB7*%
X163830000Y-133350000D02*
X172720000Y-142240000D01*
X124460000Y-133350000D02*
X163830000Y-133350000D01*
X118110000Y-127000000D02*
X124460000Y-133350000D01*
%TO.N,/PB5*%
X124460000Y-128270000D02*
X124475000Y-128285000D01*
D24*
%TO.N,+3V3*%
X139065000Y-120015000D02*
X139065000Y-102235000D01*
X141000000Y-121950000D02*
X139065000Y-120015000D01*
X139065000Y-102235000D02*
X135890000Y-99060000D01*
X162560000Y-121950000D02*
X141000000Y-121950000D01*
D26*
%TO.N,/PB3*%
X148590000Y-119380000D02*
X147955000Y-119380000D01*
%TO.N,/PB0*%
X167050000Y-117430000D02*
X151765000Y-117430000D01*
X172720000Y-111760000D02*
X167050000Y-117430000D01*
%TO.N,/PB1*%
X168940000Y-118080000D02*
X150495000Y-118080000D01*
X172720000Y-114300000D02*
X168940000Y-118080000D01*
%TO.N,/PB2*%
X170830000Y-118730000D02*
X149225000Y-118730000D01*
X172720000Y-116840000D02*
X170830000Y-118730000D01*
%TO.N,/PB3*%
X172720000Y-119380000D02*
X148590000Y-119380000D01*
%TO.N,/PB5*%
X118110000Y-121920000D02*
X124460000Y-128270000D01*
%TO.N,/PA0*%
X86995000Y-117475000D02*
X81280000Y-111760000D01*
X103505000Y-117475000D02*
X86995000Y-117475000D01*
X109220000Y-123205000D02*
X109220000Y-123190000D01*
X109220000Y-123190000D02*
X103505000Y-117475000D01*
%TO.N,/PA1*%
X85090000Y-118110000D02*
X81280000Y-114300000D01*
X102870000Y-118110000D02*
X85090000Y-118110000D01*
X108615000Y-123855000D02*
X102870000Y-118110000D01*
X110475000Y-123855000D02*
X108615000Y-123855000D01*
X110490000Y-123840000D02*
X110475000Y-123855000D01*
%TO.N,/PA2*%
X83185000Y-118745000D02*
X81280000Y-116840000D01*
X102227500Y-118752500D02*
X97162500Y-118752500D01*
X97155000Y-118745000D02*
X83185000Y-118745000D01*
X106680000Y-123205000D02*
X102227500Y-118752500D01*
X97162500Y-118752500D02*
X97155000Y-118745000D01*
%TO.N,/PA3*%
X104140000Y-123190000D02*
X100330000Y-119380000D01*
X104140000Y-123205000D02*
X104140000Y-123190000D01*
X100330000Y-119380000D02*
X81280000Y-119380000D01*
%TO.N,/PA7*%
X83820000Y-139700000D02*
X81280000Y-142240000D01*
X83820000Y-136510000D02*
X83820000Y-139700000D01*
D25*
%TO.N,Net-(BT1--)*%
X116690000Y-148590000D02*
X116512500Y-148412500D01*
X124460000Y-148590000D02*
X116690000Y-148590000D01*
%TD*%
%TA.AperFunction,Conductor*%
%TO.N,GND*%
G36*
X143137420Y-134070185D02*
G01*
X143183175Y-134122989D01*
X143193119Y-134192147D01*
X143164094Y-134255703D01*
X143163213Y-134256707D01*
X143154029Y-134267064D01*
X143147943Y-134273927D01*
X143142852Y-134279332D01*
X143109500Y-134312684D01*
X143109497Y-134312688D01*
X143108166Y-134314994D01*
X143093573Y-134335240D01*
X143091811Y-134337226D01*
X143070718Y-134379412D01*
X143067196Y-134385957D01*
X143043609Y-134426810D01*
X143043606Y-134426817D01*
X143042918Y-134429386D01*
X143034064Y-134452716D01*
X143032873Y-134455097D01*
X143032869Y-134455108D01*
X143023414Y-134501312D01*
X143021708Y-134508539D01*
X143009500Y-134554103D01*
X143009500Y-134556755D01*
X143006983Y-134581611D01*
X143006451Y-134584210D01*
X143006450Y-134584213D01*
X143009277Y-134631294D01*
X143009500Y-134638724D01*
X143009500Y-165097785D01*
X143009421Y-165102211D01*
X142991518Y-165603466D01*
X142990887Y-165612295D01*
X142937507Y-166108809D01*
X142936247Y-166117571D01*
X142847582Y-166609007D01*
X142845700Y-166617656D01*
X142722204Y-167101506D01*
X142719710Y-167109999D01*
X142562014Y-167583801D01*
X142558921Y-167592095D01*
X142367818Y-168053458D01*
X142364141Y-168061509D01*
X142140619Y-168508050D01*
X142136377Y-168515820D01*
X141881564Y-168945284D01*
X141876778Y-168952730D01*
X141591981Y-169362914D01*
X141586677Y-169370000D01*
X141273337Y-169758833D01*
X141267540Y-169765523D01*
X140927264Y-170131005D01*
X140921005Y-170137264D01*
X140555523Y-170477540D01*
X140548833Y-170483337D01*
X140160000Y-170796677D01*
X140152914Y-170801981D01*
X139742730Y-171086778D01*
X139735284Y-171091564D01*
X139305820Y-171346377D01*
X139298050Y-171350619D01*
X138851509Y-171574141D01*
X138843458Y-171577818D01*
X138382095Y-171768921D01*
X138373801Y-171772014D01*
X137899999Y-171929710D01*
X137891506Y-171932204D01*
X137407656Y-172055700D01*
X137399007Y-172057582D01*
X136907571Y-172146247D01*
X136898809Y-172147507D01*
X136402295Y-172200887D01*
X136393466Y-172201518D01*
X135892212Y-172219421D01*
X135887786Y-172219500D01*
X118112214Y-172219500D01*
X118107788Y-172219421D01*
X117606533Y-172201518D01*
X117597704Y-172200887D01*
X117101190Y-172147507D01*
X117092428Y-172146247D01*
X116600992Y-172057582D01*
X116592343Y-172055700D01*
X116108493Y-171932204D01*
X116100000Y-171929710D01*
X115626198Y-171772014D01*
X115617904Y-171768921D01*
X115156541Y-171577818D01*
X115148490Y-171574141D01*
X114701949Y-171350619D01*
X114694187Y-171346381D01*
X114264710Y-171091561D01*
X114257269Y-171086778D01*
X113847085Y-170801981D01*
X113839999Y-170796677D01*
X113451166Y-170483337D01*
X113444476Y-170477540D01*
X113404086Y-170439936D01*
X113292964Y-170336477D01*
X113078994Y-170137264D01*
X113072735Y-170131005D01*
X112732459Y-169765523D01*
X112726662Y-169758833D01*
X112413322Y-169370000D01*
X112408018Y-169362914D01*
X112123221Y-168952730D01*
X112118442Y-168945296D01*
X111863612Y-168515803D01*
X111859380Y-168508050D01*
X111635858Y-168061509D01*
X111632181Y-168053458D01*
X111441078Y-167592095D01*
X111437985Y-167583801D01*
X111280289Y-167109999D01*
X111277795Y-167101506D01*
X111154294Y-166617636D01*
X111152421Y-166609028D01*
X111063748Y-166117548D01*
X111062495Y-166108832D01*
X111009110Y-165612277D01*
X111008482Y-165603484D01*
X110990581Y-165102267D01*
X110990502Y-165097841D01*
X110990502Y-165026521D01*
X110990500Y-165026487D01*
X110990500Y-154564635D01*
X114612000Y-154564635D01*
X114612000Y-157460370D01*
X114612001Y-157460376D01*
X114618408Y-157519983D01*
X114668702Y-157654828D01*
X114668703Y-157654830D01*
X114693676Y-157688190D01*
X114718092Y-157753655D01*
X114703240Y-157821928D01*
X114693676Y-157836810D01*
X114668703Y-157870169D01*
X114668702Y-157870171D01*
X114618408Y-158005017D01*
X114612001Y-158064616D01*
X114612001Y-158064623D01*
X114612000Y-158064635D01*
X114612000Y-160960370D01*
X114612001Y-160960376D01*
X114618408Y-161019983D01*
X114668702Y-161154828D01*
X114668706Y-161154835D01*
X114754952Y-161270044D01*
X114754955Y-161270047D01*
X114870164Y-161356293D01*
X114870171Y-161356297D01*
X115005017Y-161406591D01*
X115005016Y-161406591D01*
X115011944Y-161407335D01*
X115064627Y-161413000D01*
X117960372Y-161412999D01*
X118019983Y-161406591D01*
X118154831Y-161356296D01*
X118270046Y-161270046D01*
X118356296Y-161154831D01*
X118406591Y-161019983D01*
X118413000Y-160960373D01*
X118412999Y-158064635D01*
X137512000Y-158064635D01*
X137512000Y-160960370D01*
X137512001Y-160960376D01*
X137518408Y-161019983D01*
X137568702Y-161154828D01*
X137568706Y-161154835D01*
X137654952Y-161270044D01*
X137654955Y-161270047D01*
X137770164Y-161356293D01*
X137770171Y-161356297D01*
X137905017Y-161406591D01*
X137905016Y-161406591D01*
X137911944Y-161407335D01*
X137964627Y-161413000D01*
X140860372Y-161412999D01*
X140919983Y-161406591D01*
X141054831Y-161356296D01*
X141170046Y-161270046D01*
X141256296Y-161154831D01*
X141306591Y-161019983D01*
X141313000Y-160960373D01*
X141312999Y-158064628D01*
X141306591Y-158005017D01*
X141256296Y-157870169D01*
X141256295Y-157870168D01*
X141256293Y-157870164D01*
X141170047Y-157754955D01*
X141170044Y-157754952D01*
X141054835Y-157668706D01*
X141054828Y-157668702D01*
X140919982Y-157618408D01*
X140919983Y-157618408D01*
X140860383Y-157612001D01*
X140860381Y-157612000D01*
X140860373Y-157612000D01*
X140860364Y-157612000D01*
X137964629Y-157612000D01*
X137964623Y-157612001D01*
X137905016Y-157618408D01*
X137770171Y-157668702D01*
X137770164Y-157668706D01*
X137654955Y-157754952D01*
X137654952Y-157754955D01*
X137568706Y-157870164D01*
X137568702Y-157870171D01*
X137518408Y-158005017D01*
X137512001Y-158064616D01*
X137512001Y-158064623D01*
X137512000Y-158064635D01*
X118412999Y-158064635D01*
X118412999Y-158064628D01*
X118406591Y-158005017D01*
X118356297Y-157870171D01*
X118356297Y-157870170D01*
X118349286Y-157860805D01*
X118331323Y-157836810D01*
X118306906Y-157771349D01*
X118321757Y-157703075D01*
X118331323Y-157688190D01*
X118356296Y-157654831D01*
X118406591Y-157519983D01*
X118413000Y-157460373D01*
X118412999Y-154564628D01*
X118406591Y-154505017D01*
X118356296Y-154370169D01*
X118356295Y-154370168D01*
X118356293Y-154370164D01*
X118270047Y-154254955D01*
X118270044Y-154254952D01*
X118154835Y-154168706D01*
X118154828Y-154168702D01*
X118019982Y-154118408D01*
X118019983Y-154118408D01*
X117960383Y-154112001D01*
X117960381Y-154112000D01*
X117960373Y-154112000D01*
X117960364Y-154112000D01*
X115064629Y-154112000D01*
X115064623Y-154112001D01*
X115005016Y-154118408D01*
X114870171Y-154168702D01*
X114870164Y-154168706D01*
X114754955Y-154254952D01*
X114754952Y-154254955D01*
X114668706Y-154370164D01*
X114668702Y-154370171D01*
X114618408Y-154505017D01*
X114612001Y-154564616D01*
X114612001Y-154564623D01*
X114612000Y-154564635D01*
X110990500Y-154564635D01*
X110990500Y-134638724D01*
X110990723Y-134631294D01*
X110993549Y-134584213D01*
X110993548Y-134584210D01*
X110993017Y-134581611D01*
X110990500Y-134556755D01*
X110990500Y-134554110D01*
X110990500Y-134554108D01*
X110978288Y-134508531D01*
X110976590Y-134501339D01*
X110967129Y-134455105D01*
X110967128Y-134455103D01*
X110967128Y-134455102D01*
X110965947Y-134452741D01*
X110957077Y-134429370D01*
X110956392Y-134426814D01*
X110932801Y-134385956D01*
X110929287Y-134379423D01*
X110904558Y-134329964D01*
X110908018Y-134328233D01*
X110891557Y-134279400D01*
X110908577Y-134211635D01*
X110959531Y-134163829D01*
X111015460Y-134150500D01*
X111377060Y-134150500D01*
X111444099Y-134170185D01*
X111464741Y-134186819D01*
X112193181Y-134915259D01*
X112226666Y-134976582D01*
X112229500Y-135002940D01*
X112229500Y-139778846D01*
X112260261Y-139933489D01*
X112260264Y-139933501D01*
X112320602Y-140079172D01*
X112320609Y-140079185D01*
X112408210Y-140210288D01*
X112408213Y-140210292D01*
X113154707Y-140956786D01*
X113154711Y-140956789D01*
X113285814Y-141044390D01*
X113285818Y-141044392D01*
X113285821Y-141044394D01*
X113431503Y-141104738D01*
X113586153Y-141135499D01*
X113586157Y-141135500D01*
X113586158Y-141135500D01*
X113743843Y-141135500D01*
X115769707Y-141135500D01*
X115836746Y-141155185D01*
X115882501Y-141207989D01*
X115892445Y-141277147D01*
X115888367Y-141295496D01*
X115853976Y-141408865D01*
X115834659Y-141605000D01*
X115853975Y-141801129D01*
X115866673Y-141842989D01*
X115892816Y-141929171D01*
X115911188Y-141989733D01*
X116004086Y-142163532D01*
X116004090Y-142163539D01*
X116129116Y-142315883D01*
X116281460Y-142440909D01*
X116281467Y-142440913D01*
X116455266Y-142533811D01*
X116455269Y-142533811D01*
X116455273Y-142533814D01*
X116643868Y-142591024D01*
X116655261Y-142592146D01*
X116720048Y-142618305D01*
X116730790Y-142627868D01*
X117003741Y-142900819D01*
X117037226Y-142962142D01*
X117032242Y-143031834D01*
X116990370Y-143087767D01*
X116924906Y-143112184D01*
X116916060Y-143112500D01*
X116762500Y-143112500D01*
X116762500Y-144282610D01*
X116737101Y-144272090D01*
X116588338Y-144242500D01*
X116436662Y-144242500D01*
X116287899Y-144272090D01*
X116262500Y-144282610D01*
X116262500Y-143112500D01*
X115064655Y-143112500D01*
X115005127Y-143118901D01*
X115005120Y-143118903D01*
X114870413Y-143169145D01*
X114870406Y-143169149D01*
X114755312Y-143255309D01*
X114755309Y-143255312D01*
X114669149Y-143370406D01*
X114669145Y-143370413D01*
X114618903Y-143505120D01*
X114618901Y-143505127D01*
X114612500Y-143564655D01*
X114612500Y-144762500D01*
X115782611Y-144762500D01*
X115772090Y-144787899D01*
X115742500Y-144936662D01*
X115742500Y-145088338D01*
X115772090Y-145237101D01*
X115782611Y-145262500D01*
X114612500Y-145262500D01*
X114612500Y-146460344D01*
X114618901Y-146519872D01*
X114618903Y-146519879D01*
X114672246Y-146662899D01*
X114670430Y-146663576D01*
X114682883Y-146720816D01*
X114670928Y-146761533D01*
X114671803Y-146761859D01*
X114618408Y-146905017D01*
X114612001Y-146964616D01*
X114612001Y-146964623D01*
X114612000Y-146964635D01*
X114612000Y-149860370D01*
X114612001Y-149860376D01*
X114618408Y-149919983D01*
X114668702Y-150054828D01*
X114668706Y-150054835D01*
X114754952Y-150170044D01*
X114754955Y-150170047D01*
X114870164Y-150256293D01*
X114870171Y-150256297D01*
X115005017Y-150306591D01*
X115005016Y-150306591D01*
X115011944Y-150307335D01*
X115064627Y-150313000D01*
X117960372Y-150312999D01*
X118019983Y-150306591D01*
X118154831Y-150256296D01*
X118270046Y-150170046D01*
X118356296Y-150054831D01*
X118406591Y-149919983D01*
X118413000Y-149860373D01*
X118413000Y-149714500D01*
X118432685Y-149647461D01*
X118485489Y-149601706D01*
X118537000Y-149590500D01*
X124404756Y-149590500D01*
X124416909Y-149591096D01*
X124460000Y-149595341D01*
X124503090Y-149591096D01*
X124515244Y-149590500D01*
X124558542Y-149590500D01*
X124574454Y-149587334D01*
X124601005Y-149582053D01*
X124613037Y-149580268D01*
X124656132Y-149576024D01*
X124697580Y-149563450D01*
X124709353Y-149560500D01*
X124751835Y-149552051D01*
X124791847Y-149535476D01*
X124803280Y-149531386D01*
X124844727Y-149518814D01*
X124882918Y-149498399D01*
X124893906Y-149493202D01*
X124933914Y-149476632D01*
X124969938Y-149452560D01*
X124980351Y-149446320D01*
X125006591Y-149432295D01*
X125018535Y-149425912D01*
X125018539Y-149425909D01*
X125052005Y-149398444D01*
X125061782Y-149391193D01*
X125097781Y-149367140D01*
X125097783Y-149367138D01*
X125097783Y-149367137D01*
X125128408Y-149336512D01*
X125137402Y-149328359D01*
X125170883Y-149300883D01*
X125198359Y-149267402D01*
X125206512Y-149258408D01*
X125237139Y-149227782D01*
X125261193Y-149191781D01*
X125268444Y-149182005D01*
X125295909Y-149148539D01*
X125295912Y-149148535D01*
X125302295Y-149136591D01*
X125316320Y-149110351D01*
X125322560Y-149099938D01*
X125346632Y-149063914D01*
X125363202Y-149023906D01*
X125368399Y-149012918D01*
X125388814Y-148974727D01*
X125401386Y-148933280D01*
X125405476Y-148921847D01*
X125422051Y-148881835D01*
X125430500Y-148839353D01*
X125433450Y-148827580D01*
X125446024Y-148786132D01*
X125450268Y-148743037D01*
X125452054Y-148730999D01*
X125460500Y-148688541D01*
X125460500Y-148645244D01*
X125461097Y-148633090D01*
X125465341Y-148590000D01*
X125461097Y-148546907D01*
X125460500Y-148534754D01*
X125460500Y-148491458D01*
X125458117Y-148479480D01*
X125452052Y-148448990D01*
X125450268Y-148436961D01*
X125446024Y-148393869D01*
X125446024Y-148393868D01*
X125433448Y-148352414D01*
X125430499Y-148340640D01*
X125422051Y-148298165D01*
X125405480Y-148258160D01*
X125401382Y-148246706D01*
X125388814Y-148205273D01*
X125368404Y-148167091D01*
X125363201Y-148156090D01*
X125346632Y-148116086D01*
X125322572Y-148080078D01*
X125316316Y-148069640D01*
X125295911Y-148031464D01*
X125295910Y-148031462D01*
X125268438Y-147997988D01*
X125261194Y-147988219D01*
X125237140Y-147952219D01*
X125237136Y-147952214D01*
X125206520Y-147921599D01*
X125198346Y-147912581D01*
X125170884Y-147879118D01*
X125137416Y-147851651D01*
X125128401Y-147843479D01*
X125097787Y-147812865D01*
X125097783Y-147812862D01*
X125061772Y-147788799D01*
X125052002Y-147781552D01*
X125018543Y-147754094D01*
X125018535Y-147754088D01*
X125001436Y-147744948D01*
X124980350Y-147733678D01*
X124969918Y-147727425D01*
X124933918Y-147703370D01*
X124933914Y-147703368D01*
X124893915Y-147686800D01*
X124882913Y-147681597D01*
X124844729Y-147661187D01*
X124844728Y-147661186D01*
X124844727Y-147661186D01*
X124803277Y-147648612D01*
X124791834Y-147644517D01*
X124751834Y-147627948D01*
X124751827Y-147627946D01*
X124709378Y-147619503D01*
X124697575Y-147616547D01*
X124656134Y-147603976D01*
X124656130Y-147603975D01*
X124613035Y-147599730D01*
X124601006Y-147597945D01*
X124558544Y-147589500D01*
X124558541Y-147589500D01*
X124515244Y-147589500D01*
X124503090Y-147588903D01*
X124460000Y-147584659D01*
X124416910Y-147588903D01*
X124404756Y-147589500D01*
X118536999Y-147589500D01*
X118469960Y-147569815D01*
X118424205Y-147517011D01*
X118412999Y-147465500D01*
X118412999Y-146964629D01*
X118412998Y-146964623D01*
X118412997Y-146964616D01*
X118406591Y-146905017D01*
X118356296Y-146770169D01*
X118353197Y-146761859D01*
X118354766Y-146761273D01*
X118342116Y-146703130D01*
X118353814Y-146663293D01*
X118352753Y-146662898D01*
X118406097Y-146519876D01*
X118406098Y-146519872D01*
X118412499Y-146460344D01*
X118412500Y-146460327D01*
X118412500Y-145262500D01*
X117242389Y-145262500D01*
X117252910Y-145237101D01*
X117282500Y-145088338D01*
X117282500Y-144936662D01*
X117252910Y-144787899D01*
X117242389Y-144762500D01*
X118412500Y-144762500D01*
X118412500Y-143799500D01*
X118432185Y-143732461D01*
X118484989Y-143686706D01*
X118536500Y-143675500D01*
X121114403Y-143675500D01*
X121181442Y-143695185D01*
X121227197Y-143747989D01*
X121237141Y-143817147D01*
X121231445Y-143840454D01*
X121183686Y-143976942D01*
X121164751Y-144144997D01*
X121164751Y-144145002D01*
X121183685Y-144313056D01*
X121239545Y-144472694D01*
X121239547Y-144472697D01*
X121329518Y-144615884D01*
X121329523Y-144615890D01*
X121449109Y-144735476D01*
X121449115Y-144735481D01*
X121592302Y-144825452D01*
X121592305Y-144825454D01*
X121592309Y-144825455D01*
X121592310Y-144825456D01*
X121649593Y-144845500D01*
X121751943Y-144881314D01*
X121919997Y-144900249D01*
X121920000Y-144900249D01*
X121920003Y-144900249D01*
X122088059Y-144881313D01*
X122088061Y-144881313D01*
X122170521Y-144852459D01*
X122211476Y-144845500D01*
X131153524Y-144845500D01*
X131194479Y-144852459D01*
X131276939Y-144881313D01*
X131444997Y-144900249D01*
X131445000Y-144900249D01*
X131445003Y-144900249D01*
X131613056Y-144881314D01*
X131613059Y-144881313D01*
X131772690Y-144825456D01*
X131772692Y-144825454D01*
X131772694Y-144825454D01*
X131772697Y-144825452D01*
X131915884Y-144735481D01*
X131915885Y-144735480D01*
X131915890Y-144735477D01*
X132035477Y-144615890D01*
X132062999Y-144572090D01*
X132125452Y-144472697D01*
X132125454Y-144472694D01*
X132125454Y-144472692D01*
X132125456Y-144472690D01*
X132181313Y-144313059D01*
X132181313Y-144313058D01*
X132181314Y-144313056D01*
X132200249Y-144145002D01*
X132200249Y-144144997D01*
X132181313Y-143976942D01*
X132142023Y-143864655D01*
X137512500Y-143864655D01*
X137512500Y-145062500D01*
X138682611Y-145062500D01*
X138672090Y-145087899D01*
X138642500Y-145236662D01*
X138642500Y-145388338D01*
X138672090Y-145537101D01*
X138682611Y-145562500D01*
X137512500Y-145562500D01*
X137512500Y-146760344D01*
X137518901Y-146819872D01*
X137518903Y-146819879D01*
X137569145Y-146954586D01*
X137569149Y-146954593D01*
X137655309Y-147069687D01*
X137655312Y-147069690D01*
X137770406Y-147155850D01*
X137770413Y-147155854D01*
X137905120Y-147206096D01*
X137905127Y-147206098D01*
X137964655Y-147212499D01*
X137964672Y-147212500D01*
X139162500Y-147212500D01*
X139162500Y-146042389D01*
X139187899Y-146052910D01*
X139336662Y-146082500D01*
X139488338Y-146082500D01*
X139637101Y-146052910D01*
X139662500Y-146042389D01*
X139662500Y-147212500D01*
X140860328Y-147212500D01*
X140860344Y-147212499D01*
X140919872Y-147206098D01*
X140919879Y-147206096D01*
X141054586Y-147155854D01*
X141054593Y-147155850D01*
X141169687Y-147069690D01*
X141169690Y-147069687D01*
X141255850Y-146954593D01*
X141255854Y-146954586D01*
X141306096Y-146819879D01*
X141306098Y-146819872D01*
X141312499Y-146760344D01*
X141312500Y-146760327D01*
X141312500Y-145562500D01*
X140142389Y-145562500D01*
X140152910Y-145537101D01*
X140182500Y-145388338D01*
X140182500Y-145236662D01*
X140152910Y-145087899D01*
X140142389Y-145062500D01*
X141312500Y-145062500D01*
X141312500Y-143864672D01*
X141312499Y-143864655D01*
X141306098Y-143805127D01*
X141306096Y-143805120D01*
X141255854Y-143670413D01*
X141255850Y-143670406D01*
X141169690Y-143555312D01*
X141169687Y-143555309D01*
X141054593Y-143469149D01*
X141054586Y-143469145D01*
X140919879Y-143418903D01*
X140919872Y-143418901D01*
X140860344Y-143412500D01*
X139662500Y-143412500D01*
X139662500Y-144582610D01*
X139637101Y-144572090D01*
X139488338Y-144542500D01*
X139336662Y-144542500D01*
X139187899Y-144572090D01*
X139162500Y-144582610D01*
X139162500Y-143412500D01*
X137964655Y-143412500D01*
X137905127Y-143418901D01*
X137905120Y-143418903D01*
X137770413Y-143469145D01*
X137770406Y-143469149D01*
X137655312Y-143555309D01*
X137655309Y-143555312D01*
X137569149Y-143670406D01*
X137569145Y-143670413D01*
X137518903Y-143805120D01*
X137518901Y-143805127D01*
X137512500Y-143864655D01*
X132142023Y-143864655D01*
X132133555Y-143840454D01*
X132129994Y-143770675D01*
X132164723Y-143710048D01*
X132226716Y-143677821D01*
X132250597Y-143675500D01*
X132793844Y-143675500D01*
X132793845Y-143675499D01*
X132948497Y-143644737D01*
X133094179Y-143584394D01*
X133225289Y-143496789D01*
X134289288Y-142432790D01*
X134289289Y-142432789D01*
X134376894Y-142301679D01*
X134433257Y-142165606D01*
X134437237Y-142155998D01*
X134468000Y-142001343D01*
X134468000Y-141843658D01*
X134468000Y-140203019D01*
X134487685Y-140135980D01*
X134540489Y-140090225D01*
X134609647Y-140080281D01*
X134673203Y-140109306D01*
X134679681Y-140115338D01*
X137085117Y-142520774D01*
X137110857Y-142561735D01*
X137111522Y-142561415D01*
X137114362Y-142567312D01*
X137114474Y-142567490D01*
X137114544Y-142567690D01*
X137146348Y-142618305D01*
X137204523Y-142710890D01*
X137324109Y-142830476D01*
X137324115Y-142830481D01*
X137467302Y-142920452D01*
X137467305Y-142920454D01*
X137467309Y-142920455D01*
X137467310Y-142920456D01*
X137539913Y-142945860D01*
X137626943Y-142976314D01*
X137794997Y-142995249D01*
X137795000Y-142995249D01*
X137795003Y-142995249D01*
X137963056Y-142976314D01*
X137963059Y-142976313D01*
X138122690Y-142920456D01*
X138122692Y-142920454D01*
X138122694Y-142920454D01*
X138122697Y-142920452D01*
X138265884Y-142830481D01*
X138265885Y-142830480D01*
X138265890Y-142830477D01*
X138385477Y-142710890D01*
X138385481Y-142710884D01*
X138475452Y-142567697D01*
X138475454Y-142567694D01*
X138475454Y-142567692D01*
X138475456Y-142567690D01*
X138531313Y-142408059D01*
X138531313Y-142408058D01*
X138531314Y-142408056D01*
X138550249Y-142240002D01*
X138550249Y-142239997D01*
X138531314Y-142071943D01*
X138477402Y-141917872D01*
X138475456Y-141912310D01*
X138475455Y-141912309D01*
X138475454Y-141912305D01*
X138475452Y-141912302D01*
X138385481Y-141769115D01*
X138385476Y-141769109D01*
X138265890Y-141649523D01*
X138122690Y-141559544D01*
X138122689Y-141559543D01*
X138122688Y-141559543D01*
X138122587Y-141559508D01*
X138122490Y-141559474D01*
X138122312Y-141559362D01*
X138116415Y-141556522D01*
X138116735Y-141555857D01*
X138075774Y-141530117D01*
X135356819Y-138811162D01*
X135323334Y-138749839D01*
X135320500Y-138723481D01*
X135320500Y-138567144D01*
X135340185Y-138500105D01*
X135392989Y-138454350D01*
X135462147Y-138444406D01*
X135476594Y-138447369D01*
X135654592Y-138495063D01*
X135842918Y-138511539D01*
X135889999Y-138515659D01*
X135890000Y-138515659D01*
X135890001Y-138515659D01*
X135929234Y-138512226D01*
X136125408Y-138495063D01*
X136353663Y-138433903D01*
X136567830Y-138334035D01*
X136761401Y-138198495D01*
X136928495Y-138031401D01*
X137064035Y-137837830D01*
X137163903Y-137623663D01*
X137225063Y-137395408D01*
X137245659Y-137160000D01*
X137243757Y-137138266D01*
X137238486Y-137078014D01*
X137225063Y-136924592D01*
X137170546Y-136721129D01*
X137163905Y-136696344D01*
X137163904Y-136696343D01*
X137163903Y-136696337D01*
X137064035Y-136482171D01*
X137058731Y-136474595D01*
X136928494Y-136288597D01*
X136761402Y-136121506D01*
X136761396Y-136121501D01*
X136575842Y-135991575D01*
X136532217Y-135936998D01*
X136525023Y-135867500D01*
X136556546Y-135805145D01*
X136575842Y-135788425D01*
X136623933Y-135754751D01*
X136761401Y-135658495D01*
X136928495Y-135491401D01*
X137064035Y-135297830D01*
X137163903Y-135083663D01*
X137225063Y-134855408D01*
X137245659Y-134620000D01*
X137225063Y-134384592D01*
X137177369Y-134206593D01*
X137179032Y-134136743D01*
X137218195Y-134078881D01*
X137282423Y-134051377D01*
X137297144Y-134050500D01*
X143070381Y-134050500D01*
X143137420Y-134070185D01*
G37*
%TD.AperFunction*%
%TA.AperFunction,Conductor*%
G36*
X81530000Y-127836988D02*
G01*
X81472993Y-127804075D01*
X81345826Y-127770000D01*
X81214174Y-127770000D01*
X81087007Y-127804075D01*
X81030000Y-127836988D01*
X81030000Y-126163012D01*
X81087007Y-126195925D01*
X81214174Y-126230000D01*
X81345826Y-126230000D01*
X81472993Y-126195925D01*
X81530000Y-126163012D01*
X81530000Y-127836988D01*
G37*
%TD.AperFunction*%
%TA.AperFunction,Conductor*%
G36*
X90078030Y-109733591D02*
G01*
X103721984Y-116555568D01*
X103773143Y-116603155D01*
X103790453Y-116670847D01*
X103768418Y-116737151D01*
X103714034Y-116781017D01*
X103644568Y-116788517D01*
X103642339Y-116788094D01*
X103573997Y-116774500D01*
X103573994Y-116774500D01*
X103573993Y-116774500D01*
X87336519Y-116774500D01*
X87269480Y-116754815D01*
X87248838Y-116738181D01*
X82642651Y-112131994D01*
X82609166Y-112070671D01*
X82610558Y-112012217D01*
X82615063Y-111995408D01*
X82635659Y-111760000D01*
X82615063Y-111524592D01*
X82553903Y-111296337D01*
X82454035Y-111082171D01*
X82318495Y-110888599D01*
X82318494Y-110888597D01*
X82151402Y-110721506D01*
X82151395Y-110721501D01*
X81957834Y-110585967D01*
X81957830Y-110585965D01*
X81957828Y-110585964D01*
X81743663Y-110486097D01*
X81743659Y-110486096D01*
X81743655Y-110486094D01*
X81515413Y-110424938D01*
X81515403Y-110424936D01*
X81280001Y-110404341D01*
X81279999Y-110404341D01*
X81044596Y-110424936D01*
X81044586Y-110424938D01*
X80816344Y-110486094D01*
X80816335Y-110486098D01*
X80602171Y-110585964D01*
X80602169Y-110585965D01*
X80408597Y-110721505D01*
X80241505Y-110888597D01*
X80105965Y-111082169D01*
X80105964Y-111082171D01*
X80006098Y-111296335D01*
X80006094Y-111296344D01*
X79944938Y-111524586D01*
X79944936Y-111524596D01*
X79924341Y-111759999D01*
X79924341Y-111760000D01*
X79944936Y-111995403D01*
X79944938Y-111995413D01*
X80006094Y-112223655D01*
X80006096Y-112223659D01*
X80006097Y-112223663D01*
X80075500Y-112372497D01*
X80105965Y-112437830D01*
X80105967Y-112437834D01*
X80241501Y-112631395D01*
X80241506Y-112631402D01*
X80408597Y-112798493D01*
X80408603Y-112798498D01*
X80594158Y-112928425D01*
X80637783Y-112983002D01*
X80644977Y-113052500D01*
X80613454Y-113114855D01*
X80594158Y-113131575D01*
X80408597Y-113261505D01*
X80241505Y-113428597D01*
X80105965Y-113622169D01*
X80105964Y-113622171D01*
X80006098Y-113836335D01*
X80006094Y-113836344D01*
X79944938Y-114064586D01*
X79944936Y-114064596D01*
X79924341Y-114299999D01*
X79924341Y-114300000D01*
X79944936Y-114535403D01*
X79944938Y-114535413D01*
X80006094Y-114763655D01*
X80006096Y-114763659D01*
X80006097Y-114763663D01*
X80075500Y-114912497D01*
X80105965Y-114977830D01*
X80105967Y-114977834D01*
X80241501Y-115171395D01*
X80241506Y-115171402D01*
X80408597Y-115338493D01*
X80408603Y-115338498D01*
X80594158Y-115468425D01*
X80637783Y-115523002D01*
X80644977Y-115592500D01*
X80613454Y-115654855D01*
X80594158Y-115671575D01*
X80408597Y-115801505D01*
X80241505Y-115968597D01*
X80105965Y-116162169D01*
X80105964Y-116162171D01*
X80006098Y-116376335D01*
X80006094Y-116376344D01*
X79944938Y-116604586D01*
X79944936Y-116604596D01*
X79924341Y-116839999D01*
X79924341Y-116840000D01*
X79944936Y-117075403D01*
X79944938Y-117075413D01*
X80006094Y-117303655D01*
X80006096Y-117303659D01*
X80006097Y-117303663D01*
X80055450Y-117409500D01*
X80105965Y-117517830D01*
X80105967Y-117517834D01*
X80241501Y-117711395D01*
X80241506Y-117711402D01*
X80408597Y-117878493D01*
X80408603Y-117878498D01*
X80594158Y-118008425D01*
X80637783Y-118063002D01*
X80644977Y-118132500D01*
X80613454Y-118194855D01*
X80594158Y-118211575D01*
X80408597Y-118341505D01*
X80241505Y-118508597D01*
X80105965Y-118702169D01*
X80105964Y-118702171D01*
X80023041Y-118880000D01*
X80009468Y-118909109D01*
X80006098Y-118916335D01*
X80006094Y-118916344D01*
X79944938Y-119144586D01*
X79944936Y-119144596D01*
X79924341Y-119379999D01*
X79924341Y-119380000D01*
X79944936Y-119615403D01*
X79944938Y-119615413D01*
X80006094Y-119843655D01*
X80006096Y-119843659D01*
X80006097Y-119843663D01*
X80092625Y-120029222D01*
X80105965Y-120057830D01*
X80105967Y-120057834D01*
X80160012Y-120135017D01*
X80241505Y-120251401D01*
X80408599Y-120418495D01*
X80505384Y-120486265D01*
X80602165Y-120554032D01*
X80602167Y-120554033D01*
X80602170Y-120554035D01*
X80816337Y-120653903D01*
X81044592Y-120715063D01*
X81232918Y-120731539D01*
X81279999Y-120735659D01*
X81280000Y-120735659D01*
X81280001Y-120735659D01*
X81319234Y-120732226D01*
X81515408Y-120715063D01*
X81743663Y-120653903D01*
X81957830Y-120554035D01*
X82151401Y-120418495D01*
X82318495Y-120251401D01*
X82401136Y-120133376D01*
X82455713Y-120089752D01*
X82502711Y-120080500D01*
X99988481Y-120080500D01*
X100055520Y-120100185D01*
X100076162Y-120116819D01*
X102872162Y-122912819D01*
X102905647Y-122974142D01*
X102900663Y-123043834D01*
X102858791Y-123099767D01*
X102793327Y-123124184D01*
X102784481Y-123124500D01*
X85021003Y-123124500D01*
X84912590Y-123146065D01*
X84912589Y-123146065D01*
X84885671Y-123151420D01*
X84758190Y-123204224D01*
X84643454Y-123280887D01*
X83275885Y-124648456D01*
X83206148Y-124752827D01*
X83199229Y-124763180D01*
X83199224Y-124763189D01*
X83146420Y-124890671D01*
X83146418Y-124890677D01*
X83119500Y-125026004D01*
X83119500Y-131738480D01*
X83099815Y-131805519D01*
X83083181Y-131826161D01*
X81651994Y-133257347D01*
X81590671Y-133290832D01*
X81532225Y-133289442D01*
X81515410Y-133284937D01*
X81280001Y-133264341D01*
X81279999Y-133264341D01*
X81044596Y-133284936D01*
X81044586Y-133284938D01*
X80816344Y-133346094D01*
X80816335Y-133346098D01*
X80602171Y-133445964D01*
X80602169Y-133445965D01*
X80408597Y-133581505D01*
X80241505Y-133748597D01*
X80105965Y-133942169D01*
X80105964Y-133942171D01*
X80006098Y-134156335D01*
X80006094Y-134156344D01*
X79944938Y-134384586D01*
X79944936Y-134384596D01*
X79924341Y-134619999D01*
X79924341Y-134620000D01*
X79944936Y-134855403D01*
X79944938Y-134855413D01*
X80006094Y-135083655D01*
X80006096Y-135083659D01*
X80006097Y-135083663D01*
X80093822Y-135271789D01*
X80105965Y-135297830D01*
X80105967Y-135297834D01*
X80241501Y-135491395D01*
X80241506Y-135491402D01*
X80408597Y-135658493D01*
X80408603Y-135658498D01*
X80594158Y-135788425D01*
X80637783Y-135843002D01*
X80644977Y-135912500D01*
X80613454Y-135974855D01*
X80594158Y-135991575D01*
X80408597Y-136121505D01*
X80241505Y-136288597D01*
X80105965Y-136482169D01*
X80105964Y-136482171D01*
X80006098Y-136696335D01*
X80006094Y-136696344D01*
X79944938Y-136924586D01*
X79944936Y-136924596D01*
X79924341Y-137159999D01*
X79924341Y-137160000D01*
X79944936Y-137395403D01*
X79944938Y-137395413D01*
X80006094Y-137623655D01*
X80006096Y-137623659D01*
X80006097Y-137623663D01*
X80028740Y-137672220D01*
X80105965Y-137837830D01*
X80105967Y-137837834D01*
X80241501Y-138031395D01*
X80241506Y-138031402D01*
X80408597Y-138198493D01*
X80408603Y-138198498D01*
X80594158Y-138328425D01*
X80637783Y-138383002D01*
X80644977Y-138452500D01*
X80613454Y-138514855D01*
X80594158Y-138531575D01*
X80408597Y-138661505D01*
X80241505Y-138828597D01*
X80105965Y-139022169D01*
X80105964Y-139022171D01*
X80006098Y-139236335D01*
X80006094Y-139236344D01*
X79944938Y-139464586D01*
X79944936Y-139464596D01*
X79924341Y-139699999D01*
X79924341Y-139700000D01*
X79944936Y-139935403D01*
X79944938Y-139935413D01*
X80006094Y-140163655D01*
X80006096Y-140163659D01*
X80006097Y-140163663D01*
X80027841Y-140210292D01*
X80105965Y-140377830D01*
X80105967Y-140377834D01*
X80241501Y-140571395D01*
X80241506Y-140571402D01*
X80408597Y-140738493D01*
X80408603Y-140738498D01*
X80594158Y-140868425D01*
X80637783Y-140923002D01*
X80644977Y-140992500D01*
X80613454Y-141054855D01*
X80594158Y-141071575D01*
X80408597Y-141201505D01*
X80241505Y-141368597D01*
X80105965Y-141562169D01*
X80105964Y-141562171D01*
X80012401Y-141762816D01*
X80009468Y-141769109D01*
X80006098Y-141776335D01*
X80006094Y-141776344D01*
X79944938Y-142004586D01*
X79944936Y-142004596D01*
X79924341Y-142239999D01*
X79924341Y-142240000D01*
X79944936Y-142475403D01*
X79944938Y-142475413D01*
X80006094Y-142703655D01*
X80006096Y-142703659D01*
X80006097Y-142703663D01*
X80098033Y-142900819D01*
X80105965Y-142917830D01*
X80105967Y-142917834D01*
X80214281Y-143072521D01*
X80241505Y-143111401D01*
X80408599Y-143278495D01*
X80505384Y-143346265D01*
X80602165Y-143414032D01*
X80602167Y-143414033D01*
X80602170Y-143414035D01*
X80816337Y-143513903D01*
X81044592Y-143575063D01*
X81232918Y-143591539D01*
X81279999Y-143595659D01*
X81280000Y-143595659D01*
X81280001Y-143595659D01*
X81319234Y-143592226D01*
X81515408Y-143575063D01*
X81743663Y-143513903D01*
X81957830Y-143414035D01*
X82151401Y-143278495D01*
X82318495Y-143111401D01*
X82454035Y-142917830D01*
X82553903Y-142703663D01*
X82615063Y-142475408D01*
X82635659Y-142240000D01*
X82615063Y-142004592D01*
X82610558Y-141987778D01*
X82612219Y-141917932D01*
X82642649Y-141868006D01*
X84364113Y-140146543D01*
X84376719Y-140127678D01*
X84440775Y-140031811D01*
X84493580Y-139904328D01*
X84515619Y-139793531D01*
X84520500Y-139768995D01*
X84520500Y-136801476D01*
X84527459Y-136760521D01*
X84556313Y-136678061D01*
X84556313Y-136678059D01*
X84575249Y-136510002D01*
X84575249Y-136509997D01*
X84556314Y-136341943D01*
X84500454Y-136182305D01*
X84500452Y-136182302D01*
X84410481Y-136039115D01*
X84410476Y-136039109D01*
X84290890Y-135919523D01*
X84290884Y-135919518D01*
X84147697Y-135829547D01*
X84147694Y-135829545D01*
X83988056Y-135773685D01*
X83820003Y-135754751D01*
X83819997Y-135754751D01*
X83651943Y-135773685D01*
X83492305Y-135829545D01*
X83492302Y-135829547D01*
X83349115Y-135919518D01*
X83349109Y-135919523D01*
X83229523Y-136039109D01*
X83229518Y-136039115D01*
X83139547Y-136182302D01*
X83139545Y-136182305D01*
X83083685Y-136341943D01*
X83064751Y-136509997D01*
X83064751Y-136510002D01*
X83083686Y-136678059D01*
X83083686Y-136678061D01*
X83112541Y-136760521D01*
X83119500Y-136801476D01*
X83119500Y-139358481D01*
X83099815Y-139425520D01*
X83083181Y-139446162D01*
X82839273Y-139690069D01*
X82777950Y-139723554D01*
X82708258Y-139718570D01*
X82652325Y-139676698D01*
X82628064Y-139613195D01*
X82621179Y-139534500D01*
X82615063Y-139464592D01*
X82553903Y-139236337D01*
X82454035Y-139022171D01*
X82426624Y-138983023D01*
X82318494Y-138828597D01*
X82151402Y-138661506D01*
X82151396Y-138661501D01*
X81965842Y-138531575D01*
X81922217Y-138476998D01*
X81915023Y-138407500D01*
X81946546Y-138345145D01*
X81965842Y-138328425D01*
X82100883Y-138233868D01*
X82151401Y-138198495D01*
X82318495Y-138031401D01*
X82454035Y-137837830D01*
X82553903Y-137623663D01*
X82615063Y-137395408D01*
X82635659Y-137160000D01*
X82633757Y-137138266D01*
X82628486Y-137078014D01*
X82615063Y-136924592D01*
X82560546Y-136721129D01*
X82553905Y-136696344D01*
X82553904Y-136696343D01*
X82553903Y-136696337D01*
X82454035Y-136482171D01*
X82448731Y-136474595D01*
X82318494Y-136288597D01*
X82151402Y-136121506D01*
X82151396Y-136121501D01*
X81965842Y-135991575D01*
X81922217Y-135936998D01*
X81915023Y-135867500D01*
X81946546Y-135805145D01*
X81965842Y-135788425D01*
X82013933Y-135754751D01*
X82151401Y-135658495D01*
X82318495Y-135491401D01*
X82454035Y-135297830D01*
X82553903Y-135083663D01*
X82615063Y-134855408D01*
X82635659Y-134620000D01*
X82615063Y-134384592D01*
X82610558Y-134367778D01*
X82612219Y-134297932D01*
X82642649Y-134248006D01*
X84364113Y-132526543D01*
X84367891Y-132520890D01*
X84413694Y-132452341D01*
X84440774Y-132411813D01*
X84440776Y-132411809D01*
X84474662Y-132330000D01*
X84491871Y-132288454D01*
X84493580Y-132284329D01*
X84507799Y-132212845D01*
X84518211Y-132160500D01*
X84520500Y-132148995D01*
X84520500Y-125436519D01*
X84540185Y-125369480D01*
X84556819Y-125348838D01*
X85343838Y-124561819D01*
X85405161Y-124528334D01*
X85431519Y-124525500D01*
X90435950Y-124525500D01*
X90502989Y-124545185D01*
X90548744Y-124597989D01*
X90558688Y-124667147D01*
X90529663Y-124730703D01*
X90523631Y-124737181D01*
X90401891Y-124858920D01*
X90401886Y-124858926D01*
X90266400Y-125052420D01*
X90266399Y-125052422D01*
X90166570Y-125266507D01*
X90166567Y-125266513D01*
X90109364Y-125479999D01*
X90109364Y-125480000D01*
X91006988Y-125480000D01*
X90974075Y-125537007D01*
X90940000Y-125664174D01*
X90940000Y-125795826D01*
X90974075Y-125922993D01*
X91006988Y-125980000D01*
X90109364Y-125980000D01*
X90166567Y-126193486D01*
X90166570Y-126193492D01*
X90266399Y-126407578D01*
X90401894Y-126601082D01*
X90523946Y-126723134D01*
X90557431Y-126784457D01*
X90552447Y-126854149D01*
X90510575Y-126910082D01*
X90479598Y-126926997D01*
X90347671Y-126976202D01*
X90347664Y-126976206D01*
X90232455Y-127062452D01*
X90232452Y-127062455D01*
X90146206Y-127177664D01*
X90146202Y-127177671D01*
X90095908Y-127312517D01*
X90091497Y-127353553D01*
X90089501Y-127372123D01*
X90089500Y-127372135D01*
X90089500Y-129167870D01*
X90089501Y-129167876D01*
X90095908Y-129227483D01*
X90146202Y-129362328D01*
X90146206Y-129362335D01*
X90232452Y-129477544D01*
X90232455Y-129477547D01*
X90347664Y-129563793D01*
X90347671Y-129563797D01*
X90482517Y-129614091D01*
X90482516Y-129614091D01*
X90489444Y-129614835D01*
X90542127Y-129620500D01*
X91465637Y-129620499D01*
X91532676Y-129640183D01*
X91553318Y-129656818D01*
X92307902Y-130411402D01*
X92934320Y-131037819D01*
X92967805Y-131099142D01*
X92962821Y-131168834D01*
X92920949Y-131224767D01*
X92855485Y-131249184D01*
X92846639Y-131249500D01*
X91361155Y-131249500D01*
X91206510Y-131280261D01*
X91206498Y-131280264D01*
X91060827Y-131340602D01*
X91060814Y-131340609D01*
X90929711Y-131428210D01*
X90929707Y-131428213D01*
X90818213Y-131539707D01*
X90818210Y-131539711D01*
X90730609Y-131670814D01*
X90730602Y-131670827D01*
X90670264Y-131816498D01*
X90670261Y-131816510D01*
X90639500Y-131971153D01*
X90639500Y-132128846D01*
X90670261Y-132283489D01*
X90670264Y-132283501D01*
X90730602Y-132429172D01*
X90730609Y-132429185D01*
X90818210Y-132560288D01*
X90818213Y-132560292D01*
X90929707Y-132671786D01*
X90929711Y-132671789D01*
X91060814Y-132759390D01*
X91060827Y-132759397D01*
X91171487Y-132805233D01*
X91206503Y-132819737D01*
X91361153Y-132850499D01*
X91361156Y-132850500D01*
X91361158Y-132850500D01*
X93183060Y-132850500D01*
X93250099Y-132870185D01*
X93295854Y-132922989D01*
X93305798Y-132992147D01*
X93276773Y-133055703D01*
X93270741Y-133062181D01*
X92519741Y-133813181D01*
X92458418Y-133846666D01*
X92432060Y-133849500D01*
X91361155Y-133849500D01*
X91206510Y-133880261D01*
X91206498Y-133880264D01*
X91060827Y-133940602D01*
X91060819Y-133940607D01*
X90929711Y-134028210D01*
X90929707Y-134028213D01*
X90818213Y-134139707D01*
X90818210Y-134139711D01*
X90730609Y-134270814D01*
X90730602Y-134270827D01*
X90670264Y-134416498D01*
X90670261Y-134416510D01*
X90639500Y-134571153D01*
X90639500Y-134728846D01*
X90670261Y-134883489D01*
X90670264Y-134883501D01*
X90730602Y-135029172D01*
X90730609Y-135029185D01*
X90818210Y-135160288D01*
X90818213Y-135160292D01*
X90929707Y-135271786D01*
X90929711Y-135271789D01*
X91060814Y-135359390D01*
X91060827Y-135359397D01*
X91204987Y-135419109D01*
X91206503Y-135419737D01*
X91361153Y-135450499D01*
X91361156Y-135450500D01*
X91361158Y-135450500D01*
X92893844Y-135450500D01*
X92893845Y-135450499D01*
X93048497Y-135419737D01*
X93194179Y-135359394D01*
X93325289Y-135271789D01*
X94410259Y-134186819D01*
X94471582Y-134153334D01*
X94497940Y-134150500D01*
X109784574Y-134150500D01*
X109851613Y-134170185D01*
X109897368Y-134222989D01*
X109907312Y-134292147D01*
X109878287Y-134355703D01*
X109840028Y-134385409D01*
X90078030Y-144266409D01*
X90022576Y-144279500D01*
X79364500Y-144279500D01*
X79297461Y-144259815D01*
X79251706Y-144207011D01*
X79240500Y-144155500D01*
X79240500Y-122292135D01*
X79929500Y-122292135D01*
X79929500Y-124087870D01*
X79929501Y-124087876D01*
X79935908Y-124147483D01*
X79986202Y-124282328D01*
X79986206Y-124282335D01*
X80072452Y-124397544D01*
X80072455Y-124397547D01*
X80187664Y-124483793D01*
X80187671Y-124483797D01*
X80249902Y-124507007D01*
X80319598Y-124533002D01*
X80375531Y-124574873D01*
X80399949Y-124640337D01*
X80385098Y-124708610D01*
X80363947Y-124736865D01*
X80241886Y-124858926D01*
X80106400Y-125052420D01*
X80106399Y-125052422D01*
X80006570Y-125266507D01*
X80006567Y-125266513D01*
X79949364Y-125479999D01*
X79949364Y-125480000D01*
X80846988Y-125480000D01*
X80814075Y-125537007D01*
X80780000Y-125664174D01*
X80780000Y-125795826D01*
X80814075Y-125922993D01*
X80846988Y-125980000D01*
X79949364Y-125980000D01*
X80006567Y-126193486D01*
X80006570Y-126193492D01*
X80106399Y-126407578D01*
X80241894Y-126601082D01*
X80408917Y-126768105D01*
X80595031Y-126898425D01*
X80638656Y-126953003D01*
X80645848Y-127022501D01*
X80614326Y-127084856D01*
X80595031Y-127101575D01*
X80408922Y-127231890D01*
X80408920Y-127231891D01*
X80241891Y-127398920D01*
X80241886Y-127398926D01*
X80106400Y-127592420D01*
X80106399Y-127592422D01*
X80006570Y-127806507D01*
X80006567Y-127806513D01*
X79949364Y-128019999D01*
X79949364Y-128020000D01*
X80846988Y-128020000D01*
X80814075Y-128077007D01*
X80780000Y-128204174D01*
X80780000Y-128335826D01*
X80814075Y-128462993D01*
X80846988Y-128520000D01*
X79949364Y-128520000D01*
X80006567Y-128733486D01*
X80006570Y-128733492D01*
X80106399Y-128947578D01*
X80241894Y-129141082D01*
X80363946Y-129263134D01*
X80397431Y-129324457D01*
X80392447Y-129394149D01*
X80350575Y-129450082D01*
X80319598Y-129466997D01*
X80187671Y-129516202D01*
X80187664Y-129516206D01*
X80072455Y-129602452D01*
X80072452Y-129602455D01*
X79986206Y-129717664D01*
X79986202Y-129717671D01*
X79935908Y-129852517D01*
X79929855Y-129908825D01*
X79929501Y-129912123D01*
X79929500Y-129912135D01*
X79929500Y-131707870D01*
X79929501Y-131707876D01*
X79935908Y-131767483D01*
X79986202Y-131902328D01*
X79986206Y-131902335D01*
X80072452Y-132017544D01*
X80072455Y-132017547D01*
X80187664Y-132103793D01*
X80187671Y-132103797D01*
X80322517Y-132154091D01*
X80322516Y-132154091D01*
X80329444Y-132154835D01*
X80382127Y-132160500D01*
X82177872Y-132160499D01*
X82237483Y-132154091D01*
X82372331Y-132103796D01*
X82487546Y-132017546D01*
X82573796Y-131902331D01*
X82624091Y-131767483D01*
X82630500Y-131707873D01*
X82630499Y-129912128D01*
X82624091Y-129852517D01*
X82595331Y-129775408D01*
X82573797Y-129717671D01*
X82573793Y-129717664D01*
X82487547Y-129602455D01*
X82487544Y-129602452D01*
X82372335Y-129516206D01*
X82372328Y-129516202D01*
X82240401Y-129466997D01*
X82184467Y-129425126D01*
X82160050Y-129359662D01*
X82174902Y-129291389D01*
X82196053Y-129263133D01*
X82318108Y-129141078D01*
X82453600Y-128947578D01*
X82553429Y-128733492D01*
X82553432Y-128733486D01*
X82610636Y-128520000D01*
X81713012Y-128520000D01*
X81745925Y-128462993D01*
X81780000Y-128335826D01*
X81780000Y-128204174D01*
X81745925Y-128077007D01*
X81713012Y-128020000D01*
X82610636Y-128020000D01*
X82610635Y-128019999D01*
X82553432Y-127806513D01*
X82553429Y-127806507D01*
X82453600Y-127592422D01*
X82453599Y-127592420D01*
X82318113Y-127398926D01*
X82318108Y-127398920D01*
X82151082Y-127231894D01*
X81964968Y-127101575D01*
X81921344Y-127046998D01*
X81914151Y-126977499D01*
X81945673Y-126915145D01*
X81964968Y-126898425D01*
X82151082Y-126768105D01*
X82318105Y-126601082D01*
X82453600Y-126407578D01*
X82553429Y-126193492D01*
X82553432Y-126193486D01*
X82610636Y-125980000D01*
X81713012Y-125980000D01*
X81745925Y-125922993D01*
X81780000Y-125795826D01*
X81780000Y-125664174D01*
X81745925Y-125537007D01*
X81713012Y-125480000D01*
X82610636Y-125480000D01*
X82610635Y-125479999D01*
X82553432Y-125266513D01*
X82553429Y-125266507D01*
X82453600Y-125052422D01*
X82453599Y-125052420D01*
X82318113Y-124858926D01*
X82318108Y-124858920D01*
X82196053Y-124736865D01*
X82162568Y-124675542D01*
X82167552Y-124605850D01*
X82209424Y-124549917D01*
X82240400Y-124533002D01*
X82372331Y-124483796D01*
X82487546Y-124397546D01*
X82573796Y-124282331D01*
X82624091Y-124147483D01*
X82630500Y-124087873D01*
X82630499Y-122292128D01*
X82624091Y-122232517D01*
X82605809Y-122183501D01*
X82573797Y-122097671D01*
X82573793Y-122097664D01*
X82487547Y-121982455D01*
X82487544Y-121982452D01*
X82372335Y-121896206D01*
X82372328Y-121896202D01*
X82237482Y-121845908D01*
X82237483Y-121845908D01*
X82177883Y-121839501D01*
X82177881Y-121839500D01*
X82177873Y-121839500D01*
X82177864Y-121839500D01*
X80382129Y-121839500D01*
X80382123Y-121839501D01*
X80322516Y-121845908D01*
X80187671Y-121896202D01*
X80187664Y-121896206D01*
X80072455Y-121982452D01*
X80072452Y-121982455D01*
X79986206Y-122097664D01*
X79986202Y-122097671D01*
X79935908Y-122232517D01*
X79929501Y-122292116D01*
X79929501Y-122292123D01*
X79929500Y-122292135D01*
X79240500Y-122292135D01*
X79240500Y-109844500D01*
X79260185Y-109777461D01*
X79312989Y-109731706D01*
X79364500Y-109720500D01*
X90022576Y-109720500D01*
X90078030Y-109733591D01*
G37*
%TD.AperFunction*%
%TA.AperFunction,Conductor*%
G36*
X172970000Y-127836988D02*
G01*
X172912993Y-127804075D01*
X172785826Y-127770000D01*
X172654174Y-127770000D01*
X172527007Y-127804075D01*
X172470000Y-127836988D01*
X172470000Y-126163012D01*
X172527007Y-126195925D01*
X172654174Y-126230000D01*
X172785826Y-126230000D01*
X172912993Y-126195925D01*
X172970000Y-126163012D01*
X172970000Y-127836988D01*
G37*
%TD.AperFunction*%
%TA.AperFunction,Conductor*%
G36*
X174702539Y-109740185D02*
G01*
X174748294Y-109792989D01*
X174759500Y-109844500D01*
X174759500Y-144155500D01*
X174739815Y-144222539D01*
X174687011Y-144268294D01*
X174635500Y-144279500D01*
X163977424Y-144279500D01*
X163921970Y-144266409D01*
X143959972Y-134285409D01*
X143908813Y-134237822D01*
X143891503Y-134170130D01*
X143913538Y-134103826D01*
X143967922Y-134059960D01*
X144015426Y-134050500D01*
X163488481Y-134050500D01*
X163555520Y-134070185D01*
X163576162Y-134086819D01*
X171357348Y-141868005D01*
X171390833Y-141929328D01*
X171389442Y-141987778D01*
X171384939Y-142004584D01*
X171384936Y-142004597D01*
X171364341Y-142239999D01*
X171364341Y-142240000D01*
X171384936Y-142475403D01*
X171384938Y-142475413D01*
X171446094Y-142703655D01*
X171446096Y-142703659D01*
X171446097Y-142703663D01*
X171538033Y-142900819D01*
X171545965Y-142917830D01*
X171545967Y-142917834D01*
X171654281Y-143072521D01*
X171681505Y-143111401D01*
X171848599Y-143278495D01*
X171945384Y-143346265D01*
X172042165Y-143414032D01*
X172042167Y-143414033D01*
X172042170Y-143414035D01*
X172256337Y-143513903D01*
X172484592Y-143575063D01*
X172672918Y-143591539D01*
X172719999Y-143595659D01*
X172720000Y-143595659D01*
X172720001Y-143595659D01*
X172759234Y-143592226D01*
X172955408Y-143575063D01*
X173183663Y-143513903D01*
X173397830Y-143414035D01*
X173591401Y-143278495D01*
X173758495Y-143111401D01*
X173894035Y-142917830D01*
X173993903Y-142703663D01*
X174055063Y-142475408D01*
X174075659Y-142240000D01*
X174055063Y-142004592D01*
X173993903Y-141776337D01*
X173894035Y-141562171D01*
X173892148Y-141559475D01*
X173758494Y-141368597D01*
X173591402Y-141201506D01*
X173591396Y-141201501D01*
X173405842Y-141071575D01*
X173362217Y-141016998D01*
X173355023Y-140947500D01*
X173386546Y-140885145D01*
X173405842Y-140868425D01*
X173591115Y-140738695D01*
X173591401Y-140738495D01*
X173758495Y-140571401D01*
X173894035Y-140377830D01*
X173993903Y-140163663D01*
X174055063Y-139935408D01*
X174075659Y-139700000D01*
X174055063Y-139464592D01*
X173993903Y-139236337D01*
X173894035Y-139022171D01*
X173866624Y-138983023D01*
X173758494Y-138828597D01*
X173591402Y-138661506D01*
X173591396Y-138661501D01*
X173405842Y-138531575D01*
X173362217Y-138476998D01*
X173355023Y-138407500D01*
X173386546Y-138345145D01*
X173405842Y-138328425D01*
X173540883Y-138233868D01*
X173591401Y-138198495D01*
X173758495Y-138031401D01*
X173894035Y-137837830D01*
X173993903Y-137623663D01*
X174055063Y-137395408D01*
X174075659Y-137160000D01*
X174073757Y-137138266D01*
X174068486Y-137078014D01*
X174055063Y-136924592D01*
X174000546Y-136721129D01*
X173993905Y-136696344D01*
X173993904Y-136696343D01*
X173993903Y-136696337D01*
X173894035Y-136482171D01*
X173888731Y-136474595D01*
X173758494Y-136288597D01*
X173591402Y-136121506D01*
X173591396Y-136121501D01*
X173405842Y-135991575D01*
X173362217Y-135936998D01*
X173355023Y-135867500D01*
X173386546Y-135805145D01*
X173405842Y-135788425D01*
X173453933Y-135754751D01*
X173591401Y-135658495D01*
X173758495Y-135491401D01*
X173894035Y-135297830D01*
X173993903Y-135083663D01*
X174055063Y-134855408D01*
X174075659Y-134620000D01*
X174055063Y-134384592D01*
X173996498Y-134166021D01*
X173993905Y-134156344D01*
X173993904Y-134156343D01*
X173993903Y-134156337D01*
X173894035Y-133942171D01*
X173892940Y-133940606D01*
X173758494Y-133748597D01*
X173591402Y-133581506D01*
X173591395Y-133581501D01*
X173397834Y-133445967D01*
X173397830Y-133445965D01*
X173373348Y-133434549D01*
X173183663Y-133346097D01*
X173183659Y-133346096D01*
X173183655Y-133346094D01*
X172955413Y-133284938D01*
X172955403Y-133284936D01*
X172720001Y-133264341D01*
X172719999Y-133264341D01*
X172484597Y-133284936D01*
X172484593Y-133284936D01*
X172484592Y-133284937D01*
X172484587Y-133284938D01*
X172484584Y-133284939D01*
X172467778Y-133289442D01*
X172397928Y-133287778D01*
X172348005Y-133257348D01*
X165201819Y-126111162D01*
X165168334Y-126049839D01*
X165165500Y-126023481D01*
X165165500Y-124391004D01*
X165138581Y-124255676D01*
X165138580Y-124255675D01*
X165138580Y-124255672D01*
X165134156Y-124244992D01*
X165085775Y-124128189D01*
X165009114Y-124013457D01*
X165009112Y-124013454D01*
X163641545Y-122645887D01*
X163526807Y-122569222D01*
X163399332Y-122516421D01*
X163399322Y-122516418D01*
X163355398Y-122507681D01*
X163293487Y-122475296D01*
X163258913Y-122414579D01*
X163262654Y-122344810D01*
X163267086Y-122334751D01*
X163284738Y-122292135D01*
X171369500Y-122292135D01*
X171369500Y-124087870D01*
X171369501Y-124087876D01*
X171375908Y-124147483D01*
X171426202Y-124282328D01*
X171426206Y-124282335D01*
X171512452Y-124397544D01*
X171512455Y-124397547D01*
X171627664Y-124483793D01*
X171627671Y-124483797D01*
X171689902Y-124507007D01*
X171759598Y-124533002D01*
X171815531Y-124574873D01*
X171839949Y-124640337D01*
X171825098Y-124708610D01*
X171803947Y-124736865D01*
X171681886Y-124858926D01*
X171546400Y-125052420D01*
X171546399Y-125052422D01*
X171446570Y-125266507D01*
X171446567Y-125266513D01*
X171389364Y-125479999D01*
X171389364Y-125480000D01*
X172286988Y-125480000D01*
X172254075Y-125537007D01*
X172220000Y-125664174D01*
X172220000Y-125795826D01*
X172254075Y-125922993D01*
X172286988Y-125980000D01*
X171389364Y-125980000D01*
X171446567Y-126193486D01*
X171446570Y-126193492D01*
X171546399Y-126407578D01*
X171681894Y-126601082D01*
X171848917Y-126768105D01*
X172035031Y-126898425D01*
X172078656Y-126953003D01*
X172085848Y-127022501D01*
X172054326Y-127084856D01*
X172035031Y-127101575D01*
X171848922Y-127231890D01*
X171848920Y-127231891D01*
X171681891Y-127398920D01*
X171681886Y-127398926D01*
X171546400Y-127592420D01*
X171546399Y-127592422D01*
X171446570Y-127806507D01*
X171446567Y-127806513D01*
X171389364Y-128019999D01*
X171389364Y-128020000D01*
X172286988Y-128020000D01*
X172254075Y-128077007D01*
X172220000Y-128204174D01*
X172220000Y-128335826D01*
X172254075Y-128462993D01*
X172286988Y-128520000D01*
X171389364Y-128520000D01*
X171446567Y-128733486D01*
X171446570Y-128733492D01*
X171546399Y-128947578D01*
X171681894Y-129141082D01*
X171803946Y-129263134D01*
X171837431Y-129324457D01*
X171832447Y-129394149D01*
X171790575Y-129450082D01*
X171759598Y-129466997D01*
X171627671Y-129516202D01*
X171627664Y-129516206D01*
X171512455Y-129602452D01*
X171512452Y-129602455D01*
X171426206Y-129717664D01*
X171426202Y-129717671D01*
X171375908Y-129852517D01*
X171369855Y-129908825D01*
X171369501Y-129912123D01*
X171369500Y-129912135D01*
X171369500Y-131707870D01*
X171369501Y-131707876D01*
X171375908Y-131767483D01*
X171426202Y-131902328D01*
X171426206Y-131902335D01*
X171512452Y-132017544D01*
X171512455Y-132017547D01*
X171627664Y-132103793D01*
X171627671Y-132103797D01*
X171762517Y-132154091D01*
X171762516Y-132154091D01*
X171769444Y-132154835D01*
X171822127Y-132160500D01*
X173617872Y-132160499D01*
X173677483Y-132154091D01*
X173812331Y-132103796D01*
X173927546Y-132017546D01*
X174013796Y-131902331D01*
X174064091Y-131767483D01*
X174070500Y-131707873D01*
X174070499Y-129912128D01*
X174064091Y-129852517D01*
X174035331Y-129775408D01*
X174013797Y-129717671D01*
X174013793Y-129717664D01*
X173927547Y-129602455D01*
X173927544Y-129602452D01*
X173812335Y-129516206D01*
X173812328Y-129516202D01*
X173680401Y-129466997D01*
X173624467Y-129425126D01*
X173600050Y-129359662D01*
X173614902Y-129291389D01*
X173636053Y-129263133D01*
X173758108Y-129141078D01*
X173893600Y-128947578D01*
X173993429Y-128733492D01*
X173993432Y-128733486D01*
X174050636Y-128520000D01*
X173153012Y-128520000D01*
X173185925Y-128462993D01*
X173220000Y-128335826D01*
X173220000Y-128204174D01*
X173185925Y-128077007D01*
X173153012Y-128020000D01*
X174050636Y-128020000D01*
X174050635Y-128019999D01*
X173993432Y-127806513D01*
X173993429Y-127806507D01*
X173893600Y-127592422D01*
X173893599Y-127592420D01*
X173758113Y-127398926D01*
X173758108Y-127398920D01*
X173591082Y-127231894D01*
X173404968Y-127101575D01*
X173361344Y-127046998D01*
X173354151Y-126977499D01*
X173385673Y-126915145D01*
X173404968Y-126898425D01*
X173591082Y-126768105D01*
X173758105Y-126601082D01*
X173893600Y-126407578D01*
X173993429Y-126193492D01*
X173993432Y-126193486D01*
X174050636Y-125980000D01*
X173153012Y-125980000D01*
X173185925Y-125922993D01*
X173220000Y-125795826D01*
X173220000Y-125664174D01*
X173185925Y-125537007D01*
X173153012Y-125480000D01*
X174050636Y-125480000D01*
X174050635Y-125479999D01*
X173993432Y-125266513D01*
X173993429Y-125266507D01*
X173893600Y-125052422D01*
X173893599Y-125052420D01*
X173758113Y-124858926D01*
X173758108Y-124858920D01*
X173636053Y-124736865D01*
X173602568Y-124675542D01*
X173607552Y-124605850D01*
X173649424Y-124549917D01*
X173680400Y-124533002D01*
X173812331Y-124483796D01*
X173927546Y-124397546D01*
X174013796Y-124282331D01*
X174064091Y-124147483D01*
X174070500Y-124087873D01*
X174070499Y-122292128D01*
X174064091Y-122232517D01*
X174045809Y-122183501D01*
X174013797Y-122097671D01*
X174013793Y-122097664D01*
X173927547Y-121982455D01*
X173927544Y-121982452D01*
X173812335Y-121896206D01*
X173812328Y-121896202D01*
X173677482Y-121845908D01*
X173677483Y-121845908D01*
X173617883Y-121839501D01*
X173617881Y-121839500D01*
X173617873Y-121839500D01*
X173617864Y-121839500D01*
X171822129Y-121839500D01*
X171822123Y-121839501D01*
X171762516Y-121845908D01*
X171627671Y-121896202D01*
X171627664Y-121896206D01*
X171512455Y-121982452D01*
X171512452Y-121982455D01*
X171426206Y-122097664D01*
X171426202Y-122097671D01*
X171375908Y-122232517D01*
X171369501Y-122292116D01*
X171369501Y-122292123D01*
X171369500Y-122292135D01*
X163284738Y-122292135D01*
X163309433Y-122232516D01*
X163329737Y-122183497D01*
X163360500Y-122028842D01*
X163360500Y-121871158D01*
X163360500Y-121871155D01*
X163360499Y-121871153D01*
X163329738Y-121716510D01*
X163329737Y-121716503D01*
X163292736Y-121627173D01*
X163269397Y-121570827D01*
X163269390Y-121570814D01*
X163181789Y-121439711D01*
X163181786Y-121439707D01*
X163070292Y-121328213D01*
X163070288Y-121328210D01*
X162939185Y-121240609D01*
X162939172Y-121240602D01*
X162793501Y-121180264D01*
X162793489Y-121180261D01*
X162638845Y-121149500D01*
X162638842Y-121149500D01*
X159176612Y-121149500D01*
X159109573Y-121129815D01*
X159063818Y-121077011D01*
X159053874Y-121007853D01*
X159062052Y-120978046D01*
X159077047Y-120941845D01*
X159077047Y-120941843D01*
X159077051Y-120941835D01*
X159085500Y-120899353D01*
X159088450Y-120887580D01*
X159101024Y-120846132D01*
X159105268Y-120803037D01*
X159107054Y-120790999D01*
X159115500Y-120748541D01*
X159115500Y-120705244D01*
X159116097Y-120693090D01*
X159118420Y-120669500D01*
X159120341Y-120650000D01*
X159116097Y-120606907D01*
X159115500Y-120594754D01*
X159115500Y-120551458D01*
X159113117Y-120539480D01*
X159107052Y-120508990D01*
X159105268Y-120496961D01*
X159101024Y-120453869D01*
X159101024Y-120453868D01*
X159088448Y-120412414D01*
X159085499Y-120400640D01*
X159077051Y-120358165D01*
X159060480Y-120318160D01*
X159056382Y-120306706D01*
X159053246Y-120296369D01*
X159043814Y-120265273D01*
X159042573Y-120262952D01*
X159042291Y-120261596D01*
X159041483Y-120259645D01*
X159041853Y-120259491D01*
X159028332Y-120194551D01*
X159053331Y-120129307D01*
X159109636Y-120087936D01*
X159151932Y-120080500D01*
X171497289Y-120080500D01*
X171564328Y-120100185D01*
X171598864Y-120133377D01*
X171681505Y-120251402D01*
X171788266Y-120358162D01*
X171848599Y-120418495D01*
X171945384Y-120486265D01*
X172042165Y-120554032D01*
X172042167Y-120554033D01*
X172042170Y-120554035D01*
X172256337Y-120653903D01*
X172484592Y-120715063D01*
X172672918Y-120731539D01*
X172719999Y-120735659D01*
X172720000Y-120735659D01*
X172720001Y-120735659D01*
X172759234Y-120732226D01*
X172955408Y-120715063D01*
X173183663Y-120653903D01*
X173397830Y-120554035D01*
X173591401Y-120418495D01*
X173758495Y-120251401D01*
X173894035Y-120057830D01*
X173993903Y-119843663D01*
X174055063Y-119615408D01*
X174075659Y-119380000D01*
X174055063Y-119144592D01*
X173993903Y-118916337D01*
X173894035Y-118702171D01*
X173892197Y-118699545D01*
X173758494Y-118508597D01*
X173591402Y-118341506D01*
X173591396Y-118341501D01*
X173405842Y-118211575D01*
X173362217Y-118156998D01*
X173355023Y-118087500D01*
X173386546Y-118025145D01*
X173405842Y-118008425D01*
X173469524Y-117963834D01*
X173591401Y-117878495D01*
X173758495Y-117711401D01*
X173894035Y-117517830D01*
X173993903Y-117303663D01*
X174055063Y-117075408D01*
X174075659Y-116840000D01*
X174055063Y-116604592D01*
X173993903Y-116376337D01*
X173894035Y-116162171D01*
X173758495Y-115968599D01*
X173758494Y-115968597D01*
X173591402Y-115801506D01*
X173591396Y-115801501D01*
X173405842Y-115671575D01*
X173362217Y-115616998D01*
X173355023Y-115547500D01*
X173386546Y-115485145D01*
X173405842Y-115468425D01*
X173428026Y-115452891D01*
X173591401Y-115338495D01*
X173758495Y-115171401D01*
X173894035Y-114977830D01*
X173993903Y-114763663D01*
X174055063Y-114535408D01*
X174075659Y-114300000D01*
X174055063Y-114064592D01*
X173993903Y-113836337D01*
X173894035Y-113622171D01*
X173758495Y-113428599D01*
X173758494Y-113428597D01*
X173591402Y-113261506D01*
X173591396Y-113261501D01*
X173405842Y-113131575D01*
X173362217Y-113076998D01*
X173355023Y-113007500D01*
X173386546Y-112945145D01*
X173405842Y-112928425D01*
X173428026Y-112912891D01*
X173591401Y-112798495D01*
X173758495Y-112631401D01*
X173894035Y-112437830D01*
X173993903Y-112223663D01*
X174055063Y-111995408D01*
X174075659Y-111760000D01*
X174055063Y-111524592D01*
X173993903Y-111296337D01*
X173894035Y-111082171D01*
X173758495Y-110888599D01*
X173758494Y-110888597D01*
X173591402Y-110721506D01*
X173591395Y-110721501D01*
X173397834Y-110585967D01*
X173397830Y-110585965D01*
X173397828Y-110585964D01*
X173183663Y-110486097D01*
X173183659Y-110486096D01*
X173183655Y-110486094D01*
X172955413Y-110424938D01*
X172955403Y-110424936D01*
X172720001Y-110404341D01*
X172719999Y-110404341D01*
X172484596Y-110424936D01*
X172484586Y-110424938D01*
X172256344Y-110486094D01*
X172256335Y-110486098D01*
X172042171Y-110585964D01*
X172042169Y-110585965D01*
X171848597Y-110721505D01*
X171681505Y-110888597D01*
X171545965Y-111082169D01*
X171545964Y-111082171D01*
X171446098Y-111296335D01*
X171446094Y-111296344D01*
X171384938Y-111524586D01*
X171384936Y-111524596D01*
X171364341Y-111759999D01*
X171364341Y-111760000D01*
X171384937Y-111995409D01*
X171384937Y-111995410D01*
X171389442Y-112012225D01*
X171387776Y-112082075D01*
X171357347Y-112131994D01*
X166796162Y-116693181D01*
X166734839Y-116726666D01*
X166708481Y-116729500D01*
X152056476Y-116729500D01*
X152015521Y-116722541D01*
X151933060Y-116693686D01*
X151765003Y-116674751D01*
X151764997Y-116674751D01*
X151596943Y-116693685D01*
X151437305Y-116749545D01*
X151437302Y-116749547D01*
X151294115Y-116839518D01*
X151294109Y-116839523D01*
X151174523Y-116959109D01*
X151174518Y-116959115D01*
X151084547Y-117102302D01*
X151084545Y-117102305D01*
X151028687Y-117261940D01*
X151027849Y-117269381D01*
X151000783Y-117333795D01*
X150943189Y-117373352D01*
X150904628Y-117379500D01*
X150786476Y-117379500D01*
X150745521Y-117372541D01*
X150663060Y-117343686D01*
X150495003Y-117324751D01*
X150494997Y-117324751D01*
X150326943Y-117343685D01*
X150167305Y-117399545D01*
X150167302Y-117399547D01*
X150024115Y-117489518D01*
X150024109Y-117489523D01*
X149904523Y-117609109D01*
X149904518Y-117609115D01*
X149814547Y-117752302D01*
X149814545Y-117752305D01*
X149758687Y-117911940D01*
X149757849Y-117919381D01*
X149730783Y-117983795D01*
X149673189Y-118023352D01*
X149634628Y-118029500D01*
X149516476Y-118029500D01*
X149475521Y-118022541D01*
X149393060Y-117993686D01*
X149225003Y-117974751D01*
X149224997Y-117974751D01*
X149056943Y-117993685D01*
X148897305Y-118049545D01*
X148897302Y-118049547D01*
X148754115Y-118139518D01*
X148754109Y-118139523D01*
X148634523Y-118259109D01*
X148634518Y-118259115D01*
X148544547Y-118402302D01*
X148544545Y-118402305D01*
X148488687Y-118561940D01*
X148487849Y-118569381D01*
X148460783Y-118633795D01*
X148403189Y-118673352D01*
X148364628Y-118679500D01*
X148246476Y-118679500D01*
X148205521Y-118672541D01*
X148123060Y-118643686D01*
X147955003Y-118624751D01*
X147954997Y-118624751D01*
X147786943Y-118643685D01*
X147627305Y-118699545D01*
X147627302Y-118699547D01*
X147484115Y-118789518D01*
X147484109Y-118789523D01*
X147364523Y-118909109D01*
X147364518Y-118909115D01*
X147274547Y-119052302D01*
X147274545Y-119052305D01*
X147218685Y-119211943D01*
X147199751Y-119379997D01*
X147199751Y-119380003D01*
X147214580Y-119511617D01*
X147202525Y-119580439D01*
X147155176Y-119631818D01*
X147091360Y-119649500D01*
X144615425Y-119649500D01*
X144548386Y-119629815D01*
X144502631Y-119577011D01*
X144492687Y-119507853D01*
X144521712Y-119444297D01*
X144559971Y-119414591D01*
X163921970Y-109733591D01*
X163977424Y-109720500D01*
X174635500Y-109720500D01*
X174702539Y-109740185D01*
G37*
%TD.AperFunction*%
%TA.AperFunction,Conductor*%
G36*
X119669273Y-129549930D02*
G01*
X124013451Y-133894109D01*
X124013454Y-133894112D01*
X124013457Y-133894114D01*
X124083038Y-133940606D01*
X124128189Y-133970775D01*
X124128191Y-133970776D01*
X124128195Y-133970778D01*
X124255667Y-134023578D01*
X124255672Y-134023580D01*
X124255676Y-134023580D01*
X124255677Y-134023581D01*
X124391004Y-134050500D01*
X124391007Y-134050500D01*
X134482856Y-134050500D01*
X134549895Y-134070185D01*
X134595650Y-134122989D01*
X134605594Y-134192147D01*
X134602631Y-134206593D01*
X134554938Y-134384586D01*
X134554936Y-134384596D01*
X134534341Y-134619999D01*
X134534341Y-134620000D01*
X134554936Y-134855403D01*
X134554938Y-134855413D01*
X134592206Y-134994500D01*
X134590543Y-135064350D01*
X134551380Y-135122212D01*
X134487152Y-135149716D01*
X134486315Y-135149813D01*
X134451944Y-135153685D01*
X134292305Y-135209545D01*
X134292302Y-135209547D01*
X134149115Y-135299518D01*
X134149109Y-135299523D01*
X134029523Y-135419109D01*
X134029518Y-135419115D01*
X133935838Y-135568206D01*
X133934129Y-135567132D01*
X133893927Y-135611657D01*
X133826499Y-135629966D01*
X133770582Y-135615351D01*
X133763671Y-135611657D01*
X133734727Y-135596186D01*
X133546132Y-135538976D01*
X133546129Y-135538975D01*
X133350000Y-135519659D01*
X133153870Y-135538975D01*
X132965266Y-135596188D01*
X132791467Y-135689086D01*
X132791460Y-135689090D01*
X132639116Y-135814116D01*
X132514090Y-135966460D01*
X132514086Y-135966467D01*
X132421188Y-136140266D01*
X132363975Y-136328870D01*
X132344659Y-136525000D01*
X132363975Y-136721129D01*
X132363976Y-136721132D01*
X132419542Y-136904309D01*
X132421188Y-136909733D01*
X132514086Y-137083532D01*
X132514090Y-137083539D01*
X132639116Y-137235883D01*
X132791460Y-137360909D01*
X132791462Y-137360910D01*
X132801449Y-137366248D01*
X132851295Y-137415208D01*
X132867000Y-137475608D01*
X132867000Y-139445500D01*
X132847315Y-139512539D01*
X132794511Y-139558294D01*
X132743000Y-139569500D01*
X131930597Y-139569500D01*
X131863558Y-139549815D01*
X131817803Y-139497011D01*
X131807859Y-139427853D01*
X131836884Y-139364297D01*
X131872144Y-139336142D01*
X132003532Y-139265913D01*
X132003538Y-139265910D01*
X132155883Y-139140883D01*
X132280910Y-138988538D01*
X132373814Y-138814727D01*
X132431024Y-138626132D01*
X132450341Y-138430000D01*
X132431024Y-138233868D01*
X132373814Y-138045273D01*
X132373811Y-138045269D01*
X132373811Y-138045266D01*
X132280913Y-137871467D01*
X132280909Y-137871460D01*
X132155883Y-137719116D01*
X132003539Y-137594090D01*
X132003532Y-137594086D01*
X131829733Y-137501188D01*
X131829727Y-137501186D01*
X131641132Y-137443976D01*
X131641129Y-137443975D01*
X131445000Y-137424659D01*
X131248870Y-137443975D01*
X131060270Y-137501187D01*
X131058204Y-137502292D01*
X131056991Y-137502544D01*
X131054641Y-137503518D01*
X131054456Y-137503072D01*
X130989800Y-137516532D01*
X130924557Y-137491530D01*
X130883188Y-137435224D01*
X130876225Y-137382124D01*
X130877089Y-137372255D01*
X130895659Y-137160000D01*
X130893757Y-137138266D01*
X130888486Y-137078014D01*
X130875063Y-136924592D01*
X130820546Y-136721129D01*
X130813905Y-136696344D01*
X130813904Y-136696343D01*
X130813903Y-136696337D01*
X130714035Y-136482171D01*
X130708731Y-136474595D01*
X130578494Y-136288597D01*
X130411402Y-136121506D01*
X130411395Y-136121501D01*
X130217834Y-135985967D01*
X130217830Y-135985965D01*
X130217828Y-135985964D01*
X130003663Y-135886097D01*
X130003659Y-135886096D01*
X130003655Y-135886094D01*
X129775413Y-135824938D01*
X129775403Y-135824936D01*
X129540001Y-135804341D01*
X129539999Y-135804341D01*
X129304596Y-135824936D01*
X129304586Y-135824938D01*
X129076344Y-135886094D01*
X129076335Y-135886098D01*
X128862171Y-135985964D01*
X128862169Y-135985965D01*
X128668597Y-136121505D01*
X128501505Y-136288597D01*
X128371269Y-136474595D01*
X128316692Y-136518220D01*
X128247194Y-136525414D01*
X128184839Y-136493891D01*
X128168119Y-136474595D01*
X128114925Y-136398626D01*
X128114925Y-136398625D01*
X127400000Y-137113550D01*
X127400000Y-137107339D01*
X127372741Y-137005606D01*
X127320080Y-136914394D01*
X127245606Y-136839920D01*
X127154394Y-136787259D01*
X127052661Y-136760000D01*
X127046448Y-136760000D01*
X127761373Y-136045073D01*
X127761373Y-136045072D01*
X127677583Y-135986402D01*
X127677579Y-135986400D01*
X127463492Y-135886570D01*
X127463483Y-135886566D01*
X127235326Y-135825432D01*
X127235315Y-135825430D01*
X127000002Y-135804843D01*
X126999998Y-135804843D01*
X126764684Y-135825430D01*
X126764673Y-135825432D01*
X126536516Y-135886566D01*
X126536507Y-135886570D01*
X126322419Y-135986401D01*
X126238625Y-136045072D01*
X126953553Y-136760000D01*
X126947339Y-136760000D01*
X126845606Y-136787259D01*
X126754394Y-136839920D01*
X126679920Y-136914394D01*
X126627259Y-137005606D01*
X126600000Y-137107339D01*
X126600000Y-137113553D01*
X125885073Y-136398626D01*
X125831881Y-136474594D01*
X125777304Y-136518219D01*
X125707806Y-136525413D01*
X125645451Y-136493891D01*
X125628730Y-136474594D01*
X125498494Y-136288597D01*
X125331402Y-136121506D01*
X125331395Y-136121501D01*
X125137834Y-135985967D01*
X125137830Y-135985965D01*
X125137828Y-135985964D01*
X124923663Y-135886097D01*
X124923659Y-135886096D01*
X124923655Y-135886094D01*
X124695413Y-135824938D01*
X124695403Y-135824936D01*
X124460001Y-135804341D01*
X124459999Y-135804341D01*
X124224596Y-135824936D01*
X124224586Y-135824938D01*
X123996344Y-135886094D01*
X123996335Y-135886098D01*
X123782171Y-135985964D01*
X123782169Y-135985965D01*
X123588600Y-136121503D01*
X123537762Y-136172342D01*
X123486921Y-136223182D01*
X123425601Y-136256666D01*
X123399242Y-136259500D01*
X120561303Y-136259500D01*
X120387341Y-136294103D01*
X120387333Y-136294105D01*
X120303410Y-136328868D01*
X120223456Y-136361985D01*
X120223447Y-136361990D01*
X120075963Y-136460535D01*
X119632189Y-136904309D01*
X119570866Y-136937794D01*
X119501174Y-136932810D01*
X119445241Y-136890938D01*
X119424733Y-136848720D01*
X119413406Y-136806447D01*
X119390546Y-136721129D01*
X119383906Y-136696346D01*
X119383904Y-136696342D01*
X119383903Y-136696337D01*
X119284035Y-136482171D01*
X119278731Y-136474595D01*
X119148494Y-136288597D01*
X118981402Y-136121506D01*
X118981396Y-136121501D01*
X118795842Y-135991575D01*
X118752217Y-135936998D01*
X118745023Y-135867500D01*
X118776546Y-135805145D01*
X118795842Y-135788425D01*
X118843933Y-135754751D01*
X118981401Y-135658495D01*
X119148495Y-135491401D01*
X119284035Y-135297830D01*
X119383903Y-135083663D01*
X119445063Y-134855408D01*
X119465659Y-134620000D01*
X119445063Y-134384592D01*
X119386498Y-134166021D01*
X119383905Y-134156344D01*
X119383904Y-134156343D01*
X119383903Y-134156337D01*
X119284035Y-133942171D01*
X119282940Y-133940606D01*
X119148494Y-133748597D01*
X118981402Y-133581506D01*
X118981401Y-133581505D01*
X118795405Y-133451269D01*
X118751781Y-133396692D01*
X118744588Y-133327193D01*
X118776110Y-133264839D01*
X118795405Y-133248119D01*
X118981082Y-133118105D01*
X119148105Y-132951082D01*
X119283600Y-132757578D01*
X119383429Y-132543492D01*
X119383432Y-132543486D01*
X119440636Y-132330000D01*
X118543012Y-132330000D01*
X118575925Y-132272993D01*
X118610000Y-132145826D01*
X118610000Y-132014174D01*
X118575925Y-131887007D01*
X118543012Y-131830000D01*
X119440636Y-131830000D01*
X119440635Y-131829999D01*
X119383432Y-131616513D01*
X119383429Y-131616507D01*
X119283600Y-131402422D01*
X119283599Y-131402420D01*
X119148113Y-131208926D01*
X119148108Y-131208920D01*
X118981078Y-131041890D01*
X118795405Y-130911879D01*
X118751780Y-130857302D01*
X118744588Y-130787804D01*
X118776110Y-130725449D01*
X118795406Y-130708730D01*
X118981401Y-130578495D01*
X119148495Y-130411401D01*
X119284035Y-130217830D01*
X119383903Y-130003663D01*
X119445063Y-129775408D01*
X119458064Y-129626802D01*
X119483516Y-129561735D01*
X119540107Y-129520756D01*
X119609869Y-129516878D01*
X119669273Y-129549930D01*
G37*
%TD.AperFunction*%
%TA.AperFunction,Conductor*%
G36*
X116769895Y-121370185D02*
G01*
X116815650Y-121422989D01*
X116825594Y-121492147D01*
X116822631Y-121506593D01*
X116774938Y-121684586D01*
X116774936Y-121684596D01*
X116754341Y-121919999D01*
X116754341Y-121920000D01*
X116774936Y-122155403D01*
X116774938Y-122155413D01*
X116836094Y-122383655D01*
X116836096Y-122383659D01*
X116836097Y-122383663D01*
X116922625Y-122569222D01*
X116935965Y-122597830D01*
X116935967Y-122597834D01*
X117071501Y-122791395D01*
X117071506Y-122791402D01*
X117238597Y-122958493D01*
X117238603Y-122958498D01*
X117424158Y-123088425D01*
X117467783Y-123143002D01*
X117474977Y-123212500D01*
X117443454Y-123274855D01*
X117424158Y-123291575D01*
X117238597Y-123421505D01*
X117071505Y-123588597D01*
X116935965Y-123782169D01*
X116935964Y-123782171D01*
X116836098Y-123996335D01*
X116836094Y-123996344D01*
X116774938Y-124224586D01*
X116774936Y-124224596D01*
X116754341Y-124459999D01*
X116754341Y-124460000D01*
X116774936Y-124695403D01*
X116774938Y-124695413D01*
X116836094Y-124923655D01*
X116836096Y-124923659D01*
X116836097Y-124923663D01*
X116898469Y-125057420D01*
X116935965Y-125137830D01*
X116935967Y-125137834D01*
X117071501Y-125331395D01*
X117071506Y-125331402D01*
X117238597Y-125498493D01*
X117238603Y-125498498D01*
X117424158Y-125628425D01*
X117467783Y-125683002D01*
X117474977Y-125752500D01*
X117443454Y-125814855D01*
X117424158Y-125831575D01*
X117238597Y-125961505D01*
X117071505Y-126128597D01*
X116935965Y-126322169D01*
X116935964Y-126322171D01*
X116836098Y-126536335D01*
X116836094Y-126536344D01*
X116774938Y-126764586D01*
X116774936Y-126764596D01*
X116754341Y-126999999D01*
X116754341Y-127000000D01*
X116774936Y-127235403D01*
X116774938Y-127235413D01*
X116836094Y-127463655D01*
X116836096Y-127463659D01*
X116836097Y-127463663D01*
X116921748Y-127647341D01*
X116935965Y-127677830D01*
X116935967Y-127677834D01*
X117071501Y-127871395D01*
X117071506Y-127871402D01*
X117238597Y-128038493D01*
X117238603Y-128038498D01*
X117424158Y-128168425D01*
X117467783Y-128223002D01*
X117474977Y-128292500D01*
X117443454Y-128354855D01*
X117424158Y-128371575D01*
X117238597Y-128501505D01*
X117071505Y-128668597D01*
X116935965Y-128862169D01*
X116935964Y-128862171D01*
X116836098Y-129076335D01*
X116836094Y-129076344D01*
X116774938Y-129304586D01*
X116774936Y-129304596D01*
X116754341Y-129539999D01*
X116754341Y-129540000D01*
X116774936Y-129775403D01*
X116774938Y-129775413D01*
X116836094Y-130003655D01*
X116836096Y-130003659D01*
X116836097Y-130003663D01*
X116885933Y-130110536D01*
X116935965Y-130217830D01*
X116935967Y-130217834D01*
X117071501Y-130411395D01*
X117071506Y-130411402D01*
X117238597Y-130578493D01*
X117238603Y-130578498D01*
X117424594Y-130708730D01*
X117468219Y-130763307D01*
X117475413Y-130832805D01*
X117443890Y-130895160D01*
X117424595Y-130911880D01*
X117238922Y-131041890D01*
X117238920Y-131041891D01*
X117071891Y-131208920D01*
X117071886Y-131208926D01*
X116936400Y-131402420D01*
X116936399Y-131402422D01*
X116836570Y-131616507D01*
X116836567Y-131616513D01*
X116779364Y-131829999D01*
X116779364Y-131830000D01*
X117676988Y-131830000D01*
X117644075Y-131887007D01*
X117610000Y-132014174D01*
X117610000Y-132145826D01*
X117644075Y-132272993D01*
X117676988Y-132330000D01*
X116779364Y-132330000D01*
X116836567Y-132543486D01*
X116836570Y-132543492D01*
X116936399Y-132757578D01*
X117071894Y-132951082D01*
X117238917Y-133118105D01*
X117424595Y-133248119D01*
X117468219Y-133302696D01*
X117475412Y-133372195D01*
X117443890Y-133434549D01*
X117424595Y-133451269D01*
X117238594Y-133581508D01*
X117071505Y-133748597D01*
X116935965Y-133942169D01*
X116935964Y-133942171D01*
X116836098Y-134156335D01*
X116836094Y-134156344D01*
X116774938Y-134384586D01*
X116774936Y-134384596D01*
X116754341Y-134619999D01*
X116754341Y-134620000D01*
X116774936Y-134855403D01*
X116774938Y-134855413D01*
X116836094Y-135083655D01*
X116836096Y-135083659D01*
X116836097Y-135083663D01*
X116923822Y-135271789D01*
X116935965Y-135297830D01*
X116935967Y-135297834D01*
X117071501Y-135491395D01*
X117071506Y-135491402D01*
X117238597Y-135658493D01*
X117238603Y-135658498D01*
X117424158Y-135788425D01*
X117467783Y-135843002D01*
X117474977Y-135912500D01*
X117443454Y-135974855D01*
X117424158Y-135991575D01*
X117238597Y-136121505D01*
X117071505Y-136288597D01*
X116935965Y-136482169D01*
X116935964Y-136482171D01*
X116836098Y-136696335D01*
X116836094Y-136696344D01*
X116774938Y-136924586D01*
X116774936Y-136924596D01*
X116754341Y-137159999D01*
X116754341Y-137160000D01*
X116774936Y-137395403D01*
X116774939Y-137395419D01*
X116776328Y-137400602D01*
X116774662Y-137470452D01*
X116735497Y-137528312D01*
X116671268Y-137555814D01*
X116602366Y-137544224D01*
X116568871Y-137520371D01*
X116506819Y-137458319D01*
X116473334Y-137396996D01*
X116470500Y-137370638D01*
X116470500Y-132626307D01*
X116470499Y-132626303D01*
X116449531Y-132520890D01*
X116435895Y-132452334D01*
X116370339Y-132294071D01*
X116368694Y-132289472D01*
X116282518Y-132160502D01*
X116282517Y-132160499D01*
X116269465Y-132140965D01*
X114239035Y-130110535D01*
X114239030Y-130110531D01*
X114179961Y-130071064D01*
X114179960Y-130071063D01*
X114091544Y-130011985D01*
X114091542Y-130011984D01*
X114009607Y-129978046D01*
X114009606Y-129978046D01*
X113927666Y-129944105D01*
X113927658Y-129944103D01*
X113753696Y-129909500D01*
X113753692Y-129909500D01*
X113753691Y-129909500D01*
X102066709Y-129909500D01*
X101999670Y-129889815D01*
X101953915Y-129837011D01*
X101943971Y-129767853D01*
X101972996Y-129704297D01*
X102031774Y-129666523D01*
X102044357Y-129663531D01*
X102247341Y-129626332D01*
X102559164Y-129529164D01*
X102559175Y-129529160D01*
X102857041Y-129395102D01*
X102857043Y-129395101D01*
X103136586Y-129226112D01*
X103324968Y-129078523D01*
X103324968Y-129078522D01*
X102182737Y-127936290D01*
X102316602Y-127839033D01*
X102439033Y-127716602D01*
X102536290Y-127582737D01*
X103678522Y-128724968D01*
X103678523Y-128724968D01*
X103826112Y-128536586D01*
X103995101Y-128257043D01*
X103995102Y-128257041D01*
X104129160Y-127959175D01*
X104129164Y-127959164D01*
X104226332Y-127647341D01*
X104285213Y-127326038D01*
X104304934Y-127000000D01*
X104285213Y-126673961D01*
X104226332Y-126352658D01*
X104129164Y-126040835D01*
X104129160Y-126040824D01*
X103995102Y-125742958D01*
X103995101Y-125742956D01*
X103826110Y-125463410D01*
X103826106Y-125463405D01*
X103769359Y-125390973D01*
X103743509Y-125326061D01*
X103756857Y-125257479D01*
X103805165Y-125207000D01*
X103866969Y-125190500D01*
X111163996Y-125190500D01*
X111255040Y-125172389D01*
X111299328Y-125163580D01*
X111383961Y-125128524D01*
X111426807Y-125110777D01*
X111426808Y-125110776D01*
X111426811Y-125110775D01*
X111541543Y-125034114D01*
X115188838Y-121386819D01*
X115250161Y-121353334D01*
X115276519Y-121350500D01*
X116702856Y-121350500D01*
X116769895Y-121370185D01*
G37*
%TD.AperFunction*%
%TA.AperFunction,Conductor*%
G36*
X137013834Y-120267868D02*
G01*
X137069767Y-120309740D01*
X137094184Y-120375204D01*
X137094500Y-120384050D01*
X137094500Y-120581006D01*
X137094500Y-120718994D01*
X137094500Y-120718996D01*
X137094499Y-120718996D01*
X137121418Y-120854322D01*
X137121421Y-120854332D01*
X137174222Y-120981807D01*
X137250887Y-121096545D01*
X137250888Y-121096546D01*
X139790886Y-123636542D01*
X139871355Y-123717011D01*
X139888459Y-123734115D01*
X140003184Y-123810772D01*
X140003185Y-123810772D01*
X140003189Y-123810775D01*
X140044248Y-123827782D01*
X140130671Y-123863580D01*
X140130675Y-123863580D01*
X140130676Y-123863581D01*
X140130679Y-123863582D01*
X140157545Y-123868925D01*
X140157551Y-123868926D01*
X140157591Y-123868934D01*
X140247937Y-123886905D01*
X140266006Y-123890500D01*
X140266007Y-123890500D01*
X147790166Y-123890500D01*
X147857205Y-123910185D01*
X147902960Y-123962989D01*
X147913568Y-124026652D01*
X147903568Y-124128196D01*
X147902159Y-124142500D01*
X147921475Y-124338629D01*
X147928436Y-124361577D01*
X147958292Y-124459999D01*
X147978688Y-124527233D01*
X148071586Y-124701032D01*
X148071590Y-124701039D01*
X148196616Y-124853383D01*
X148348960Y-124978409D01*
X148348967Y-124978413D01*
X148522766Y-125071311D01*
X148522769Y-125071311D01*
X148522773Y-125071314D01*
X148711368Y-125128524D01*
X148907500Y-125147841D01*
X149103632Y-125128524D01*
X149292227Y-125071314D01*
X149317806Y-125057641D01*
X149376259Y-125043000D01*
X150248589Y-125043000D01*
X150315628Y-125062685D01*
X150361383Y-125115489D01*
X150371327Y-125184647D01*
X150346200Y-125243473D01*
X150173888Y-125463413D01*
X150004898Y-125742956D01*
X150004897Y-125742958D01*
X149870839Y-126040824D01*
X149870835Y-126040835D01*
X149773667Y-126352658D01*
X149714786Y-126673961D01*
X149695065Y-127000000D01*
X149714786Y-127326038D01*
X149773667Y-127647341D01*
X149870835Y-127959164D01*
X149870839Y-127959175D01*
X150004897Y-128257041D01*
X150004898Y-128257043D01*
X150173881Y-128536576D01*
X150321476Y-128724968D01*
X151463708Y-127582736D01*
X151560967Y-127716602D01*
X151683398Y-127839033D01*
X151817262Y-127936290D01*
X150675030Y-129078522D01*
X150675030Y-129078523D01*
X150863423Y-129226118D01*
X151142956Y-129395101D01*
X151142958Y-129395102D01*
X151440824Y-129529160D01*
X151440835Y-129529164D01*
X151752658Y-129626332D01*
X152073961Y-129685213D01*
X152400000Y-129704934D01*
X152726038Y-129685213D01*
X153047341Y-129626332D01*
X153359164Y-129529164D01*
X153359175Y-129529160D01*
X153657041Y-129395102D01*
X153657043Y-129395101D01*
X153936586Y-129226112D01*
X154124968Y-129078523D01*
X154124968Y-129078522D01*
X152982737Y-127936290D01*
X153116602Y-127839033D01*
X153239033Y-127716602D01*
X153336290Y-127582737D01*
X154478522Y-128724968D01*
X154478523Y-128724968D01*
X154626112Y-128536586D01*
X154795101Y-128257043D01*
X154795102Y-128257041D01*
X154929160Y-127959175D01*
X154929164Y-127959164D01*
X155026332Y-127647341D01*
X155085213Y-127326038D01*
X155104934Y-127000000D01*
X155085213Y-126673961D01*
X155026332Y-126352658D01*
X154929164Y-126040835D01*
X154929160Y-126040824D01*
X154795102Y-125742958D01*
X154795101Y-125742956D01*
X154626111Y-125463413D01*
X154453800Y-125243473D01*
X154427951Y-125178561D01*
X154441300Y-125109978D01*
X154489608Y-125059499D01*
X154551411Y-125043000D01*
X158008138Y-125043000D01*
X158075177Y-125062685D01*
X158095819Y-125079319D01*
X161173181Y-128156680D01*
X161206666Y-128218003D01*
X161209500Y-128244361D01*
X161209500Y-129172870D01*
X161209501Y-129172876D01*
X161215908Y-129232483D01*
X161266202Y-129367328D01*
X161266206Y-129367335D01*
X161352452Y-129482544D01*
X161352455Y-129482547D01*
X161467664Y-129568793D01*
X161467671Y-129568797D01*
X161602517Y-129619091D01*
X161602516Y-129619091D01*
X161609444Y-129619835D01*
X161662127Y-129625500D01*
X163457872Y-129625499D01*
X163517483Y-129619091D01*
X163652331Y-129568796D01*
X163767546Y-129482546D01*
X163853796Y-129367331D01*
X163904091Y-129232483D01*
X163910500Y-129172873D01*
X163910499Y-127377128D01*
X163904091Y-127317517D01*
X163881737Y-127257584D01*
X163853797Y-127182671D01*
X163853793Y-127182664D01*
X163767547Y-127067455D01*
X163767544Y-127067452D01*
X163652335Y-126981206D01*
X163652328Y-126981202D01*
X163520401Y-126931997D01*
X163464467Y-126890126D01*
X163440050Y-126824662D01*
X163454902Y-126756389D01*
X163476053Y-126728133D01*
X163598104Y-126606082D01*
X163599484Y-126604112D01*
X163600321Y-126603442D01*
X163601588Y-126601933D01*
X163601891Y-126602187D01*
X163654057Y-126560482D01*
X163723554Y-126553281D01*
X163785912Y-126584797D01*
X163815628Y-126627772D01*
X163824957Y-126650294D01*
X163844225Y-126696811D01*
X163863839Y-126726166D01*
X163920887Y-126811545D01*
X163920888Y-126811546D01*
X171357348Y-134248005D01*
X171390833Y-134309328D01*
X171389442Y-134367778D01*
X171384939Y-134384584D01*
X171384936Y-134384597D01*
X171371935Y-134533196D01*
X171346482Y-134598265D01*
X171289891Y-134639243D01*
X171220129Y-134643121D01*
X171160726Y-134610069D01*
X166816546Y-130265888D01*
X166816545Y-130265887D01*
X166701807Y-130189222D01*
X166574332Y-130136421D01*
X166574322Y-130136418D01*
X166438996Y-130109500D01*
X166438994Y-130109500D01*
X166438993Y-130109500D01*
X139406519Y-130109500D01*
X139339480Y-130089815D01*
X139318838Y-130073181D01*
X137079725Y-127834068D01*
X137046240Y-127772745D01*
X137051224Y-127703053D01*
X137061861Y-127682824D01*
X137061329Y-127682517D01*
X137064031Y-127677834D01*
X137064035Y-127677830D01*
X137163903Y-127463663D01*
X137225063Y-127235408D01*
X137245659Y-127000000D01*
X137225063Y-126764592D01*
X137176888Y-126584797D01*
X137163905Y-126536344D01*
X137163904Y-126536343D01*
X137163903Y-126536337D01*
X137064035Y-126322171D01*
X137045715Y-126296006D01*
X136928494Y-126128597D01*
X136761402Y-125961506D01*
X136761395Y-125961501D01*
X136567834Y-125825967D01*
X136567830Y-125825965D01*
X136534968Y-125810641D01*
X136482530Y-125764470D01*
X136463378Y-125697276D01*
X136483594Y-125630395D01*
X136531080Y-125587775D01*
X136554952Y-125575612D01*
X136645405Y-125529524D01*
X136804646Y-125413828D01*
X136943828Y-125274646D01*
X137059524Y-125115405D01*
X137148884Y-124940025D01*
X137209709Y-124752826D01*
X137217911Y-124701039D01*
X137240500Y-124558422D01*
X137240500Y-124361577D01*
X137209709Y-124167173D01*
X137164485Y-124027989D01*
X137148884Y-123979975D01*
X137148882Y-123979972D01*
X137148882Y-123979970D01*
X137092306Y-123868934D01*
X137059524Y-123804595D01*
X136943828Y-123645354D01*
X136804646Y-123506172D01*
X136688113Y-123421505D01*
X136645403Y-123390474D01*
X136468787Y-123300485D01*
X136417990Y-123252511D01*
X136401195Y-123184690D01*
X136423732Y-123118555D01*
X136468787Y-123079515D01*
X136645403Y-122989525D01*
X136645402Y-122989525D01*
X136645405Y-122989524D01*
X136804646Y-122873828D01*
X136943828Y-122734646D01*
X137059524Y-122575405D01*
X137148884Y-122400025D01*
X137209709Y-122212826D01*
X137214354Y-122183497D01*
X137240500Y-122018422D01*
X137240500Y-121821577D01*
X137209709Y-121627173D01*
X137148882Y-121439970D01*
X137059523Y-121264594D01*
X137042097Y-121240609D01*
X136943828Y-121105354D01*
X136804646Y-120966172D01*
X136645405Y-120850476D01*
X136636879Y-120846132D01*
X136530514Y-120791936D01*
X136479718Y-120743961D01*
X136462923Y-120676140D01*
X136485460Y-120610005D01*
X136534405Y-120569068D01*
X136567580Y-120553598D01*
X136761082Y-120418105D01*
X136882819Y-120296369D01*
X136944142Y-120262884D01*
X137013834Y-120267868D01*
G37*
%TD.AperFunction*%
%TA.AperFunction,Conductor*%
G36*
X119669273Y-127009930D02*
G01*
X124013451Y-131354109D01*
X124013454Y-131354112D01*
X124058240Y-131384037D01*
X124128182Y-131430771D01*
X124128195Y-131430778D01*
X124255667Y-131483578D01*
X124255672Y-131483580D01*
X124255676Y-131483580D01*
X124255677Y-131483581D01*
X124391004Y-131510500D01*
X124391007Y-131510500D01*
X134483374Y-131510500D01*
X134550413Y-131530185D01*
X134596168Y-131582989D01*
X134606112Y-131652147D01*
X134603149Y-131666594D01*
X134559364Y-131829999D01*
X134559364Y-131830000D01*
X135456988Y-131830000D01*
X135424075Y-131887007D01*
X135390000Y-132014174D01*
X135390000Y-132145826D01*
X135424075Y-132272993D01*
X135456988Y-132330000D01*
X134559364Y-132330000D01*
X134603149Y-132493406D01*
X134601486Y-132563256D01*
X134562324Y-132621119D01*
X134498095Y-132648623D01*
X134483374Y-132649500D01*
X124801519Y-132649500D01*
X124734480Y-132629815D01*
X124713838Y-132613181D01*
X119472651Y-127371994D01*
X119439166Y-127310671D01*
X119440558Y-127252217D01*
X119445063Y-127235408D01*
X119458064Y-127086802D01*
X119483516Y-127021735D01*
X119540107Y-126980756D01*
X119609869Y-126976878D01*
X119669273Y-127009930D01*
G37*
%TD.AperFunction*%
%TA.AperFunction,Conductor*%
G36*
X119669273Y-124469930D02*
G01*
X123915886Y-128716543D01*
X124028456Y-128829113D01*
X124143190Y-128905776D01*
X124241790Y-128946617D01*
X124270671Y-128958580D01*
X124270672Y-128958580D01*
X124270677Y-128958582D01*
X124297545Y-128963925D01*
X124297551Y-128963926D01*
X124297591Y-128963934D01*
X124387937Y-128981905D01*
X124406006Y-128985500D01*
X124406007Y-128985500D01*
X134478837Y-128985500D01*
X134545876Y-129005185D01*
X134591631Y-129057989D01*
X134601575Y-129127147D01*
X134598612Y-129141593D01*
X134554938Y-129304586D01*
X134554936Y-129304596D01*
X134534341Y-129539999D01*
X134534341Y-129540000D01*
X134554936Y-129775403D01*
X134554938Y-129775413D01*
X134602631Y-129953407D01*
X134600968Y-130023257D01*
X134561805Y-130081119D01*
X134497577Y-130108623D01*
X134482856Y-130109500D01*
X124801519Y-130109500D01*
X124734480Y-130089815D01*
X124713838Y-130073181D01*
X119472651Y-124831994D01*
X119439166Y-124770671D01*
X119440558Y-124712217D01*
X119445063Y-124695408D01*
X119458064Y-124546802D01*
X119483516Y-124481735D01*
X119540107Y-124440756D01*
X119609869Y-124436878D01*
X119669273Y-124469930D01*
G37*
%TD.AperFunction*%
%TA.AperFunction,Conductor*%
G36*
X100096525Y-124545185D02*
G01*
X100142280Y-124597989D01*
X100152224Y-124667147D01*
X100123199Y-124730703D01*
X100093636Y-124755617D01*
X100063422Y-124773881D01*
X100063416Y-124773886D01*
X99875030Y-124921474D01*
X99875029Y-124921476D01*
X101017262Y-126063709D01*
X100883398Y-126160967D01*
X100760967Y-126283398D01*
X100663709Y-126417262D01*
X99521476Y-125275029D01*
X99521474Y-125275030D01*
X99373886Y-125463416D01*
X99373881Y-125463422D01*
X99204898Y-125742956D01*
X99204897Y-125742958D01*
X99070839Y-126040824D01*
X99070835Y-126040835D01*
X98973667Y-126352658D01*
X98914786Y-126673961D01*
X98895065Y-127000000D01*
X98914786Y-127326038D01*
X98973667Y-127647341D01*
X99070835Y-127959164D01*
X99070839Y-127959175D01*
X99204897Y-128257041D01*
X99204898Y-128257043D01*
X99373881Y-128536576D01*
X99521476Y-128724968D01*
X100663708Y-127582736D01*
X100760967Y-127716602D01*
X100883398Y-127839033D01*
X101017262Y-127936290D01*
X99875030Y-129078522D01*
X99875030Y-129078523D01*
X100063423Y-129226118D01*
X100342956Y-129395101D01*
X100342958Y-129395102D01*
X100640824Y-129529160D01*
X100640835Y-129529164D01*
X100952658Y-129626332D01*
X101155643Y-129663531D01*
X101218036Y-129694977D01*
X101253523Y-129755164D01*
X101250837Y-129824982D01*
X101210832Y-129882265D01*
X101146207Y-129908825D01*
X101133291Y-129909500D01*
X94404361Y-129909500D01*
X94337322Y-129889815D01*
X94316680Y-129873181D01*
X92826818Y-128383318D01*
X92793333Y-128321995D01*
X92790499Y-128295637D01*
X92790499Y-127372129D01*
X92790498Y-127372123D01*
X92790497Y-127372116D01*
X92785043Y-127321372D01*
X92784091Y-127312516D01*
X92733797Y-127177671D01*
X92733793Y-127177664D01*
X92647547Y-127062455D01*
X92647544Y-127062452D01*
X92532335Y-126976206D01*
X92532328Y-126976202D01*
X92400401Y-126926997D01*
X92344467Y-126885126D01*
X92320050Y-126819662D01*
X92334902Y-126751389D01*
X92356053Y-126723133D01*
X92478108Y-126601078D01*
X92613600Y-126407578D01*
X92713429Y-126193492D01*
X92713432Y-126193486D01*
X92770636Y-125980000D01*
X91873012Y-125980000D01*
X91905925Y-125922993D01*
X91940000Y-125795826D01*
X91940000Y-125664174D01*
X91905925Y-125537007D01*
X91873012Y-125480000D01*
X92770636Y-125480000D01*
X92770635Y-125479999D01*
X92713432Y-125266513D01*
X92713429Y-125266507D01*
X92613600Y-125052422D01*
X92613599Y-125052420D01*
X92478113Y-124858926D01*
X92478108Y-124858920D01*
X92356369Y-124737181D01*
X92322884Y-124675858D01*
X92327868Y-124606166D01*
X92369740Y-124550233D01*
X92435204Y-124525816D01*
X92444050Y-124525500D01*
X100029486Y-124525500D01*
X100096525Y-124545185D01*
G37*
%TD.AperFunction*%
%TA.AperFunction,Conductor*%
G36*
X134461740Y-114281428D02*
G01*
X134517674Y-114323299D01*
X134541935Y-114386802D01*
X134554936Y-114535403D01*
X134554938Y-114535413D01*
X134616094Y-114763655D01*
X134616096Y-114763659D01*
X134616097Y-114763663D01*
X134685500Y-114912497D01*
X134715965Y-114977830D01*
X134715967Y-114977834D01*
X134851501Y-115171395D01*
X134851506Y-115171402D01*
X135018597Y-115338493D01*
X135018603Y-115338498D01*
X135204158Y-115468425D01*
X135247783Y-115523002D01*
X135254977Y-115592500D01*
X135223454Y-115654855D01*
X135204158Y-115671575D01*
X135018597Y-115801505D01*
X134851505Y-115968597D01*
X134715965Y-116162169D01*
X134715964Y-116162171D01*
X134616098Y-116376335D01*
X134616094Y-116376344D01*
X134554938Y-116604586D01*
X134554936Y-116604596D01*
X134534341Y-116839999D01*
X134534341Y-116840000D01*
X134554936Y-117075403D01*
X134554938Y-117075413D01*
X134616094Y-117303655D01*
X134616096Y-117303659D01*
X134616097Y-117303663D01*
X134665450Y-117409500D01*
X134715965Y-117517830D01*
X134715967Y-117517834D01*
X134851501Y-117711395D01*
X134851506Y-117711402D01*
X135018597Y-117878493D01*
X135018603Y-117878498D01*
X135040945Y-117894142D01*
X135182387Y-117993181D01*
X135204594Y-118008730D01*
X135248219Y-118063307D01*
X135255413Y-118132805D01*
X135223890Y-118195160D01*
X135204595Y-118211880D01*
X135018922Y-118341890D01*
X135018920Y-118341891D01*
X134851891Y-118508920D01*
X134851886Y-118508926D01*
X134716400Y-118702420D01*
X134716399Y-118702422D01*
X134616570Y-118916507D01*
X134616567Y-118916513D01*
X134559364Y-119129999D01*
X134559364Y-119130000D01*
X135456988Y-119130000D01*
X135424075Y-119187007D01*
X135390000Y-119314174D01*
X135390000Y-119445826D01*
X135424075Y-119572993D01*
X135456988Y-119630000D01*
X134559364Y-119630000D01*
X134616567Y-119843486D01*
X134616570Y-119843492D01*
X134716399Y-120057578D01*
X134851894Y-120251082D01*
X135018917Y-120418105D01*
X135212421Y-120553600D01*
X135245595Y-120569069D01*
X135298034Y-120615241D01*
X135317186Y-120682435D01*
X135296970Y-120749316D01*
X135249485Y-120791936D01*
X135134594Y-120850476D01*
X135083552Y-120887561D01*
X134975354Y-120966172D01*
X134975352Y-120966174D01*
X134975351Y-120966174D01*
X134836174Y-121105351D01*
X134836174Y-121105352D01*
X134836172Y-121105354D01*
X134818400Y-121129815D01*
X134720476Y-121264594D01*
X134631117Y-121439970D01*
X134570290Y-121627173D01*
X134539500Y-121821577D01*
X134539500Y-122018422D01*
X134570290Y-122212826D01*
X134631117Y-122400029D01*
X134690422Y-122516421D01*
X134720476Y-122575405D01*
X134836172Y-122734646D01*
X134975354Y-122873828D01*
X135134595Y-122989524D01*
X135227655Y-123036940D01*
X135311213Y-123079515D01*
X135362009Y-123127489D01*
X135378804Y-123195310D01*
X135356267Y-123261445D01*
X135311213Y-123300485D01*
X135134594Y-123390476D01*
X135091887Y-123421505D01*
X134975354Y-123506172D01*
X134975352Y-123506174D01*
X134975351Y-123506174D01*
X134836174Y-123645351D01*
X134836174Y-123645352D01*
X134836172Y-123645354D01*
X134820616Y-123666765D01*
X134720476Y-123804594D01*
X134631117Y-123979970D01*
X134570290Y-124167173D01*
X134539500Y-124361577D01*
X134539500Y-124558422D01*
X134570290Y-124752826D01*
X134631117Y-124940029D01*
X134702089Y-125079319D01*
X134720476Y-125115405D01*
X134836172Y-125274646D01*
X134975354Y-125413828D01*
X135134595Y-125529524D01*
X135248920Y-125587775D01*
X135299716Y-125635749D01*
X135316511Y-125703570D01*
X135293974Y-125769705D01*
X135245031Y-125810642D01*
X135212168Y-125825966D01*
X135018597Y-125961505D01*
X134851505Y-126128597D01*
X134715965Y-126322169D01*
X134715964Y-126322171D01*
X134616098Y-126536335D01*
X134616094Y-126536344D01*
X134554938Y-126764586D01*
X134554936Y-126764596D01*
X134534341Y-126999999D01*
X134534341Y-127000000D01*
X134554936Y-127235403D01*
X134554938Y-127235413D01*
X134606650Y-127428407D01*
X134604987Y-127498257D01*
X134565824Y-127556119D01*
X134501596Y-127583623D01*
X134486875Y-127584500D01*
X124816519Y-127584500D01*
X124749480Y-127564815D01*
X124728838Y-127548181D01*
X124037838Y-126857181D01*
X124004353Y-126795858D01*
X124009337Y-126726166D01*
X124051209Y-126670233D01*
X124116673Y-126645816D01*
X124125519Y-126645500D01*
X125550003Y-126645500D01*
X125550008Y-126645500D01*
X125652797Y-126634999D01*
X125819334Y-126579814D01*
X125968655Y-126487711D01*
X126092711Y-126363655D01*
X126184814Y-126214334D01*
X126239999Y-126047797D01*
X126250500Y-125945008D01*
X126250500Y-124244992D01*
X126239999Y-124142203D01*
X126235358Y-124128196D01*
X126232146Y-124118502D01*
X126229745Y-124048674D01*
X126265477Y-123988633D01*
X126327998Y-123957441D01*
X126349852Y-123955500D01*
X127965207Y-123955500D01*
X128032246Y-123975185D01*
X128078001Y-124027989D01*
X128087945Y-124097147D01*
X128059497Y-124160030D01*
X128053397Y-124167174D01*
X128041738Y-124180824D01*
X128041737Y-124180826D01*
X127914222Y-124388910D01*
X127820830Y-124614380D01*
X127820828Y-124614387D01*
X127820828Y-124614388D01*
X127800026Y-124701032D01*
X127763853Y-124851702D01*
X127744706Y-125095000D01*
X127763853Y-125338297D01*
X127763853Y-125338300D01*
X127763854Y-125338302D01*
X127809763Y-125529525D01*
X127820830Y-125575619D01*
X127914222Y-125801089D01*
X128041737Y-126009173D01*
X128041738Y-126009176D01*
X128074722Y-126047795D01*
X128200241Y-126194759D01*
X128304024Y-126283398D01*
X128385823Y-126353261D01*
X128385826Y-126353262D01*
X128593910Y-126480777D01*
X128768952Y-126553281D01*
X128807693Y-126569328D01*
X128819381Y-126574169D01*
X128819378Y-126574169D01*
X128819384Y-126574170D01*
X128819388Y-126574172D01*
X129056698Y-126631146D01*
X129300000Y-126650294D01*
X129543302Y-126631146D01*
X129780612Y-126574172D01*
X130006089Y-126480777D01*
X130214179Y-126353259D01*
X130399759Y-126194759D01*
X130558259Y-126009179D01*
X130685777Y-125801089D01*
X130779172Y-125575612D01*
X130836146Y-125338302D01*
X130855294Y-125095000D01*
X130836146Y-124851698D01*
X130779172Y-124614388D01*
X130779169Y-124614380D01*
X130685777Y-124388910D01*
X130558262Y-124180826D01*
X130558261Y-124180824D01*
X130558260Y-124180823D01*
X130558259Y-124180821D01*
X130540502Y-124160030D01*
X130511932Y-124096271D01*
X130522369Y-124027185D01*
X130568500Y-123974709D01*
X130634793Y-123955500D01*
X132438945Y-123955500D01*
X132547361Y-123933934D01*
X132574277Y-123928580D01*
X132666211Y-123890500D01*
X132701756Y-123875777D01*
X132701757Y-123875776D01*
X132701760Y-123875775D01*
X132816492Y-123799114D01*
X133894113Y-122721492D01*
X133895350Y-122719640D01*
X133897730Y-122716081D01*
X133970774Y-122606762D01*
X133974474Y-122597830D01*
X134023580Y-122479277D01*
X134025687Y-122468687D01*
X134025688Y-122468684D01*
X134036791Y-122412864D01*
X134036791Y-122412861D01*
X134047758Y-122357725D01*
X134050500Y-122343943D01*
X134050500Y-114641518D01*
X134070185Y-114574479D01*
X134086819Y-114553837D01*
X134105254Y-114535402D01*
X134330728Y-114309927D01*
X134392049Y-114276444D01*
X134461740Y-114281428D01*
G37*
%TD.AperFunction*%
%TA.AperFunction,Conductor*%
G36*
X162920520Y-123910185D02*
G01*
X162941162Y-123926819D01*
X163373946Y-124359603D01*
X163407431Y-124420926D01*
X163402447Y-124490618D01*
X163360575Y-124546551D01*
X163295111Y-124570968D01*
X163233860Y-124559666D01*
X163023492Y-124461570D01*
X163023486Y-124461567D01*
X162810000Y-124404364D01*
X162810000Y-125301988D01*
X162752993Y-125269075D01*
X162625826Y-125235000D01*
X162494174Y-125235000D01*
X162367007Y-125269075D01*
X162310000Y-125301988D01*
X162310000Y-124404364D01*
X162309999Y-124404364D01*
X162096513Y-124461567D01*
X162096507Y-124461570D01*
X161882422Y-124561399D01*
X161882420Y-124561400D01*
X161688926Y-124696886D01*
X161688920Y-124696891D01*
X161521891Y-124863920D01*
X161521886Y-124863926D01*
X161386400Y-125057420D01*
X161386399Y-125057422D01*
X161286570Y-125271507D01*
X161286567Y-125271514D01*
X161246730Y-125420188D01*
X161210365Y-125479848D01*
X161147518Y-125510377D01*
X161078142Y-125502082D01*
X161039274Y-125475775D01*
X160954472Y-125390973D01*
X159665681Y-124102181D01*
X159632196Y-124040858D01*
X159637180Y-123971166D01*
X159679052Y-123915233D01*
X159744516Y-123890816D01*
X159753362Y-123890500D01*
X162853481Y-123890500D01*
X162920520Y-123910185D01*
G37*
%TD.AperFunction*%
%TA.AperFunction,Conductor*%
G36*
X135892211Y-81780578D02*
G01*
X136393484Y-81798482D01*
X136402277Y-81799110D01*
X136898832Y-81852495D01*
X136907548Y-81853748D01*
X137399028Y-81942421D01*
X137407636Y-81944294D01*
X137891513Y-82067797D01*
X137899993Y-82070287D01*
X138373801Y-82227985D01*
X138382093Y-82231077D01*
X138843464Y-82422183D01*
X138851503Y-82425855D01*
X139298055Y-82649383D01*
X139305803Y-82653612D01*
X139735296Y-82908442D01*
X139742730Y-82913221D01*
X140152914Y-83198018D01*
X140160000Y-83203322D01*
X140360799Y-83365135D01*
X140548840Y-83516668D01*
X140555516Y-83522453D01*
X140738264Y-83692597D01*
X140921005Y-83862735D01*
X140927264Y-83868994D01*
X141267540Y-84234476D01*
X141273337Y-84241166D01*
X141586677Y-84629999D01*
X141591981Y-84637085D01*
X141876778Y-85047269D01*
X141881561Y-85054710D01*
X142096924Y-85417686D01*
X142136377Y-85484179D01*
X142140619Y-85491949D01*
X142364141Y-85938490D01*
X142367818Y-85946541D01*
X142558921Y-86407904D01*
X142562014Y-86416198D01*
X142719710Y-86890000D01*
X142722204Y-86898493D01*
X142845700Y-87382343D01*
X142847582Y-87390992D01*
X142936247Y-87882428D01*
X142937507Y-87891190D01*
X142990887Y-88387704D01*
X142991518Y-88396533D01*
X143009421Y-88897788D01*
X143009500Y-88902214D01*
X143009500Y-119361274D01*
X143009277Y-119368703D01*
X143006450Y-119415787D01*
X143006981Y-119418377D01*
X143009500Y-119443242D01*
X143009500Y-119445895D01*
X143018031Y-119477733D01*
X143021135Y-119489319D01*
X143021706Y-119491448D01*
X143023412Y-119498674D01*
X143023813Y-119500633D01*
X143017972Y-119570258D01*
X142975417Y-119625673D01*
X142909657Y-119649283D01*
X142902332Y-119649500D01*
X142705782Y-119649500D01*
X142638743Y-119629815D01*
X142618101Y-119613181D01*
X142006819Y-119001899D01*
X141973334Y-118940576D01*
X141970500Y-118914218D01*
X141970500Y-100866456D01*
X141932052Y-100673170D01*
X141932051Y-100673169D01*
X141932051Y-100673165D01*
X141885801Y-100561506D01*
X141856635Y-100491092D01*
X141856628Y-100491079D01*
X141747139Y-100327218D01*
X141747136Y-100327214D01*
X141604686Y-100184764D01*
X141604655Y-100184735D01*
X138831819Y-97411899D01*
X138798334Y-97350576D01*
X138795500Y-97324218D01*
X138795500Y-96724499D01*
X138815185Y-96657460D01*
X138867989Y-96611705D01*
X138919495Y-96600499D01*
X140597872Y-96600499D01*
X140657483Y-96594091D01*
X140792331Y-96543796D01*
X140907546Y-96457546D01*
X140993796Y-96342331D01*
X141044091Y-96207483D01*
X141050500Y-96147873D01*
X141050499Y-94352128D01*
X141044091Y-94292517D01*
X140999511Y-94172993D01*
X140993797Y-94157671D01*
X140993793Y-94157664D01*
X140907547Y-94042455D01*
X140907544Y-94042452D01*
X140792335Y-93956206D01*
X140792328Y-93956202D01*
X140660917Y-93907189D01*
X140604983Y-93865318D01*
X140580566Y-93799853D01*
X140595418Y-93731580D01*
X140616563Y-93703332D01*
X140738495Y-93581401D01*
X140874035Y-93387830D01*
X140973903Y-93173663D01*
X141035063Y-92945408D01*
X141055659Y-92710000D01*
X141035063Y-92474592D01*
X140973903Y-92246337D01*
X140874035Y-92032171D01*
X140784054Y-91903663D01*
X140738494Y-91838597D01*
X140571402Y-91671506D01*
X140571401Y-91671505D01*
X140385405Y-91541269D01*
X140341781Y-91486692D01*
X140334588Y-91417193D01*
X140366110Y-91354839D01*
X140385405Y-91338119D01*
X140571082Y-91208105D01*
X140738105Y-91041082D01*
X140873600Y-90847578D01*
X140973429Y-90633492D01*
X140973432Y-90633486D01*
X141030636Y-90420000D01*
X140133012Y-90420000D01*
X140165925Y-90362993D01*
X140200000Y-90235826D01*
X140200000Y-90104174D01*
X140165925Y-89977007D01*
X140133012Y-89920000D01*
X141030636Y-89920000D01*
X141030635Y-89919999D01*
X140973432Y-89706513D01*
X140973429Y-89706507D01*
X140873600Y-89492422D01*
X140873599Y-89492420D01*
X140738113Y-89298926D01*
X140738108Y-89298920D01*
X140571082Y-89131894D01*
X140377578Y-88996399D01*
X140163492Y-88896570D01*
X140163486Y-88896567D01*
X139950000Y-88839364D01*
X139950000Y-89736988D01*
X139892993Y-89704075D01*
X139765826Y-89670000D01*
X139634174Y-89670000D01*
X139507007Y-89704075D01*
X139450000Y-89736988D01*
X139450000Y-88839364D01*
X139449999Y-88839364D01*
X139236513Y-88896567D01*
X139236507Y-88896570D01*
X139022422Y-88996399D01*
X139022420Y-88996400D01*
X138828926Y-89131886D01*
X138828920Y-89131891D01*
X138661891Y-89298920D01*
X138661886Y-89298926D01*
X138526400Y-89492420D01*
X138526399Y-89492422D01*
X138426570Y-89706507D01*
X138426567Y-89706513D01*
X138369364Y-89919999D01*
X138369364Y-89920000D01*
X139266988Y-89920000D01*
X139234075Y-89977007D01*
X139200000Y-90104174D01*
X139200000Y-90235826D01*
X139234075Y-90362993D01*
X139266988Y-90420000D01*
X138369364Y-90420000D01*
X138426567Y-90633486D01*
X138426570Y-90633492D01*
X138526399Y-90847578D01*
X138661894Y-91041082D01*
X138828917Y-91208105D01*
X139014595Y-91338119D01*
X139058219Y-91392696D01*
X139065412Y-91462195D01*
X139033890Y-91524549D01*
X139014595Y-91541269D01*
X138828594Y-91671508D01*
X138661505Y-91838597D01*
X138525965Y-92032169D01*
X138525964Y-92032171D01*
X138426098Y-92246335D01*
X138426094Y-92246344D01*
X138415151Y-92287187D01*
X138378786Y-92346848D01*
X138315939Y-92377377D01*
X138246564Y-92369082D01*
X138207695Y-92342775D01*
X137271890Y-91406970D01*
X137238405Y-91345647D01*
X137236043Y-91330096D01*
X137225063Y-91204597D01*
X137225063Y-91204596D01*
X137225063Y-91204592D01*
X137163903Y-90976337D01*
X137064035Y-90762171D01*
X136999496Y-90670000D01*
X136928496Y-90568600D01*
X136928495Y-90568599D01*
X136806567Y-90446671D01*
X136773084Y-90385351D01*
X136778068Y-90315659D01*
X136819939Y-90259725D01*
X136850915Y-90242810D01*
X136982331Y-90193796D01*
X137097546Y-90107546D01*
X137183796Y-89992331D01*
X137234091Y-89857483D01*
X137240500Y-89797873D01*
X137240499Y-88002128D01*
X137234091Y-87942517D01*
X137214947Y-87891190D01*
X137183797Y-87807671D01*
X137183793Y-87807664D01*
X137097547Y-87692455D01*
X137097544Y-87692452D01*
X136982335Y-87606206D01*
X136982328Y-87606202D01*
X136847482Y-87555908D01*
X136847483Y-87555908D01*
X136787883Y-87549501D01*
X136787881Y-87549500D01*
X136787873Y-87549500D01*
X136787864Y-87549500D01*
X134992129Y-87549500D01*
X134992123Y-87549501D01*
X134932516Y-87555908D01*
X134797671Y-87606202D01*
X134797664Y-87606206D01*
X134682455Y-87692452D01*
X134682452Y-87692455D01*
X134596206Y-87807664D01*
X134596202Y-87807671D01*
X134545908Y-87942517D01*
X134539501Y-88002116D01*
X134539501Y-88002123D01*
X134539500Y-88002135D01*
X134539500Y-89797870D01*
X134539501Y-89797876D01*
X134545908Y-89857483D01*
X134596202Y-89992328D01*
X134596206Y-89992335D01*
X134682452Y-90107544D01*
X134682455Y-90107547D01*
X134797664Y-90193793D01*
X134797671Y-90193797D01*
X134929081Y-90242810D01*
X134985015Y-90284681D01*
X135009432Y-90350145D01*
X134994580Y-90418418D01*
X134973430Y-90446673D01*
X134851503Y-90568600D01*
X134715965Y-90762169D01*
X134715964Y-90762171D01*
X134616098Y-90976335D01*
X134616094Y-90976344D01*
X134554938Y-91204586D01*
X134554936Y-91204596D01*
X134534341Y-91439999D01*
X134534341Y-91440000D01*
X134554936Y-91675403D01*
X134554938Y-91675413D01*
X134616094Y-91903655D01*
X134616096Y-91903659D01*
X134616097Y-91903663D01*
X134715965Y-92117830D01*
X134715967Y-92117834D01*
X134851501Y-92311395D01*
X134851506Y-92311402D01*
X135018597Y-92478493D01*
X135018603Y-92478498D01*
X135204594Y-92608730D01*
X135248219Y-92663307D01*
X135255413Y-92732805D01*
X135223890Y-92795160D01*
X135204595Y-92811880D01*
X135018922Y-92941890D01*
X135018920Y-92941891D01*
X134851891Y-93108920D01*
X134851886Y-93108926D01*
X134716400Y-93302420D01*
X134716399Y-93302422D01*
X134616570Y-93516507D01*
X134616567Y-93516513D01*
X134559364Y-93729999D01*
X134559364Y-93730000D01*
X135456988Y-93730000D01*
X135424075Y-93787007D01*
X135390000Y-93914174D01*
X135390000Y-94045826D01*
X135424075Y-94172993D01*
X135456988Y-94230000D01*
X134559364Y-94230000D01*
X134616567Y-94443486D01*
X134616570Y-94443492D01*
X134716399Y-94657578D01*
X134851894Y-94851082D01*
X135018917Y-95018105D01*
X135204595Y-95148119D01*
X135248219Y-95202696D01*
X135255412Y-95272195D01*
X135223890Y-95334549D01*
X135204595Y-95351269D01*
X135018594Y-95481508D01*
X134851505Y-95648597D01*
X134715965Y-95842169D01*
X134715964Y-95842171D01*
X134616098Y-96056335D01*
X134616094Y-96056344D01*
X134554938Y-96284586D01*
X134554936Y-96284596D01*
X134534341Y-96519999D01*
X134534341Y-96520000D01*
X134554936Y-96755403D01*
X134554938Y-96755413D01*
X134616094Y-96983655D01*
X134616096Y-96983659D01*
X134616097Y-96983663D01*
X134715965Y-97197830D01*
X134715967Y-97197834D01*
X134851501Y-97391395D01*
X134851506Y-97391402D01*
X135018597Y-97558493D01*
X135018603Y-97558498D01*
X135204158Y-97688425D01*
X135247783Y-97743002D01*
X135254977Y-97812500D01*
X135223454Y-97874855D01*
X135204158Y-97891575D01*
X135018597Y-98021505D01*
X134851505Y-98188597D01*
X134715965Y-98382169D01*
X134715964Y-98382171D01*
X134616098Y-98596335D01*
X134616094Y-98596344D01*
X134554938Y-98824586D01*
X134554936Y-98824596D01*
X134534341Y-99059999D01*
X134534341Y-99060000D01*
X134554936Y-99295403D01*
X134554938Y-99295413D01*
X134616094Y-99523655D01*
X134616096Y-99523659D01*
X134616097Y-99523663D01*
X134715965Y-99737830D01*
X134715967Y-99737834D01*
X134851501Y-99931395D01*
X134851506Y-99931402D01*
X135018597Y-100098493D01*
X135018603Y-100098498D01*
X135204158Y-100228425D01*
X135247783Y-100283002D01*
X135254977Y-100352500D01*
X135223454Y-100414855D01*
X135204158Y-100431575D01*
X135018597Y-100561505D01*
X134851505Y-100728597D01*
X134715965Y-100922169D01*
X134715964Y-100922171D01*
X134616098Y-101136335D01*
X134616094Y-101136344D01*
X134554938Y-101364586D01*
X134554936Y-101364596D01*
X134534341Y-101599999D01*
X134534341Y-101600000D01*
X134554936Y-101835403D01*
X134554938Y-101835413D01*
X134616094Y-102063655D01*
X134616096Y-102063659D01*
X134616097Y-102063663D01*
X134715965Y-102277830D01*
X134715967Y-102277834D01*
X134851501Y-102471395D01*
X134851506Y-102471402D01*
X135018597Y-102638493D01*
X135018603Y-102638498D01*
X135204158Y-102768425D01*
X135247783Y-102823002D01*
X135254977Y-102892500D01*
X135223454Y-102954855D01*
X135204158Y-102971575D01*
X135018597Y-103101505D01*
X134851505Y-103268597D01*
X134715965Y-103462169D01*
X134715964Y-103462171D01*
X134616098Y-103676335D01*
X134616094Y-103676344D01*
X134554938Y-103904586D01*
X134554936Y-103904596D01*
X134534341Y-104139999D01*
X134534341Y-104140000D01*
X134554936Y-104375403D01*
X134554938Y-104375413D01*
X134616094Y-104603655D01*
X134616096Y-104603659D01*
X134616097Y-104603663D01*
X134715965Y-104817830D01*
X134715967Y-104817834D01*
X134851501Y-105011395D01*
X134851506Y-105011402D01*
X135018597Y-105178493D01*
X135018603Y-105178498D01*
X135204594Y-105308730D01*
X135248219Y-105363307D01*
X135255413Y-105432805D01*
X135223890Y-105495160D01*
X135204595Y-105511880D01*
X135018922Y-105641890D01*
X135018920Y-105641891D01*
X134851891Y-105808920D01*
X134851886Y-105808926D01*
X134716400Y-106002420D01*
X134716399Y-106002422D01*
X134616570Y-106216507D01*
X134616567Y-106216513D01*
X134559364Y-106429999D01*
X134559364Y-106430000D01*
X135456988Y-106430000D01*
X135424075Y-106487007D01*
X135390000Y-106614174D01*
X135390000Y-106745826D01*
X135424075Y-106872993D01*
X135456988Y-106930000D01*
X134559364Y-106930000D01*
X134616567Y-107143486D01*
X134616570Y-107143492D01*
X134716399Y-107357578D01*
X134851894Y-107551082D01*
X135018917Y-107718105D01*
X135204595Y-107848119D01*
X135248219Y-107902696D01*
X135255412Y-107972195D01*
X135223890Y-108034549D01*
X135204595Y-108051269D01*
X135018594Y-108181508D01*
X134851505Y-108348597D01*
X134715965Y-108542169D01*
X134715964Y-108542171D01*
X134616098Y-108756335D01*
X134616094Y-108756344D01*
X134554938Y-108984586D01*
X134554936Y-108984596D01*
X134534341Y-109219999D01*
X134534341Y-109220000D01*
X134554936Y-109455403D01*
X134554938Y-109455413D01*
X134616094Y-109683655D01*
X134616096Y-109683659D01*
X134616097Y-109683663D01*
X134638500Y-109731706D01*
X134715965Y-109897830D01*
X134715967Y-109897834D01*
X134851501Y-110091395D01*
X134851506Y-110091402D01*
X135018597Y-110258493D01*
X135018603Y-110258498D01*
X135204158Y-110388425D01*
X135247783Y-110443002D01*
X135254977Y-110512500D01*
X135223454Y-110574855D01*
X135204158Y-110591575D01*
X135018597Y-110721505D01*
X134851505Y-110888597D01*
X134715965Y-111082169D01*
X134715964Y-111082171D01*
X134616098Y-111296335D01*
X134616094Y-111296344D01*
X134554938Y-111524586D01*
X134554936Y-111524596D01*
X134534341Y-111759999D01*
X134534341Y-111760000D01*
X134554937Y-111995409D01*
X134554937Y-111995410D01*
X134559442Y-112012225D01*
X134557776Y-112082075D01*
X134527347Y-112131994D01*
X132805888Y-113853453D01*
X132802022Y-113858165D01*
X132800445Y-113856871D01*
X132753983Y-113895696D01*
X132684657Y-113904399D01*
X132621632Y-113874240D01*
X132584916Y-113814795D01*
X132580500Y-113781997D01*
X132580500Y-85659110D01*
X132580500Y-85659108D01*
X132546392Y-85531814D01*
X132480500Y-85417686D01*
X132387314Y-85324500D01*
X132330250Y-85291554D01*
X132273187Y-85258608D01*
X132209539Y-85241554D01*
X132145892Y-85224500D01*
X121985892Y-85224500D01*
X121854108Y-85224500D01*
X121726812Y-85258608D01*
X121612686Y-85324500D01*
X121612683Y-85324502D01*
X121519502Y-85417683D01*
X121519500Y-85417686D01*
X121453608Y-85531812D01*
X121419500Y-85659108D01*
X121419500Y-122034481D01*
X121399815Y-122101520D01*
X121347011Y-122147275D01*
X121277853Y-122157219D01*
X121214297Y-122128194D01*
X121207819Y-122122162D01*
X119299366Y-120213709D01*
X119265881Y-120152386D01*
X119270865Y-120082694D01*
X119281439Y-120062588D01*
X119280891Y-120062272D01*
X119283599Y-120057580D01*
X119383429Y-119843492D01*
X119383432Y-119843486D01*
X119440636Y-119630000D01*
X118543012Y-119630000D01*
X118575925Y-119572993D01*
X118610000Y-119445826D01*
X118610000Y-119314174D01*
X118575925Y-119187007D01*
X118543012Y-119130000D01*
X119440636Y-119130000D01*
X119440635Y-119129999D01*
X119383432Y-118916513D01*
X119383429Y-118916507D01*
X119283600Y-118702422D01*
X119283599Y-118702420D01*
X119148113Y-118508926D01*
X119148108Y-118508920D01*
X118981078Y-118341890D01*
X118795405Y-118211879D01*
X118751780Y-118157302D01*
X118744588Y-118087804D01*
X118776110Y-118025449D01*
X118795406Y-118008730D01*
X118816891Y-117993686D01*
X118981401Y-117878495D01*
X119148495Y-117711401D01*
X119284035Y-117517830D01*
X119383903Y-117303663D01*
X119445063Y-117075408D01*
X119465659Y-116840000D01*
X119445063Y-116604592D01*
X119383903Y-116376337D01*
X119284035Y-116162171D01*
X119148495Y-115968599D01*
X119148494Y-115968597D01*
X118981402Y-115801506D01*
X118981396Y-115801501D01*
X118795842Y-115671575D01*
X118752217Y-115616998D01*
X118745023Y-115547500D01*
X118776546Y-115485145D01*
X118795842Y-115468425D01*
X118818026Y-115452891D01*
X118981401Y-115338495D01*
X119148495Y-115171401D01*
X119284035Y-114977830D01*
X119383903Y-114763663D01*
X119445063Y-114535408D01*
X119465659Y-114300000D01*
X119445063Y-114064592D01*
X119383903Y-113836337D01*
X119284035Y-113622171D01*
X119148495Y-113428599D01*
X119148494Y-113428597D01*
X118981402Y-113261506D01*
X118981396Y-113261501D01*
X118795842Y-113131575D01*
X118752217Y-113076998D01*
X118745023Y-113007500D01*
X118776546Y-112945145D01*
X118795842Y-112928425D01*
X118818026Y-112912891D01*
X118981401Y-112798495D01*
X119148495Y-112631401D01*
X119284035Y-112437830D01*
X119383903Y-112223663D01*
X119445063Y-111995408D01*
X119465659Y-111760000D01*
X119445063Y-111524592D01*
X119383903Y-111296337D01*
X119284035Y-111082171D01*
X119148495Y-110888599D01*
X119148494Y-110888597D01*
X118981402Y-110721506D01*
X118981396Y-110721501D01*
X118795842Y-110591575D01*
X118752217Y-110536998D01*
X118745023Y-110467500D01*
X118776546Y-110405145D01*
X118795842Y-110388425D01*
X118915726Y-110304481D01*
X118981401Y-110258495D01*
X119148495Y-110091401D01*
X119284035Y-109897830D01*
X119383903Y-109683663D01*
X119445063Y-109455408D01*
X119465659Y-109220000D01*
X119445063Y-108984592D01*
X119383903Y-108756337D01*
X119284035Y-108542171D01*
X119148495Y-108348599D01*
X119148494Y-108348597D01*
X118981402Y-108181506D01*
X118981401Y-108181505D01*
X118795405Y-108051269D01*
X118751781Y-107996692D01*
X118744588Y-107927193D01*
X118776110Y-107864839D01*
X118795405Y-107848119D01*
X118981082Y-107718105D01*
X119148105Y-107551082D01*
X119283600Y-107357578D01*
X119383429Y-107143492D01*
X119383432Y-107143486D01*
X119440636Y-106930000D01*
X118543012Y-106930000D01*
X118575925Y-106872993D01*
X118610000Y-106745826D01*
X118610000Y-106614174D01*
X118575925Y-106487007D01*
X118543012Y-106430000D01*
X119440636Y-106430000D01*
X119440635Y-106429999D01*
X119383432Y-106216513D01*
X119383429Y-106216507D01*
X119283600Y-106002422D01*
X119283599Y-106002420D01*
X119148113Y-105808926D01*
X119148108Y-105808920D01*
X118981078Y-105641890D01*
X118795405Y-105511879D01*
X118751780Y-105457302D01*
X118744588Y-105387804D01*
X118776110Y-105325449D01*
X118795406Y-105308730D01*
X118981401Y-105178495D01*
X119148495Y-105011401D01*
X119284035Y-104817830D01*
X119383903Y-104603663D01*
X119445063Y-104375408D01*
X119465659Y-104140000D01*
X119445063Y-103904592D01*
X119383903Y-103676337D01*
X119284035Y-103462171D01*
X119148495Y-103268599D01*
X119148494Y-103268597D01*
X118981402Y-103101506D01*
X118981396Y-103101501D01*
X118795842Y-102971575D01*
X118752217Y-102916998D01*
X118745023Y-102847500D01*
X118776546Y-102785145D01*
X118795842Y-102768425D01*
X118818026Y-102752891D01*
X118981401Y-102638495D01*
X119148495Y-102471401D01*
X119284035Y-102277830D01*
X119383903Y-102063663D01*
X119445063Y-101835408D01*
X119465659Y-101600000D01*
X119445063Y-101364592D01*
X119383903Y-101136337D01*
X119284035Y-100922171D01*
X119245026Y-100866459D01*
X119148494Y-100728597D01*
X118981402Y-100561506D01*
X118981396Y-100561501D01*
X118795842Y-100431575D01*
X118752217Y-100376998D01*
X118745023Y-100307500D01*
X118776546Y-100245145D01*
X118795842Y-100228425D01*
X118853773Y-100187861D01*
X118981401Y-100098495D01*
X119148495Y-99931401D01*
X119284035Y-99737830D01*
X119383903Y-99523663D01*
X119445063Y-99295408D01*
X119465659Y-99060000D01*
X119445063Y-98824592D01*
X119383903Y-98596337D01*
X119284035Y-98382171D01*
X119148495Y-98188599D01*
X119148494Y-98188597D01*
X118981402Y-98021506D01*
X118981396Y-98021501D01*
X118795842Y-97891575D01*
X118752217Y-97836998D01*
X118745023Y-97767500D01*
X118776546Y-97705145D01*
X118795842Y-97688425D01*
X118818026Y-97672891D01*
X118981401Y-97558495D01*
X119148495Y-97391401D01*
X119284035Y-97197830D01*
X119383903Y-96983663D01*
X119445063Y-96755408D01*
X119465659Y-96520000D01*
X119445063Y-96284592D01*
X119383903Y-96056337D01*
X119284035Y-95842171D01*
X119148495Y-95648599D01*
X119148494Y-95648597D01*
X118981402Y-95481506D01*
X118981401Y-95481505D01*
X118795405Y-95351269D01*
X118751781Y-95296692D01*
X118744588Y-95227193D01*
X118776110Y-95164839D01*
X118795405Y-95148119D01*
X118981082Y-95018105D01*
X119148105Y-94851082D01*
X119283600Y-94657578D01*
X119383429Y-94443492D01*
X119383432Y-94443486D01*
X119440636Y-94230000D01*
X118543012Y-94230000D01*
X118575925Y-94172993D01*
X118610000Y-94045826D01*
X118610000Y-93914174D01*
X118575925Y-93787007D01*
X118543012Y-93730000D01*
X119440636Y-93730000D01*
X119440635Y-93729999D01*
X119383432Y-93516513D01*
X119383429Y-93516507D01*
X119283600Y-93302422D01*
X119283599Y-93302420D01*
X119148113Y-93108926D01*
X119148108Y-93108920D01*
X118981078Y-92941890D01*
X118795405Y-92811879D01*
X118751780Y-92757302D01*
X118744588Y-92687804D01*
X118776110Y-92625449D01*
X118795406Y-92608730D01*
X118953586Y-92497971D01*
X118981401Y-92478495D01*
X119148495Y-92311401D01*
X119284035Y-92117830D01*
X119383903Y-91903663D01*
X119445063Y-91675408D01*
X119465659Y-91440000D01*
X119445063Y-91204592D01*
X119383903Y-90976337D01*
X119284035Y-90762171D01*
X119219496Y-90670000D01*
X119148496Y-90568600D01*
X119148495Y-90568599D01*
X119026567Y-90446671D01*
X118993084Y-90385351D01*
X118998068Y-90315659D01*
X119039939Y-90259725D01*
X119070915Y-90242810D01*
X119202331Y-90193796D01*
X119317546Y-90107546D01*
X119403796Y-89992331D01*
X119454091Y-89857483D01*
X119460500Y-89797873D01*
X119460499Y-88002128D01*
X119454091Y-87942517D01*
X119434947Y-87891190D01*
X119403797Y-87807671D01*
X119403793Y-87807664D01*
X119317547Y-87692455D01*
X119317544Y-87692452D01*
X119202335Y-87606206D01*
X119202328Y-87606202D01*
X119067482Y-87555908D01*
X119067483Y-87555908D01*
X119007883Y-87549501D01*
X119007881Y-87549500D01*
X119007873Y-87549500D01*
X119007864Y-87549500D01*
X117212129Y-87549500D01*
X117212123Y-87549501D01*
X117152516Y-87555908D01*
X117017671Y-87606202D01*
X117017664Y-87606206D01*
X116902455Y-87692452D01*
X116902452Y-87692455D01*
X116816206Y-87807664D01*
X116816202Y-87807671D01*
X116765908Y-87942517D01*
X116759501Y-88002116D01*
X116759501Y-88002123D01*
X116759500Y-88002135D01*
X116759500Y-89797870D01*
X116759501Y-89797876D01*
X116765908Y-89857483D01*
X116816202Y-89992328D01*
X116816206Y-89992335D01*
X116902452Y-90107544D01*
X116902455Y-90107547D01*
X117017664Y-90193793D01*
X117017671Y-90193797D01*
X117149081Y-90242810D01*
X117205015Y-90284681D01*
X117229432Y-90350145D01*
X117214580Y-90418418D01*
X117193430Y-90446673D01*
X117071503Y-90568600D01*
X116935965Y-90762169D01*
X116935964Y-90762171D01*
X116836098Y-90976335D01*
X116836094Y-90976344D01*
X116774938Y-91204586D01*
X116774936Y-91204596D01*
X116754341Y-91439999D01*
X116754341Y-91440000D01*
X116774936Y-91675403D01*
X116774938Y-91675413D01*
X116836094Y-91903655D01*
X116836096Y-91903659D01*
X116836097Y-91903663D01*
X116935965Y-92117830D01*
X116935967Y-92117834D01*
X117071501Y-92311395D01*
X117071506Y-92311402D01*
X117238597Y-92478493D01*
X117238603Y-92478498D01*
X117424594Y-92608730D01*
X117468219Y-92663307D01*
X117475413Y-92732805D01*
X117443890Y-92795160D01*
X117424595Y-92811880D01*
X117238922Y-92941890D01*
X117238920Y-92941891D01*
X117071891Y-93108920D01*
X117071886Y-93108926D01*
X116936400Y-93302420D01*
X116936399Y-93302422D01*
X116836570Y-93516507D01*
X116836567Y-93516513D01*
X116779364Y-93729999D01*
X116779364Y-93730000D01*
X117676988Y-93730000D01*
X117644075Y-93787007D01*
X117610000Y-93914174D01*
X117610000Y-94045826D01*
X117644075Y-94172993D01*
X117676988Y-94230000D01*
X116779364Y-94230000D01*
X116836567Y-94443486D01*
X116836570Y-94443492D01*
X116936399Y-94657578D01*
X117071894Y-94851082D01*
X117238917Y-95018105D01*
X117424595Y-95148119D01*
X117468219Y-95202696D01*
X117475412Y-95272195D01*
X117443890Y-95334549D01*
X117424595Y-95351269D01*
X117238594Y-95481508D01*
X117071505Y-95648597D01*
X116935965Y-95842169D01*
X116935964Y-95842171D01*
X116836098Y-96056335D01*
X116836094Y-96056344D01*
X116774938Y-96284586D01*
X116774936Y-96284596D01*
X116754341Y-96519999D01*
X116754341Y-96520000D01*
X116774936Y-96755403D01*
X116774938Y-96755413D01*
X116836094Y-96983655D01*
X116836096Y-96983659D01*
X116836097Y-96983663D01*
X116935965Y-97197830D01*
X116935967Y-97197834D01*
X117071501Y-97391395D01*
X117071506Y-97391402D01*
X117238597Y-97558493D01*
X117238603Y-97558498D01*
X117424158Y-97688425D01*
X117467783Y-97743002D01*
X117474977Y-97812500D01*
X117443454Y-97874855D01*
X117424158Y-97891575D01*
X117238597Y-98021505D01*
X117071505Y-98188597D01*
X116935965Y-98382169D01*
X116935964Y-98382171D01*
X116836098Y-98596335D01*
X116836094Y-98596344D01*
X116774938Y-98824586D01*
X116774936Y-98824596D01*
X116754341Y-99059999D01*
X116754341Y-99060000D01*
X116774936Y-99295403D01*
X116774938Y-99295413D01*
X116836094Y-99523655D01*
X116836096Y-99523659D01*
X116836097Y-99523663D01*
X116935965Y-99737830D01*
X116935967Y-99737834D01*
X117071501Y-99931395D01*
X117071506Y-99931402D01*
X117238597Y-100098493D01*
X117238603Y-100098498D01*
X117424158Y-100228425D01*
X117467783Y-100283002D01*
X117474977Y-100352500D01*
X117443454Y-100414855D01*
X117424158Y-100431575D01*
X117238597Y-100561505D01*
X117071505Y-100728597D01*
X116935965Y-100922169D01*
X116935964Y-100922171D01*
X116836098Y-101136335D01*
X116836094Y-101136344D01*
X116774938Y-101364586D01*
X116774936Y-101364596D01*
X116754341Y-101599999D01*
X116754341Y-101600000D01*
X116774936Y-101835403D01*
X116774938Y-101835413D01*
X116836094Y-102063655D01*
X116836096Y-102063659D01*
X116836097Y-102063663D01*
X116935965Y-102277830D01*
X116935967Y-102277834D01*
X117071501Y-102471395D01*
X117071506Y-102471402D01*
X117238597Y-102638493D01*
X117238603Y-102638498D01*
X117424158Y-102768425D01*
X117467783Y-102823002D01*
X117474977Y-102892500D01*
X117443454Y-102954855D01*
X117424158Y-102971575D01*
X117238597Y-103101505D01*
X117071505Y-103268597D01*
X116935965Y-103462169D01*
X116935964Y-103462171D01*
X116836098Y-103676335D01*
X116836094Y-103676344D01*
X116774938Y-103904586D01*
X116774936Y-103904596D01*
X116754341Y-104139999D01*
X116754341Y-104140000D01*
X116774936Y-104375403D01*
X116774938Y-104375413D01*
X116836094Y-104603655D01*
X116836096Y-104603659D01*
X116836097Y-104603663D01*
X116935965Y-104817830D01*
X116935967Y-104817834D01*
X117071501Y-105011395D01*
X117071506Y-105011402D01*
X117238597Y-105178493D01*
X117238603Y-105178498D01*
X117424594Y-105308730D01*
X117468219Y-105363307D01*
X117475413Y-105432805D01*
X117443890Y-105495160D01*
X117424595Y-105511880D01*
X117238922Y-105641890D01*
X117238920Y-105641891D01*
X117071891Y-105808920D01*
X117071886Y-105808926D01*
X116936400Y-106002420D01*
X116936399Y-106002422D01*
X116836570Y-106216507D01*
X116836567Y-106216513D01*
X116779364Y-106429999D01*
X116779364Y-106430000D01*
X117676988Y-106430000D01*
X117644075Y-106487007D01*
X117610000Y-106614174D01*
X117610000Y-106745826D01*
X117644075Y-106872993D01*
X117676988Y-106930000D01*
X116779364Y-106930000D01*
X116836567Y-107143486D01*
X116836570Y-107143492D01*
X116936399Y-107357578D01*
X117071894Y-107551082D01*
X117238917Y-107718105D01*
X117424595Y-107848119D01*
X117468219Y-107902696D01*
X117475412Y-107972195D01*
X117443890Y-108034549D01*
X117424595Y-108051269D01*
X117238594Y-108181508D01*
X117071505Y-108348597D01*
X116935965Y-108542169D01*
X116935964Y-108542171D01*
X116836098Y-108756335D01*
X116836094Y-108756344D01*
X116774938Y-108984586D01*
X116774936Y-108984596D01*
X116754341Y-109219999D01*
X116754341Y-109220000D01*
X116774936Y-109455403D01*
X116774938Y-109455413D01*
X116836094Y-109683655D01*
X116836096Y-109683659D01*
X116836097Y-109683663D01*
X116858500Y-109731706D01*
X116935965Y-109897830D01*
X116935967Y-109897834D01*
X117071501Y-110091395D01*
X117071506Y-110091402D01*
X117238597Y-110258493D01*
X117238603Y-110258498D01*
X117424158Y-110388425D01*
X117467783Y-110443002D01*
X117474977Y-110512500D01*
X117443454Y-110574855D01*
X117424158Y-110591575D01*
X117238597Y-110721505D01*
X117071505Y-110888597D01*
X116935965Y-111082169D01*
X116935964Y-111082171D01*
X116836098Y-111296335D01*
X116836094Y-111296344D01*
X116774938Y-111524586D01*
X116774936Y-111524596D01*
X116754341Y-111759999D01*
X116754341Y-111760000D01*
X116774936Y-111995403D01*
X116774938Y-111995413D01*
X116836094Y-112223655D01*
X116836096Y-112223659D01*
X116836097Y-112223663D01*
X116905500Y-112372497D01*
X116935965Y-112437830D01*
X116935967Y-112437834D01*
X117071501Y-112631395D01*
X117071506Y-112631402D01*
X117238597Y-112798493D01*
X117238603Y-112798498D01*
X117424158Y-112928425D01*
X117467783Y-112983002D01*
X117474977Y-113052500D01*
X117443454Y-113114855D01*
X117424158Y-113131575D01*
X117238597Y-113261505D01*
X117071505Y-113428597D01*
X116935965Y-113622169D01*
X116935964Y-113622171D01*
X116836098Y-113836335D01*
X116836094Y-113836344D01*
X116774938Y-114064586D01*
X116774936Y-114064596D01*
X116754341Y-114299999D01*
X116754341Y-114300000D01*
X116774936Y-114535403D01*
X116774938Y-114535413D01*
X116836094Y-114763655D01*
X116836096Y-114763659D01*
X116836097Y-114763663D01*
X116905500Y-114912497D01*
X116935965Y-114977830D01*
X116935967Y-114977834D01*
X117071501Y-115171395D01*
X117071506Y-115171402D01*
X117238597Y-115338493D01*
X117238603Y-115338498D01*
X117424158Y-115468425D01*
X117467783Y-115523002D01*
X117474977Y-115592500D01*
X117443454Y-115654855D01*
X117424158Y-115671575D01*
X117238597Y-115801505D01*
X117071505Y-115968597D01*
X116935965Y-116162169D01*
X116935964Y-116162171D01*
X116836098Y-116376335D01*
X116836094Y-116376344D01*
X116774938Y-116604586D01*
X116774936Y-116604596D01*
X116754341Y-116839999D01*
X116754341Y-116840000D01*
X116774936Y-117075403D01*
X116774938Y-117075413D01*
X116836094Y-117303655D01*
X116836096Y-117303659D01*
X116836097Y-117303663D01*
X116885450Y-117409500D01*
X116935965Y-117517830D01*
X116935967Y-117517834D01*
X117071501Y-117711395D01*
X117071506Y-117711402D01*
X117238597Y-117878493D01*
X117238603Y-117878498D01*
X117260945Y-117894142D01*
X117402387Y-117993181D01*
X117424594Y-118008730D01*
X117468219Y-118063307D01*
X117475413Y-118132805D01*
X117443890Y-118195160D01*
X117424595Y-118211880D01*
X117238922Y-118341890D01*
X117238920Y-118341891D01*
X117071891Y-118508920D01*
X117071886Y-118508926D01*
X116936400Y-118702420D01*
X116936399Y-118702422D01*
X116836570Y-118916507D01*
X116836567Y-118916513D01*
X116779364Y-119129999D01*
X116779364Y-119130000D01*
X117676988Y-119130000D01*
X117644075Y-119187007D01*
X117610000Y-119314174D01*
X117610000Y-119445826D01*
X117644075Y-119572993D01*
X117676988Y-119630000D01*
X116779364Y-119630000D01*
X116823149Y-119793406D01*
X116821486Y-119863256D01*
X116782324Y-119921119D01*
X116718095Y-119948623D01*
X116703374Y-119949500D01*
X114866004Y-119949500D01*
X114730677Y-119976418D01*
X114730667Y-119976421D01*
X114603192Y-120029222D01*
X114488454Y-120105887D01*
X111240535Y-123353806D01*
X111179212Y-123387291D01*
X111109520Y-123382307D01*
X111065173Y-123353806D01*
X110960890Y-123249523D01*
X110960884Y-123249518D01*
X110817697Y-123159547D01*
X110817694Y-123159545D01*
X110658056Y-123103685D01*
X110490003Y-123084751D01*
X110489997Y-123084751D01*
X110321940Y-123103686D01*
X110321938Y-123103686D01*
X110196611Y-123147541D01*
X110155656Y-123154500D01*
X110080372Y-123154500D01*
X110013333Y-123134815D01*
X109967578Y-123082011D01*
X109957151Y-123044381D01*
X109956313Y-123036941D01*
X109900456Y-122877310D01*
X109900455Y-122877309D01*
X109900454Y-122877305D01*
X109900452Y-122877302D01*
X109810481Y-122734115D01*
X109810476Y-122734109D01*
X109690890Y-122614523D01*
X109552821Y-122527768D01*
X109531112Y-122510455D01*
X103970782Y-116950124D01*
X103937297Y-116888801D01*
X103942281Y-116819109D01*
X103984153Y-116763176D01*
X104049617Y-116738759D01*
X104113915Y-116751533D01*
X110249428Y-119819290D01*
X110255934Y-119822790D01*
X110296814Y-119846392D01*
X110299371Y-119847077D01*
X110322735Y-119855944D01*
X110325102Y-119857127D01*
X110325106Y-119857129D01*
X110371334Y-119866588D01*
X110378549Y-119868292D01*
X110424108Y-119880500D01*
X110426756Y-119880500D01*
X110451614Y-119883017D01*
X110454214Y-119883549D01*
X110501295Y-119880723D01*
X110508725Y-119880500D01*
X110555891Y-119880500D01*
X110555892Y-119880500D01*
X110558446Y-119879815D01*
X110583110Y-119875812D01*
X110585761Y-119875653D01*
X110630532Y-119860728D01*
X110637581Y-119858610D01*
X110683186Y-119846392D01*
X110685476Y-119845069D01*
X110708280Y-119834813D01*
X110710783Y-119833979D01*
X110710788Y-119833976D01*
X110750151Y-119807986D01*
X110756479Y-119804075D01*
X110797308Y-119780504D01*
X110797309Y-119780502D01*
X110797314Y-119780500D01*
X110799181Y-119778631D01*
X110818548Y-119762827D01*
X110820759Y-119761368D01*
X110852076Y-119726048D01*
X110857125Y-119720687D01*
X110890500Y-119687314D01*
X110891822Y-119685023D01*
X110906444Y-119664738D01*
X110908190Y-119662769D01*
X110908189Y-119662769D01*
X110908193Y-119662766D01*
X110929293Y-119620563D01*
X110932800Y-119614045D01*
X110956392Y-119573186D01*
X110957074Y-119570639D01*
X110965950Y-119547252D01*
X110967129Y-119544895D01*
X110976590Y-119498657D01*
X110978285Y-119491476D01*
X110990500Y-119445892D01*
X110990500Y-119443242D01*
X110993019Y-119418377D01*
X110993549Y-119415787D01*
X110990723Y-119368703D01*
X110990500Y-119361274D01*
X110990500Y-88902214D01*
X110990579Y-88897788D01*
X110992853Y-88834108D01*
X111008482Y-88396513D01*
X111009110Y-88387724D01*
X111062495Y-87891163D01*
X111063748Y-87882455D01*
X111152422Y-87390965D01*
X111154293Y-87382369D01*
X111277799Y-86898478D01*
X111280284Y-86890014D01*
X111437989Y-86416186D01*
X111441078Y-86407904D01*
X111632188Y-85946524D01*
X111635850Y-85938506D01*
X111859389Y-85491932D01*
X111863605Y-85484208D01*
X112118450Y-85054690D01*
X112123213Y-85047280D01*
X112408022Y-84637079D01*
X112413322Y-84629999D01*
X112726679Y-84241145D01*
X112732441Y-84234496D01*
X113072742Y-83868986D01*
X113078986Y-83862742D01*
X113444496Y-83522441D01*
X113451145Y-83516679D01*
X113840005Y-83203317D01*
X113847085Y-83198018D01*
X113909633Y-83154590D01*
X114257280Y-82913213D01*
X114264690Y-82908450D01*
X114694208Y-82653605D01*
X114701932Y-82649389D01*
X115148506Y-82425850D01*
X115156524Y-82422188D01*
X115617915Y-82231073D01*
X115626186Y-82227989D01*
X116100014Y-82070284D01*
X116108478Y-82067799D01*
X116592369Y-81944293D01*
X116600965Y-81942422D01*
X117092455Y-81853748D01*
X117101163Y-81852495D01*
X117597724Y-81799110D01*
X117606513Y-81798482D01*
X118107788Y-81780578D01*
X118112214Y-81780500D01*
X118175892Y-81780500D01*
X135824108Y-81780500D01*
X135887786Y-81780500D01*
X135892211Y-81780578D01*
G37*
%TD.AperFunction*%
%TA.AperFunction,Conductor*%
G36*
X137437895Y-101739973D02*
G01*
X138228181Y-102530259D01*
X138261666Y-102591582D01*
X138264500Y-102617940D01*
X138264500Y-110304481D01*
X138244815Y-110371520D01*
X138192011Y-110417275D01*
X138122853Y-110427219D01*
X138059297Y-110398194D01*
X138052819Y-110392162D01*
X137252651Y-109591994D01*
X137219166Y-109530671D01*
X137220558Y-109472217D01*
X137225063Y-109455408D01*
X137245659Y-109220000D01*
X137225063Y-108984592D01*
X137163903Y-108756337D01*
X137064035Y-108542171D01*
X136928495Y-108348599D01*
X136928494Y-108348597D01*
X136761402Y-108181506D01*
X136761401Y-108181505D01*
X136575405Y-108051269D01*
X136531781Y-107996692D01*
X136524588Y-107927193D01*
X136556110Y-107864839D01*
X136575405Y-107848119D01*
X136761082Y-107718105D01*
X136928105Y-107551082D01*
X137063600Y-107357578D01*
X137163429Y-107143492D01*
X137163432Y-107143486D01*
X137220636Y-106930000D01*
X136323012Y-106930000D01*
X136355925Y-106872993D01*
X136390000Y-106745826D01*
X136390000Y-106614174D01*
X136355925Y-106487007D01*
X136323012Y-106430000D01*
X137220636Y-106430000D01*
X137220635Y-106429999D01*
X137163432Y-106216513D01*
X137163429Y-106216507D01*
X137063600Y-106002422D01*
X137063599Y-106002420D01*
X136928113Y-105808926D01*
X136928108Y-105808920D01*
X136761078Y-105641890D01*
X136575405Y-105511879D01*
X136531780Y-105457302D01*
X136524588Y-105387804D01*
X136556110Y-105325449D01*
X136575406Y-105308730D01*
X136761401Y-105178495D01*
X136928495Y-105011401D01*
X137064035Y-104817830D01*
X137163903Y-104603663D01*
X137225063Y-104375408D01*
X137245659Y-104140000D01*
X137225063Y-103904592D01*
X137163903Y-103676337D01*
X137064035Y-103462171D01*
X136928495Y-103268599D01*
X136928494Y-103268597D01*
X136761402Y-103101506D01*
X136761396Y-103101501D01*
X136575842Y-102971575D01*
X136532217Y-102916998D01*
X136525023Y-102847500D01*
X136556546Y-102785145D01*
X136575842Y-102768425D01*
X136598026Y-102752891D01*
X136761401Y-102638495D01*
X136928495Y-102471401D01*
X137064035Y-102277830D01*
X137163903Y-102063663D01*
X137225063Y-101835408D01*
X137226686Y-101816849D01*
X137252136Y-101751781D01*
X137308725Y-101710801D01*
X137378487Y-101706920D01*
X137437895Y-101739973D01*
G37*
%TD.AperFunction*%
%TD*%
M02*
