%TF.GenerationSoftware,KiCad,Pcbnew,8.0.5*%
%TF.CreationDate,2024-10-21T23:21:48+02:00*%
%TF.ProjectId,kyb_sat,6b79625f-7361-4742-9e6b-696361645f70,rev?*%
%TF.SameCoordinates,Original*%
%TF.FileFunction,Profile,NP*%
%FSLAX46Y46*%
G04 Gerber Fmt 4.6, Leading zero omitted, Abs format (unit mm)*
G04 Created by KiCad (PCBNEW 8.0.5) date 2024-10-21 23:21:48*
%MOMM*%
%LPD*%
G01*
G04 APERTURE LIST*
%TA.AperFunction,Profile*%
%ADD10C,0.100000*%
%TD*%
%TA.AperFunction,Profile*%
%ADD11C,0.050000*%
%TD*%
G04 APERTURE END LIST*
D10*
X118110000Y-172720000D02*
G75*
G02*
X110490000Y-165100000I0J7620000D01*
G01*
X110490000Y-119380000D02*
X110490000Y-88900000D01*
X175260000Y-144780000D02*
X163830000Y-144780000D01*
X118110000Y-81280000D02*
X135890000Y-81280000D01*
X90170000Y-144780000D02*
X110490000Y-134620000D01*
X78740000Y-144780000D02*
X90170000Y-144780000D01*
X78740000Y-109220000D02*
X90170000Y-109220000D01*
X143510000Y-88900000D02*
X143510000Y-119380000D01*
X143510000Y-119380000D02*
X163830000Y-109220000D01*
X143510000Y-165100000D02*
X143510000Y-134620000D01*
D11*
X121920000Y-85725000D02*
X132080000Y-85725000D01*
X132080000Y-122555000D01*
X121920000Y-122555000D01*
X121920000Y-85725000D01*
D10*
X78740000Y-109220000D02*
X78740000Y-144780000D01*
X163830000Y-109220000D02*
X175260000Y-109220000D01*
X175260000Y-109220000D02*
X175260000Y-144780000D01*
X135890000Y-172720000D02*
X118110000Y-172720000D01*
X110490000Y-165100000D02*
X110490000Y-134620000D01*
X143510000Y-134620000D02*
X163830000Y-144780000D01*
X90170000Y-109220000D02*
X110490000Y-119380000D01*
X110490000Y-88900000D02*
G75*
G02*
X118110000Y-81280000I7620000J0D01*
G01*
X143510000Y-165100000D02*
G75*
G02*
X135890000Y-172720000I-7620000J0D01*
G01*
X135890000Y-81280000D02*
G75*
G02*
X143510000Y-88900000I0J-7620000D01*
G01*
M02*
