%TF.GenerationSoftware,KiCad,Pcbnew,8.0.5*%
%TF.CreationDate,2024-10-21T23:21:48+02:00*%
%TF.ProjectId,kyb_sat,6b79625f-7361-4742-9e6b-696361645f70,rev?*%
%TF.SameCoordinates,Original*%
%TF.FileFunction,Legend,Top*%
%TF.FilePolarity,Positive*%
%FSLAX46Y46*%
G04 Gerber Fmt 4.6, Leading zero omitted, Abs format (unit mm)*
G04 Created by KiCad (PCBNEW 8.0.5) date 2024-10-21 23:21:48*
%MOMM*%
%LPD*%
G01*
G04 APERTURE LIST*
%ADD10C,0.150000*%
%ADD11C,0.500000*%
%ADD12C,0.200000*%
%ADD13C,0.100000*%
%ADD14C,0.120000*%
G04 APERTURE END LIST*
D10*
X167509819Y-139882380D02*
X166509819Y-139882380D01*
X166605057Y-139453809D02*
X166557438Y-139406190D01*
X166557438Y-139406190D02*
X166509819Y-139310952D01*
X166509819Y-139310952D02*
X166509819Y-139072857D01*
X166509819Y-139072857D02*
X166557438Y-138977619D01*
X166557438Y-138977619D02*
X166605057Y-138930000D01*
X166605057Y-138930000D02*
X166700295Y-138882381D01*
X166700295Y-138882381D02*
X166795533Y-138882381D01*
X166795533Y-138882381D02*
X166938390Y-138930000D01*
X166938390Y-138930000D02*
X167509819Y-139501428D01*
X167509819Y-139501428D02*
X167509819Y-138882381D01*
X167414580Y-137882381D02*
X167462200Y-137930000D01*
X167462200Y-137930000D02*
X167509819Y-138072857D01*
X167509819Y-138072857D02*
X167509819Y-138168095D01*
X167509819Y-138168095D02*
X167462200Y-138310952D01*
X167462200Y-138310952D02*
X167366961Y-138406190D01*
X167366961Y-138406190D02*
X167271723Y-138453809D01*
X167271723Y-138453809D02*
X167081247Y-138501428D01*
X167081247Y-138501428D02*
X166938390Y-138501428D01*
X166938390Y-138501428D02*
X166747914Y-138453809D01*
X166747914Y-138453809D02*
X166652676Y-138406190D01*
X166652676Y-138406190D02*
X166557438Y-138310952D01*
X166557438Y-138310952D02*
X166509819Y-138168095D01*
X166509819Y-138168095D02*
X166509819Y-138072857D01*
X166509819Y-138072857D02*
X166557438Y-137930000D01*
X166557438Y-137930000D02*
X166605057Y-137882381D01*
X167509819Y-136930000D02*
X167509819Y-137501428D01*
X167509819Y-137215714D02*
X166509819Y-137215714D01*
X166509819Y-137215714D02*
X166652676Y-137310952D01*
X166652676Y-137310952D02*
X166747914Y-137406190D01*
X166747914Y-137406190D02*
X166795533Y-137501428D01*
X170002200Y-141580951D02*
X170049819Y-141438094D01*
X170049819Y-141438094D02*
X170049819Y-141199999D01*
X170049819Y-141199999D02*
X170002200Y-141104761D01*
X170002200Y-141104761D02*
X169954580Y-141057142D01*
X169954580Y-141057142D02*
X169859342Y-141009523D01*
X169859342Y-141009523D02*
X169764104Y-141009523D01*
X169764104Y-141009523D02*
X169668866Y-141057142D01*
X169668866Y-141057142D02*
X169621247Y-141104761D01*
X169621247Y-141104761D02*
X169573628Y-141199999D01*
X169573628Y-141199999D02*
X169526009Y-141390475D01*
X169526009Y-141390475D02*
X169478390Y-141485713D01*
X169478390Y-141485713D02*
X169430771Y-141533332D01*
X169430771Y-141533332D02*
X169335533Y-141580951D01*
X169335533Y-141580951D02*
X169240295Y-141580951D01*
X169240295Y-141580951D02*
X169145057Y-141533332D01*
X169145057Y-141533332D02*
X169097438Y-141485713D01*
X169097438Y-141485713D02*
X169049819Y-141390475D01*
X169049819Y-141390475D02*
X169049819Y-141152380D01*
X169049819Y-141152380D02*
X169097438Y-141009523D01*
X170049819Y-140580951D02*
X169049819Y-140580951D01*
X169049819Y-140580951D02*
X169049819Y-140199999D01*
X169049819Y-140199999D02*
X169097438Y-140104761D01*
X169097438Y-140104761D02*
X169145057Y-140057142D01*
X169145057Y-140057142D02*
X169240295Y-140009523D01*
X169240295Y-140009523D02*
X169383152Y-140009523D01*
X169383152Y-140009523D02*
X169478390Y-140057142D01*
X169478390Y-140057142D02*
X169526009Y-140104761D01*
X169526009Y-140104761D02*
X169573628Y-140199999D01*
X169573628Y-140199999D02*
X169573628Y-140580951D01*
X170049819Y-139580951D02*
X169049819Y-139580951D01*
X170049819Y-137819047D02*
X170049819Y-138390475D01*
X170049819Y-138104761D02*
X169049819Y-138104761D01*
X169049819Y-138104761D02*
X169192676Y-138199999D01*
X169192676Y-138199999D02*
X169287914Y-138295237D01*
X169287914Y-138295237D02*
X169335533Y-138390475D01*
X167036905Y-134839104D02*
X167513095Y-134839104D01*
X166941667Y-135124819D02*
X167275000Y-134124819D01*
X167275000Y-134124819D02*
X167608333Y-135124819D01*
X167941667Y-135124819D02*
X167941667Y-134124819D01*
X167941667Y-134124819D02*
X168179762Y-134124819D01*
X168179762Y-134124819D02*
X168322619Y-134172438D01*
X168322619Y-134172438D02*
X168417857Y-134267676D01*
X168417857Y-134267676D02*
X168465476Y-134362914D01*
X168465476Y-134362914D02*
X168513095Y-134553390D01*
X168513095Y-134553390D02*
X168513095Y-134696247D01*
X168513095Y-134696247D02*
X168465476Y-134886723D01*
X168465476Y-134886723D02*
X168417857Y-134981961D01*
X168417857Y-134981961D02*
X168322619Y-135077200D01*
X168322619Y-135077200D02*
X168179762Y-135124819D01*
X168179762Y-135124819D02*
X167941667Y-135124819D01*
X169513095Y-135029580D02*
X169465476Y-135077200D01*
X169465476Y-135077200D02*
X169322619Y-135124819D01*
X169322619Y-135124819D02*
X169227381Y-135124819D01*
X169227381Y-135124819D02*
X169084524Y-135077200D01*
X169084524Y-135077200D02*
X168989286Y-134981961D01*
X168989286Y-134981961D02*
X168941667Y-134886723D01*
X168941667Y-134886723D02*
X168894048Y-134696247D01*
X168894048Y-134696247D02*
X168894048Y-134553390D01*
X168894048Y-134553390D02*
X168941667Y-134362914D01*
X168941667Y-134362914D02*
X168989286Y-134267676D01*
X168989286Y-134267676D02*
X169084524Y-134172438D01*
X169084524Y-134172438D02*
X169227381Y-134124819D01*
X169227381Y-134124819D02*
X169322619Y-134124819D01*
X169322619Y-134124819D02*
X169465476Y-134172438D01*
X169465476Y-134172438D02*
X169513095Y-134220057D01*
D11*
X155700754Y-128270000D02*
X158750000Y-128270000D01*
X155700754Y-125730000D02*
X158750000Y-125730000D01*
X158750000Y-128270000D02*
X158750000Y-137160000D01*
X158750000Y-127635000D02*
X158240754Y-128270000D01*
X158750000Y-125730000D02*
X158750000Y-128270000D01*
X155700754Y-125730000D02*
X158750000Y-128905000D01*
X158750000Y-125095000D02*
X156210000Y-122555000D01*
X161925000Y-137160000D02*
X159385000Y-139700000D01*
X161925000Y-116840000D02*
X159385000Y-114300000D01*
X158750000Y-120015000D02*
X156210000Y-122555000D01*
X159385000Y-114300000D02*
X156210000Y-117475000D01*
X158750000Y-120015000D02*
X156210000Y-117475000D01*
X159385000Y-139700000D02*
X156210000Y-136525000D01*
X164465000Y-139700000D02*
X158115000Y-139700000D01*
X164465000Y-114300000D02*
X161925000Y-116840000D01*
X158115000Y-139700000D02*
X156210000Y-137795000D01*
X164465000Y-139700000D02*
X161925000Y-137160000D01*
X158750000Y-133985000D02*
X156210000Y-136525000D01*
X158750000Y-128905000D02*
X156210000Y-131445000D01*
X158750000Y-133985000D02*
X156210000Y-131445000D01*
X155700754Y-128270000D02*
X158750000Y-125095000D01*
X158750000Y-126365000D02*
X158115000Y-125730000D01*
X158115000Y-114300000D02*
X156210000Y-116205000D01*
X164465000Y-114300000D02*
X158115000Y-114300000D01*
X156210000Y-116205000D02*
X156210000Y-125730000D01*
X156210000Y-128270000D02*
X156210000Y-137795000D01*
X158750000Y-116840000D02*
X158750000Y-125730000D01*
X164465000Y-110490000D02*
X164465000Y-143510000D01*
X164465000Y-137160000D02*
X158750000Y-137160000D01*
X164465000Y-116840000D02*
X158750000Y-116840000D01*
X168275000Y-143510000D02*
X168275000Y-135890000D01*
X165735000Y-143510000D02*
X170815000Y-143510000D01*
X165735000Y-135890000D02*
X170815000Y-135890000D01*
X165735000Y-143510000D02*
X165735000Y-133350000D01*
X165735000Y-133350000D02*
X170815000Y-133350000D01*
X165735000Y-140970000D02*
X168275000Y-140970000D01*
X168275000Y-129540000D02*
X170815000Y-129540000D01*
D12*
X169545000Y-128905000D02*
X169545000Y-127635000D01*
X169545000Y-126365000D02*
X169545000Y-125095000D01*
D11*
X168275000Y-124460000D02*
X170815000Y-124460000D01*
D12*
X169545000Y-123825000D02*
X169545000Y-122555000D01*
D11*
X165735000Y-132080000D02*
X170815000Y-132080000D01*
D12*
X169545000Y-131445000D02*
X169545000Y-130175000D01*
X168910000Y-130810000D02*
X170180000Y-130810000D01*
X168910000Y-123190000D02*
X170180000Y-123190000D01*
D11*
X165735000Y-121920000D02*
X170815000Y-121920000D01*
X165735000Y-132080000D02*
X165735000Y-121920000D01*
X165735000Y-127000000D02*
X168275000Y-127000000D01*
X168275000Y-132080000D02*
X168275000Y-121920000D01*
X89535000Y-139700000D02*
X92075000Y-137160000D01*
X92075000Y-137160000D02*
X94615000Y-139700000D01*
X94615000Y-139700000D02*
X97790000Y-136525000D01*
X95250000Y-133985000D02*
X97790000Y-136525000D01*
X95250000Y-133985000D02*
X97790000Y-131445000D01*
X95250000Y-128905000D02*
X97790000Y-131445000D01*
X89535000Y-114300000D02*
X92075000Y-116840000D01*
X92075000Y-116840000D02*
X94615000Y-114300000D01*
X94615000Y-114300000D02*
X97790000Y-117475000D01*
X95250000Y-120015000D02*
X97790000Y-122555000D01*
X95250000Y-120015000D02*
X97790000Y-117475000D01*
X95250000Y-125095000D02*
X97790000Y-122555000D01*
X89535000Y-114300000D02*
X95885000Y-114300000D01*
X95885000Y-114300000D02*
X97790000Y-116205000D01*
X97790000Y-125730000D02*
X97790000Y-116205000D01*
X98299246Y-125730000D02*
X95250000Y-128905000D01*
X95250000Y-127635000D02*
X95885000Y-128270000D01*
X95885000Y-139700000D02*
X97790000Y-137795000D01*
X89535000Y-139700000D02*
X95885000Y-139700000D01*
X97790000Y-137795000D02*
X97790000Y-128270000D01*
X89535000Y-137160000D02*
X95250000Y-137160000D01*
X95250000Y-137160000D02*
X95250000Y-128270000D01*
X89535000Y-143510000D02*
X89535000Y-110490000D01*
X89535000Y-116840000D02*
X95250000Y-116840000D01*
D12*
X84455000Y-123825000D02*
X84455000Y-122555000D01*
X83820000Y-123190000D02*
X85090000Y-123190000D01*
D11*
X165735000Y-120650000D02*
X170815000Y-120650000D01*
X116840000Y-170180000D02*
X127000000Y-170180000D01*
X146810754Y-128270000D02*
X149350754Y-125730000D01*
X98299246Y-128270000D02*
X95250000Y-125095000D01*
D12*
X83820000Y-130810000D02*
X85090000Y-130810000D01*
D11*
X170815000Y-110490000D02*
X165735000Y-110490000D01*
X83185000Y-120650000D02*
X88265000Y-120650000D01*
X88265000Y-132080000D02*
X88265000Y-121920000D01*
X83185000Y-132080000D02*
X88265000Y-132080000D01*
X109729246Y-128270000D02*
X112269246Y-125730000D01*
X138430000Y-168910000D02*
G75*
G02*
X137160000Y-170180000I-1270000J0D01*
G01*
X137920754Y-127000000D02*
X139190754Y-125730000D01*
X115570000Y-163830000D02*
G75*
G02*
X116840000Y-162560000I1270000J0D01*
G01*
X83185000Y-121920000D02*
X88265000Y-121920000D01*
D12*
X84455000Y-131445000D02*
X84455000Y-130175000D01*
D11*
X116205000Y-139065000D02*
X137795000Y-139065000D01*
X116840000Y-162560000D02*
X137160000Y-162560000D01*
X115570000Y-163830000D02*
X115570000Y-168910000D01*
X116205000Y-86995000D02*
X120650000Y-86995000D01*
X109729246Y-128270000D02*
X107189246Y-125730000D01*
X165735000Y-110490000D02*
X165735000Y-120650000D01*
D12*
X116840000Y-168910000D02*
X137160000Y-168910000D01*
D11*
X141730754Y-128270000D02*
X144270754Y-125730000D01*
X114809246Y-128270000D02*
X116205000Y-127000000D01*
X88265000Y-120650000D02*
X88265000Y-110490000D01*
X158240754Y-128270000D02*
X155700754Y-125730000D01*
X141730754Y-128270000D02*
X139190754Y-125730000D01*
X83185000Y-133350000D02*
X88265000Y-133350000D01*
X85725000Y-140970000D02*
X88265000Y-140970000D01*
X168275000Y-110490000D02*
X168275000Y-120650000D01*
D12*
X84455000Y-128905000D02*
X84455000Y-127635000D01*
D11*
X88265000Y-143510000D02*
X88265000Y-133350000D01*
X168275000Y-115570000D02*
X165735000Y-115570000D01*
X116205000Y-86995000D02*
X116205000Y-139065000D01*
X127000000Y-170180000D02*
X137160000Y-170180000D01*
X104649246Y-125730000D02*
X116205000Y-125730000D01*
X83185000Y-110490000D02*
X83185000Y-143510000D01*
X95250000Y-126365000D02*
X95759246Y-125730000D01*
X85725000Y-127000000D02*
X88265000Y-127000000D01*
X95250000Y-128270000D02*
X95250000Y-125730000D01*
X137920754Y-125730000D02*
X149350754Y-125730000D01*
X83185000Y-129540000D02*
X85725000Y-129540000D01*
X104649246Y-128270000D02*
X107189246Y-125730000D01*
X95250000Y-125730000D02*
X95250000Y-116840000D01*
X137795000Y-86995000D02*
X137795000Y-139065000D01*
X88265000Y-110490000D02*
X83185000Y-110490000D01*
X83185000Y-143510000D02*
X88265000Y-143510000D01*
X104649246Y-128270000D02*
X116205000Y-128270000D01*
X83185000Y-124460000D02*
X85725000Y-124460000D01*
X85725000Y-120650000D02*
X85725000Y-110490000D01*
D12*
X84455000Y-126365000D02*
X84455000Y-125095000D01*
D11*
X138430000Y-163830000D02*
X138430000Y-168910000D01*
X85725000Y-115570000D02*
X88265000Y-115570000D01*
X98299246Y-128270000D02*
X95250000Y-128270000D01*
X104837877Y-127000000D02*
G75*
G02*
X98362123Y-127000000I-3237877J0D01*
G01*
X98362123Y-127000000D02*
G75*
G02*
X104837877Y-127000000I3237877J0D01*
G01*
X85725000Y-143510000D02*
X85725000Y-135890000D01*
X83185000Y-135890000D02*
X88265000Y-135890000D01*
X170815000Y-110490000D02*
X170815000Y-143510000D01*
X137920754Y-128270000D02*
X137920754Y-125730000D01*
X116840000Y-170180000D02*
G75*
G02*
X115570000Y-168910000I0J1270000D01*
G01*
X85725000Y-132080000D02*
X85725000Y-121920000D01*
X98299246Y-125730000D02*
X95250000Y-125730000D01*
X146810754Y-128270000D02*
X144270754Y-125730000D01*
X133350000Y-86995000D02*
X137795000Y-86995000D01*
X155637877Y-127000000D02*
G75*
G02*
X149162123Y-127000000I-3237877J0D01*
G01*
X149162123Y-127000000D02*
G75*
G02*
X155637877Y-127000000I3237877J0D01*
G01*
X137160000Y-162560000D02*
G75*
G02*
X138430000Y-163830000I0J-1270000D01*
G01*
X114809246Y-128270000D02*
X112269246Y-125730000D01*
D10*
X84486905Y-134839104D02*
X84963095Y-134839104D01*
X84391667Y-135124819D02*
X84725000Y-134124819D01*
X84725000Y-134124819D02*
X85058333Y-135124819D01*
X85391667Y-135124819D02*
X85391667Y-134124819D01*
X85391667Y-134124819D02*
X85629762Y-134124819D01*
X85629762Y-134124819D02*
X85772619Y-134172438D01*
X85772619Y-134172438D02*
X85867857Y-134267676D01*
X85867857Y-134267676D02*
X85915476Y-134362914D01*
X85915476Y-134362914D02*
X85963095Y-134553390D01*
X85963095Y-134553390D02*
X85963095Y-134696247D01*
X85963095Y-134696247D02*
X85915476Y-134886723D01*
X85915476Y-134886723D02*
X85867857Y-134981961D01*
X85867857Y-134981961D02*
X85772619Y-135077200D01*
X85772619Y-135077200D02*
X85629762Y-135124819D01*
X85629762Y-135124819D02*
X85391667Y-135124819D01*
X86963095Y-135029580D02*
X86915476Y-135077200D01*
X86915476Y-135077200D02*
X86772619Y-135124819D01*
X86772619Y-135124819D02*
X86677381Y-135124819D01*
X86677381Y-135124819D02*
X86534524Y-135077200D01*
X86534524Y-135077200D02*
X86439286Y-134981961D01*
X86439286Y-134981961D02*
X86391667Y-134886723D01*
X86391667Y-134886723D02*
X86344048Y-134696247D01*
X86344048Y-134696247D02*
X86344048Y-134553390D01*
X86344048Y-134553390D02*
X86391667Y-134362914D01*
X86391667Y-134362914D02*
X86439286Y-134267676D01*
X86439286Y-134267676D02*
X86534524Y-134172438D01*
X86534524Y-134172438D02*
X86677381Y-134124819D01*
X86677381Y-134124819D02*
X86772619Y-134124819D01*
X86772619Y-134124819D02*
X86915476Y-134172438D01*
X86915476Y-134172438D02*
X86963095Y-134220057D01*
D13*
X166497580Y-112063884D02*
X167497580Y-112063884D01*
X167402342Y-112492455D02*
X167449961Y-112540074D01*
X167449961Y-112540074D02*
X167497580Y-112635312D01*
X167497580Y-112635312D02*
X167497580Y-112873407D01*
X167497580Y-112873407D02*
X167449961Y-112968645D01*
X167449961Y-112968645D02*
X167402342Y-113016264D01*
X167402342Y-113016264D02*
X167307104Y-113063883D01*
X167307104Y-113063883D02*
X167211866Y-113063883D01*
X167211866Y-113063883D02*
X167069009Y-113016264D01*
X167069009Y-113016264D02*
X166497580Y-112444836D01*
X166497580Y-112444836D02*
X166497580Y-113063883D01*
X166592819Y-114063883D02*
X166545200Y-114016264D01*
X166545200Y-114016264D02*
X166497580Y-113873407D01*
X166497580Y-113873407D02*
X166497580Y-113778169D01*
X166497580Y-113778169D02*
X166545200Y-113635312D01*
X166545200Y-113635312D02*
X166640438Y-113540074D01*
X166640438Y-113540074D02*
X166735676Y-113492455D01*
X166735676Y-113492455D02*
X166926152Y-113444836D01*
X166926152Y-113444836D02*
X167069009Y-113444836D01*
X167069009Y-113444836D02*
X167259485Y-113492455D01*
X167259485Y-113492455D02*
X167354723Y-113540074D01*
X167354723Y-113540074D02*
X167449961Y-113635312D01*
X167449961Y-113635312D02*
X167497580Y-113778169D01*
X167497580Y-113778169D02*
X167497580Y-113873407D01*
X167497580Y-113873407D02*
X167449961Y-114016264D01*
X167449961Y-114016264D02*
X167402342Y-114063883D01*
X166497580Y-115016264D02*
X166497580Y-114444836D01*
X166497580Y-114730550D02*
X167497580Y-114730550D01*
X167497580Y-114730550D02*
X167354723Y-114635312D01*
X167354723Y-114635312D02*
X167259485Y-114540074D01*
X167259485Y-114540074D02*
X167211866Y-114444836D01*
D10*
X87499819Y-114482380D02*
X86499819Y-114482380D01*
X86595057Y-114053809D02*
X86547438Y-114006190D01*
X86547438Y-114006190D02*
X86499819Y-113910952D01*
X86499819Y-113910952D02*
X86499819Y-113672857D01*
X86499819Y-113672857D02*
X86547438Y-113577619D01*
X86547438Y-113577619D02*
X86595057Y-113530000D01*
X86595057Y-113530000D02*
X86690295Y-113482381D01*
X86690295Y-113482381D02*
X86785533Y-113482381D01*
X86785533Y-113482381D02*
X86928390Y-113530000D01*
X86928390Y-113530000D02*
X87499819Y-114101428D01*
X87499819Y-114101428D02*
X87499819Y-113482381D01*
X87404580Y-112482381D02*
X87452200Y-112530000D01*
X87452200Y-112530000D02*
X87499819Y-112672857D01*
X87499819Y-112672857D02*
X87499819Y-112768095D01*
X87499819Y-112768095D02*
X87452200Y-112910952D01*
X87452200Y-112910952D02*
X87356961Y-113006190D01*
X87356961Y-113006190D02*
X87261723Y-113053809D01*
X87261723Y-113053809D02*
X87071247Y-113101428D01*
X87071247Y-113101428D02*
X86928390Y-113101428D01*
X86928390Y-113101428D02*
X86737914Y-113053809D01*
X86737914Y-113053809D02*
X86642676Y-113006190D01*
X86642676Y-113006190D02*
X86547438Y-112910952D01*
X86547438Y-112910952D02*
X86499819Y-112768095D01*
X86499819Y-112768095D02*
X86499819Y-112672857D01*
X86499819Y-112672857D02*
X86547438Y-112530000D01*
X86547438Y-112530000D02*
X86595057Y-112482381D01*
X86499819Y-111863333D02*
X86499819Y-111768095D01*
X86499819Y-111768095D02*
X86547438Y-111672857D01*
X86547438Y-111672857D02*
X86595057Y-111625238D01*
X86595057Y-111625238D02*
X86690295Y-111577619D01*
X86690295Y-111577619D02*
X86880771Y-111530000D01*
X86880771Y-111530000D02*
X87118866Y-111530000D01*
X87118866Y-111530000D02*
X87309342Y-111577619D01*
X87309342Y-111577619D02*
X87404580Y-111625238D01*
X87404580Y-111625238D02*
X87452200Y-111672857D01*
X87452200Y-111672857D02*
X87499819Y-111768095D01*
X87499819Y-111768095D02*
X87499819Y-111863333D01*
X87499819Y-111863333D02*
X87452200Y-111958571D01*
X87452200Y-111958571D02*
X87404580Y-112006190D01*
X87404580Y-112006190D02*
X87309342Y-112053809D01*
X87309342Y-112053809D02*
X87118866Y-112101428D01*
X87118866Y-112101428D02*
X86880771Y-112101428D01*
X86880771Y-112101428D02*
X86690295Y-112053809D01*
X86690295Y-112053809D02*
X86595057Y-112006190D01*
X86595057Y-112006190D02*
X86547438Y-111958571D01*
X86547438Y-111958571D02*
X86499819Y-111863333D01*
X84912200Y-117450951D02*
X84959819Y-117308094D01*
X84959819Y-117308094D02*
X84959819Y-117069999D01*
X84959819Y-117069999D02*
X84912200Y-116974761D01*
X84912200Y-116974761D02*
X84864580Y-116927142D01*
X84864580Y-116927142D02*
X84769342Y-116879523D01*
X84769342Y-116879523D02*
X84674104Y-116879523D01*
X84674104Y-116879523D02*
X84578866Y-116927142D01*
X84578866Y-116927142D02*
X84531247Y-116974761D01*
X84531247Y-116974761D02*
X84483628Y-117069999D01*
X84483628Y-117069999D02*
X84436009Y-117260475D01*
X84436009Y-117260475D02*
X84388390Y-117355713D01*
X84388390Y-117355713D02*
X84340771Y-117403332D01*
X84340771Y-117403332D02*
X84245533Y-117450951D01*
X84245533Y-117450951D02*
X84150295Y-117450951D01*
X84150295Y-117450951D02*
X84055057Y-117403332D01*
X84055057Y-117403332D02*
X84007438Y-117355713D01*
X84007438Y-117355713D02*
X83959819Y-117260475D01*
X83959819Y-117260475D02*
X83959819Y-117022380D01*
X83959819Y-117022380D02*
X84007438Y-116879523D01*
X84959819Y-116450951D02*
X83959819Y-116450951D01*
X83959819Y-116450951D02*
X83959819Y-116069999D01*
X83959819Y-116069999D02*
X84007438Y-115974761D01*
X84007438Y-115974761D02*
X84055057Y-115927142D01*
X84055057Y-115927142D02*
X84150295Y-115879523D01*
X84150295Y-115879523D02*
X84293152Y-115879523D01*
X84293152Y-115879523D02*
X84388390Y-115927142D01*
X84388390Y-115927142D02*
X84436009Y-115974761D01*
X84436009Y-115974761D02*
X84483628Y-116069999D01*
X84483628Y-116069999D02*
X84483628Y-116450951D01*
X84959819Y-115450951D02*
X83959819Y-115450951D01*
X84959819Y-113689047D02*
X84959819Y-114260475D01*
X84959819Y-113974761D02*
X83959819Y-113974761D01*
X83959819Y-113974761D02*
X84102676Y-114069999D01*
X84102676Y-114069999D02*
X84197914Y-114165237D01*
X84197914Y-114165237D02*
X84245533Y-114260475D01*
X84912200Y-141580951D02*
X84959819Y-141438094D01*
X84959819Y-141438094D02*
X84959819Y-141199999D01*
X84959819Y-141199999D02*
X84912200Y-141104761D01*
X84912200Y-141104761D02*
X84864580Y-141057142D01*
X84864580Y-141057142D02*
X84769342Y-141009523D01*
X84769342Y-141009523D02*
X84674104Y-141009523D01*
X84674104Y-141009523D02*
X84578866Y-141057142D01*
X84578866Y-141057142D02*
X84531247Y-141104761D01*
X84531247Y-141104761D02*
X84483628Y-141199999D01*
X84483628Y-141199999D02*
X84436009Y-141390475D01*
X84436009Y-141390475D02*
X84388390Y-141485713D01*
X84388390Y-141485713D02*
X84340771Y-141533332D01*
X84340771Y-141533332D02*
X84245533Y-141580951D01*
X84245533Y-141580951D02*
X84150295Y-141580951D01*
X84150295Y-141580951D02*
X84055057Y-141533332D01*
X84055057Y-141533332D02*
X84007438Y-141485713D01*
X84007438Y-141485713D02*
X83959819Y-141390475D01*
X83959819Y-141390475D02*
X83959819Y-141152380D01*
X83959819Y-141152380D02*
X84007438Y-141009523D01*
X84959819Y-140580951D02*
X83959819Y-140580951D01*
X83959819Y-140580951D02*
X83959819Y-140199999D01*
X83959819Y-140199999D02*
X84007438Y-140104761D01*
X84007438Y-140104761D02*
X84055057Y-140057142D01*
X84055057Y-140057142D02*
X84150295Y-140009523D01*
X84150295Y-140009523D02*
X84293152Y-140009523D01*
X84293152Y-140009523D02*
X84388390Y-140057142D01*
X84388390Y-140057142D02*
X84436009Y-140104761D01*
X84436009Y-140104761D02*
X84483628Y-140199999D01*
X84483628Y-140199999D02*
X84483628Y-140580951D01*
X84959819Y-139580951D02*
X83959819Y-139580951D01*
X83959819Y-138152380D02*
X83959819Y-138057142D01*
X83959819Y-138057142D02*
X84007438Y-137961904D01*
X84007438Y-137961904D02*
X84055057Y-137914285D01*
X84055057Y-137914285D02*
X84150295Y-137866666D01*
X84150295Y-137866666D02*
X84340771Y-137819047D01*
X84340771Y-137819047D02*
X84578866Y-137819047D01*
X84578866Y-137819047D02*
X84769342Y-137866666D01*
X84769342Y-137866666D02*
X84864580Y-137914285D01*
X84864580Y-137914285D02*
X84912200Y-137961904D01*
X84912200Y-137961904D02*
X84959819Y-138057142D01*
X84959819Y-138057142D02*
X84959819Y-138152380D01*
X84959819Y-138152380D02*
X84912200Y-138247618D01*
X84912200Y-138247618D02*
X84864580Y-138295237D01*
X84864580Y-138295237D02*
X84769342Y-138342856D01*
X84769342Y-138342856D02*
X84578866Y-138390475D01*
X84578866Y-138390475D02*
X84340771Y-138390475D01*
X84340771Y-138390475D02*
X84150295Y-138342856D01*
X84150295Y-138342856D02*
X84055057Y-138295237D01*
X84055057Y-138295237D02*
X84007438Y-138247618D01*
X84007438Y-138247618D02*
X83959819Y-138152380D01*
X87499819Y-119562380D02*
X86499819Y-119562380D01*
X86595057Y-119133809D02*
X86547438Y-119086190D01*
X86547438Y-119086190D02*
X86499819Y-118990952D01*
X86499819Y-118990952D02*
X86499819Y-118752857D01*
X86499819Y-118752857D02*
X86547438Y-118657619D01*
X86547438Y-118657619D02*
X86595057Y-118610000D01*
X86595057Y-118610000D02*
X86690295Y-118562381D01*
X86690295Y-118562381D02*
X86785533Y-118562381D01*
X86785533Y-118562381D02*
X86928390Y-118610000D01*
X86928390Y-118610000D02*
X87499819Y-119181428D01*
X87499819Y-119181428D02*
X87499819Y-118562381D01*
X87404580Y-117562381D02*
X87452200Y-117610000D01*
X87452200Y-117610000D02*
X87499819Y-117752857D01*
X87499819Y-117752857D02*
X87499819Y-117848095D01*
X87499819Y-117848095D02*
X87452200Y-117990952D01*
X87452200Y-117990952D02*
X87356961Y-118086190D01*
X87356961Y-118086190D02*
X87261723Y-118133809D01*
X87261723Y-118133809D02*
X87071247Y-118181428D01*
X87071247Y-118181428D02*
X86928390Y-118181428D01*
X86928390Y-118181428D02*
X86737914Y-118133809D01*
X86737914Y-118133809D02*
X86642676Y-118086190D01*
X86642676Y-118086190D02*
X86547438Y-117990952D01*
X86547438Y-117990952D02*
X86499819Y-117848095D01*
X86499819Y-117848095D02*
X86499819Y-117752857D01*
X86499819Y-117752857D02*
X86547438Y-117610000D01*
X86547438Y-117610000D02*
X86595057Y-117562381D01*
X87499819Y-116610000D02*
X87499819Y-117181428D01*
X87499819Y-116895714D02*
X86499819Y-116895714D01*
X86499819Y-116895714D02*
X86642676Y-116990952D01*
X86642676Y-116990952D02*
X86737914Y-117086190D01*
X86737914Y-117086190D02*
X86785533Y-117181428D01*
D13*
X166497580Y-117143884D02*
X167497580Y-117143884D01*
X167402342Y-117572455D02*
X167449961Y-117620074D01*
X167449961Y-117620074D02*
X167497580Y-117715312D01*
X167497580Y-117715312D02*
X167497580Y-117953407D01*
X167497580Y-117953407D02*
X167449961Y-118048645D01*
X167449961Y-118048645D02*
X167402342Y-118096264D01*
X167402342Y-118096264D02*
X167307104Y-118143883D01*
X167307104Y-118143883D02*
X167211866Y-118143883D01*
X167211866Y-118143883D02*
X167069009Y-118096264D01*
X167069009Y-118096264D02*
X166497580Y-117524836D01*
X166497580Y-117524836D02*
X166497580Y-118143883D01*
X166592819Y-119143883D02*
X166545200Y-119096264D01*
X166545200Y-119096264D02*
X166497580Y-118953407D01*
X166497580Y-118953407D02*
X166497580Y-118858169D01*
X166497580Y-118858169D02*
X166545200Y-118715312D01*
X166545200Y-118715312D02*
X166640438Y-118620074D01*
X166640438Y-118620074D02*
X166735676Y-118572455D01*
X166735676Y-118572455D02*
X166926152Y-118524836D01*
X166926152Y-118524836D02*
X167069009Y-118524836D01*
X167069009Y-118524836D02*
X167259485Y-118572455D01*
X167259485Y-118572455D02*
X167354723Y-118620074D01*
X167354723Y-118620074D02*
X167449961Y-118715312D01*
X167449961Y-118715312D02*
X167497580Y-118858169D01*
X167497580Y-118858169D02*
X167497580Y-118953407D01*
X167497580Y-118953407D02*
X167449961Y-119096264D01*
X167449961Y-119096264D02*
X167402342Y-119143883D01*
X167497580Y-119762931D02*
X167497580Y-119858169D01*
X167497580Y-119858169D02*
X167449961Y-119953407D01*
X167449961Y-119953407D02*
X167402342Y-120001026D01*
X167402342Y-120001026D02*
X167307104Y-120048645D01*
X167307104Y-120048645D02*
X167116628Y-120096264D01*
X167116628Y-120096264D02*
X166878533Y-120096264D01*
X166878533Y-120096264D02*
X166688057Y-120048645D01*
X166688057Y-120048645D02*
X166592819Y-120001026D01*
X166592819Y-120001026D02*
X166545200Y-119953407D01*
X166545200Y-119953407D02*
X166497580Y-119858169D01*
X166497580Y-119858169D02*
X166497580Y-119762931D01*
X166497580Y-119762931D02*
X166545200Y-119667693D01*
X166545200Y-119667693D02*
X166592819Y-119620074D01*
X166592819Y-119620074D02*
X166688057Y-119572455D01*
X166688057Y-119572455D02*
X166878533Y-119524836D01*
X166878533Y-119524836D02*
X167116628Y-119524836D01*
X167116628Y-119524836D02*
X167307104Y-119572455D01*
X167307104Y-119572455D02*
X167402342Y-119620074D01*
X167402342Y-119620074D02*
X167449961Y-119667693D01*
X167449961Y-119667693D02*
X167497580Y-119762931D01*
X169085200Y-113921265D02*
X169037580Y-114064122D01*
X169037580Y-114064122D02*
X169037580Y-114302217D01*
X169037580Y-114302217D02*
X169085200Y-114397455D01*
X169085200Y-114397455D02*
X169132819Y-114445074D01*
X169132819Y-114445074D02*
X169228057Y-114492693D01*
X169228057Y-114492693D02*
X169323295Y-114492693D01*
X169323295Y-114492693D02*
X169418533Y-114445074D01*
X169418533Y-114445074D02*
X169466152Y-114397455D01*
X169466152Y-114397455D02*
X169513771Y-114302217D01*
X169513771Y-114302217D02*
X169561390Y-114111741D01*
X169561390Y-114111741D02*
X169609009Y-114016503D01*
X169609009Y-114016503D02*
X169656628Y-113968884D01*
X169656628Y-113968884D02*
X169751866Y-113921265D01*
X169751866Y-113921265D02*
X169847104Y-113921265D01*
X169847104Y-113921265D02*
X169942342Y-113968884D01*
X169942342Y-113968884D02*
X169989961Y-114016503D01*
X169989961Y-114016503D02*
X170037580Y-114111741D01*
X170037580Y-114111741D02*
X170037580Y-114349836D01*
X170037580Y-114349836D02*
X169989961Y-114492693D01*
X169037580Y-114921265D02*
X170037580Y-114921265D01*
X170037580Y-114921265D02*
X170037580Y-115302217D01*
X170037580Y-115302217D02*
X169989961Y-115397455D01*
X169989961Y-115397455D02*
X169942342Y-115445074D01*
X169942342Y-115445074D02*
X169847104Y-115492693D01*
X169847104Y-115492693D02*
X169704247Y-115492693D01*
X169704247Y-115492693D02*
X169609009Y-115445074D01*
X169609009Y-115445074D02*
X169561390Y-115397455D01*
X169561390Y-115397455D02*
X169513771Y-115302217D01*
X169513771Y-115302217D02*
X169513771Y-114921265D01*
X169037580Y-115921265D02*
X170037580Y-115921265D01*
X169037580Y-117683169D02*
X169037580Y-117111741D01*
X169037580Y-117397455D02*
X170037580Y-117397455D01*
X170037580Y-117397455D02*
X169894723Y-117302217D01*
X169894723Y-117302217D02*
X169799485Y-117206979D01*
X169799485Y-117206979D02*
X169751866Y-117111741D01*
D10*
X87499819Y-139882380D02*
X86499819Y-139882380D01*
X86595057Y-139453809D02*
X86547438Y-139406190D01*
X86547438Y-139406190D02*
X86499819Y-139310952D01*
X86499819Y-139310952D02*
X86499819Y-139072857D01*
X86499819Y-139072857D02*
X86547438Y-138977619D01*
X86547438Y-138977619D02*
X86595057Y-138930000D01*
X86595057Y-138930000D02*
X86690295Y-138882381D01*
X86690295Y-138882381D02*
X86785533Y-138882381D01*
X86785533Y-138882381D02*
X86928390Y-138930000D01*
X86928390Y-138930000D02*
X87499819Y-139501428D01*
X87499819Y-139501428D02*
X87499819Y-138882381D01*
X87404580Y-137882381D02*
X87452200Y-137930000D01*
X87452200Y-137930000D02*
X87499819Y-138072857D01*
X87499819Y-138072857D02*
X87499819Y-138168095D01*
X87499819Y-138168095D02*
X87452200Y-138310952D01*
X87452200Y-138310952D02*
X87356961Y-138406190D01*
X87356961Y-138406190D02*
X87261723Y-138453809D01*
X87261723Y-138453809D02*
X87071247Y-138501428D01*
X87071247Y-138501428D02*
X86928390Y-138501428D01*
X86928390Y-138501428D02*
X86737914Y-138453809D01*
X86737914Y-138453809D02*
X86642676Y-138406190D01*
X86642676Y-138406190D02*
X86547438Y-138310952D01*
X86547438Y-138310952D02*
X86499819Y-138168095D01*
X86499819Y-138168095D02*
X86499819Y-138072857D01*
X86499819Y-138072857D02*
X86547438Y-137930000D01*
X86547438Y-137930000D02*
X86595057Y-137882381D01*
X87499819Y-136930000D02*
X87499819Y-137501428D01*
X87499819Y-137215714D02*
X86499819Y-137215714D01*
X86499819Y-137215714D02*
X86642676Y-137310952D01*
X86642676Y-137310952D02*
X86737914Y-137406190D01*
X86737914Y-137406190D02*
X86785533Y-137501428D01*
D11*
X137920754Y-128270000D02*
X149350754Y-128270000D01*
D10*
X138366667Y-97987200D02*
X138509524Y-98034819D01*
X138509524Y-98034819D02*
X138747619Y-98034819D01*
X138747619Y-98034819D02*
X138842857Y-97987200D01*
X138842857Y-97987200D02*
X138890476Y-97939580D01*
X138890476Y-97939580D02*
X138938095Y-97844342D01*
X138938095Y-97844342D02*
X138938095Y-97749104D01*
X138938095Y-97749104D02*
X138890476Y-97653866D01*
X138890476Y-97653866D02*
X138842857Y-97606247D01*
X138842857Y-97606247D02*
X138747619Y-97558628D01*
X138747619Y-97558628D02*
X138557143Y-97511009D01*
X138557143Y-97511009D02*
X138461905Y-97463390D01*
X138461905Y-97463390D02*
X138414286Y-97415771D01*
X138414286Y-97415771D02*
X138366667Y-97320533D01*
X138366667Y-97320533D02*
X138366667Y-97225295D01*
X138366667Y-97225295D02*
X138414286Y-97130057D01*
X138414286Y-97130057D02*
X138461905Y-97082438D01*
X138461905Y-97082438D02*
X138557143Y-97034819D01*
X138557143Y-97034819D02*
X138795238Y-97034819D01*
X138795238Y-97034819D02*
X138938095Y-97082438D01*
X139271429Y-97034819D02*
X139509524Y-98034819D01*
X139509524Y-98034819D02*
X139700000Y-97320533D01*
X139700000Y-97320533D02*
X139890476Y-98034819D01*
X139890476Y-98034819D02*
X140128572Y-97034819D01*
X141033333Y-98034819D02*
X140461905Y-98034819D01*
X140747619Y-98034819D02*
X140747619Y-97034819D01*
X140747619Y-97034819D02*
X140652381Y-97177676D01*
X140652381Y-97177676D02*
X140557143Y-97272914D01*
X140557143Y-97272914D02*
X140461905Y-97320533D01*
X126261905Y-141424819D02*
X126261905Y-140424819D01*
X126261905Y-140424819D02*
X126500000Y-140424819D01*
X126500000Y-140424819D02*
X126642857Y-140472438D01*
X126642857Y-140472438D02*
X126738095Y-140567676D01*
X126738095Y-140567676D02*
X126785714Y-140662914D01*
X126785714Y-140662914D02*
X126833333Y-140853390D01*
X126833333Y-140853390D02*
X126833333Y-140996247D01*
X126833333Y-140996247D02*
X126785714Y-141186723D01*
X126785714Y-141186723D02*
X126738095Y-141281961D01*
X126738095Y-141281961D02*
X126642857Y-141377200D01*
X126642857Y-141377200D02*
X126500000Y-141424819D01*
X126500000Y-141424819D02*
X126261905Y-141424819D01*
X127785714Y-141424819D02*
X127214286Y-141424819D01*
X127500000Y-141424819D02*
X127500000Y-140424819D01*
X127500000Y-140424819D02*
X127404762Y-140567676D01*
X127404762Y-140567676D02*
X127309524Y-140662914D01*
X127309524Y-140662914D02*
X127214286Y-140710533D01*
X117776666Y-85584819D02*
X117776666Y-86299104D01*
X117776666Y-86299104D02*
X117729047Y-86441961D01*
X117729047Y-86441961D02*
X117633809Y-86537200D01*
X117633809Y-86537200D02*
X117490952Y-86584819D01*
X117490952Y-86584819D02*
X117395714Y-86584819D01*
X118776666Y-86584819D02*
X118205238Y-86584819D01*
X118490952Y-86584819D02*
X118490952Y-85584819D01*
X118490952Y-85584819D02*
X118395714Y-85727676D01*
X118395714Y-85727676D02*
X118300476Y-85822914D01*
X118300476Y-85822914D02*
X118205238Y-85870533D01*
X126238095Y-151854819D02*
X126238095Y-152664342D01*
X126238095Y-152664342D02*
X126285714Y-152759580D01*
X126285714Y-152759580D02*
X126333333Y-152807200D01*
X126333333Y-152807200D02*
X126428571Y-152854819D01*
X126428571Y-152854819D02*
X126619047Y-152854819D01*
X126619047Y-152854819D02*
X126714285Y-152807200D01*
X126714285Y-152807200D02*
X126761904Y-152759580D01*
X126761904Y-152759580D02*
X126809523Y-152664342D01*
X126809523Y-152664342D02*
X126809523Y-151854819D01*
X127809523Y-152854819D02*
X127238095Y-152854819D01*
X127523809Y-152854819D02*
X127523809Y-151854819D01*
X127523809Y-151854819D02*
X127428571Y-151997676D01*
X127428571Y-151997676D02*
X127333333Y-152092914D01*
X127333333Y-152092914D02*
X127238095Y-152140533D01*
X118864881Y-156043509D02*
X119007738Y-156091128D01*
X119007738Y-156091128D02*
X119055357Y-156138747D01*
X119055357Y-156138747D02*
X119102976Y-156233985D01*
X119102976Y-156233985D02*
X119102976Y-156376842D01*
X119102976Y-156376842D02*
X119055357Y-156472080D01*
X119055357Y-156472080D02*
X119007738Y-156519700D01*
X119007738Y-156519700D02*
X118912500Y-156567319D01*
X118912500Y-156567319D02*
X118531548Y-156567319D01*
X118531548Y-156567319D02*
X118531548Y-155567319D01*
X118531548Y-155567319D02*
X118864881Y-155567319D01*
X118864881Y-155567319D02*
X118960119Y-155614938D01*
X118960119Y-155614938D02*
X119007738Y-155662557D01*
X119007738Y-155662557D02*
X119055357Y-155757795D01*
X119055357Y-155757795D02*
X119055357Y-155853033D01*
X119055357Y-155853033D02*
X119007738Y-155948271D01*
X119007738Y-155948271D02*
X118960119Y-155995890D01*
X118960119Y-155995890D02*
X118864881Y-156043509D01*
X118864881Y-156043509D02*
X118531548Y-156043509D01*
X119531548Y-156186366D02*
X120293453Y-156186366D01*
X119912500Y-156567319D02*
X119912500Y-155805414D01*
X139589446Y-159468468D02*
X140351351Y-159468468D01*
X139970398Y-159849421D02*
X139970398Y-159087516D01*
X139154819Y-153661904D02*
X139964342Y-153661904D01*
X139964342Y-153661904D02*
X140059580Y-153614285D01*
X140059580Y-153614285D02*
X140107200Y-153566666D01*
X140107200Y-153566666D02*
X140154819Y-153471428D01*
X140154819Y-153471428D02*
X140154819Y-153280952D01*
X140154819Y-153280952D02*
X140107200Y-153185714D01*
X140107200Y-153185714D02*
X140059580Y-153138095D01*
X140059580Y-153138095D02*
X139964342Y-153090476D01*
X139964342Y-153090476D02*
X139154819Y-153090476D01*
X140107200Y-152661904D02*
X140154819Y-152519047D01*
X140154819Y-152519047D02*
X140154819Y-152280952D01*
X140154819Y-152280952D02*
X140107200Y-152185714D01*
X140107200Y-152185714D02*
X140059580Y-152138095D01*
X140059580Y-152138095D02*
X139964342Y-152090476D01*
X139964342Y-152090476D02*
X139869104Y-152090476D01*
X139869104Y-152090476D02*
X139773866Y-152138095D01*
X139773866Y-152138095D02*
X139726247Y-152185714D01*
X139726247Y-152185714D02*
X139678628Y-152280952D01*
X139678628Y-152280952D02*
X139631009Y-152471428D01*
X139631009Y-152471428D02*
X139583390Y-152566666D01*
X139583390Y-152566666D02*
X139535771Y-152614285D01*
X139535771Y-152614285D02*
X139440533Y-152661904D01*
X139440533Y-152661904D02*
X139345295Y-152661904D01*
X139345295Y-152661904D02*
X139250057Y-152614285D01*
X139250057Y-152614285D02*
X139202438Y-152566666D01*
X139202438Y-152566666D02*
X139154819Y-152471428D01*
X139154819Y-152471428D02*
X139154819Y-152233333D01*
X139154819Y-152233333D02*
X139202438Y-152090476D01*
X139631009Y-151328571D02*
X139678628Y-151185714D01*
X139678628Y-151185714D02*
X139726247Y-151138095D01*
X139726247Y-151138095D02*
X139821485Y-151090476D01*
X139821485Y-151090476D02*
X139964342Y-151090476D01*
X139964342Y-151090476D02*
X140059580Y-151138095D01*
X140059580Y-151138095D02*
X140107200Y-151185714D01*
X140107200Y-151185714D02*
X140154819Y-151280952D01*
X140154819Y-151280952D02*
X140154819Y-151661904D01*
X140154819Y-151661904D02*
X139154819Y-151661904D01*
X139154819Y-151661904D02*
X139154819Y-151328571D01*
X139154819Y-151328571D02*
X139202438Y-151233333D01*
X139202438Y-151233333D02*
X139250057Y-151185714D01*
X139250057Y-151185714D02*
X139345295Y-151138095D01*
X139345295Y-151138095D02*
X139440533Y-151138095D01*
X139440533Y-151138095D02*
X139535771Y-151185714D01*
X139535771Y-151185714D02*
X139583390Y-151233333D01*
X139583390Y-151233333D02*
X139631009Y-151328571D01*
X139631009Y-151328571D02*
X139631009Y-151661904D01*
X135747142Y-158204819D02*
X135270952Y-158204819D01*
X135270952Y-158204819D02*
X135223333Y-158681009D01*
X135223333Y-158681009D02*
X135270952Y-158633390D01*
X135270952Y-158633390D02*
X135366190Y-158585771D01*
X135366190Y-158585771D02*
X135604285Y-158585771D01*
X135604285Y-158585771D02*
X135699523Y-158633390D01*
X135699523Y-158633390D02*
X135747142Y-158681009D01*
X135747142Y-158681009D02*
X135794761Y-158776247D01*
X135794761Y-158776247D02*
X135794761Y-159014342D01*
X135794761Y-159014342D02*
X135747142Y-159109580D01*
X135747142Y-159109580D02*
X135699523Y-159157200D01*
X135699523Y-159157200D02*
X135604285Y-159204819D01*
X135604285Y-159204819D02*
X135366190Y-159204819D01*
X135366190Y-159204819D02*
X135270952Y-159157200D01*
X135270952Y-159157200D02*
X135223333Y-159109580D01*
X136128095Y-158538152D02*
X136366190Y-159204819D01*
X136366190Y-159204819D02*
X136604285Y-158538152D01*
X139489446Y-144268468D02*
X140251351Y-144268468D01*
X118760119Y-159067319D02*
X118950595Y-159067319D01*
X118950595Y-159067319D02*
X119045833Y-159114938D01*
X119045833Y-159114938D02*
X119141071Y-159210176D01*
X119141071Y-159210176D02*
X119188690Y-159400652D01*
X119188690Y-159400652D02*
X119188690Y-159733985D01*
X119188690Y-159733985D02*
X119141071Y-159924461D01*
X119141071Y-159924461D02*
X119045833Y-160019700D01*
X119045833Y-160019700D02*
X118950595Y-160067319D01*
X118950595Y-160067319D02*
X118760119Y-160067319D01*
X118760119Y-160067319D02*
X118664881Y-160019700D01*
X118664881Y-160019700D02*
X118569643Y-159924461D01*
X118569643Y-159924461D02*
X118522024Y-159733985D01*
X118522024Y-159733985D02*
X118522024Y-159400652D01*
X118522024Y-159400652D02*
X118569643Y-159210176D01*
X118569643Y-159210176D02*
X118664881Y-159114938D01*
X118664881Y-159114938D02*
X118760119Y-159067319D01*
X120045833Y-159400652D02*
X120045833Y-160067319D01*
X119617262Y-159400652D02*
X119617262Y-159924461D01*
X119617262Y-159924461D02*
X119664881Y-160019700D01*
X119664881Y-160019700D02*
X119760119Y-160067319D01*
X119760119Y-160067319D02*
X119902976Y-160067319D01*
X119902976Y-160067319D02*
X119998214Y-160019700D01*
X119998214Y-160019700D02*
X120045833Y-159972080D01*
X120379167Y-159400652D02*
X120760119Y-159400652D01*
X120522024Y-159067319D02*
X120522024Y-159924461D01*
X120522024Y-159924461D02*
X120569643Y-160019700D01*
X120569643Y-160019700D02*
X120664881Y-160067319D01*
X120664881Y-160067319D02*
X120760119Y-160067319D01*
X121093453Y-159686366D02*
X121855358Y-159686366D01*
X121474405Y-160067319D02*
X121474405Y-159305414D01*
X118864881Y-148443509D02*
X119007738Y-148491128D01*
X119007738Y-148491128D02*
X119055357Y-148538747D01*
X119055357Y-148538747D02*
X119102976Y-148633985D01*
X119102976Y-148633985D02*
X119102976Y-148776842D01*
X119102976Y-148776842D02*
X119055357Y-148872080D01*
X119055357Y-148872080D02*
X119007738Y-148919700D01*
X119007738Y-148919700D02*
X118912500Y-148967319D01*
X118912500Y-148967319D02*
X118531548Y-148967319D01*
X118531548Y-148967319D02*
X118531548Y-147967319D01*
X118531548Y-147967319D02*
X118864881Y-147967319D01*
X118864881Y-147967319D02*
X118960119Y-148014938D01*
X118960119Y-148014938D02*
X119007738Y-148062557D01*
X119007738Y-148062557D02*
X119055357Y-148157795D01*
X119055357Y-148157795D02*
X119055357Y-148253033D01*
X119055357Y-148253033D02*
X119007738Y-148348271D01*
X119007738Y-148348271D02*
X118960119Y-148395890D01*
X118960119Y-148395890D02*
X118864881Y-148443509D01*
X118864881Y-148443509D02*
X118531548Y-148443509D01*
X119531548Y-148586366D02*
X120293453Y-148586366D01*
X118760119Y-144467319D02*
X118950595Y-144467319D01*
X118950595Y-144467319D02*
X119045833Y-144514938D01*
X119045833Y-144514938D02*
X119141071Y-144610176D01*
X119141071Y-144610176D02*
X119188690Y-144800652D01*
X119188690Y-144800652D02*
X119188690Y-145133985D01*
X119188690Y-145133985D02*
X119141071Y-145324461D01*
X119141071Y-145324461D02*
X119045833Y-145419700D01*
X119045833Y-145419700D02*
X118950595Y-145467319D01*
X118950595Y-145467319D02*
X118760119Y-145467319D01*
X118760119Y-145467319D02*
X118664881Y-145419700D01*
X118664881Y-145419700D02*
X118569643Y-145324461D01*
X118569643Y-145324461D02*
X118522024Y-145133985D01*
X118522024Y-145133985D02*
X118522024Y-144800652D01*
X118522024Y-144800652D02*
X118569643Y-144610176D01*
X118569643Y-144610176D02*
X118664881Y-144514938D01*
X118664881Y-144514938D02*
X118760119Y-144467319D01*
X120045833Y-144800652D02*
X120045833Y-145467319D01*
X119617262Y-144800652D02*
X119617262Y-145324461D01*
X119617262Y-145324461D02*
X119664881Y-145419700D01*
X119664881Y-145419700D02*
X119760119Y-145467319D01*
X119760119Y-145467319D02*
X119902976Y-145467319D01*
X119902976Y-145467319D02*
X119998214Y-145419700D01*
X119998214Y-145419700D02*
X120045833Y-145372080D01*
X120379167Y-144800652D02*
X120760119Y-144800652D01*
X120522024Y-144467319D02*
X120522024Y-145324461D01*
X120522024Y-145324461D02*
X120569643Y-145419700D01*
X120569643Y-145419700D02*
X120664881Y-145467319D01*
X120664881Y-145467319D02*
X120760119Y-145467319D01*
X121093453Y-145086366D02*
X121855358Y-145086366D01*
X121769641Y-152243509D02*
X121912498Y-152291128D01*
X121912498Y-152291128D02*
X121960117Y-152338747D01*
X121960117Y-152338747D02*
X122007736Y-152433985D01*
X122007736Y-152433985D02*
X122007736Y-152576842D01*
X122007736Y-152576842D02*
X121960117Y-152672080D01*
X121960117Y-152672080D02*
X121912498Y-152719700D01*
X121912498Y-152719700D02*
X121817260Y-152767319D01*
X121817260Y-152767319D02*
X121436308Y-152767319D01*
X121436308Y-152767319D02*
X121436308Y-151767319D01*
X121436308Y-151767319D02*
X121769641Y-151767319D01*
X121769641Y-151767319D02*
X121864879Y-151814938D01*
X121864879Y-151814938D02*
X121912498Y-151862557D01*
X121912498Y-151862557D02*
X121960117Y-151957795D01*
X121960117Y-151957795D02*
X121960117Y-152053033D01*
X121960117Y-152053033D02*
X121912498Y-152148271D01*
X121912498Y-152148271D02*
X121864879Y-152195890D01*
X121864879Y-152195890D02*
X121769641Y-152243509D01*
X121769641Y-152243509D02*
X121436308Y-152243509D01*
X122864879Y-152767319D02*
X122864879Y-152243509D01*
X122864879Y-152243509D02*
X122817260Y-152148271D01*
X122817260Y-152148271D02*
X122722022Y-152100652D01*
X122722022Y-152100652D02*
X122531546Y-152100652D01*
X122531546Y-152100652D02*
X122436308Y-152148271D01*
X122864879Y-152719700D02*
X122769641Y-152767319D01*
X122769641Y-152767319D02*
X122531546Y-152767319D01*
X122531546Y-152767319D02*
X122436308Y-152719700D01*
X122436308Y-152719700D02*
X122388689Y-152624461D01*
X122388689Y-152624461D02*
X122388689Y-152529223D01*
X122388689Y-152529223D02*
X122436308Y-152433985D01*
X122436308Y-152433985D02*
X122531546Y-152386366D01*
X122531546Y-152386366D02*
X122769641Y-152386366D01*
X122769641Y-152386366D02*
X122864879Y-152338747D01*
X123198213Y-152100652D02*
X123579165Y-152100652D01*
X123341070Y-151767319D02*
X123341070Y-152624461D01*
X123341070Y-152624461D02*
X123388689Y-152719700D01*
X123388689Y-152719700D02*
X123483927Y-152767319D01*
X123483927Y-152767319D02*
X123579165Y-152767319D01*
X123769642Y-152100652D02*
X124150594Y-152100652D01*
X123912499Y-151767319D02*
X123912499Y-152624461D01*
X123912499Y-152624461D02*
X123960118Y-152719700D01*
X123960118Y-152719700D02*
X124055356Y-152767319D01*
X124055356Y-152767319D02*
X124150594Y-152767319D01*
X124864880Y-152719700D02*
X124769642Y-152767319D01*
X124769642Y-152767319D02*
X124579166Y-152767319D01*
X124579166Y-152767319D02*
X124483928Y-152719700D01*
X124483928Y-152719700D02*
X124436309Y-152624461D01*
X124436309Y-152624461D02*
X124436309Y-152243509D01*
X124436309Y-152243509D02*
X124483928Y-152148271D01*
X124483928Y-152148271D02*
X124579166Y-152100652D01*
X124579166Y-152100652D02*
X124769642Y-152100652D01*
X124769642Y-152100652D02*
X124864880Y-152148271D01*
X124864880Y-152148271D02*
X124912499Y-152243509D01*
X124912499Y-152243509D02*
X124912499Y-152338747D01*
X124912499Y-152338747D02*
X124436309Y-152433985D01*
X125341071Y-152767319D02*
X125341071Y-152100652D01*
X125341071Y-152291128D02*
X125388690Y-152195890D01*
X125388690Y-152195890D02*
X125436309Y-152148271D01*
X125436309Y-152148271D02*
X125531547Y-152100652D01*
X125531547Y-152100652D02*
X125626785Y-152100652D01*
X125864881Y-152100652D02*
X126102976Y-152767319D01*
X126341071Y-152100652D02*
X126102976Y-152767319D01*
X126102976Y-152767319D02*
X126007738Y-153005414D01*
X126007738Y-153005414D02*
X125960119Y-153053033D01*
X125960119Y-153053033D02*
X125864881Y-153100652D01*
X128055357Y-152672080D02*
X128007738Y-152719700D01*
X128007738Y-152719700D02*
X127864881Y-152767319D01*
X127864881Y-152767319D02*
X127769643Y-152767319D01*
X127769643Y-152767319D02*
X127626786Y-152719700D01*
X127626786Y-152719700D02*
X127531548Y-152624461D01*
X127531548Y-152624461D02*
X127483929Y-152529223D01*
X127483929Y-152529223D02*
X127436310Y-152338747D01*
X127436310Y-152338747D02*
X127436310Y-152195890D01*
X127436310Y-152195890D02*
X127483929Y-152005414D01*
X127483929Y-152005414D02*
X127531548Y-151910176D01*
X127531548Y-151910176D02*
X127626786Y-151814938D01*
X127626786Y-151814938D02*
X127769643Y-151767319D01*
X127769643Y-151767319D02*
X127864881Y-151767319D01*
X127864881Y-151767319D02*
X128007738Y-151814938D01*
X128007738Y-151814938D02*
X128055357Y-151862557D01*
X128483929Y-152767319D02*
X128483929Y-151767319D01*
X128912500Y-152767319D02*
X128912500Y-152243509D01*
X128912500Y-152243509D02*
X128864881Y-152148271D01*
X128864881Y-152148271D02*
X128769643Y-152100652D01*
X128769643Y-152100652D02*
X128626786Y-152100652D01*
X128626786Y-152100652D02*
X128531548Y-152148271D01*
X128531548Y-152148271D02*
X128483929Y-152195890D01*
X129817262Y-152767319D02*
X129817262Y-152243509D01*
X129817262Y-152243509D02*
X129769643Y-152148271D01*
X129769643Y-152148271D02*
X129674405Y-152100652D01*
X129674405Y-152100652D02*
X129483929Y-152100652D01*
X129483929Y-152100652D02*
X129388691Y-152148271D01*
X129817262Y-152719700D02*
X129722024Y-152767319D01*
X129722024Y-152767319D02*
X129483929Y-152767319D01*
X129483929Y-152767319D02*
X129388691Y-152719700D01*
X129388691Y-152719700D02*
X129341072Y-152624461D01*
X129341072Y-152624461D02*
X129341072Y-152529223D01*
X129341072Y-152529223D02*
X129388691Y-152433985D01*
X129388691Y-152433985D02*
X129483929Y-152386366D01*
X129483929Y-152386366D02*
X129722024Y-152386366D01*
X129722024Y-152386366D02*
X129817262Y-152338747D01*
X130293453Y-152767319D02*
X130293453Y-152100652D01*
X130293453Y-152291128D02*
X130341072Y-152195890D01*
X130341072Y-152195890D02*
X130388691Y-152148271D01*
X130388691Y-152148271D02*
X130483929Y-152100652D01*
X130483929Y-152100652D02*
X130579167Y-152100652D01*
X131341072Y-152100652D02*
X131341072Y-152910176D01*
X131341072Y-152910176D02*
X131293453Y-153005414D01*
X131293453Y-153005414D02*
X131245834Y-153053033D01*
X131245834Y-153053033D02*
X131150596Y-153100652D01*
X131150596Y-153100652D02*
X131007739Y-153100652D01*
X131007739Y-153100652D02*
X130912501Y-153053033D01*
X131341072Y-152719700D02*
X131245834Y-152767319D01*
X131245834Y-152767319D02*
X131055358Y-152767319D01*
X131055358Y-152767319D02*
X130960120Y-152719700D01*
X130960120Y-152719700D02*
X130912501Y-152672080D01*
X130912501Y-152672080D02*
X130864882Y-152576842D01*
X130864882Y-152576842D02*
X130864882Y-152291128D01*
X130864882Y-152291128D02*
X130912501Y-152195890D01*
X130912501Y-152195890D02*
X130960120Y-152148271D01*
X130960120Y-152148271D02*
X131055358Y-152100652D01*
X131055358Y-152100652D02*
X131245834Y-152100652D01*
X131245834Y-152100652D02*
X131341072Y-152148271D01*
X132198215Y-152719700D02*
X132102977Y-152767319D01*
X132102977Y-152767319D02*
X131912501Y-152767319D01*
X131912501Y-152767319D02*
X131817263Y-152719700D01*
X131817263Y-152719700D02*
X131769644Y-152624461D01*
X131769644Y-152624461D02*
X131769644Y-152243509D01*
X131769644Y-152243509D02*
X131817263Y-152148271D01*
X131817263Y-152148271D02*
X131912501Y-152100652D01*
X131912501Y-152100652D02*
X132102977Y-152100652D01*
X132102977Y-152100652D02*
X132198215Y-152148271D01*
X132198215Y-152148271D02*
X132245834Y-152243509D01*
X132245834Y-152243509D02*
X132245834Y-152338747D01*
X132245834Y-152338747D02*
X131769644Y-152433985D01*
X132674406Y-152767319D02*
X132674406Y-152100652D01*
X132674406Y-152291128D02*
X132722025Y-152195890D01*
X132722025Y-152195890D02*
X132769644Y-152148271D01*
X132769644Y-152148271D02*
X132864882Y-152100652D01*
X132864882Y-152100652D02*
X132960120Y-152100652D01*
X134579168Y-152767319D02*
X134007740Y-152767319D01*
X134293454Y-152767319D02*
X134293454Y-151767319D01*
X134293454Y-151767319D02*
X134198216Y-151910176D01*
X134198216Y-151910176D02*
X134102978Y-152005414D01*
X134102978Y-152005414D02*
X134007740Y-152053033D01*
X134960121Y-152481604D02*
X135436311Y-152481604D01*
X134864883Y-152767319D02*
X135198216Y-151767319D01*
X135198216Y-151767319D02*
X135531549Y-152767319D01*
X135128095Y-145552438D02*
X135032857Y-145504819D01*
X135032857Y-145504819D02*
X134890000Y-145504819D01*
X134890000Y-145504819D02*
X134747143Y-145552438D01*
X134747143Y-145552438D02*
X134651905Y-145647676D01*
X134651905Y-145647676D02*
X134604286Y-145742914D01*
X134604286Y-145742914D02*
X134556667Y-145933390D01*
X134556667Y-145933390D02*
X134556667Y-146076247D01*
X134556667Y-146076247D02*
X134604286Y-146266723D01*
X134604286Y-146266723D02*
X134651905Y-146361961D01*
X134651905Y-146361961D02*
X134747143Y-146457200D01*
X134747143Y-146457200D02*
X134890000Y-146504819D01*
X134890000Y-146504819D02*
X134985238Y-146504819D01*
X134985238Y-146504819D02*
X135128095Y-146457200D01*
X135128095Y-146457200D02*
X135175714Y-146409580D01*
X135175714Y-146409580D02*
X135175714Y-146076247D01*
X135175714Y-146076247D02*
X134985238Y-146076247D01*
X135604286Y-146504819D02*
X135604286Y-145504819D01*
X135604286Y-145504819D02*
X136175714Y-146504819D01*
X136175714Y-146504819D02*
X136175714Y-145504819D01*
X136651905Y-146504819D02*
X136651905Y-145504819D01*
X136651905Y-145504819D02*
X136890000Y-145504819D01*
X136890000Y-145504819D02*
X137032857Y-145552438D01*
X137032857Y-145552438D02*
X137128095Y-145647676D01*
X137128095Y-145647676D02*
X137175714Y-145742914D01*
X137175714Y-145742914D02*
X137223333Y-145933390D01*
X137223333Y-145933390D02*
X137223333Y-146076247D01*
X137223333Y-146076247D02*
X137175714Y-146266723D01*
X137175714Y-146266723D02*
X137128095Y-146361961D01*
X137128095Y-146361961D02*
X137032857Y-146457200D01*
X137032857Y-146457200D02*
X136890000Y-146504819D01*
X136890000Y-146504819D02*
X136651905Y-146504819D01*
X93434819Y-121483333D02*
X94149104Y-121483333D01*
X94149104Y-121483333D02*
X94291961Y-121530952D01*
X94291961Y-121530952D02*
X94387200Y-121626190D01*
X94387200Y-121626190D02*
X94434819Y-121769047D01*
X94434819Y-121769047D02*
X94434819Y-121864285D01*
X94434819Y-121007142D02*
X93434819Y-121007142D01*
X93434819Y-121007142D02*
X93434819Y-120626190D01*
X93434819Y-120626190D02*
X93482438Y-120530952D01*
X93482438Y-120530952D02*
X93530057Y-120483333D01*
X93530057Y-120483333D02*
X93625295Y-120435714D01*
X93625295Y-120435714D02*
X93768152Y-120435714D01*
X93768152Y-120435714D02*
X93863390Y-120483333D01*
X93863390Y-120483333D02*
X93911009Y-120530952D01*
X93911009Y-120530952D02*
X93958628Y-120626190D01*
X93958628Y-120626190D02*
X93958628Y-121007142D01*
X94434819Y-119483333D02*
X94434819Y-120054761D01*
X94434819Y-119769047D02*
X93434819Y-119769047D01*
X93434819Y-119769047D02*
X93577676Y-119864285D01*
X93577676Y-119864285D02*
X93672914Y-119959523D01*
X93672914Y-119959523D02*
X93720533Y-120054761D01*
X90894819Y-118383332D02*
X90894819Y-117764285D01*
X90894819Y-117764285D02*
X91275771Y-118097618D01*
X91275771Y-118097618D02*
X91275771Y-117954761D01*
X91275771Y-117954761D02*
X91323390Y-117859523D01*
X91323390Y-117859523D02*
X91371009Y-117811904D01*
X91371009Y-117811904D02*
X91466247Y-117764285D01*
X91466247Y-117764285D02*
X91704342Y-117764285D01*
X91704342Y-117764285D02*
X91799580Y-117811904D01*
X91799580Y-117811904D02*
X91847200Y-117859523D01*
X91847200Y-117859523D02*
X91894819Y-117954761D01*
X91894819Y-117954761D02*
X91894819Y-118240475D01*
X91894819Y-118240475D02*
X91847200Y-118335713D01*
X91847200Y-118335713D02*
X91799580Y-118383332D01*
X91894819Y-122964285D02*
X91894819Y-123535713D01*
X91894819Y-123249999D02*
X90894819Y-123249999D01*
X90894819Y-123249999D02*
X91037676Y-123345237D01*
X91037676Y-123345237D02*
X91132914Y-123440475D01*
X91132914Y-123440475D02*
X91180533Y-123535713D01*
X159474819Y-121483333D02*
X160189104Y-121483333D01*
X160189104Y-121483333D02*
X160331961Y-121530952D01*
X160331961Y-121530952D02*
X160427200Y-121626190D01*
X160427200Y-121626190D02*
X160474819Y-121769047D01*
X160474819Y-121769047D02*
X160474819Y-121864285D01*
X160474819Y-121007142D02*
X159474819Y-121007142D01*
X159474819Y-121007142D02*
X159474819Y-120626190D01*
X159474819Y-120626190D02*
X159522438Y-120530952D01*
X159522438Y-120530952D02*
X159570057Y-120483333D01*
X159570057Y-120483333D02*
X159665295Y-120435714D01*
X159665295Y-120435714D02*
X159808152Y-120435714D01*
X159808152Y-120435714D02*
X159903390Y-120483333D01*
X159903390Y-120483333D02*
X159951009Y-120530952D01*
X159951009Y-120530952D02*
X159998628Y-120626190D01*
X159998628Y-120626190D02*
X159998628Y-121007142D01*
X159474819Y-120102380D02*
X159474819Y-119483333D01*
X159474819Y-119483333D02*
X159855771Y-119816666D01*
X159855771Y-119816666D02*
X159855771Y-119673809D01*
X159855771Y-119673809D02*
X159903390Y-119578571D01*
X159903390Y-119578571D02*
X159951009Y-119530952D01*
X159951009Y-119530952D02*
X160046247Y-119483333D01*
X160046247Y-119483333D02*
X160284342Y-119483333D01*
X160284342Y-119483333D02*
X160379580Y-119530952D01*
X160379580Y-119530952D02*
X160427200Y-119578571D01*
X160427200Y-119578571D02*
X160474819Y-119673809D01*
X160474819Y-119673809D02*
X160474819Y-119959523D01*
X160474819Y-119959523D02*
X160427200Y-120054761D01*
X160427200Y-120054761D02*
X160379580Y-120102380D01*
X162014819Y-118383332D02*
X162014819Y-117764285D01*
X162014819Y-117764285D02*
X162395771Y-118097618D01*
X162395771Y-118097618D02*
X162395771Y-117954761D01*
X162395771Y-117954761D02*
X162443390Y-117859523D01*
X162443390Y-117859523D02*
X162491009Y-117811904D01*
X162491009Y-117811904D02*
X162586247Y-117764285D01*
X162586247Y-117764285D02*
X162824342Y-117764285D01*
X162824342Y-117764285D02*
X162919580Y-117811904D01*
X162919580Y-117811904D02*
X162967200Y-117859523D01*
X162967200Y-117859523D02*
X163014819Y-117954761D01*
X163014819Y-117954761D02*
X163014819Y-118240475D01*
X163014819Y-118240475D02*
X162967200Y-118335713D01*
X162967200Y-118335713D02*
X162919580Y-118383332D01*
X163014819Y-122964285D02*
X163014819Y-123535713D01*
X163014819Y-123249999D02*
X162014819Y-123249999D01*
X162014819Y-123249999D02*
X162157676Y-123345237D01*
X162157676Y-123345237D02*
X162252914Y-123440475D01*
X162252914Y-123440475D02*
X162300533Y-123535713D01*
X160427200Y-128266904D02*
X160474819Y-128124047D01*
X160474819Y-128124047D02*
X160474819Y-127885952D01*
X160474819Y-127885952D02*
X160427200Y-127790714D01*
X160427200Y-127790714D02*
X160379580Y-127743095D01*
X160379580Y-127743095D02*
X160284342Y-127695476D01*
X160284342Y-127695476D02*
X160189104Y-127695476D01*
X160189104Y-127695476D02*
X160093866Y-127743095D01*
X160093866Y-127743095D02*
X160046247Y-127790714D01*
X160046247Y-127790714D02*
X159998628Y-127885952D01*
X159998628Y-127885952D02*
X159951009Y-128076428D01*
X159951009Y-128076428D02*
X159903390Y-128171666D01*
X159903390Y-128171666D02*
X159855771Y-128219285D01*
X159855771Y-128219285D02*
X159760533Y-128266904D01*
X159760533Y-128266904D02*
X159665295Y-128266904D01*
X159665295Y-128266904D02*
X159570057Y-128219285D01*
X159570057Y-128219285D02*
X159522438Y-128171666D01*
X159522438Y-128171666D02*
X159474819Y-128076428D01*
X159474819Y-128076428D02*
X159474819Y-127838333D01*
X159474819Y-127838333D02*
X159522438Y-127695476D01*
X160379580Y-126695476D02*
X160427200Y-126743095D01*
X160427200Y-126743095D02*
X160474819Y-126885952D01*
X160474819Y-126885952D02*
X160474819Y-126981190D01*
X160474819Y-126981190D02*
X160427200Y-127124047D01*
X160427200Y-127124047D02*
X160331961Y-127219285D01*
X160331961Y-127219285D02*
X160236723Y-127266904D01*
X160236723Y-127266904D02*
X160046247Y-127314523D01*
X160046247Y-127314523D02*
X159903390Y-127314523D01*
X159903390Y-127314523D02*
X159712914Y-127266904D01*
X159712914Y-127266904D02*
X159617676Y-127219285D01*
X159617676Y-127219285D02*
X159522438Y-127124047D01*
X159522438Y-127124047D02*
X159474819Y-126981190D01*
X159474819Y-126981190D02*
X159474819Y-126885952D01*
X159474819Y-126885952D02*
X159522438Y-126743095D01*
X159522438Y-126743095D02*
X159570057Y-126695476D01*
X159570057Y-126314523D02*
X159522438Y-126266904D01*
X159522438Y-126266904D02*
X159474819Y-126171666D01*
X159474819Y-126171666D02*
X159474819Y-125933571D01*
X159474819Y-125933571D02*
X159522438Y-125838333D01*
X159522438Y-125838333D02*
X159570057Y-125790714D01*
X159570057Y-125790714D02*
X159665295Y-125743095D01*
X159665295Y-125743095D02*
X159760533Y-125743095D01*
X159760533Y-125743095D02*
X159903390Y-125790714D01*
X159903390Y-125790714D02*
X160474819Y-126362142D01*
X160474819Y-126362142D02*
X160474819Y-125743095D01*
X135723333Y-141424819D02*
X135390000Y-140948628D01*
X135151905Y-141424819D02*
X135151905Y-140424819D01*
X135151905Y-140424819D02*
X135532857Y-140424819D01*
X135532857Y-140424819D02*
X135628095Y-140472438D01*
X135628095Y-140472438D02*
X135675714Y-140520057D01*
X135675714Y-140520057D02*
X135723333Y-140615295D01*
X135723333Y-140615295D02*
X135723333Y-140758152D01*
X135723333Y-140758152D02*
X135675714Y-140853390D01*
X135675714Y-140853390D02*
X135628095Y-140901009D01*
X135628095Y-140901009D02*
X135532857Y-140948628D01*
X135532857Y-140948628D02*
X135151905Y-140948628D01*
X136104286Y-140520057D02*
X136151905Y-140472438D01*
X136151905Y-140472438D02*
X136247143Y-140424819D01*
X136247143Y-140424819D02*
X136485238Y-140424819D01*
X136485238Y-140424819D02*
X136580476Y-140472438D01*
X136580476Y-140472438D02*
X136628095Y-140520057D01*
X136628095Y-140520057D02*
X136675714Y-140615295D01*
X136675714Y-140615295D02*
X136675714Y-140710533D01*
X136675714Y-140710533D02*
X136628095Y-140853390D01*
X136628095Y-140853390D02*
X136056667Y-141424819D01*
X136056667Y-141424819D02*
X136675714Y-141424819D01*
D13*
X126238095Y-128997419D02*
X126238095Y-129806942D01*
X126238095Y-129806942D02*
X126285714Y-129902180D01*
X126285714Y-129902180D02*
X126333333Y-129949800D01*
X126333333Y-129949800D02*
X126428571Y-129997419D01*
X126428571Y-129997419D02*
X126619047Y-129997419D01*
X126619047Y-129997419D02*
X126714285Y-129949800D01*
X126714285Y-129949800D02*
X126761904Y-129902180D01*
X126761904Y-129902180D02*
X126809523Y-129806942D01*
X126809523Y-129806942D02*
X126809523Y-128997419D01*
X127238095Y-129092657D02*
X127285714Y-129045038D01*
X127285714Y-129045038D02*
X127380952Y-128997419D01*
X127380952Y-128997419D02*
X127619047Y-128997419D01*
X127619047Y-128997419D02*
X127714285Y-129045038D01*
X127714285Y-129045038D02*
X127761904Y-129092657D01*
X127761904Y-129092657D02*
X127809523Y-129187895D01*
X127809523Y-129187895D02*
X127809523Y-129283133D01*
X127809523Y-129283133D02*
X127761904Y-129425990D01*
X127761904Y-129425990D02*
X127190476Y-129997419D01*
X127190476Y-129997419D02*
X127809523Y-129997419D01*
D10*
X139533333Y-141424819D02*
X139200000Y-140948628D01*
X138961905Y-141424819D02*
X138961905Y-140424819D01*
X138961905Y-140424819D02*
X139342857Y-140424819D01*
X139342857Y-140424819D02*
X139438095Y-140472438D01*
X139438095Y-140472438D02*
X139485714Y-140520057D01*
X139485714Y-140520057D02*
X139533333Y-140615295D01*
X139533333Y-140615295D02*
X139533333Y-140758152D01*
X139533333Y-140758152D02*
X139485714Y-140853390D01*
X139485714Y-140853390D02*
X139438095Y-140901009D01*
X139438095Y-140901009D02*
X139342857Y-140948628D01*
X139342857Y-140948628D02*
X138961905Y-140948628D01*
X140485714Y-141424819D02*
X139914286Y-141424819D01*
X140200000Y-141424819D02*
X140200000Y-140424819D01*
X140200000Y-140424819D02*
X140104762Y-140567676D01*
X140104762Y-140567676D02*
X140009524Y-140662914D01*
X140009524Y-140662914D02*
X139914286Y-140710533D01*
X93434819Y-134183333D02*
X94149104Y-134183333D01*
X94149104Y-134183333D02*
X94291961Y-134230952D01*
X94291961Y-134230952D02*
X94387200Y-134326190D01*
X94387200Y-134326190D02*
X94434819Y-134469047D01*
X94434819Y-134469047D02*
X94434819Y-134564285D01*
X94434819Y-133707142D02*
X93434819Y-133707142D01*
X93434819Y-133707142D02*
X93434819Y-133326190D01*
X93434819Y-133326190D02*
X93482438Y-133230952D01*
X93482438Y-133230952D02*
X93530057Y-133183333D01*
X93530057Y-133183333D02*
X93625295Y-133135714D01*
X93625295Y-133135714D02*
X93768152Y-133135714D01*
X93768152Y-133135714D02*
X93863390Y-133183333D01*
X93863390Y-133183333D02*
X93911009Y-133230952D01*
X93911009Y-133230952D02*
X93958628Y-133326190D01*
X93958628Y-133326190D02*
X93958628Y-133707142D01*
X93530057Y-132754761D02*
X93482438Y-132707142D01*
X93482438Y-132707142D02*
X93434819Y-132611904D01*
X93434819Y-132611904D02*
X93434819Y-132373809D01*
X93434819Y-132373809D02*
X93482438Y-132278571D01*
X93482438Y-132278571D02*
X93530057Y-132230952D01*
X93530057Y-132230952D02*
X93625295Y-132183333D01*
X93625295Y-132183333D02*
X93720533Y-132183333D01*
X93720533Y-132183333D02*
X93863390Y-132230952D01*
X93863390Y-132230952D02*
X94434819Y-132802380D01*
X94434819Y-132802380D02*
X94434819Y-132183333D01*
X91894819Y-130464285D02*
X91894819Y-131035713D01*
X91894819Y-130749999D02*
X90894819Y-130749999D01*
X90894819Y-130749999D02*
X91037676Y-130845237D01*
X91037676Y-130845237D02*
X91132914Y-130940475D01*
X91132914Y-130940475D02*
X91180533Y-131035713D01*
X90894819Y-136283332D02*
X90894819Y-135664285D01*
X90894819Y-135664285D02*
X91275771Y-135997618D01*
X91275771Y-135997618D02*
X91275771Y-135854761D01*
X91275771Y-135854761D02*
X91323390Y-135759523D01*
X91323390Y-135759523D02*
X91371009Y-135711904D01*
X91371009Y-135711904D02*
X91466247Y-135664285D01*
X91466247Y-135664285D02*
X91704342Y-135664285D01*
X91704342Y-135664285D02*
X91799580Y-135711904D01*
X91799580Y-135711904D02*
X91847200Y-135759523D01*
X91847200Y-135759523D02*
X91894819Y-135854761D01*
X91894819Y-135854761D02*
X91894819Y-136140475D01*
X91894819Y-136140475D02*
X91847200Y-136235713D01*
X91847200Y-136235713D02*
X91799580Y-136283332D01*
X135556666Y-85584819D02*
X135556666Y-86299104D01*
X135556666Y-86299104D02*
X135509047Y-86441961D01*
X135509047Y-86441961D02*
X135413809Y-86537200D01*
X135413809Y-86537200D02*
X135270952Y-86584819D01*
X135270952Y-86584819D02*
X135175714Y-86584819D01*
X135985238Y-85680057D02*
X136032857Y-85632438D01*
X136032857Y-85632438D02*
X136128095Y-85584819D01*
X136128095Y-85584819D02*
X136366190Y-85584819D01*
X136366190Y-85584819D02*
X136461428Y-85632438D01*
X136461428Y-85632438D02*
X136509047Y-85680057D01*
X136509047Y-85680057D02*
X136556666Y-85775295D01*
X136556666Y-85775295D02*
X136556666Y-85870533D01*
X136556666Y-85870533D02*
X136509047Y-86013390D01*
X136509047Y-86013390D02*
X135937619Y-86584819D01*
X135937619Y-86584819D02*
X136556666Y-86584819D01*
X94387200Y-128261904D02*
X94434819Y-128119047D01*
X94434819Y-128119047D02*
X94434819Y-127880952D01*
X94434819Y-127880952D02*
X94387200Y-127785714D01*
X94387200Y-127785714D02*
X94339580Y-127738095D01*
X94339580Y-127738095D02*
X94244342Y-127690476D01*
X94244342Y-127690476D02*
X94149104Y-127690476D01*
X94149104Y-127690476D02*
X94053866Y-127738095D01*
X94053866Y-127738095D02*
X94006247Y-127785714D01*
X94006247Y-127785714D02*
X93958628Y-127880952D01*
X93958628Y-127880952D02*
X93911009Y-128071428D01*
X93911009Y-128071428D02*
X93863390Y-128166666D01*
X93863390Y-128166666D02*
X93815771Y-128214285D01*
X93815771Y-128214285D02*
X93720533Y-128261904D01*
X93720533Y-128261904D02*
X93625295Y-128261904D01*
X93625295Y-128261904D02*
X93530057Y-128214285D01*
X93530057Y-128214285D02*
X93482438Y-128166666D01*
X93482438Y-128166666D02*
X93434819Y-128071428D01*
X93434819Y-128071428D02*
X93434819Y-127833333D01*
X93434819Y-127833333D02*
X93482438Y-127690476D01*
X94339580Y-126690476D02*
X94387200Y-126738095D01*
X94387200Y-126738095D02*
X94434819Y-126880952D01*
X94434819Y-126880952D02*
X94434819Y-126976190D01*
X94434819Y-126976190D02*
X94387200Y-127119047D01*
X94387200Y-127119047D02*
X94291961Y-127214285D01*
X94291961Y-127214285D02*
X94196723Y-127261904D01*
X94196723Y-127261904D02*
X94006247Y-127309523D01*
X94006247Y-127309523D02*
X93863390Y-127309523D01*
X93863390Y-127309523D02*
X93672914Y-127261904D01*
X93672914Y-127261904D02*
X93577676Y-127214285D01*
X93577676Y-127214285D02*
X93482438Y-127119047D01*
X93482438Y-127119047D02*
X93434819Y-126976190D01*
X93434819Y-126976190D02*
X93434819Y-126880952D01*
X93434819Y-126880952D02*
X93482438Y-126738095D01*
X93482438Y-126738095D02*
X93530057Y-126690476D01*
X94434819Y-125738095D02*
X94434819Y-126309523D01*
X94434819Y-126023809D02*
X93434819Y-126023809D01*
X93434819Y-126023809D02*
X93577676Y-126119047D01*
X93577676Y-126119047D02*
X93672914Y-126214285D01*
X93672914Y-126214285D02*
X93720533Y-126309523D01*
X159474819Y-134183333D02*
X160189104Y-134183333D01*
X160189104Y-134183333D02*
X160331961Y-134230952D01*
X160331961Y-134230952D02*
X160427200Y-134326190D01*
X160427200Y-134326190D02*
X160474819Y-134469047D01*
X160474819Y-134469047D02*
X160474819Y-134564285D01*
X160474819Y-133707142D02*
X159474819Y-133707142D01*
X159474819Y-133707142D02*
X159474819Y-133326190D01*
X159474819Y-133326190D02*
X159522438Y-133230952D01*
X159522438Y-133230952D02*
X159570057Y-133183333D01*
X159570057Y-133183333D02*
X159665295Y-133135714D01*
X159665295Y-133135714D02*
X159808152Y-133135714D01*
X159808152Y-133135714D02*
X159903390Y-133183333D01*
X159903390Y-133183333D02*
X159951009Y-133230952D01*
X159951009Y-133230952D02*
X159998628Y-133326190D01*
X159998628Y-133326190D02*
X159998628Y-133707142D01*
X159808152Y-132278571D02*
X160474819Y-132278571D01*
X159427200Y-132516666D02*
X160141485Y-132754761D01*
X160141485Y-132754761D02*
X160141485Y-132135714D01*
X163014819Y-130464285D02*
X163014819Y-131035713D01*
X163014819Y-130749999D02*
X162014819Y-130749999D01*
X162014819Y-130749999D02*
X162157676Y-130845237D01*
X162157676Y-130845237D02*
X162252914Y-130940475D01*
X162252914Y-130940475D02*
X162300533Y-131035713D01*
X162014819Y-136283332D02*
X162014819Y-135664285D01*
X162014819Y-135664285D02*
X162395771Y-135997618D01*
X162395771Y-135997618D02*
X162395771Y-135854761D01*
X162395771Y-135854761D02*
X162443390Y-135759523D01*
X162443390Y-135759523D02*
X162491009Y-135711904D01*
X162491009Y-135711904D02*
X162586247Y-135664285D01*
X162586247Y-135664285D02*
X162824342Y-135664285D01*
X162824342Y-135664285D02*
X162919580Y-135711904D01*
X162919580Y-135711904D02*
X162967200Y-135759523D01*
X162967200Y-135759523D02*
X163014819Y-135854761D01*
X163014819Y-135854761D02*
X163014819Y-136140475D01*
X163014819Y-136140475D02*
X162967200Y-136235713D01*
X162967200Y-136235713D02*
X162919580Y-136283332D01*
X126931009Y-125880714D02*
X126978628Y-125737857D01*
X126978628Y-125737857D02*
X127026247Y-125690238D01*
X127026247Y-125690238D02*
X127121485Y-125642619D01*
X127121485Y-125642619D02*
X127264342Y-125642619D01*
X127264342Y-125642619D02*
X127359580Y-125690238D01*
X127359580Y-125690238D02*
X127407200Y-125737857D01*
X127407200Y-125737857D02*
X127454819Y-125833095D01*
X127454819Y-125833095D02*
X127454819Y-126214047D01*
X127454819Y-126214047D02*
X126454819Y-126214047D01*
X126454819Y-126214047D02*
X126454819Y-125880714D01*
X126454819Y-125880714D02*
X126502438Y-125785476D01*
X126502438Y-125785476D02*
X126550057Y-125737857D01*
X126550057Y-125737857D02*
X126645295Y-125690238D01*
X126645295Y-125690238D02*
X126740533Y-125690238D01*
X126740533Y-125690238D02*
X126835771Y-125737857D01*
X126835771Y-125737857D02*
X126883390Y-125785476D01*
X126883390Y-125785476D02*
X126931009Y-125880714D01*
X126931009Y-125880714D02*
X126931009Y-126214047D01*
X126454819Y-125356904D02*
X126454819Y-124785476D01*
X127454819Y-125071190D02*
X126454819Y-125071190D01*
X127454819Y-123928333D02*
X127454819Y-124499761D01*
X127454819Y-124214047D02*
X126454819Y-124214047D01*
X126454819Y-124214047D02*
X126597676Y-124309285D01*
X126597676Y-124309285D02*
X126692914Y-124404523D01*
X126692914Y-124404523D02*
X126740533Y-124499761D01*
D14*
%TO.C,SW1*%
X141030000Y-96580000D02*
X139700000Y-96580000D01*
X141030000Y-95250000D02*
X141030000Y-96580000D01*
X141030000Y-93980000D02*
X141030000Y-88840000D01*
X141030000Y-93980000D02*
X138370000Y-93980000D01*
X141030000Y-88840000D02*
X138370000Y-88840000D01*
X138370000Y-93980000D02*
X138370000Y-88840000D01*
%TO.C,D1*%
X123060000Y-140970000D02*
X124280000Y-140970000D01*
X124280000Y-139500000D02*
X124280000Y-142440000D01*
X124280000Y-142440000D02*
X129720000Y-142440000D01*
X128700000Y-142440000D02*
X128700000Y-139500000D01*
X128820000Y-142440000D02*
X128820000Y-139500000D01*
X128940000Y-142440000D02*
X128940000Y-139500000D01*
X129720000Y-139500000D02*
X124280000Y-139500000D01*
X129720000Y-142440000D02*
X129720000Y-139500000D01*
X130940000Y-140970000D02*
X129720000Y-140970000D01*
%TO.C,J1*%
X116780000Y-90170000D02*
X116780000Y-138490000D01*
X116780000Y-90170000D02*
X119440000Y-90170000D01*
X116780000Y-138490000D02*
X119440000Y-138490000D01*
X118110000Y-87570000D02*
X119440000Y-87570000D01*
X119440000Y-87570000D02*
X119440000Y-88900000D01*
X119440000Y-90170000D02*
X119440000Y-138490000D01*
%TO.C,J6*%
X171390000Y-113030000D02*
X171390000Y-120710000D01*
X171390000Y-113030000D02*
X174050000Y-113030000D01*
X171390000Y-120710000D02*
X174050000Y-120710000D01*
X172720000Y-110430000D02*
X174050000Y-110430000D01*
X174050000Y-110430000D02*
X174050000Y-111760000D01*
X174050000Y-113030000D02*
X174050000Y-120710000D01*
%TO.C,J5*%
X79950000Y-135890000D02*
X79950000Y-143570000D01*
X79950000Y-135890000D02*
X82610000Y-135890000D01*
X79950000Y-143570000D02*
X82610000Y-143570000D01*
X81280000Y-133290000D02*
X82610000Y-133290000D01*
X82610000Y-133290000D02*
X82610000Y-134620000D01*
X82610000Y-135890000D02*
X82610000Y-143570000D01*
D10*
%TO.C,U1*%
X112712500Y-143412500D02*
X141112500Y-143412500D01*
X112712500Y-145512500D02*
X112712500Y-143412500D01*
X112712500Y-145812500D02*
X112712500Y-145512500D01*
X112712500Y-158712500D02*
X115012500Y-158712500D01*
X112712500Y-161212500D02*
X112712500Y-158712500D01*
X114812500Y-145812500D02*
X112712500Y-145812500D01*
X114812500Y-161212500D02*
X112712500Y-161212500D01*
X115012500Y-145812500D02*
X114712500Y-145812500D01*
X115012500Y-158712500D02*
X115012500Y-145812500D01*
X138212500Y-150212500D02*
X140712500Y-150212500D01*
X138212500Y-154012500D02*
X138212500Y-150212500D01*
X140712500Y-150212500D02*
X140712500Y-153912500D01*
X140712500Y-154012500D02*
X138212500Y-154012500D01*
X141112500Y-143412500D02*
X141112500Y-161212500D01*
X141112500Y-161212500D02*
X114812500Y-161212500D01*
D14*
%TO.C,J4*%
X79950000Y-124460000D02*
X79950000Y-132140000D01*
X79950000Y-124460000D02*
X82610000Y-124460000D01*
X79950000Y-132140000D02*
X82610000Y-132140000D01*
X81280000Y-121860000D02*
X82610000Y-121860000D01*
X82610000Y-121860000D02*
X82610000Y-123190000D01*
X82610000Y-124460000D02*
X82610000Y-132140000D01*
%TO.C,JP1*%
X90440000Y-122050000D02*
X90440000Y-119250000D01*
X91140000Y-118600000D02*
X91740000Y-118600000D01*
X91740000Y-122700000D02*
X91140000Y-122700000D01*
X92440000Y-119250000D02*
X92440000Y-122050000D01*
X90440000Y-119300000D02*
G75*
G02*
X91140000Y-118600000I700000J0D01*
G01*
X91140000Y-122700000D02*
G75*
G02*
X90440000Y-122000000I-1J699999D01*
G01*
X91740000Y-118600000D02*
G75*
G02*
X92440000Y-119300000I0J-700000D01*
G01*
X92440000Y-122000000D02*
G75*
G02*
X91740000Y-122700000I-699999J-1D01*
G01*
%TO.C,JP3*%
X161560000Y-122050000D02*
X161560000Y-119250000D01*
X162260000Y-118600000D02*
X162860000Y-118600000D01*
X162860000Y-122700000D02*
X162260000Y-122700000D01*
X163560000Y-119250000D02*
X163560000Y-122050000D01*
X161560000Y-119300000D02*
G75*
G02*
X162260000Y-118600000I700000J0D01*
G01*
X162260000Y-122700000D02*
G75*
G02*
X161560000Y-122000000I-1J699999D01*
G01*
X162860000Y-118600000D02*
G75*
G02*
X163560000Y-119300000I0J-700000D01*
G01*
X163560000Y-122000000D02*
G75*
G02*
X162860000Y-122700000I-699999J-1D01*
G01*
%TO.C,J7*%
X171390000Y-124460000D02*
X171390000Y-132140000D01*
X171390000Y-124460000D02*
X174050000Y-124460000D01*
X171390000Y-132140000D02*
X174050000Y-132140000D01*
X172720000Y-121860000D02*
X174050000Y-121860000D01*
X174050000Y-121860000D02*
X174050000Y-123190000D01*
X174050000Y-124460000D02*
X174050000Y-132140000D01*
%TO.C,SC2*%
X161230000Y-127005000D02*
X161230000Y-124405000D01*
X163890000Y-124405000D02*
X161230000Y-124405000D01*
X163890000Y-127005000D02*
X161230000Y-127005000D01*
X163890000Y-127005000D02*
X163890000Y-124405000D01*
X163890000Y-128275000D02*
X163890000Y-129605000D01*
X163890000Y-129605000D02*
X162560000Y-129605000D01*
%TO.C,R2*%
X135635276Y-141717500D02*
X136144724Y-141717500D01*
X135635276Y-142762500D02*
X136144724Y-142762500D01*
D13*
%TO.C,U2*%
X124460000Y-135382000D02*
X123952000Y-134620000D01*
X124460000Y-135382000D02*
X124460000Y-133350000D01*
X124460000Y-135382000D02*
X124968000Y-134620000D01*
X126238000Y-133858000D02*
X127762000Y-133858000D01*
X126492000Y-133604000D02*
X127508000Y-133604000D01*
X126746000Y-133350000D02*
X127254000Y-133350000D01*
X127000000Y-133858000D02*
X127000000Y-134366000D01*
X127000000Y-135382000D02*
X127000000Y-134366000D01*
X129540000Y-133350000D02*
X129032000Y-134112000D01*
X129540000Y-133350000D02*
X130048000Y-134112000D01*
X129540000Y-135382000D02*
X129540000Y-133350000D01*
X121500000Y-127850000D02*
X132500000Y-127850000D01*
X132500000Y-138850000D01*
X121500000Y-138850000D01*
X121500000Y-127850000D01*
D14*
%TO.C,R1*%
X139445276Y-141717500D02*
X139954724Y-141717500D01*
X139445276Y-142762500D02*
X139954724Y-142762500D01*
%TO.C,JP2*%
X90440000Y-134750000D02*
X90440000Y-131950000D01*
X91140000Y-131300000D02*
X91740000Y-131300000D01*
X91740000Y-135400000D02*
X91140000Y-135400000D01*
X92440000Y-131950000D02*
X92440000Y-134750000D01*
X90440000Y-132000000D02*
G75*
G02*
X91140000Y-131300000I699999J1D01*
G01*
X91140000Y-135400000D02*
G75*
G02*
X90440000Y-134700000I0J700000D01*
G01*
X91740000Y-131300000D02*
G75*
G02*
X92440000Y-132000000I1J-699999D01*
G01*
X92440000Y-134700000D02*
G75*
G02*
X91740000Y-135400000I-700000J0D01*
G01*
%TO.C,J3*%
X79950000Y-113030000D02*
X79950000Y-120710000D01*
X79950000Y-113030000D02*
X82610000Y-113030000D01*
X79950000Y-120710000D02*
X82610000Y-120710000D01*
X81280000Y-110430000D02*
X82610000Y-110430000D01*
X82610000Y-110430000D02*
X82610000Y-111760000D01*
X82610000Y-113030000D02*
X82610000Y-120710000D01*
%TO.C,J2*%
X134560000Y-90170000D02*
X134560000Y-138490000D01*
X134560000Y-90170000D02*
X137220000Y-90170000D01*
X134560000Y-138490000D02*
X137220000Y-138490000D01*
X135890000Y-87570000D02*
X137220000Y-87570000D01*
X137220000Y-87570000D02*
X137220000Y-88900000D01*
X137220000Y-90170000D02*
X137220000Y-138490000D01*
%TO.C,SC1*%
X90110000Y-127000000D02*
X90110000Y-124400000D01*
X92770000Y-124400000D02*
X90110000Y-124400000D01*
X92770000Y-127000000D02*
X90110000Y-127000000D01*
X92770000Y-127000000D02*
X92770000Y-124400000D01*
X92770000Y-128270000D02*
X92770000Y-129600000D01*
X92770000Y-129600000D02*
X91440000Y-129600000D01*
%TO.C,J8*%
X171390000Y-135890000D02*
X171390000Y-143570000D01*
X171390000Y-135890000D02*
X174050000Y-135890000D01*
X171390000Y-143570000D02*
X174050000Y-143570000D01*
X172720000Y-133290000D02*
X174050000Y-133290000D01*
X174050000Y-133290000D02*
X174050000Y-134620000D01*
X174050000Y-135890000D02*
X174050000Y-143570000D01*
%TO.C,JP4*%
X163560000Y-131950000D02*
X163560000Y-134750000D01*
X162860000Y-135400000D02*
X162260000Y-135400000D01*
X162260000Y-131300000D02*
X162860000Y-131300000D01*
X161560000Y-134750000D02*
X161560000Y-131950000D01*
X163560000Y-134700000D02*
G75*
G02*
X162860000Y-135400000I-700000J0D01*
G01*
X162860000Y-131300000D02*
G75*
G02*
X163560000Y-132000000I1J-699999D01*
G01*
X162260000Y-135400000D02*
G75*
G02*
X161560000Y-134700000I0J700000D01*
G01*
X161560000Y-132000000D02*
G75*
G02*
X162260000Y-131300000I699999J1D01*
G01*
%TD*%
M02*
